<?xml version="1.0" encoding="UTF-8"?>
<svg width="850px" height="473px" viewBox="0 0 850 473" version="1.1" xmlns="http://www.w3.org/2000/svg" xmlns:xlink="http://www.w3.org/1999/xlink">
    <!-- Generator: Sketch 53.2 (72643) - https://sketchapp.com -->
    <title>migration-overview</title>
    <desc>Created with Sketch.</desc>
    <defs>
        <rect id="path-1" x="0" y="7" width="76" height="37" rx="3"></rect>
        <mask id="mask-2" maskContentUnits="userSpaceOnUse" maskUnits="objectBoundingBox" x="0" y="0" width="76" height="37" fill="white">
            <use xlink:href="#path-1"></use>
        </mask>
        <rect id="path-3" x="69" y="7" width="75" height="37" rx="3"></rect>
        <mask id="mask-4" maskContentUnits="userSpaceOnUse" maskUnits="objectBoundingBox" x="0" y="0" width="75" height="37" fill="white">
            <use xlink:href="#path-3"></use>
        </mask>
        <rect id="path-5" x="0" y="7" width="76" height="37" rx="3"></rect>
        <mask id="mask-6" maskContentUnits="userSpaceOnUse" maskUnits="objectBoundingBox" x="0" y="0" width="76" height="37" fill="white">
            <use xlink:href="#path-5"></use>
        </mask>
        <rect id="path-7" x="69" y="7" width="75" height="37" rx="3"></rect>
        <mask id="mask-8" maskContentUnits="userSpaceOnUse" maskUnits="objectBoundingBox" x="0" y="0" width="75" height="37" fill="white">
            <use xlink:href="#path-7"></use>
        </mask>
        <rect id="path-9" x="0" y="7" width="76" height="37" rx="3"></rect>
        <mask id="mask-10" maskContentUnits="userSpaceOnUse" maskUnits="objectBoundingBox" x="0" y="0" width="76" height="37" fill="white">
            <use xlink:href="#path-9"></use>
        </mask>
        <rect id="path-11" x="69" y="7" width="75" height="37" rx="3"></rect>
        <mask id="mask-12" maskContentUnits="userSpaceOnUse" maskUnits="objectBoundingBox" x="0" y="0" width="75" height="37" fill="white">
            <use xlink:href="#path-11"></use>
        </mask>
        <rect id="path-13" x="0" y="7" width="76" height="37" rx="3"></rect>
        <mask id="mask-14" maskContentUnits="userSpaceOnUse" maskUnits="objectBoundingBox" x="0" y="0" width="76" height="37" fill="white">
            <use xlink:href="#path-13"></use>
        </mask>
        <rect id="path-15" x="69" y="7" width="75" height="37" rx="3"></rect>
        <mask id="mask-16" maskContentUnits="userSpaceOnUse" maskUnits="objectBoundingBox" x="0" y="0" width="75" height="37" fill="white">
            <use xlink:href="#path-15"></use>
        </mask>
    </defs>
    <g id="migration-overview" stroke="none" stroke-width="1" fill="none" fill-rule="evenodd">
        <rect fill="#FFFFFF" x="0" y="0" width="850" height="473"></rect>
        <rect id="Rectangle" stroke="#CCCCCC" fill="#F5F5F5" x="334.5" y="10.5" width="186" height="454" rx="6"></rect>
        <g id="icons8-gears" transform="translate(426.538505, 132.094642) rotate(-11.000000) translate(-426.538505, -132.094642) translate(398.538505, 116.094642)" fill="#000000" fill-rule="nonzero">
            <path d="M11.3450152,0.604349994 L9.9840519,3.86311753 C8.40701916,4.32596475 6.9871278,5.11711024 5.80575621,6.16928055 L2.19429412,5.67145086 L0.412415623,8.62613802 L2.67413889,11.3843851 C2.49454793,12.1270934 2.34863028,12.888638 2.34863028,13.6932389 C2.34863028,14.4978398 2.49454793,15.2593851 2.67413889,16.0047842 L0.412415623,18.7603398 L2.19429412,21.7150269 L5.80575621,21.2171972 C6.9871278,22.2720583 8.40701916,23.060513 9.9840519,23.5233602 L11.3450152,26.7821278 L14.903161,26.7821278 L16.2641236,23.5233602 C17.8411563,23.060513 19.2610477,22.2693675 20.4424192,21.2171972 L24.0538813,21.7150269 L25.8329539,18.7603398 L23.5740366,16.0020934 C23.7536275,15.2593851 23.8995452,14.4978398 23.8995452,13.6932389 C23.8995452,12.888638 23.7536275,12.1270934 23.5740366,11.3816936 L25.8329539,8.62613802 L24.0538813,5.67145086 L20.4424192,6.16928055 C19.2610477,5.11441944 17.8411563,4.32596475 16.2641236,3.86311753 L14.903161,0.604349994 L11.3450152,0.604349994 Z M12.3159284,1.98212777 L13.932247,1.98212777 L15.1725474,4.95834339 L15.5205049,5.04714531 C17.1452413,5.45886388 18.5960001,6.27153784 19.7436984,7.37752691 L19.9962478,7.62240555 L23.2962316,7.16763142 L24.101585,8.50773524 L22.036289,11.0264852 L22.1288904,11.3601658 C22.3421547,12.1109472 22.4628175,12.888638 22.4628175,13.6932389 C22.4628175,14.4978398 22.3421547,15.2755306 22.1288904,16.026312 L22.036289,16.3599925 L24.101585,18.8787425 L23.2962316,20.2188464 L19.9962478,19.7640722 L19.7436984,20.0089509 C18.5960001,21.1149406 17.1452413,21.9276139 15.5205049,22.3393325 L15.1725474,22.4281351 L13.932247,25.40435 L12.3159284,25.40435 L11.0756287,22.4281351 L10.7276712,22.3393325 C9.10293412,21.9276139 7.6521761,21.1149406 6.5044771,20.0089509 L6.25192767,19.7640722 L2.95194383,20.2188464 L2.14659045,18.8787425 L4.21188646,16.3599925 L4.11647912,16.026312 C3.90602079,15.2755306 3.78535794,14.4978398 3.78535794,13.6932389 C3.78535794,12.888638 3.90602079,12.1109472 4.11647912,11.3601658 L4.21188646,11.0264852 L2.14659045,8.50773524 L2.95194383,7.16763142 L6.25192767,7.62240555 L6.5044771,7.37752691 C7.6521761,6.27153784 9.10293412,5.45886388 10.7276712,5.04714531 L11.0756287,4.95834339 L12.3159284,1.98212777 Z M41.0601674,5.01737202 L39.6992042,8.27613955 C38.1221714,8.73898677 36.7022801,9.53013226 35.5209085,10.5823026 L31.9094464,10.0844729 L30.1303738,13.03916 L32.3892911,15.7974071 C32.2097002,16.5401154 32.0637825,17.30166 32.0637825,18.1062609 C32.0637825,18.9108618 32.2097002,19.6724071 32.3892911,20.4178062 L30.1303738,23.1733618 L31.9094464,26.1280489 L35.5209085,25.6302192 C36.7022801,26.6850804 38.1221714,27.473535 39.6992042,27.9363823 L41.0601674,31.1951498 L44.6183133,31.1951498 L45.9792758,27.9363823 C47.5563086,27.473535 48.9761999,26.6823896 50.1575715,25.6302192 L53.7690336,26.1280489 L55.5481062,23.1733618 L53.2891888,20.4151154 C53.4687798,19.6724071 53.6146974,18.9108618 53.6146974,18.1062609 C53.6146974,17.30166 53.4687798,16.5401154 53.2891888,15.7947156 L55.5481062,13.03916 L53.7690336,10.0844729 L50.1575715,10.5823026 C48.9761999,9.52744146 47.5563086,8.73898677 45.9792758,8.27613955 L44.6183133,5.01737202 L41.0601674,5.01737202 Z M42.0310807,6.3951498 L43.6473993,6.3951498 L44.8876997,9.37136542 L45.2356572,9.46016733 C46.8603936,9.87188591 48.3111523,10.6845599 49.4588506,11.7905489 L49.7114,12.0354276 L53.0113839,11.5806534 L53.8167373,12.9207573 L51.7514413,15.4395073 L51.8440427,15.7731878 C52.0573069,16.5239692 52.1779698,17.30166 52.1779698,18.1062609 C52.1779698,18.9108618 52.0573069,19.6885526 51.8440427,20.439334 L51.7514413,20.7730146 L53.8167373,23.2917646 L53.0113839,24.6318684 L49.7114,24.1770942 L49.4588506,24.4219729 C48.3111523,25.5279626 46.8603936,26.3406359 45.2356572,26.7523545 L44.8876997,26.8411571 L43.6473993,29.817372 L42.0310807,29.817372 L40.790781,26.8411571 L40.4428235,26.7523545 C38.8180864,26.3406359 37.3673284,25.5279626 36.2196294,24.4219729 L35.9670799,24.1770942 L32.6670961,24.6318684 L31.8617427,23.2917646 L33.9270387,20.7730146 L33.8344373,20.439334 C33.6211731,19.6885526 33.5005102,18.9108618 33.5005102,18.1062609 C33.5005102,17.30166 33.6211731,16.5239692 33.8344373,15.7731878 L33.9270387,15.4395073 L31.8617427,12.9207573 L32.6670961,11.5806534 L35.9670799,12.0354276 L36.2196294,11.7905489 C37.3673284,10.6845599 38.8180864,9.87188591 40.4428235,9.46016733 L40.790781,9.37136542 L42.0310807,6.3951498 Z M13.1240877,9.55990555 C10.752926,9.55990555 8.81390475,11.4193675 8.81390475,13.6932389 C8.81390475,15.9671102 10.752926,17.8265722 13.1240877,17.8265722 C15.4952494,17.8265722 17.4342707,15.9671102 17.4342707,13.6932389 C17.4342707,11.4193675 15.4952494,9.55990555 13.1240877,9.55990555 Z M13.1240877,10.9376833 C14.7207634,10.9376833 15.997543,12.1620759 15.997543,13.6932389 C15.997543,15.2244019 14.7207634,16.4487944 13.1240877,16.4487944 C11.5274121,16.4487944 10.2506324,15.2244019 10.2506324,13.6932389 C10.2506324,12.1620759 11.5274121,10.9376833 13.1240877,10.9376833 Z M42.83924,13.9729276 C40.4680783,13.9729276 38.529057,15.8323896 38.529057,18.1062609 C38.529057,20.3801323 40.4680783,22.2395942 42.83924,22.2395942 C45.2104017,22.2395942 47.149423,20.3801323 47.149423,18.1062609 C47.149423,15.8323896 45.2104017,13.9729276 42.83924,13.9729276 Z M42.83924,15.3507054 C44.4359157,15.3507054 45.7126953,16.5750979 45.7126953,18.1062609 C45.7126953,19.6374239 44.4359157,20.8618165 42.83924,20.8618165 C41.2425643,20.8618165 39.9657847,19.6374239 39.9657847,18.1062609 C39.9657847,16.5750979 41.2425643,15.3507054 42.83924,15.3507054 Z" id="Shape"></path>
        </g>
        <path d="M143,135.5 L384,135.5" id="Line-4" stroke="#D0021B" stroke-width="2" stroke-linecap="square" stroke-dasharray="2,5"></path>
        <path id="Path-3" d="M691.710271,135.548708 L681.259739,129.670284 L680.388163,129.180022 L681.368686,127.436871 L682.240261,127.927133 L694.240261,134.677133 L695.789729,135.548708 L694.240261,136.420284 L682.240261,143.170284 L681.368686,143.660545 L680.388163,141.917394 L681.259739,141.427133 L691.710271,135.548708 Z M388.044263,136.705812 L387.045243,136.750075 L386.956717,134.752035 L387.955737,134.707772 C388.735545,134.673222 389.49769,134.75888 390.246109,134.959387 L391.212045,135.218168 L390.694482,137.15004 L389.728546,136.891259 C389.17556,136.743109 388.617661,136.680407 388.044263,136.705812 Z M393.591138,139.244565 L392.85033,138.57285 L394.193761,137.091232 L394.93457,137.762948 C395.407152,138.191453 395.890792,138.666885 396.413146,139.211789 L397.105159,139.933675 L395.661387,141.317699 L394.969375,140.595813 C394.477303,140.0825 394.026171,139.639024 393.591138,139.244565 Z M398.318068,144.27601 L397.641637,143.539504 L399.114649,142.186642 L399.79108,142.923148 C400.279635,143.455093 400.717002,143.915816 401.141963,144.343095 L401.847143,145.052123 L400.429087,146.462484 L399.723907,145.753455 C399.27842,145.305538 398.823343,144.82616 398.318068,144.27601 Z M403.812486,149.102804 L402.960029,148.580007 L404.005622,146.875092 L404.85808,147.397889 C405.400862,147.730767 405.945787,148.01189 406.497793,148.241412 L407.421156,148.625342 L406.653295,150.472066 L405.729933,150.088136 C405.07908,149.817514 404.44176,149.488726 403.812486,149.102804 Z M410.997311,150.994412 L409.997432,151.00999 L409.966276,149.010233 L410.966155,148.994655 C411.647996,148.984032 412.296301,148.957604 412.912706,148.915607 L413.910393,148.847631 L414.046343,150.843005 L413.048656,150.910981 C412.396631,150.955405 411.713438,150.983255 410.997311,150.994412 Z M418.196404,150.045904 L417.238818,150.334051 L416.662524,148.418878 L417.620111,148.130731 C418.247136,147.942053 418.821678,147.723024 419.35119,147.473105 L420.255524,147.046278 L421.109178,148.854944 L420.204845,149.281771 C419.584139,149.574732 418.916899,149.8291 418.196404,150.045904 Z M424.491047,145.890206 L423.857255,146.663709 L422.310249,145.396125 L422.944041,144.622621 C423.310409,144.175492 423.670456,143.680764 424.067513,143.08677 L424.62324,142.255405 L426.285969,143.36686 L425.730242,144.198225 C425.299692,144.842324 424.902748,145.387752 424.491047,145.890206 Z M428.176683,139.548343 L427.881832,140.503887 L425.970745,139.914184 L426.265597,138.958641 C426.450531,138.359312 426.550384,137.793024 426.576104,137.238609 L426.622445,136.239683 L428.620296,136.332366 L428.573955,137.331292 C428.540357,138.055539 428.411071,138.788748 428.176683,139.548343 Z M427.49543,132.095774 L427.801633,133.04774 L425.897701,133.660147 L425.591498,132.708181 C425.340304,131.927236 425.170651,131.308735 425.044352,130.661398 L424.852856,129.679904 L426.815843,129.296913 L427.007339,130.278407 C427.116063,130.835665 427.266379,131.38367 427.49543,132.095774 Z M427.226963,125.748714 L426.959236,126.712209 L425.032246,126.176754 L425.299974,125.213259 C425.479415,124.567486 425.712069,123.900499 426.001015,123.208017 L426.386097,122.285135 L428.231862,123.0553 L427.846779,123.978182 C427.58914,124.595635 427.383763,125.184423 427.226963,125.748714 Z M430.394633,120.160012 L429.688691,120.868282 L428.272152,119.456398 L428.978094,118.748128 C429.478221,118.246352 430.018975,117.776979 430.595546,117.343446 L431.39481,116.742467 L432.596769,118.340995 L431.797505,118.941975 C431.296254,119.318873 430.827258,119.725961 430.394633,120.160012 Z M435.979309,116.772644 L435.029678,117.086012 L434.402941,115.186748 L435.352573,114.87338 C436.023142,114.6521 436.709038,114.471471 437.405076,114.33311 L438.385885,114.13814 L438.775825,116.099758 L437.795016,116.294728 C437.179122,116.417158 436.572305,116.576962 435.979309,116.772644 Z M442.44607,116.085841 L441.451215,115.98453 L441.653838,113.99482 L442.648693,114.096132 C443.34213,114.166748 444.039339,114.275986 444.731457,114.423069 L445.709614,114.630939 L445.293875,116.587252 L444.315718,116.379382 C443.694003,116.247261 443.067937,116.149169 442.44607,116.085841 Z M448.754621,117.987205 L447.874132,117.513138 L448.822267,115.752161 L449.702755,116.226228 C450.33704,116.567735 450.941321,116.945155 451.5107,117.357184 L452.320831,117.943433 L451.148333,119.563695 L450.338202,118.977446 C449.841459,118.61798 449.312158,118.287391 448.754621,117.987205 Z M453.497171,122.364783 L452.98279,121.507222 L454.697913,120.478459 L455.212294,121.336021 C455.501764,121.818616 455.758491,122.320636 455.981168,122.841397 C456.034287,122.965623 456.088053,123.088843 456.142468,123.21106 L456.549206,124.124605 L454.722117,124.938081 L454.315379,124.024537 C454.256939,123.893279 454.199223,123.761008 454.142231,123.627725 C453.955414,123.190828 453.740095,122.769779 453.497171,122.364783 Z M456.905134,128.550888 L456.315212,127.743427 L457.930133,126.563584 L458.520055,127.371044 C458.899915,127.890981 459.298351,128.382189 459.71537,128.844808 L460.384922,129.587572 L458.899393,130.926677 L458.22984,130.183912 C457.766635,129.670058 457.325064,129.125671 456.905134,128.550888 Z M462.303734,133.583677 L461.451142,133.0611 L462.496296,131.355916 L463.348888,131.878493 C463.882038,132.205275 464.43584,132.50215 465.010477,132.76917 L465.917351,133.190573 L465.074545,135.00432 L464.167672,134.582918 C463.523771,134.283712 462.902398,133.950615 462.303734,133.583677 Z M469.166693,136.146659 L468.182959,135.967026 L468.542225,133.999559 L469.525959,134.179192 C470.140813,134.291466 470.773375,134.3791 471.423693,134.442027 L472.419044,134.538339 L472.226419,136.529042 L471.231068,136.432729 C470.52547,136.364454 469.837329,136.26912 469.166693,136.146659 Z M476.367286,136.548708 L475.367286,136.548708 L475.367286,134.548708 L476.367286,134.548708 L478.367286,134.548708 L479.367286,134.548708 L479.367286,136.548708 L478.367286,136.548708 L476.367286,136.548708 Z M483.367286,136.548708 L482.367286,136.548708 L482.367286,134.548708 L483.367286,134.548708 L485.367286,134.548708 L486.367286,134.548708 L486.367286,136.548708 L485.367286,136.548708 L483.367286,136.548708 Z M490.367286,136.548708 L489.367286,136.548708 L489.367286,134.548708 L490.367286,134.548708 L492.367286,134.548708 L493.367286,134.548708 L493.367286,136.548708 L492.367286,136.548708 L490.367286,136.548708 Z M497.367286,136.548708 L496.367286,136.548708 L496.367286,134.548708 L497.367286,134.548708 L499.367286,134.548708 L500.367286,134.548708 L500.367286,136.548708 L499.367286,136.548708 L497.367286,136.548708 Z M504.367286,136.548708 L503.367286,136.548708 L503.367286,134.548708 L504.367286,134.548708 L506.367286,134.548708 L507.367286,134.548708 L507.367286,136.548708 L506.367286,136.548708 L504.367286,136.548708 Z M511.367286,136.548708 L510.367286,136.548708 L510.367286,134.548708 L511.367286,134.548708 L513.367286,134.548708 L514.367286,134.548708 L514.367286,136.548708 L513.367286,136.548708 L511.367286,136.548708 Z M518.367286,136.548708 L517.367286,136.548708 L517.367286,134.548708 L518.367286,134.548708 L520.367286,134.548708 L521.367286,134.548708 L521.367286,136.548708 L520.367286,136.548708 L518.367286,136.548708 Z M525.367286,136.548708 L524.367286,136.548708 L524.367286,134.548708 L525.367286,134.548708 L527.367286,134.548708 L528.367286,134.548708 L528.367286,136.548708 L527.367286,136.548708 L525.367286,136.548708 Z M532.367286,136.548708 L531.367286,136.548708 L531.367286,134.548708 L532.367286,134.548708 L534.367286,134.548708 L535.367286,134.548708 L535.367286,136.548708 L534.367286,136.548708 L532.367286,136.548708 Z M539.367286,136.548708 L538.367286,136.548708 L538.367286,134.548708 L539.367286,134.548708 L541.367286,134.548708 L542.367286,134.548708 L542.367286,136.548708 L541.367286,136.548708 L539.367286,136.548708 Z M546.367286,136.548708 L545.367286,136.548708 L545.367286,134.548708 L546.367286,134.548708 L548.367286,134.548708 L549.367286,134.548708 L549.367286,136.548708 L548.367286,136.548708 L546.367286,136.548708 Z M553.367286,136.548708 L552.367286,136.548708 L552.367286,134.548708 L553.367286,134.548708 L555.367286,134.548708 L556.367286,134.548708 L556.367286,136.548708 L555.367286,136.548708 L553.367286,136.548708 Z M560.367286,136.548708 L559.367286,136.548708 L559.367286,134.548708 L560.367286,134.548708 L562.367286,134.548708 L563.367286,134.548708 L563.367286,136.548708 L562.367286,136.548708 L560.367286,136.548708 Z M567.367286,136.548708 L566.367286,136.548708 L566.367286,134.548708 L567.367286,134.548708 L569.367286,134.548708 L570.367286,134.548708 L570.367286,136.548708 L569.367286,136.548708 L567.367286,136.548708 Z M574.367286,136.548708 L573.367286,136.548708 L573.367286,134.548708 L574.367286,134.548708 L576.367286,134.548708 L577.367286,134.548708 L577.367286,136.548708 L576.367286,136.548708 L574.367286,136.548708 Z M581.367286,136.548708 L580.367286,136.548708 L580.367286,134.548708 L581.367286,134.548708 L583.367286,134.548708 L584.367286,134.548708 L584.367286,136.548708 L583.367286,136.548708 L581.367286,136.548708 Z M588.367286,136.548708 L587.367286,136.548708 L587.367286,134.548708 L588.367286,134.548708 L590.367286,134.548708 L591.367286,134.548708 L591.367286,136.548708 L590.367286,136.548708 L588.367286,136.548708 Z M595.367286,136.548708 L594.367286,136.548708 L594.367286,134.548708 L595.367286,134.548708 L597.367286,134.548708 L598.367286,134.548708 L598.367286,136.548708 L597.367286,136.548708 L595.367286,136.548708 Z M602.367286,136.548708 L601.367286,136.548708 L601.367286,134.548708 L602.367286,134.548708 L604.367286,134.548708 L605.367286,134.548708 L605.367286,136.548708 L604.367286,136.548708 L602.367286,136.548708 Z M609.367286,136.548708 L608.367286,136.548708 L608.367286,134.548708 L609.367286,134.548708 L611.367286,134.548708 L612.367286,134.548708 L612.367286,136.548708 L611.367286,136.548708 L609.367286,136.548708 Z M616.367286,136.548708 L615.367286,136.548708 L615.367286,134.548708 L616.367286,134.548708 L618.367286,134.548708 L619.367286,134.548708 L619.367286,136.548708 L618.367286,136.548708 L616.367286,136.548708 Z M623.367286,136.548708 L622.367286,136.548708 L622.367286,134.548708 L623.367286,134.548708 L625.367286,134.548708 L626.367286,134.548708 L626.367286,136.548708 L625.367286,136.548708 L623.367286,136.548708 Z M630.367286,136.548708 L629.367286,136.548708 L629.367286,134.548708 L630.367286,134.548708 L632.367286,134.548708 L633.367286,134.548708 L633.367286,136.548708 L632.367286,136.548708 L630.367286,136.548708 Z M637.367286,136.548708 L636.367286,136.548708 L636.367286,134.548708 L637.367286,134.548708 L639.367286,134.548708 L640.367286,134.548708 L640.367286,136.548708 L639.367286,136.548708 L637.367286,136.548708 Z M644.367286,136.548708 L643.367286,136.548708 L643.367286,134.548708 L644.367286,134.548708 L646.367286,134.548708 L647.367286,134.548708 L647.367286,136.548708 L646.367286,136.548708 L644.367286,136.548708 Z M651.367286,136.548708 L650.367286,136.548708 L650.367286,134.548708 L651.367286,134.548708 L653.367286,134.548708 L654.367286,134.548708 L654.367286,136.548708 L653.367286,136.548708 L651.367286,136.548708 Z M658.367286,136.548708 L657.367286,136.548708 L657.367286,134.548708 L658.367286,134.548708 L660.367286,134.548708 L661.367286,134.548708 L661.367286,136.548708 L660.367286,136.548708 L658.367286,136.548708 Z M665.367286,136.548708 L664.367286,136.548708 L664.367286,134.548708 L665.367286,134.548708 L667.367286,134.548708 L668.367286,134.548708 L668.367286,136.548708 L667.367286,136.548708 L665.367286,136.548708 Z M672.367286,136.548708 L671.367286,136.548708 L671.367286,134.548708 L672.367286,134.548708 L674.367286,134.548708 L675.367286,134.548708 L675.367286,136.548708 L674.367286,136.548708 L672.367286,136.548708 Z M679.367286,136.548708 L678.367286,136.548708 L678.367286,134.548708 L679.367286,134.548708 L681.367286,134.548708 L682.367286,134.548708 L682.367286,136.548708 L681.367286,136.548708 L679.367286,136.548708 Z M686.367286,136.548708 L685.367286,136.548708 L685.367286,134.548708 L686.367286,134.548708 L688.367286,134.548708 L689.367286,134.548708 L689.367286,136.548708 L688.367286,136.548708 L686.367286,136.548708 Z" fill="#D0021B" fill-rule="nonzero"></path>
        <text id="EAV-table-data,-JSON" font-family="Helvetica" font-size="13" font-weight="normal" fill="#D0021B">
            <tspan x="185.188721" y="126">EAV table data, JSON</tspan>
        </text>
        <text id="&lt;HTML&gt;" font-family="Helvetica" font-size="13" font-weight="normal" fill="#D0021B">
            <tspan x="569.214111" y="126">&lt;HTML&gt;</tspan>
        </text>
        <g id="Group" transform="translate(700.000000, 110.000000)">
            <use id="Rectangle" stroke="#D0021B" mask="url(#mask-2)" stroke-width="4" fill="#F7E9E9" stroke-dasharray="4" transform="translate(38.000000, 25.500000) scale(-1, 1) translate(-38.000000, -25.500000) " xlink:href="#path-1"></use>
            <path d="M143,45 C143,48.3137085 140.313708,51 137,51 L74,51 C70.6862915,51 68,48.3137085 68,45 L68,6 C68,2.6862915 70.6862915,6.08718376e-16 74,0 L74,0 L137,0 C140.313708,-6.08718376e-16 143,2.6862915 143,6" id="Path" stroke="#000000" stroke-width="2" transform="translate(105.500000, 25.500000) scale(-1, 1) translate(-105.500000, -25.500000) "></path>
            <text id="content" font-family="Helvetica" font-size="13" font-weight="normal" fill="#D0021B">
                <tspan x="15.6782227" y="30">content</tspan>
            </text>
            <text id="Heading" font-family="Helvetica" font-size="13" font-weight="normal" fill="#000000">
                <tspan x="83.2868652" y="29">Heading</tspan>
            </text>
        </g>
        <g id="Group-3" transform="translate(16.000000, 110.000000)">
            <use id="Rectangle" stroke="#D0021B" mask="url(#mask-4)" stroke-width="4" fill="#F7E9E9" stroke-dasharray="4" xlink:href="#path-3"></use>
            <path d="M75,45 C75,48.3137085 72.3137085,51 69,51 L6,51 C2.6862915,51 4.05812251e-16,48.3137085 0,45 L0,6 C-4.05812251e-16,2.6862915 2.6862915,6.08718376e-16 6,0 L6,0 L69,0 C72.3137085,-6.08718376e-16 75,2.6862915 75,6" id="Path" stroke="#000000" stroke-width="2"></path>
            <text id="content" font-family="Helvetica" font-size="13" font-weight="normal" fill="#D0021B">
                <tspan x="85.6782227" y="30">content</tspan>
            </text>
            <text id="Heading" font-family="Helvetica" font-size="13" font-weight="normal" fill="#000000">
                <tspan x="15" y="29">Heading</tspan>
            </text>
        </g>
        <text id="Heading.php" font-family="Helvetica-Bold, Helvetica" font-size="13" font-weight="bold" fill="#000000">
            <tspan x="388.141357" y="103">Heading.php</tspan>
        </text>
        <g id="icons8-gears" transform="translate(426.538505, 231.094642) rotate(-11.000000) translate(-426.538505, -231.094642) translate(398.538505, 215.094642)" fill="#000000" fill-rule="nonzero">
            <path d="M11.3450152,0.604349994 L9.9840519,3.86311753 C8.40701916,4.32596475 6.9871278,5.11711024 5.80575621,6.16928055 L2.19429412,5.67145086 L0.412415623,8.62613802 L2.67413889,11.3843851 C2.49454793,12.1270934 2.34863028,12.888638 2.34863028,13.6932389 C2.34863028,14.4978398 2.49454793,15.2593851 2.67413889,16.0047842 L0.412415623,18.7603398 L2.19429412,21.7150269 L5.80575621,21.2171972 C6.9871278,22.2720583 8.40701916,23.060513 9.9840519,23.5233602 L11.3450152,26.7821278 L14.903161,26.7821278 L16.2641236,23.5233602 C17.8411563,23.060513 19.2610477,22.2693675 20.4424192,21.2171972 L24.0538813,21.7150269 L25.8329539,18.7603398 L23.5740366,16.0020934 C23.7536275,15.2593851 23.8995452,14.4978398 23.8995452,13.6932389 C23.8995452,12.888638 23.7536275,12.1270934 23.5740366,11.3816936 L25.8329539,8.62613802 L24.0538813,5.67145086 L20.4424192,6.16928055 C19.2610477,5.11441944 17.8411563,4.32596475 16.2641236,3.86311753 L14.903161,0.604349994 L11.3450152,0.604349994 Z M12.3159284,1.98212777 L13.932247,1.98212777 L15.1725474,4.95834339 L15.5205049,5.04714531 C17.1452413,5.45886388 18.5960001,6.27153784 19.7436984,7.37752691 L19.9962478,7.62240555 L23.2962316,7.16763142 L24.101585,8.50773524 L22.036289,11.0264852 L22.1288904,11.3601658 C22.3421547,12.1109472 22.4628175,12.888638 22.4628175,13.6932389 C22.4628175,14.4978398 22.3421547,15.2755306 22.1288904,16.026312 L22.036289,16.3599925 L24.101585,18.8787425 L23.2962316,20.2188464 L19.9962478,19.7640722 L19.7436984,20.0089509 C18.5960001,21.1149406 17.1452413,21.9276139 15.5205049,22.3393325 L15.1725474,22.4281351 L13.932247,25.40435 L12.3159284,25.40435 L11.0756287,22.4281351 L10.7276712,22.3393325 C9.10293412,21.9276139 7.6521761,21.1149406 6.5044771,20.0089509 L6.25192767,19.7640722 L2.95194383,20.2188464 L2.14659045,18.8787425 L4.21188646,16.3599925 L4.11647912,16.026312 C3.90602079,15.2755306 3.78535794,14.4978398 3.78535794,13.6932389 C3.78535794,12.888638 3.90602079,12.1109472 4.11647912,11.3601658 L4.21188646,11.0264852 L2.14659045,8.50773524 L2.95194383,7.16763142 L6.25192767,7.62240555 L6.5044771,7.37752691 C7.6521761,6.27153784 9.10293412,5.45886388 10.7276712,5.04714531 L11.0756287,4.95834339 L12.3159284,1.98212777 Z M41.0601674,5.01737202 L39.6992042,8.27613955 C38.1221714,8.73898677 36.7022801,9.53013226 35.5209085,10.5823026 L31.9094464,10.0844729 L30.1303738,13.03916 L32.3892911,15.7974071 C32.2097002,16.5401154 32.0637825,17.30166 32.0637825,18.1062609 C32.0637825,18.9108618 32.2097002,19.6724071 32.3892911,20.4178062 L30.1303738,23.1733618 L31.9094464,26.1280489 L35.5209085,25.6302192 C36.7022801,26.6850804 38.1221714,27.473535 39.6992042,27.9363823 L41.0601674,31.1951498 L44.6183133,31.1951498 L45.9792758,27.9363823 C47.5563086,27.473535 48.9761999,26.6823896 50.1575715,25.6302192 L53.7690336,26.1280489 L55.5481062,23.1733618 L53.2891888,20.4151154 C53.4687798,19.6724071 53.6146974,18.9108618 53.6146974,18.1062609 C53.6146974,17.30166 53.4687798,16.5401154 53.2891888,15.7947156 L55.5481062,13.03916 L53.7690336,10.0844729 L50.1575715,10.5823026 C48.9761999,9.52744146 47.5563086,8.73898677 45.9792758,8.27613955 L44.6183133,5.01737202 L41.0601674,5.01737202 Z M42.0310807,6.3951498 L43.6473993,6.3951498 L44.8876997,9.37136542 L45.2356572,9.46016733 C46.8603936,9.87188591 48.3111523,10.6845599 49.4588506,11.7905489 L49.7114,12.0354276 L53.0113839,11.5806534 L53.8167373,12.9207573 L51.7514413,15.4395073 L51.8440427,15.7731878 C52.0573069,16.5239692 52.1779698,17.30166 52.1779698,18.1062609 C52.1779698,18.9108618 52.0573069,19.6885526 51.8440427,20.439334 L51.7514413,20.7730146 L53.8167373,23.2917646 L53.0113839,24.6318684 L49.7114,24.1770942 L49.4588506,24.4219729 C48.3111523,25.5279626 46.8603936,26.3406359 45.2356572,26.7523545 L44.8876997,26.8411571 L43.6473993,29.817372 L42.0310807,29.817372 L40.790781,26.8411571 L40.4428235,26.7523545 C38.8180864,26.3406359 37.3673284,25.5279626 36.2196294,24.4219729 L35.9670799,24.1770942 L32.6670961,24.6318684 L31.8617427,23.2917646 L33.9270387,20.7730146 L33.8344373,20.439334 C33.6211731,19.6885526 33.5005102,18.9108618 33.5005102,18.1062609 C33.5005102,17.30166 33.6211731,16.5239692 33.8344373,15.7731878 L33.9270387,15.4395073 L31.8617427,12.9207573 L32.6670961,11.5806534 L35.9670799,12.0354276 L36.2196294,11.7905489 C37.3673284,10.6845599 38.8180864,9.87188591 40.4428235,9.46016733 L40.790781,9.37136542 L42.0310807,6.3951498 Z M13.1240877,9.55990555 C10.752926,9.55990555 8.81390475,11.4193675 8.81390475,13.6932389 C8.81390475,15.9671102 10.752926,17.8265722 13.1240877,17.8265722 C15.4952494,17.8265722 17.4342707,15.9671102 17.4342707,13.6932389 C17.4342707,11.4193675 15.4952494,9.55990555 13.1240877,9.55990555 Z M13.1240877,10.9376833 C14.7207634,10.9376833 15.997543,12.1620759 15.997543,13.6932389 C15.997543,15.2244019 14.7207634,16.4487944 13.1240877,16.4487944 C11.5274121,16.4487944 10.2506324,15.2244019 10.2506324,13.6932389 C10.2506324,12.1620759 11.5274121,10.9376833 13.1240877,10.9376833 Z M42.83924,13.9729276 C40.4680783,13.9729276 38.529057,15.8323896 38.529057,18.1062609 C38.529057,20.3801323 40.4680783,22.2395942 42.83924,22.2395942 C45.2104017,22.2395942 47.149423,20.3801323 47.149423,18.1062609 C47.149423,15.8323896 45.2104017,13.9729276 42.83924,13.9729276 Z M42.83924,15.3507054 C44.4359157,15.3507054 45.7126953,16.5750979 45.7126953,18.1062609 C45.7126953,19.6374239 44.4359157,20.8618165 42.83924,20.8618165 C41.2425643,20.8618165 39.9657847,19.6374239 39.9657847,18.1062609 C39.9657847,16.5750979 41.2425643,15.3507054 42.83924,15.3507054 Z" id="Shape"></path>
        </g>
        <path d="M143.408192,234.298155 L384.5,234.5" id="Line-4" stroke="#D0021B" stroke-width="2" stroke-linecap="square" stroke-dasharray="2,5"></path>
        <path id="Path-3" d="M691.710271,234.548708 L681.259739,228.670284 L680.388163,228.180022 L681.368686,226.436871 L682.240261,226.927133 L694.240261,233.677133 L695.789729,234.548708 L694.240261,235.420284 L682.240261,242.170284 L681.368686,242.660545 L680.388163,240.917394 L681.259739,240.427133 L691.710271,234.548708 Z M388,235.706792 L387,235.706792 L387,233.706792 L388,233.706792 C388.786729,233.706792 389.575884,233.925159 390.385358,234.339233 L391.275639,234.794643 L390.364819,236.575207 L389.474538,236.119797 C388.929853,235.841171 388.44422,235.706792 388,235.706792 Z M393.105731,239.101568 L392.401684,238.391415 L393.821989,236.983319 L394.526037,237.693472 C394.924098,238.094985 395.314712,238.499004 395.930046,239.14246 L396.621184,239.865183 L395.175738,241.247458 L394.4846,240.524735 C393.876993,239.88936 393.493204,239.4924 393.105731,239.101568 Z M398.028911,244.108558 L397.300148,243.423792 L398.66968,241.966266 L399.398443,242.651032 C399.894739,243.117366 400.375222,243.546918 400.84983,243.946511 L401.614802,244.590574 L400.326675,246.120519 L399.561703,245.476456 C399.057954,245.052327 398.550606,244.598757 398.028911,244.108558 Z M403.932684,248.431687 L403.03896,247.983069 L403.936194,246.195621 L404.829919,246.644238 C405.400623,246.930711 405.972385,247.172664 406.547623,247.369374 L407.493828,247.692941 L406.846694,249.585352 L405.900489,249.261785 C405.237654,249.03512 404.582595,248.757918 403.932684,248.431687 Z M411.14689,249.991661 L410.147076,250.010966 L410.108466,248.011339 L411.108279,247.992034 C411.786549,247.978937 412.434496,247.949737 413.053182,247.904737 L414.050547,247.832194 L414.195633,249.826924 L413.198268,249.899467 C412.543507,249.947091 411.860096,249.97789 411.14689,249.991661 Z M418.335645,249.026113 L417.376863,249.310256 L416.808577,247.392692 L417.767359,247.108549 C418.398195,246.921596 418.978538,246.706256 419.513179,246.462915 L420.423339,246.048658 L421.251854,247.868977 L420.341694,248.283235 C419.721217,248.565644 419.053943,248.81324 418.335645,249.026113 Z M424.685677,244.924486 L424.061783,245.705995 L422.498764,244.458208 L423.122658,243.676699 C423.488945,243.217876 423.828621,242.71489 424.167114,242.139656 L424.674267,241.2778 L426.397979,242.292107 L425.890826,243.153963 C425.506925,243.806362 425.11507,244.386614 424.685677,244.924486 Z M427.943834,238.286693 L427.732615,239.264132 L425.777737,238.841693 L425.988956,237.864255 C426.120873,237.253796 426.179401,236.672683 426.173475,236.096854 L426.163183,235.096907 L428.163077,235.076324 L428.173369,236.076271 C428.180822,236.800399 428.107327,237.530111 427.943834,238.286693 Z M427.137457,230.940847 L427.387919,231.908973 L425.451667,232.409898 L425.201204,231.441772 C425.005154,230.683971 424.872479,230.02442 424.792278,229.346154 L424.674851,228.353072 L426.661014,228.118219 L426.778441,229.1113 C426.846841,229.689765 426.962368,230.264066 427.137457,230.940847 Z M427.275949,224.525966 L426.976721,225.480147 L425.068358,224.881691 L425.367586,223.927509 C425.566327,223.293762 425.812197,222.638058 426.107897,221.956517 L426.505919,221.039141 L428.340671,221.835185 L427.942649,222.752561 C427.674402,223.370826 427.453204,223.960735 427.275949,224.525966 Z M430.548736,219.008032 L429.830764,219.704104 L428.438619,218.268161 L429.15659,217.572089 C429.664902,217.079281 430.212959,216.619216 430.795906,216.195283 L431.604661,215.607137 L432.780953,217.224647 L431.972198,217.812793 C431.464851,218.181748 430.988971,218.581224 430.548736,219.008032 Z M436.188016,215.705434 L435.233977,216.005114 L434.634616,214.097034 L435.588656,213.797354 C436.262487,213.585692 436.950867,213.414889 437.648634,213.286496 L438.632123,213.105529 L438.994058,215.072507 L438.010569,215.253474 C437.393103,215.367092 436.784011,215.518221 436.188016,215.705434 Z M442.662348,215.109249 L441.668852,214.99538 L441.896591,213.008388 L442.890087,213.122257 C443.583175,213.201696 444.278692,213.319501 444.967966,213.474849 L445.943496,213.694714 L445.503768,215.645775 L444.528237,215.42591 C443.909003,215.286348 443.284253,215.180528 442.662348,215.109249 Z M448.945067,217.09154 L448.071592,216.60467 L449.045331,214.857721 L449.918806,215.344591 C450.548585,215.695626 451.147365,216.082574 451.710324,216.504135 L452.510774,217.103534 L451.311975,218.704434 L450.511525,218.105034 C450.02128,217.737925 449.497722,217.399587 448.945067,217.09154 Z M453.605079,221.548916 L453.108305,220.681036 L454.844065,219.687488 L455.340839,220.555368 C455.578334,220.97028 455.792041,221.399096 455.981168,221.841397 C456.063773,222.034581 456.147946,222.225336 456.233685,222.413661 L456.648032,223.32378 L454.827794,224.152475 L454.413447,223.242356 C454.321289,223.03993 454.230884,222.835052 454.142231,222.627725 C453.983562,222.256656 453.80433,221.897014 453.605079,221.548916 Z M457.049092,227.745608 L456.450049,226.944892 L458.051481,225.746804 L458.650525,226.54752 C459.035783,227.062478 459.439735,227.548554 459.862394,228.005891 L460.54111,228.740292 L459.072308,230.097724 L458.393593,229.363323 C457.923643,228.854816 457.475472,228.315531 457.049092,227.745608 Z M462.514293,232.710782 L461.654709,232.199787 L462.676701,230.48062 L463.536284,230.991616 C464.073432,231.310934 464.631211,231.600453 465.209801,231.860219 L466.122076,232.269796 L465.302921,234.094347 L464.390646,233.684769 C463.742725,233.393877 463.117213,233.0692 462.514293,232.710782 Z M469.404214,235.188771 L468.41869,235.019235 L468.757763,233.048187 L469.743286,233.217723 C470.359487,233.323726 470.993243,233.405305 471.644596,233.462392 L472.640778,233.5497 L472.466161,235.542063 L471.469979,235.454754 C470.764103,235.392889 470.0755,235.30425 469.404214,235.188771 Z M476.596814,235.548708 L475.596814,235.548708 L475.596814,233.548708 L476.596814,233.548708 L478.596814,233.548708 L479.596814,233.548708 L479.596814,235.548708 L478.596814,235.548708 L476.596814,235.548708 Z M483.596814,235.548708 L482.596814,235.548708 L482.596814,233.548708 L483.596814,233.548708 L485.596814,233.548708 L486.596814,233.548708 L486.596814,235.548708 L485.596814,235.548708 L483.596814,235.548708 Z M490.596814,235.548708 L489.596814,235.548708 L489.596814,233.548708 L490.596814,233.548708 L492.596814,233.548708 L493.596814,233.548708 L493.596814,235.548708 L492.596814,235.548708 L490.596814,235.548708 Z M497.596814,235.548708 L496.596814,235.548708 L496.596814,233.548708 L497.596814,233.548708 L499.596814,233.548708 L500.596814,233.548708 L500.596814,235.548708 L499.596814,235.548708 L497.596814,235.548708 Z M504.596814,235.548708 L503.596814,235.548708 L503.596814,233.548708 L504.596814,233.548708 L506.596814,233.548708 L507.596814,233.548708 L507.596814,235.548708 L506.596814,235.548708 L504.596814,235.548708 Z M511.596814,235.548708 L510.596814,235.548708 L510.596814,233.548708 L511.596814,233.548708 L513.596814,233.548708 L514.596814,233.548708 L514.596814,235.548708 L513.596814,235.548708 L511.596814,235.548708 Z M518.596814,235.548708 L517.596814,235.548708 L517.596814,233.548708 L518.596814,233.548708 L520.596814,233.548708 L521.596814,233.548708 L521.596814,235.548708 L520.596814,235.548708 L518.596814,235.548708 Z M525.596814,235.548708 L524.596814,235.548708 L524.596814,233.548708 L525.596814,233.548708 L527.596814,233.548708 L528.596814,233.548708 L528.596814,235.548708 L527.596814,235.548708 L525.596814,235.548708 Z M532.596814,235.548708 L531.596814,235.548708 L531.596814,233.548708 L532.596814,233.548708 L534.596814,233.548708 L535.596814,233.548708 L535.596814,235.548708 L534.596814,235.548708 L532.596814,235.548708 Z M539.596814,235.548708 L538.596814,235.548708 L538.596814,233.548708 L539.596814,233.548708 L541.596814,233.548708 L542.596814,233.548708 L542.596814,235.548708 L541.596814,235.548708 L539.596814,235.548708 Z M546.596814,235.548708 L545.596814,235.548708 L545.596814,233.548708 L546.596814,233.548708 L548.596814,233.548708 L549.596814,233.548708 L549.596814,235.548708 L548.596814,235.548708 L546.596814,235.548708 Z M553.596814,235.548708 L552.596814,235.548708 L552.596814,233.548708 L553.596814,233.548708 L555.596814,233.548708 L556.596814,233.548708 L556.596814,235.548708 L555.596814,235.548708 L553.596814,235.548708 Z M560.596814,235.548708 L559.596814,235.548708 L559.596814,233.548708 L560.596814,233.548708 L562.596814,233.548708 L563.596814,233.548708 L563.596814,235.548708 L562.596814,235.548708 L560.596814,235.548708 Z M567.596814,235.548708 L566.596814,235.548708 L566.596814,233.548708 L567.596814,233.548708 L569.596814,233.548708 L570.596814,233.548708 L570.596814,235.548708 L569.596814,235.548708 L567.596814,235.548708 Z M574.596814,235.548708 L573.596814,235.548708 L573.596814,233.548708 L574.596814,233.548708 L576.596814,233.548708 L577.596814,233.548708 L577.596814,235.548708 L576.596814,235.548708 L574.596814,235.548708 Z M581.596814,235.548708 L580.596814,235.548708 L580.596814,233.548708 L581.596814,233.548708 L583.596814,233.548708 L584.596814,233.548708 L584.596814,235.548708 L583.596814,235.548708 L581.596814,235.548708 Z M588.596814,235.548708 L587.596814,235.548708 L587.596814,233.548708 L588.596814,233.548708 L590.596814,233.548708 L591.596814,233.548708 L591.596814,235.548708 L590.596814,235.548708 L588.596814,235.548708 Z M595.596814,235.548708 L594.596814,235.548708 L594.596814,233.548708 L595.596814,233.548708 L597.596814,233.548708 L598.596814,233.548708 L598.596814,235.548708 L597.596814,235.548708 L595.596814,235.548708 Z M602.596814,235.548708 L601.596814,235.548708 L601.596814,233.548708 L602.596814,233.548708 L604.596814,233.548708 L605.596814,233.548708 L605.596814,235.548708 L604.596814,235.548708 L602.596814,235.548708 Z M609.596814,235.548708 L608.596814,235.548708 L608.596814,233.548708 L609.596814,233.548708 L611.596814,233.548708 L612.596814,233.548708 L612.596814,235.548708 L611.596814,235.548708 L609.596814,235.548708 Z M616.596814,235.548708 L615.596814,235.548708 L615.596814,233.548708 L616.596814,233.548708 L618.596814,233.548708 L619.596814,233.548708 L619.596814,235.548708 L618.596814,235.548708 L616.596814,235.548708 Z M623.596814,235.548708 L622.596814,235.548708 L622.596814,233.548708 L623.596814,233.548708 L625.596814,233.548708 L626.596814,233.548708 L626.596814,235.548708 L625.596814,235.548708 L623.596814,235.548708 Z M630.596814,235.548708 L629.596814,235.548708 L629.596814,233.548708 L630.596814,233.548708 L632.596814,233.548708 L633.596814,233.548708 L633.596814,235.548708 L632.596814,235.548708 L630.596814,235.548708 Z M637.596814,235.548708 L636.596814,235.548708 L636.596814,233.548708 L637.596814,233.548708 L639.596814,233.548708 L640.596814,233.548708 L640.596814,235.548708 L639.596814,235.548708 L637.596814,235.548708 Z M644.596814,235.548708 L643.596814,235.548708 L643.596814,233.548708 L644.596814,233.548708 L646.596814,233.548708 L647.596814,233.548708 L647.596814,235.548708 L646.596814,235.548708 L644.596814,235.548708 Z M651.596814,235.548708 L650.596814,235.548708 L650.596814,233.548708 L651.596814,233.548708 L653.596814,233.548708 L654.596814,233.548708 L654.596814,235.548708 L653.596814,235.548708 L651.596814,235.548708 Z M658.596814,235.548708 L657.596814,235.548708 L657.596814,233.548708 L658.596814,233.548708 L660.596814,233.548708 L661.596814,233.548708 L661.596814,235.548708 L660.596814,235.548708 L658.596814,235.548708 Z M665.596814,235.548708 L664.596814,235.548708 L664.596814,233.548708 L665.596814,233.548708 L667.596814,233.548708 L668.596814,233.548708 L668.596814,235.548708 L667.596814,235.548708 L665.596814,235.548708 Z M672.596814,235.548708 L671.596814,235.548708 L671.596814,233.548708 L672.596814,233.548708 L674.596814,233.548708 L675.596814,233.548708 L675.596814,235.548708 L674.596814,235.548708 L672.596814,235.548708 Z M679.596814,235.548708 L678.596814,235.548708 L678.596814,233.548708 L679.596814,233.548708 L681.596814,233.548708 L682.596814,233.548708 L682.596814,235.548708 L681.596814,235.548708 L679.596814,235.548708 Z M686.596814,235.548708 L685.596814,235.548708 L685.596814,233.548708 L686.596814,233.548708 L688.596814,233.548708 L689.596814,233.548708 L689.596814,235.548708 L688.596814,235.548708 L686.596814,235.548708 Z" fill="#D0021B" fill-rule="nonzero"></path>
        <text id="EAV-table-data,-JSON" font-family="Helvetica" font-size="13" font-weight="normal" fill="#D0021B">
            <tspan x="185.188721" y="225">EAV table data, JSON</tspan>
        </text>
        <text id="&lt;HTML&gt;" font-family="Helvetica" font-size="13" font-weight="normal" fill="#D0021B">
            <tspan x="569.214111" y="225">&lt;HTML&gt;</tspan>
        </text>
        <g id="Group" transform="translate(700.000000, 209.000000)">
            <use id="Rectangle" stroke="#D0021B" mask="url(#mask-6)" stroke-width="4" fill="#F7E9E9" stroke-dasharray="4" transform="translate(38.000000, 25.500000) scale(-1, 1) translate(-38.000000, -25.500000) " xlink:href="#path-5"></use>
            <path d="M143,45 C143,48.3137085 140.313708,51 137,51 L74,51 C70.6862915,51 68,48.3137085 68,45 L68,6 C68,2.6862915 70.6862915,6.08718376e-16 74,0 L74,0 L137,0 C140.313708,-6.08718376e-16 143,2.6862915 143,6" id="Path" stroke="#000000" stroke-width="2" transform="translate(105.500000, 25.500000) scale(-1, 1) translate(-105.500000, -25.500000) "></path>
            <text id="content" font-family="Helvetica" font-size="13" font-weight="normal" fill="#D0021B">
                <tspan x="15.6782227" y="30">content</tspan>
            </text>
            <text id="HTML-Code" font-family="Helvetica" font-size="13" font-weight="normal" line-spacing="13" fill="#000000">
                <tspan x="89.5" y="27">HTML</tspan>
                <tspan x="91.6550293" y="40">Code</tspan>
            </text>
        </g>
        <g id="Group-3" transform="translate(16.000000, 209.000000)">
            <use id="Rectangle" stroke="#D0021B" mask="url(#mask-8)" stroke-width="4" fill="#F7E9E9" stroke-dasharray="4" xlink:href="#path-7"></use>
            <path d="M75,45 C75,48.3137085 72.3137085,51 69,51 L6,51 C2.6862915,51 4.05812251e-16,48.3137085 0,45 L0,6 C-4.05812251e-16,2.6862915 2.6862915,6.08718376e-16 6,0 L6,0 L69,0 C72.3137085,-6.08718376e-16 75,2.6862915 75,6" id="Path" stroke="#000000" stroke-width="2"></path>
            <text id="content" font-family="Helvetica" font-size="13" font-weight="normal" fill="#D0021B">
                <tspan x="85.6782227" y="30">content</tspan>
            </text>
            <text id="HTML" font-family="Helvetica" font-size="13" font-weight="normal" fill="#000000">
                <tspan x="21.8059082" y="29">HTML</tspan>
            </text>
        </g>
        <text id="Html.php" font-family="Helvetica-Bold, Helvetica" font-size="13" font-weight="bold" fill="#000000">
            <tspan x="399.338623" y="203">Html.php</tspan>
        </text>
        <g id="icons8-gears" transform="translate(426.538505, 331.094642) rotate(-11.000000) translate(-426.538505, -331.094642) translate(398.538505, 315.094642)" fill="#000000" fill-rule="nonzero">
            <path d="M11.3450152,0.604349994 L9.9840519,3.86311753 C8.40701916,4.32596475 6.9871278,5.11711024 5.80575621,6.16928055 L2.19429412,5.67145086 L0.412415623,8.62613802 L2.67413889,11.3843851 C2.49454793,12.1270934 2.34863028,12.888638 2.34863028,13.6932389 C2.34863028,14.4978398 2.49454793,15.2593851 2.67413889,16.0047842 L0.412415623,18.7603398 L2.19429412,21.7150269 L5.80575621,21.2171972 C6.9871278,22.2720583 8.40701916,23.060513 9.9840519,23.5233602 L11.3450152,26.7821278 L14.903161,26.7821278 L16.2641236,23.5233602 C17.8411563,23.060513 19.2610477,22.2693675 20.4424192,21.2171972 L24.0538813,21.7150269 L25.8329539,18.7603398 L23.5740366,16.0020934 C23.7536275,15.2593851 23.8995452,14.4978398 23.8995452,13.6932389 C23.8995452,12.888638 23.7536275,12.1270934 23.5740366,11.3816936 L25.8329539,8.62613802 L24.0538813,5.67145086 L20.4424192,6.16928055 C19.2610477,5.11441944 17.8411563,4.32596475 16.2641236,3.86311753 L14.903161,0.604349994 L11.3450152,0.604349994 Z M12.3159284,1.98212777 L13.932247,1.98212777 L15.1725474,4.95834339 L15.5205049,5.04714531 C17.1452413,5.45886388 18.5960001,6.27153784 19.7436984,7.37752691 L19.9962478,7.62240555 L23.2962316,7.16763142 L24.101585,8.50773524 L22.036289,11.0264852 L22.1288904,11.3601658 C22.3421547,12.1109472 22.4628175,12.888638 22.4628175,13.6932389 C22.4628175,14.4978398 22.3421547,15.2755306 22.1288904,16.026312 L22.036289,16.3599925 L24.101585,18.8787425 L23.2962316,20.2188464 L19.9962478,19.7640722 L19.7436984,20.0089509 C18.5960001,21.1149406 17.1452413,21.9276139 15.5205049,22.3393325 L15.1725474,22.4281351 L13.932247,25.40435 L12.3159284,25.40435 L11.0756287,22.4281351 L10.7276712,22.3393325 C9.10293412,21.9276139 7.6521761,21.1149406 6.5044771,20.0089509 L6.25192767,19.7640722 L2.95194383,20.2188464 L2.14659045,18.8787425 L4.21188646,16.3599925 L4.11647912,16.026312 C3.90602079,15.2755306 3.78535794,14.4978398 3.78535794,13.6932389 C3.78535794,12.888638 3.90602079,12.1109472 4.11647912,11.3601658 L4.21188646,11.0264852 L2.14659045,8.50773524 L2.95194383,7.16763142 L6.25192767,7.62240555 L6.5044771,7.37752691 C7.6521761,6.27153784 9.10293412,5.45886388 10.7276712,5.04714531 L11.0756287,4.95834339 L12.3159284,1.98212777 Z M41.0601674,5.01737202 L39.6992042,8.27613955 C38.1221714,8.73898677 36.7022801,9.53013226 35.5209085,10.5823026 L31.9094464,10.0844729 L30.1303738,13.03916 L32.3892911,15.7974071 C32.2097002,16.5401154 32.0637825,17.30166 32.0637825,18.1062609 C32.0637825,18.9108618 32.2097002,19.6724071 32.3892911,20.4178062 L30.1303738,23.1733618 L31.9094464,26.1280489 L35.5209085,25.6302192 C36.7022801,26.6850804 38.1221714,27.473535 39.6992042,27.9363823 L41.0601674,31.1951498 L44.6183133,31.1951498 L45.9792758,27.9363823 C47.5563086,27.473535 48.9761999,26.6823896 50.1575715,25.6302192 L53.7690336,26.1280489 L55.5481062,23.1733618 L53.2891888,20.4151154 C53.4687798,19.6724071 53.6146974,18.9108618 53.6146974,18.1062609 C53.6146974,17.30166 53.4687798,16.5401154 53.2891888,15.7947156 L55.5481062,13.03916 L53.7690336,10.0844729 L50.1575715,10.5823026 C48.9761999,9.52744146 47.5563086,8.73898677 45.9792758,8.27613955 L44.6183133,5.01737202 L41.0601674,5.01737202 Z M42.0310807,6.3951498 L43.6473993,6.3951498 L44.8876997,9.37136542 L45.2356572,9.46016733 C46.8603936,9.87188591 48.3111523,10.6845599 49.4588506,11.7905489 L49.7114,12.0354276 L53.0113839,11.5806534 L53.8167373,12.9207573 L51.7514413,15.4395073 L51.8440427,15.7731878 C52.0573069,16.5239692 52.1779698,17.30166 52.1779698,18.1062609 C52.1779698,18.9108618 52.0573069,19.6885526 51.8440427,20.439334 L51.7514413,20.7730146 L53.8167373,23.2917646 L53.0113839,24.6318684 L49.7114,24.1770942 L49.4588506,24.4219729 C48.3111523,25.5279626 46.8603936,26.3406359 45.2356572,26.7523545 L44.8876997,26.8411571 L43.6473993,29.817372 L42.0310807,29.817372 L40.790781,26.8411571 L40.4428235,26.7523545 C38.8180864,26.3406359 37.3673284,25.5279626 36.2196294,24.4219729 L35.9670799,24.1770942 L32.6670961,24.6318684 L31.8617427,23.2917646 L33.9270387,20.7730146 L33.8344373,20.439334 C33.6211731,19.6885526 33.5005102,18.9108618 33.5005102,18.1062609 C33.5005102,17.30166 33.6211731,16.5239692 33.8344373,15.7731878 L33.9270387,15.4395073 L31.8617427,12.9207573 L32.6670961,11.5806534 L35.9670799,12.0354276 L36.2196294,11.7905489 C37.3673284,10.6845599 38.8180864,9.87188591 40.4428235,9.46016733 L40.790781,9.37136542 L42.0310807,6.3951498 Z M13.1240877,9.55990555 C10.752926,9.55990555 8.81390475,11.4193675 8.81390475,13.6932389 C8.81390475,15.9671102 10.752926,17.8265722 13.1240877,17.8265722 C15.4952494,17.8265722 17.4342707,15.9671102 17.4342707,13.6932389 C17.4342707,11.4193675 15.4952494,9.55990555 13.1240877,9.55990555 Z M13.1240877,10.9376833 C14.7207634,10.9376833 15.997543,12.1620759 15.997543,13.6932389 C15.997543,15.2244019 14.7207634,16.4487944 13.1240877,16.4487944 C11.5274121,16.4487944 10.2506324,15.2244019 10.2506324,13.6932389 C10.2506324,12.1620759 11.5274121,10.9376833 13.1240877,10.9376833 Z M42.83924,13.9729276 C40.4680783,13.9729276 38.529057,15.8323896 38.529057,18.1062609 C38.529057,20.3801323 40.4680783,22.2395942 42.83924,22.2395942 C45.2104017,22.2395942 47.149423,20.3801323 47.149423,18.1062609 C47.149423,15.8323896 45.2104017,13.9729276 42.83924,13.9729276 Z M42.83924,15.3507054 C44.4359157,15.3507054 45.7126953,16.5750979 45.7126953,18.1062609 C45.7126953,19.6374239 44.4359157,20.8618165 42.83924,20.8618165 C41.2425643,20.8618165 39.9657847,19.6374239 39.9657847,18.1062609 C39.9657847,16.5750979 41.2425643,15.3507054 42.83924,15.3507054 Z" id="Shape"></path>
        </g>
        <path d="M143.408192,334.298155 L384.5,334.298155" id="Line-4" stroke="#D0021B" stroke-width="2" stroke-linecap="square" stroke-dasharray="2,5"></path>
        <path id="Path-3" d="M691.710271,334.548708 L681.259739,328.670284 L680.388163,328.180022 L681.368686,326.436871 L682.240261,326.927133 L694.240261,333.677133 L695.789729,334.548708 L694.240261,335.420284 L682.240261,342.170284 L681.368686,342.660545 L680.388163,340.917394 L681.259739,340.427133 L691.710271,334.548708 Z M388,335.706792 L387,335.706792 L387,333.706792 L388,333.706792 C388.786729,333.706792 389.575884,333.925159 390.385358,334.339233 L391.275639,334.794643 L390.364819,336.575207 L389.474538,336.119797 C388.929853,335.841171 388.44422,335.706792 388,335.706792 Z M393.105731,339.101568 L392.401684,338.391415 L393.821989,336.983319 L394.526037,337.693472 C394.924098,338.094985 395.314712,338.499004 395.930046,339.14246 L396.621184,339.865183 L395.175738,341.247458 L394.4846,340.524735 C393.876993,339.88936 393.493204,339.4924 393.105731,339.101568 Z M398.028911,344.108558 L397.300148,343.423792 L398.66968,341.966266 L399.398443,342.651032 C399.894739,343.117366 400.375222,343.546918 400.84983,343.946511 L401.614802,344.590574 L400.326675,346.120519 L399.561703,345.476456 C399.057954,345.052327 398.550606,344.598757 398.028911,344.108558 Z M403.932684,348.431687 L403.03896,347.983069 L403.936194,346.195621 L404.829919,346.644238 C405.400623,346.930711 405.972385,347.172664 406.547623,347.369374 L407.493828,347.692941 L406.846694,349.585352 L405.900489,349.261785 C405.237654,349.03512 404.582595,348.757918 403.932684,348.431687 Z M411.14689,349.991661 L410.147076,350.010966 L410.108466,348.011339 L411.108279,347.992034 C411.786549,347.978937 412.434496,347.949737 413.053182,347.904737 L414.050547,347.832194 L414.195633,349.826924 L413.198268,349.899467 C412.543507,349.947091 411.860096,349.97789 411.14689,349.991661 Z M418.335645,349.026113 L417.376863,349.310256 L416.808577,347.392692 L417.767359,347.108549 C418.398195,346.921596 418.978538,346.706256 419.513179,346.462915 L420.423339,346.048658 L421.251854,347.868977 L420.341694,348.283235 C419.721217,348.565644 419.053943,348.81324 418.335645,349.026113 Z M424.685677,344.924486 L424.061783,345.705995 L422.498764,344.458208 L423.122658,343.676699 C423.488945,343.217876 423.828621,342.71489 424.167114,342.139656 L424.674267,341.2778 L426.397979,342.292107 L425.890826,343.153963 C425.506925,343.806362 425.11507,344.386614 424.685677,344.924486 Z M427.943834,338.286693 L427.732615,339.264132 L425.777737,338.841693 L425.988956,337.864255 C426.120873,337.253796 426.179401,336.672683 426.173475,336.096854 L426.163183,335.096907 L428.163077,335.076324 L428.173369,336.076271 C428.180822,336.800399 428.107327,337.530111 427.943834,338.286693 Z M427.137457,330.940847 L427.387919,331.908973 L425.451667,332.409898 L425.201204,331.441772 C425.005154,330.683971 424.872479,330.02442 424.792278,329.346154 L424.674851,328.353072 L426.661014,328.118219 L426.778441,329.1113 C426.846841,329.689765 426.962368,330.264066 427.137457,330.940847 Z M427.275949,324.525966 L426.976721,325.480147 L425.068358,324.881691 L425.367586,323.927509 C425.566327,323.293762 425.812197,322.638058 426.107897,321.956517 L426.505919,321.039141 L428.340671,321.835185 L427.942649,322.752561 C427.674402,323.370826 427.453204,323.960735 427.275949,324.525966 Z M430.548736,319.008032 L429.830764,319.704104 L428.438619,318.268161 L429.15659,317.572089 C429.664902,317.079281 430.212959,316.619216 430.795906,316.195283 L431.604661,315.607137 L432.780953,317.224647 L431.972198,317.812793 C431.464851,318.181748 430.988971,318.581224 430.548736,319.008032 Z M436.188016,315.705434 L435.233977,316.005114 L434.634616,314.097034 L435.588656,313.797354 C436.262487,313.585692 436.950867,313.414889 437.648634,313.286496 L438.632123,313.105529 L438.994058,315.072507 L438.010569,315.253474 C437.393103,315.367092 436.784011,315.518221 436.188016,315.705434 Z M442.662348,315.109249 L441.668852,314.99538 L441.896591,313.008388 L442.890087,313.122257 C443.583175,313.201696 444.278692,313.319501 444.967966,313.474849 L445.943496,313.694714 L445.503768,315.645775 L444.528237,315.42591 C443.909003,315.286348 443.284253,315.180528 442.662348,315.109249 Z M448.945067,317.09154 L448.071592,316.60467 L449.045331,314.857721 L449.918806,315.344591 C450.548585,315.695626 451.147365,316.082574 451.710324,316.504135 L452.510774,317.103534 L451.311975,318.704434 L450.511525,318.105034 C450.02128,317.737925 449.497722,317.399587 448.945067,317.09154 Z M453.605079,321.548916 L453.108305,320.681036 L454.844065,319.687488 L455.340839,320.555368 C455.578334,320.97028 455.792041,321.399096 455.981168,321.841397 C456.063773,322.034581 456.147946,322.225336 456.233685,322.413661 L456.648032,323.32378 L454.827794,324.152475 L454.413447,323.242356 C454.321289,323.03993 454.230884,322.835052 454.142231,322.627725 C453.983562,322.256656 453.80433,321.897014 453.605079,321.548916 Z M457.049092,327.745608 L456.450049,326.944892 L458.051481,325.746804 L458.650525,326.54752 C459.035783,327.062478 459.439735,327.548554 459.862394,328.005891 L460.54111,328.740292 L459.072308,330.097724 L458.393593,329.363323 C457.923643,328.854816 457.475472,328.315531 457.049092,327.745608 Z M462.514293,332.710782 L461.654709,332.199787 L462.676701,330.48062 L463.536284,330.991616 C464.073432,331.310934 464.631211,331.600453 465.209801,331.860219 L466.122076,332.269796 L465.302921,334.094347 L464.390646,333.684769 C463.742725,333.393877 463.117213,333.0692 462.514293,332.710782 Z M469.404214,335.188771 L468.41869,335.019235 L468.757763,333.048187 L469.743286,333.217723 C470.359487,333.323726 470.993243,333.405305 471.644596,333.462392 L472.640778,333.5497 L472.466161,335.542063 L471.469979,335.454754 C470.764103,335.392889 470.0755,335.30425 469.404214,335.188771 Z M476.596814,335.548708 L475.596814,335.548708 L475.596814,333.548708 L476.596814,333.548708 L478.596814,333.548708 L479.596814,333.548708 L479.596814,335.548708 L478.596814,335.548708 L476.596814,335.548708 Z M483.596814,335.548708 L482.596814,335.548708 L482.596814,333.548708 L483.596814,333.548708 L485.596814,333.548708 L486.596814,333.548708 L486.596814,335.548708 L485.596814,335.548708 L483.596814,335.548708 Z M490.596814,335.548708 L489.596814,335.548708 L489.596814,333.548708 L490.596814,333.548708 L492.596814,333.548708 L493.596814,333.548708 L493.596814,335.548708 L492.596814,335.548708 L490.596814,335.548708 Z M497.596814,335.548708 L496.596814,335.548708 L496.596814,333.548708 L497.596814,333.548708 L499.596814,333.548708 L500.596814,333.548708 L500.596814,335.548708 L499.596814,335.548708 L497.596814,335.548708 Z M504.596814,335.548708 L503.596814,335.548708 L503.596814,333.548708 L504.596814,333.548708 L506.596814,333.548708 L507.596814,333.548708 L507.596814,335.548708 L506.596814,335.548708 L504.596814,335.548708 Z M511.596814,335.548708 L510.596814,335.548708 L510.596814,333.548708 L511.596814,333.548708 L513.596814,333.548708 L514.596814,333.548708 L514.596814,335.548708 L513.596814,335.548708 L511.596814,335.548708 Z M518.596814,335.548708 L517.596814,335.548708 L517.596814,333.548708 L518.596814,333.548708 L520.596814,333.548708 L521.596814,333.548708 L521.596814,335.548708 L520.596814,335.548708 L518.596814,335.548708 Z M525.596814,335.548708 L524.596814,335.548708 L524.596814,333.548708 L525.596814,333.548708 L527.596814,333.548708 L528.596814,333.548708 L528.596814,335.548708 L527.596814,335.548708 L525.596814,335.548708 Z M532.596814,335.548708 L531.596814,335.548708 L531.596814,333.548708 L532.596814,333.548708 L534.596814,333.548708 L535.596814,333.548708 L535.596814,335.548708 L534.596814,335.548708 L532.596814,335.548708 Z M539.596814,335.548708 L538.596814,335.548708 L538.596814,333.548708 L539.596814,333.548708 L541.596814,333.548708 L542.596814,333.548708 L542.596814,335.548708 L541.596814,335.548708 L539.596814,335.548708 Z M546.596814,335.548708 L545.596814,335.548708 L545.596814,333.548708 L546.596814,333.548708 L548.596814,333.548708 L549.596814,333.548708 L549.596814,335.548708 L548.596814,335.548708 L546.596814,335.548708 Z M553.596814,335.548708 L552.596814,335.548708 L552.596814,333.548708 L553.596814,333.548708 L555.596814,333.548708 L556.596814,333.548708 L556.596814,335.548708 L555.596814,335.548708 L553.596814,335.548708 Z M560.596814,335.548708 L559.596814,335.548708 L559.596814,333.548708 L560.596814,333.548708 L562.596814,333.548708 L563.596814,333.548708 L563.596814,335.548708 L562.596814,335.548708 L560.596814,335.548708 Z M567.596814,335.548708 L566.596814,335.548708 L566.596814,333.548708 L567.596814,333.548708 L569.596814,333.548708 L570.596814,333.548708 L570.596814,335.548708 L569.596814,335.548708 L567.596814,335.548708 Z M574.596814,335.548708 L573.596814,335.548708 L573.596814,333.548708 L574.596814,333.548708 L576.596814,333.548708 L577.596814,333.548708 L577.596814,335.548708 L576.596814,335.548708 L574.596814,335.548708 Z M581.596814,335.548708 L580.596814,335.548708 L580.596814,333.548708 L581.596814,333.548708 L583.596814,333.548708 L584.596814,333.548708 L584.596814,335.548708 L583.596814,335.548708 L581.596814,335.548708 Z M588.596814,335.548708 L587.596814,335.548708 L587.596814,333.548708 L588.596814,333.548708 L590.596814,333.548708 L591.596814,333.548708 L591.596814,335.548708 L590.596814,335.548708 L588.596814,335.548708 Z M595.596814,335.548708 L594.596814,335.548708 L594.596814,333.548708 L595.596814,333.548708 L597.596814,333.548708 L598.596814,333.548708 L598.596814,335.548708 L597.596814,335.548708 L595.596814,335.548708 Z M602.596814,335.548708 L601.596814,335.548708 L601.596814,333.548708 L602.596814,333.548708 L604.596814,333.548708 L605.596814,333.548708 L605.596814,335.548708 L604.596814,335.548708 L602.596814,335.548708 Z M609.596814,335.548708 L608.596814,335.548708 L608.596814,333.548708 L609.596814,333.548708 L611.596814,333.548708 L612.596814,333.548708 L612.596814,335.548708 L611.596814,335.548708 L609.596814,335.548708 Z M616.596814,335.548708 L615.596814,335.548708 L615.596814,333.548708 L616.596814,333.548708 L618.596814,333.548708 L619.596814,333.548708 L619.596814,335.548708 L618.596814,335.548708 L616.596814,335.548708 Z M623.596814,335.548708 L622.596814,335.548708 L622.596814,333.548708 L623.596814,333.548708 L625.596814,333.548708 L626.596814,333.548708 L626.596814,335.548708 L625.596814,335.548708 L623.596814,335.548708 Z M630.596814,335.548708 L629.596814,335.548708 L629.596814,333.548708 L630.596814,333.548708 L632.596814,333.548708 L633.596814,333.548708 L633.596814,335.548708 L632.596814,335.548708 L630.596814,335.548708 Z M637.596814,335.548708 L636.596814,335.548708 L636.596814,333.548708 L637.596814,333.548708 L639.596814,333.548708 L640.596814,333.548708 L640.596814,335.548708 L639.596814,335.548708 L637.596814,335.548708 Z M644.596814,335.548708 L643.596814,335.548708 L643.596814,333.548708 L644.596814,333.548708 L646.596814,333.548708 L647.596814,333.548708 L647.596814,335.548708 L646.596814,335.548708 L644.596814,335.548708 Z M651.596814,335.548708 L650.596814,335.548708 L650.596814,333.548708 L651.596814,333.548708 L653.596814,333.548708 L654.596814,333.548708 L654.596814,335.548708 L653.596814,335.548708 L651.596814,335.548708 Z M658.596814,335.548708 L657.596814,335.548708 L657.596814,333.548708 L658.596814,333.548708 L660.596814,333.548708 L661.596814,333.548708 L661.596814,335.548708 L660.596814,335.548708 L658.596814,335.548708 Z M665.596814,335.548708 L664.596814,335.548708 L664.596814,333.548708 L665.596814,333.548708 L667.596814,333.548708 L668.596814,333.548708 L668.596814,335.548708 L667.596814,335.548708 L665.596814,335.548708 Z M672.596814,335.548708 L671.596814,335.548708 L671.596814,333.548708 L672.596814,333.548708 L674.596814,333.548708 L675.596814,333.548708 L675.596814,335.548708 L674.596814,335.548708 L672.596814,335.548708 Z M679.596814,335.548708 L678.596814,335.548708 L678.596814,333.548708 L679.596814,333.548708 L681.596814,333.548708 L682.596814,333.548708 L682.596814,335.548708 L681.596814,335.548708 L679.596814,335.548708 Z M686.596814,335.548708 L685.596814,335.548708 L685.596814,333.548708 L686.596814,333.548708 L688.596814,333.548708 L689.596814,333.548708 L689.596814,335.548708 L688.596814,335.548708 L686.596814,335.548708 Z" fill="#D0021B" fill-rule="nonzero"></path>
        <text id="EAV-table-data,-JSON" font-family="Helvetica" font-size="13" font-weight="normal" fill="#D0021B">
            <tspan x="185.188721" y="325">EAV table data, JSON</tspan>
        </text>
        <text id="&lt;HTML&gt;" font-family="Helvetica" font-size="13" font-weight="normal" fill="#D0021B">
            <tspan x="569.214111" y="325">&lt;HTML&gt;</tspan>
        </text>
        <g id="Group" transform="translate(700.000000, 308.000000)">
            <use id="Rectangle" stroke="#D0021B" mask="url(#mask-10)" stroke-width="4" fill="#F7E9E9" stroke-dasharray="4" transform="translate(38.000000, 25.500000) scale(-1, 1) translate(-38.000000, -25.500000) " xlink:href="#path-9"></use>
            <path d="M143,45 C143,48.3137085 140.313708,51 137,51 L74,51 C70.6862915,51 68,48.3137085 68,45 L68,6 C68,2.6862915 70.6862915,6.08718376e-16 74,0 L74,0 L137,0 C140.313708,-6.08718376e-16 143,2.6862915 143,6" id="Path" stroke="#000000" stroke-width="2" transform="translate(105.500000, 25.500000) scale(-1, 1) translate(-105.500000, -25.500000) "></path>
            <text id="content" font-family="Helvetica" font-size="13" font-weight="normal" fill="#D0021B">
                <tspan x="15.6782227" y="30">content</tspan>
            </text>
            <text id="Text" font-family="Helvetica" font-size="13" font-weight="normal" fill="#000000">
                <tspan x="94.8586426" y="29">Text</tspan>
            </text>
        </g>
        <g id="Group-3" transform="translate(16.000000, 308.000000)">
            <use id="Rectangle" stroke="#D0021B" mask="url(#mask-12)" stroke-width="4" fill="#F7E9E9" stroke-dasharray="4" xlink:href="#path-11"></use>
            <path d="M75,45 C75,48.3137085 72.3137085,51 69,51 L6,51 C2.6862915,51 4.05812251e-16,48.3137085 0,45 L0,6 C-4.05812251e-16,2.6862915 2.6862915,6.08718376e-16 6,0 L6,0 L69,0 C72.3137085,-6.08718376e-16 75,2.6862915 75,6" id="Path" stroke="#000000" stroke-width="2"></path>
            <text id="content" font-family="Helvetica" font-size="13" font-weight="normal" fill="#D0021B">
                <tspan x="85.6782227" y="30">content</tspan>
            </text>
            <text id="Textarea" font-family="Helvetica" font-size="13" font-weight="normal" fill="#000000">
                <tspan x="13.8491211" y="29">Textarea</tspan>
            </text>
        </g>
        <text id="Textarea.php" font-family="Helvetica-Bold, Helvetica" font-size="13" font-weight="bold" fill="#000000">
            <tspan x="386.543213" y="303">Textarea.php</tspan>
        </text>
        <g id="icons8-gears" transform="translate(426.538505, 430.094642) rotate(-11.000000) translate(-426.538505, -430.094642) translate(398.538505, 414.094642)" fill="#000000" fill-rule="nonzero">
            <path d="M11.3450152,0.604349994 L9.9840519,3.86311753 C8.40701916,4.32596475 6.9871278,5.11711024 5.80575621,6.16928055 L2.19429412,5.67145086 L0.412415623,8.62613802 L2.67413889,11.3843851 C2.49454793,12.1270934 2.34863028,12.888638 2.34863028,13.6932389 C2.34863028,14.4978398 2.49454793,15.2593851 2.67413889,16.0047842 L0.412415623,18.7603398 L2.19429412,21.7150269 L5.80575621,21.2171972 C6.9871278,22.2720583 8.40701916,23.060513 9.9840519,23.5233602 L11.3450152,26.7821278 L14.903161,26.7821278 L16.2641236,23.5233602 C17.8411563,23.060513 19.2610477,22.2693675 20.4424192,21.2171972 L24.0538813,21.7150269 L25.8329539,18.7603398 L23.5740366,16.0020934 C23.7536275,15.2593851 23.8995452,14.4978398 23.8995452,13.6932389 C23.8995452,12.888638 23.7536275,12.1270934 23.5740366,11.3816936 L25.8329539,8.62613802 L24.0538813,5.67145086 L20.4424192,6.16928055 C19.2610477,5.11441944 17.8411563,4.32596475 16.2641236,3.86311753 L14.903161,0.604349994 L11.3450152,0.604349994 Z M12.3159284,1.98212777 L13.932247,1.98212777 L15.1725474,4.95834339 L15.5205049,5.04714531 C17.1452413,5.45886388 18.5960001,6.27153784 19.7436984,7.37752691 L19.9962478,7.62240555 L23.2962316,7.16763142 L24.101585,8.50773524 L22.036289,11.0264852 L22.1288904,11.3601658 C22.3421547,12.1109472 22.4628175,12.888638 22.4628175,13.6932389 C22.4628175,14.4978398 22.3421547,15.2755306 22.1288904,16.026312 L22.036289,16.3599925 L24.101585,18.8787425 L23.2962316,20.2188464 L19.9962478,19.7640722 L19.7436984,20.0089509 C18.5960001,21.1149406 17.1452413,21.9276139 15.5205049,22.3393325 L15.1725474,22.4281351 L13.932247,25.40435 L12.3159284,25.40435 L11.0756287,22.4281351 L10.7276712,22.3393325 C9.10293412,21.9276139 7.6521761,21.1149406 6.5044771,20.0089509 L6.25192767,19.7640722 L2.95194383,20.2188464 L2.14659045,18.8787425 L4.21188646,16.3599925 L4.11647912,16.026312 C3.90602079,15.2755306 3.78535794,14.4978398 3.78535794,13.6932389 C3.78535794,12.888638 3.90602079,12.1109472 4.11647912,11.3601658 L4.21188646,11.0264852 L2.14659045,8.50773524 L2.95194383,7.16763142 L6.25192767,7.62240555 L6.5044771,7.37752691 C7.6521761,6.27153784 9.10293412,5.45886388 10.7276712,5.04714531 L11.0756287,4.95834339 L12.3159284,1.98212777 Z M41.0601674,5.01737202 L39.6992042,8.27613955 C38.1221714,8.73898677 36.7022801,9.53013226 35.5209085,10.5823026 L31.9094464,10.0844729 L30.1303738,13.03916 L32.3892911,15.7974071 C32.2097002,16.5401154 32.0637825,17.30166 32.0637825,18.1062609 C32.0637825,18.9108618 32.2097002,19.6724071 32.3892911,20.4178062 L30.1303738,23.1733618 L31.9094464,26.1280489 L35.5209085,25.6302192 C36.7022801,26.6850804 38.1221714,27.473535 39.6992042,27.9363823 L41.0601674,31.1951498 L44.6183133,31.1951498 L45.9792758,27.9363823 C47.5563086,27.473535 48.9761999,26.6823896 50.1575715,25.6302192 L53.7690336,26.1280489 L55.5481062,23.1733618 L53.2891888,20.4151154 C53.4687798,19.6724071 53.6146974,18.9108618 53.6146974,18.1062609 C53.6146974,17.30166 53.4687798,16.5401154 53.2891888,15.7947156 L55.5481062,13.03916 L53.7690336,10.0844729 L50.1575715,10.5823026 C48.9761999,9.52744146 47.5563086,8.73898677 45.9792758,8.27613955 L44.6183133,5.01737202 L41.0601674,5.01737202 Z M42.0310807,6.3951498 L43.6473993,6.3951498 L44.8876997,9.37136542 L45.2356572,9.46016733 C46.8603936,9.87188591 48.3111523,10.6845599 49.4588506,11.7905489 L49.7114,12.0354276 L53.0113839,11.5806534 L53.8167373,12.9207573 L51.7514413,15.4395073 L51.8440427,15.7731878 C52.0573069,16.5239692 52.1779698,17.30166 52.1779698,18.1062609 C52.1779698,18.9108618 52.0573069,19.6885526 51.8440427,20.439334 L51.7514413,20.7730146 L53.8167373,23.2917646 L53.0113839,24.6318684 L49.7114,24.1770942 L49.4588506,24.4219729 C48.3111523,25.5279626 46.8603936,26.3406359 45.2356572,26.7523545 L44.8876997,26.8411571 L43.6473993,29.817372 L42.0310807,29.817372 L40.790781,26.8411571 L40.4428235,26.7523545 C38.8180864,26.3406359 37.3673284,25.5279626 36.2196294,24.4219729 L35.9670799,24.1770942 L32.6670961,24.6318684 L31.8617427,23.2917646 L33.9270387,20.7730146 L33.8344373,20.439334 C33.6211731,19.6885526 33.5005102,18.9108618 33.5005102,18.1062609 C33.5005102,17.30166 33.6211731,16.5239692 33.8344373,15.7731878 L33.9270387,15.4395073 L31.8617427,12.9207573 L32.6670961,11.5806534 L35.9670799,12.0354276 L36.2196294,11.7905489 C37.3673284,10.6845599 38.8180864,9.87188591 40.4428235,9.46016733 L40.790781,9.37136542 L42.0310807,6.3951498 Z M13.1240877,9.55990555 C10.752926,9.55990555 8.81390475,11.4193675 8.81390475,13.6932389 C8.81390475,15.9671102 10.752926,17.8265722 13.1240877,17.8265722 C15.4952494,17.8265722 17.4342707,15.9671102 17.4342707,13.6932389 C17.4342707,11.4193675 15.4952494,9.55990555 13.1240877,9.55990555 Z M13.1240877,10.9376833 C14.7207634,10.9376833 15.997543,12.1620759 15.997543,13.6932389 C15.997543,15.2244019 14.7207634,16.4487944 13.1240877,16.4487944 C11.5274121,16.4487944 10.2506324,15.2244019 10.2506324,13.6932389 C10.2506324,12.1620759 11.5274121,10.9376833 13.1240877,10.9376833 Z M42.83924,13.9729276 C40.4680783,13.9729276 38.529057,15.8323896 38.529057,18.1062609 C38.529057,20.3801323 40.4680783,22.2395942 42.83924,22.2395942 C45.2104017,22.2395942 47.149423,20.3801323 47.149423,18.1062609 C47.149423,15.8323896 45.2104017,13.9729276 42.83924,13.9729276 Z M42.83924,15.3507054 C44.4359157,15.3507054 45.7126953,16.5750979 45.7126953,18.1062609 C45.7126953,19.6374239 44.4359157,20.8618165 42.83924,20.8618165 C41.2425643,20.8618165 39.9657847,19.6374239 39.9657847,18.1062609 C39.9657847,16.5750979 41.2425643,15.3507054 42.83924,15.3507054 Z" id="Shape"></path>
        </g>
        <path d="M143.408192,433.298155 L388,433.298155" id="Line-4" stroke="#D0021B" stroke-width="2" stroke-linecap="square" stroke-dasharray="2,5"></path>
        <path id="Path-3" d="M691.710271,433.548708 L681.259739,427.670284 L680.388163,427.180022 L681.368686,425.436871 L682.240261,425.927133 L694.240261,432.677133 L695.789729,433.548708 L694.240261,434.420284 L682.240261,441.170284 L681.368686,441.660545 L680.388163,439.917394 L681.259739,439.427133 L691.710271,433.548708 Z M388,434.706792 L387,434.706792 L387,432.706792 L388,432.706792 C388.786729,432.706792 389.575884,432.925159 390.385358,433.339233 L391.275639,433.794643 L390.364819,435.575207 L389.474538,435.119797 C388.929853,434.841171 388.44422,434.706792 388,434.706792 Z M393.105731,438.101568 L392.401684,437.391415 L393.821989,435.983319 L394.526037,436.693472 C394.924098,437.094985 395.314712,437.499004 395.930046,438.14246 L396.621184,438.865183 L395.175738,440.247458 L394.4846,439.524735 C393.876993,438.88936 393.493204,438.4924 393.105731,438.101568 Z M398.028911,443.108558 L397.300148,442.423792 L398.66968,440.966266 L399.398443,441.651032 C399.894739,442.117366 400.375222,442.546918 400.84983,442.946511 L401.614802,443.590574 L400.326675,445.120519 L399.561703,444.476456 C399.057954,444.052327 398.550606,443.598757 398.028911,443.108558 Z M403.932684,447.431687 L403.03896,446.983069 L403.936194,445.195621 L404.829919,445.644238 C405.400623,445.930711 405.972385,446.172664 406.547623,446.369374 L407.493828,446.692941 L406.846694,448.585352 L405.900489,448.261785 C405.237654,448.03512 404.582595,447.757918 403.932684,447.431687 Z M411.14689,448.991661 L410.147076,449.010966 L410.108466,447.011339 L411.108279,446.992034 C411.786549,446.978937 412.434496,446.949737 413.053182,446.904737 L414.050547,446.832194 L414.195633,448.826924 L413.198268,448.899467 C412.543507,448.947091 411.860096,448.97789 411.14689,448.991661 Z M418.335645,448.026113 L417.376863,448.310256 L416.808577,446.392692 L417.767359,446.108549 C418.398195,445.921596 418.978538,445.706256 419.513179,445.462915 L420.423339,445.048658 L421.251854,446.868977 L420.341694,447.283235 C419.721217,447.565644 419.053943,447.81324 418.335645,448.026113 Z M424.685677,443.924486 L424.061783,444.705995 L422.498764,443.458208 L423.122658,442.676699 C423.488945,442.217876 423.828621,441.71489 424.167114,441.139656 L424.674267,440.2778 L426.397979,441.292107 L425.890826,442.153963 C425.506925,442.806362 425.11507,443.386614 424.685677,443.924486 Z M427.943834,437.286693 L427.732615,438.264132 L425.777737,437.841693 L425.988956,436.864255 C426.120873,436.253796 426.179401,435.672683 426.173475,435.096854 L426.163183,434.096907 L428.163077,434.076324 L428.173369,435.076271 C428.180822,435.800399 428.107327,436.530111 427.943834,437.286693 Z M427.137457,429.940847 L427.387919,430.908973 L425.451667,431.409898 L425.201204,430.441772 C425.005154,429.683971 424.872479,429.02442 424.792278,428.346154 L424.674851,427.353072 L426.661014,427.118219 L426.778441,428.1113 C426.846841,428.689765 426.962368,429.264066 427.137457,429.940847 Z M427.275949,423.525966 L426.976721,424.480147 L425.068358,423.881691 L425.367586,422.927509 C425.566327,422.293762 425.812197,421.638058 426.107897,420.956517 L426.505919,420.039141 L428.340671,420.835185 L427.942649,421.752561 C427.674402,422.370826 427.453204,422.960735 427.275949,423.525966 Z M430.548736,418.008032 L429.830764,418.704104 L428.438619,417.268161 L429.15659,416.572089 C429.664902,416.079281 430.212959,415.619216 430.795906,415.195283 L431.604661,414.607137 L432.780953,416.224647 L431.972198,416.812793 C431.464851,417.181748 430.988971,417.581224 430.548736,418.008032 Z M436.188016,414.705434 L435.233977,415.005114 L434.634616,413.097034 L435.588656,412.797354 C436.262487,412.585692 436.950867,412.414889 437.648634,412.286496 L438.632123,412.105529 L438.994058,414.072507 L438.010569,414.253474 C437.393103,414.367092 436.784011,414.518221 436.188016,414.705434 Z M442.662348,414.109249 L441.668852,413.99538 L441.896591,412.008388 L442.890087,412.122257 C443.583175,412.201696 444.278692,412.319501 444.967966,412.474849 L445.943496,412.694714 L445.503768,414.645775 L444.528237,414.42591 C443.909003,414.286348 443.284253,414.180528 442.662348,414.109249 Z M448.945067,416.09154 L448.071592,415.60467 L449.045331,413.857721 L449.918806,414.344591 C450.548585,414.695626 451.147365,415.082574 451.710324,415.504135 L452.510774,416.103534 L451.311975,417.704434 L450.511525,417.105034 C450.02128,416.737925 449.497722,416.399587 448.945067,416.09154 Z M453.605079,420.548916 L453.108305,419.681036 L454.844065,418.687488 L455.340839,419.555368 C455.578334,419.97028 455.792041,420.399096 455.981168,420.841397 C456.063773,421.034581 456.147946,421.225336 456.233685,421.413661 L456.648032,422.32378 L454.827794,423.152475 L454.413447,422.242356 C454.321289,422.03993 454.230884,421.835052 454.142231,421.627725 C453.983562,421.256656 453.80433,420.897014 453.605079,420.548916 Z M457.049092,426.745608 L456.450049,425.944892 L458.051481,424.746804 L458.650525,425.54752 C459.035783,426.062478 459.439735,426.548554 459.862394,427.005891 L460.54111,427.740292 L459.072308,429.097724 L458.393593,428.363323 C457.923643,427.854816 457.475472,427.315531 457.049092,426.745608 Z M462.514293,431.710782 L461.654709,431.199787 L462.676701,429.48062 L463.536284,429.991616 C464.073432,430.310934 464.631211,430.600453 465.209801,430.860219 L466.122076,431.269796 L465.302921,433.094347 L464.390646,432.684769 C463.742725,432.393877 463.117213,432.0692 462.514293,431.710782 Z M469.404214,434.188771 L468.41869,434.019235 L468.757763,432.048187 L469.743286,432.217723 C470.359487,432.323726 470.993243,432.405305 471.644596,432.462392 L472.640778,432.5497 L472.466161,434.542063 L471.469979,434.454754 C470.764103,434.392889 470.0755,434.30425 469.404214,434.188771 Z M476.596814,434.548708 L475.596814,434.548708 L475.596814,432.548708 L476.596814,432.548708 L478.596814,432.548708 L479.596814,432.548708 L479.596814,434.548708 L478.596814,434.548708 L476.596814,434.548708 Z M483.596814,434.548708 L482.596814,434.548708 L482.596814,432.548708 L483.596814,432.548708 L485.596814,432.548708 L486.596814,432.548708 L486.596814,434.548708 L485.596814,434.548708 L483.596814,434.548708 Z M490.596814,434.548708 L489.596814,434.548708 L489.596814,432.548708 L490.596814,432.548708 L492.596814,432.548708 L493.596814,432.548708 L493.596814,434.548708 L492.596814,434.548708 L490.596814,434.548708 Z M497.596814,434.548708 L496.596814,434.548708 L496.596814,432.548708 L497.596814,432.548708 L499.596814,432.548708 L500.596814,432.548708 L500.596814,434.548708 L499.596814,434.548708 L497.596814,434.548708 Z M504.596814,434.548708 L503.596814,434.548708 L503.596814,432.548708 L504.596814,432.548708 L506.596814,432.548708 L507.596814,432.548708 L507.596814,434.548708 L506.596814,434.548708 L504.596814,434.548708 Z M511.596814,434.548708 L510.596814,434.548708 L510.596814,432.548708 L511.596814,432.548708 L513.596814,432.548708 L514.596814,432.548708 L514.596814,434.548708 L513.596814,434.548708 L511.596814,434.548708 Z M518.596814,434.548708 L517.596814,434.548708 L517.596814,432.548708 L518.596814,432.548708 L520.596814,432.548708 L521.596814,432.548708 L521.596814,434.548708 L520.596814,434.548708 L518.596814,434.548708 Z M525.596814,434.548708 L524.596814,434.548708 L524.596814,432.548708 L525.596814,432.548708 L527.596814,432.548708 L528.596814,432.548708 L528.596814,434.548708 L527.596814,434.548708 L525.596814,434.548708 Z M532.596814,434.548708 L531.596814,434.548708 L531.596814,432.548708 L532.596814,432.548708 L534.596814,432.548708 L535.596814,432.548708 L535.596814,434.548708 L534.596814,434.548708 L532.596814,434.548708 Z M539.596814,434.548708 L538.596814,434.548708 L538.596814,432.548708 L539.596814,432.548708 L541.596814,432.548708 L542.596814,432.548708 L542.596814,434.548708 L541.596814,434.548708 L539.596814,434.548708 Z M546.596814,434.548708 L545.596814,434.548708 L545.596814,432.548708 L546.596814,432.548708 L548.596814,432.548708 L549.596814,432.548708 L549.596814,434.548708 L548.596814,434.548708 L546.596814,434.548708 Z M553.596814,434.548708 L552.596814,434.548708 L552.596814,432.548708 L553.596814,432.548708 L555.596814,432.548708 L556.596814,432.548708 L556.596814,434.548708 L555.596814,434.548708 L553.596814,434.548708 Z M560.596814,434.548708 L559.596814,434.548708 L559.596814,432.548708 L560.596814,432.548708 L562.596814,432.548708 L563.596814,432.548708 L563.596814,434.548708 L562.596814,434.548708 L560.596814,434.548708 Z M567.596814,434.548708 L566.596814,434.548708 L566.596814,432.548708 L567.596814,432.548708 L569.596814,432.548708 L570.596814,432.548708 L570.596814,434.548708 L569.596814,434.548708 L567.596814,434.548708 Z M574.596814,434.548708 L573.596814,434.548708 L573.596814,432.548708 L574.596814,432.548708 L576.596814,432.548708 L577.596814,432.548708 L577.596814,434.548708 L576.596814,434.548708 L574.596814,434.548708 Z M581.596814,434.548708 L580.596814,434.548708 L580.596814,432.548708 L581.596814,432.548708 L583.596814,432.548708 L584.596814,432.548708 L584.596814,434.548708 L583.596814,434.548708 L581.596814,434.548708 Z M588.596814,434.548708 L587.596814,434.548708 L587.596814,432.548708 L588.596814,432.548708 L590.596814,432.548708 L591.596814,432.548708 L591.596814,434.548708 L590.596814,434.548708 L588.596814,434.548708 Z M595.596814,434.548708 L594.596814,434.548708 L594.596814,432.548708 L595.596814,432.548708 L597.596814,432.548708 L598.596814,432.548708 L598.596814,434.548708 L597.596814,434.548708 L595.596814,434.548708 Z M602.596814,434.548708 L601.596814,434.548708 L601.596814,432.548708 L602.596814,432.548708 L604.596814,432.548708 L605.596814,432.548708 L605.596814,434.548708 L604.596814,434.548708 L602.596814,434.548708 Z M609.596814,434.548708 L608.596814,434.548708 L608.596814,432.548708 L609.596814,432.548708 L611.596814,432.548708 L612.596814,432.548708 L612.596814,434.548708 L611.596814,434.548708 L609.596814,434.548708 Z M616.596814,434.548708 L615.596814,434.548708 L615.596814,432.548708 L616.596814,432.548708 L618.596814,432.548708 L619.596814,432.548708 L619.596814,434.548708 L618.596814,434.548708 L616.596814,434.548708 Z M623.596814,434.548708 L622.596814,434.548708 L622.596814,432.548708 L623.596814,432.548708 L625.596814,432.548708 L626.596814,432.548708 L626.596814,434.548708 L625.596814,434.548708 L623.596814,434.548708 Z M630.596814,434.548708 L629.596814,434.548708 L629.596814,432.548708 L630.596814,432.548708 L632.596814,432.548708 L633.596814,432.548708 L633.596814,434.548708 L632.596814,434.548708 L630.596814,434.548708 Z M637.596814,434.548708 L636.596814,434.548708 L636.596814,432.548708 L637.596814,432.548708 L639.596814,432.548708 L640.596814,432.548708 L640.596814,434.548708 L639.596814,434.548708 L637.596814,434.548708 Z M644.596814,434.548708 L643.596814,434.548708 L643.596814,432.548708 L644.596814,432.548708 L646.596814,432.548708 L647.596814,432.548708 L647.596814,434.548708 L646.596814,434.548708 L644.596814,434.548708 Z M651.596814,434.548708 L650.596814,434.548708 L650.596814,432.548708 L651.596814,432.548708 L653.596814,432.548708 L654.596814,432.548708 L654.596814,434.548708 L653.596814,434.548708 L651.596814,434.548708 Z M658.596814,434.548708 L657.596814,434.548708 L657.596814,432.548708 L658.596814,432.548708 L660.596814,432.548708 L661.596814,432.548708 L661.596814,434.548708 L660.596814,434.548708 L658.596814,434.548708 Z M665.596814,434.548708 L664.596814,434.548708 L664.596814,432.548708 L665.596814,432.548708 L667.596814,432.548708 L668.596814,432.548708 L668.596814,434.548708 L667.596814,434.548708 L665.596814,434.548708 Z M672.596814,434.548708 L671.596814,434.548708 L671.596814,432.548708 L672.596814,432.548708 L674.596814,432.548708 L675.596814,432.548708 L675.596814,434.548708 L674.596814,434.548708 L672.596814,434.548708 Z M679.596814,434.548708 L678.596814,434.548708 L678.596814,432.548708 L679.596814,432.548708 L681.596814,432.548708 L682.596814,432.548708 L682.596814,434.548708 L681.596814,434.548708 L679.596814,434.548708 Z M686.596814,434.548708 L685.596814,434.548708 L685.596814,432.548708 L686.596814,432.548708 L688.596814,432.548708 L689.596814,432.548708 L689.596814,434.548708 L688.596814,434.548708 L686.596814,434.548708 Z" fill="#D0021B" fill-rule="nonzero"></path>
        <text id="EAV-table-data,-JSON" font-family="Helvetica" font-size="13" font-weight="normal" fill="#D0021B">
            <tspan x="185.188721" y="424">EAV table data, JSON</tspan>
        </text>
        <text id="&lt;HTML&gt;" font-family="Helvetica" font-size="13" font-weight="normal" fill="#D0021B">
            <tspan x="569.214111" y="424">&lt;HTML&gt;</tspan>
        </text>
        <g id="Group" transform="translate(700.000000, 407.000000)">
            <use id="Rectangle" stroke="#D0021B" mask="url(#mask-14)" stroke-width="4" fill="#F7E9E9" stroke-dasharray="4" transform="translate(38.000000, 25.500000) scale(-1, 1) translate(-38.000000, -25.500000) " xlink:href="#path-13"></use>
            <path d="M143,45 C143,48.3137085 140.313708,51 137,51 L74,51 C70.6862915,51 68,48.3137085 68,45 L68,6 C68,2.6862915 70.6862915,6.08718376e-16 74,0 L74,0 L137,0 C140.313708,-6.08718376e-16 143,2.6862915 143,6" id="Path" stroke="#000000" stroke-width="2" transform="translate(105.500000, 25.500000) scale(-1, 1) translate(-105.500000, -25.500000) "></path>
            <text id="content" font-family="Helvetica" font-size="13" font-weight="normal" fill="#D0021B">
                <tspan x="15.6782227" y="30">content</tspan>
            </text>
            <text id="Banner" font-family="Helvetica" font-size="13" font-weight="normal" fill="#000000">
                <tspan x="86.5400391" y="29">Banner</tspan>
            </text>
        </g>
        <g id="Group-3" transform="translate(16.000000, 407.000000)">
            <use id="Rectangle" stroke="#D0021B" mask="url(#mask-16)" stroke-width="4" fill="#F7E9E9" stroke-dasharray="4" xlink:href="#path-15"></use>
            <path d="M75,45 C75,48.3137085 72.3137085,51 69,51 L6,51 C2.6862915,51 4.05812251e-16,48.3137085 0,45 L0,6 C-4.05812251e-16,2.6862915 2.6862915,6.08718376e-16 6,0 L6,0 L69,0 C72.3137085,-6.08718376e-16 75,2.6862915 75,6" id="Path" stroke="#000000" stroke-width="2"></path>
            <text id="content" font-family="Helvetica" font-size="13" font-weight="normal" fill="#D0021B">
                <tspan x="85.6782227" y="30">content</tspan>
            </text>
            <text id="Driver" font-family="Helvetica" font-size="13" font-weight="normal" fill="#000000">
                <tspan x="21.1677246" y="29">Driver</tspan>
            </text>
        </g>
        <text id="Driver.php" font-family="Helvetica-Bold, Helvetica" font-size="13" font-weight="bold" fill="#000000">
            <tspan x="394.993652" y="402">Driver.php</tspan>
        </text>
        <text id="BlueFoot-Blocks" font-family="Helvetica-Bold, Helvetica" font-size="14" font-weight="bold" fill="#000000">
            <tspan x="11.7724609" y="79">BlueFoot Blocks</tspan>
        </text>
        <text id="Page-Builder-Content" font-family="Helvetica-Bold, Helvetica" font-size="14" font-weight="bold" fill="#000000">
            <tspan x="661.651855" y="79">Page Builder Content Types</tspan>
        </text>
        <g id="Group-2" transform="translate(345.000000, 25.000000)" fill="#000000">
            <text id="Content-Type-Rendere" font-family="Helvetica" font-size="14" font-weight="normal">
                <tspan x="4.34863281" y="34">Content Type Renderers</tspan>
            </text>
            <text id="Data-Migration-Modul" font-family="Helvetica-Bold, Helvetica" font-size="15" font-weight="bold">
                <tspan x="0.0837402344" y="15">Data Migration Module</tspan>
            </text>
        </g>
    </g>
</svg>