<svg xmlns="http://www.w3.org/2000/svg" width="850" height="310" viewBox="0 0 850 310">
  <g fill="none" fill-rule="evenodd">
    <rect width="850" height="310" fill="#FFF"/>
    <rect width="850" height="49" y="20" fill="#373331"/>
    <polygon fill="#F7F3EB" fill-rule="nonzero" points="815.73 49.567 818.295 47 820 48.703 817.435 51.269 819.168 53 814 53 814 47.84" transform="rotate(180 817 50)"/>
    <polygon fill="#F7F3EB" fill-rule="nonzero" points="825.723 39.578 828.297 37 830 38.695 827.427 41.273 829.162 43 824 43 824 37.863"/>
    <g transform="translate(628 30)">
      <rect width="145" height="31" fill="#E3E3E3" stroke="#ADADAD"/>
      <text fill="#333" font-family="Helvetica-Bold, Helvetica" font-size="14" font-weight="bold">
        <tspan x="14.228" y="21">Save as Template</tspan>
      </text>
    </g>
    <g transform="translate(490 30)">
      <rect width="132" height="31" fill="#E3E3E3" stroke="#ADADAD"/>
      <text fill="#333" font-family="Helvetica-Bold, Helvetica" font-size="14" font-weight="bold">
        <tspan x="14.319" y="21">Apply Template</tspan>
      </text>
    </g>
    <rect width="108" height="49" x="303" y="20" fill="#373331"/>
    <rect width="54" height="48" x="357" y="20" fill="#000"/>
    <path fill="#9B9B9B" fill-rule="nonzero" d="M342.962076,53.0598881 L340.110485,45.4283919 L340.110485,34.7138817 C340.115567,34.3249467 339.792487,34.005516 339.388447,34 L320.611553,34 C320.207513,34.005516 319.884433,34.3249467 319.889515,34.7138817 L319.889515,45.4283919 L317.037924,53.0598881 C317.01318,53.1329493 317.000406,53.2092735 317,53.2861183 C316.994977,53.6750533 317.318057,53.994484 317.722097,54 L342.277903,54 C342.681943,53.994484 343.005023,53.6750533 343,53.2861183 C342.999594,53.2092735 342.98682,53.1329493 342.962076,53.0598881 Z M326,52 L326.888353,49 L333.111647,49 L334,51.9960457 L326,52 Z M339,46 L321,46 L321,36 L338.998644,36 L339,46 Z"/>
    <path fill="#FFF" fill-rule="nonzero" d="M387.9,34 L379.1,34 C378.492487,34 378,34.4924868 378,35.1 L378,52.7 C378,53.3075132 378.492487,53.8 379.1,53.8 L387.9,53.8 C388.507513,53.8 389,53.3075132 389,52.7 L389,35.1 C389,34.4924868 388.507513,34 387.9,34 Z M382.95,35.1 L384.05,35.1 C384.348954,35.1112932 384.588707,35.3510461 384.6,35.65 C384.588707,35.9489539 384.348954,36.1887068 384.05,36.2 L382.95,36.2 C382.64894,36.1935861 382.406414,35.9510599 382.4,35.65 C382.406972,35.3491784 382.649178,35.1069716 382.95,35.1 Z M383.5,53.305 C382.862111,53.305 382.345,52.7878889 382.345,52.15 C382.345,51.5121111 382.862111,50.995 383.5,50.995 C384.137889,50.995 384.655,51.5121111 384.655,52.15 C384.655,52.456325 384.533313,52.7501038 384.316708,52.9667083 C384.100104,53.1833128 383.806325,53.305 383.5,53.305 Z M387.9,50.5 L379.1,50.5 L379.1,37.3 L387.9,37.3 L387.9,50.5 Z"/>
    <rect width="849" height="309" x=".5" y=".5" stroke="#999"/>
    <rect width="41" height="240" x="1" y="69" fill="#D8D8D8"/>
    <rect width="41" height="240" x="808" y="69" fill="#D8D8D8"/>
    <g fill="#AAA6A0" fill-rule="nonzero" transform="translate(192 176)">
      <path d="M156.07065,21.985141 C156.101829,21.9840643 156.16863,21.9823064 156.269891,21.9805011 C156.949044,21.9683932 157.872327,21.9757508 159.012754,22.0172606 L159.087212,20.0433769 C157.908885,20.0004876 156.948692,19.9928359 156.233403,20.005588 C156.120658,20.007598 156.042473,20.0096554 156,20.0111222 L156.07065,21.985141 Z M161.987773,22.1837727 C162.949399,22.2553413 163.940295,22.3454905 164.957553,22.4557945 L165.178177,20.4924814 C164.137762,20.3796663 163.123972,20.2874343 162.139687,20.2141793 L161.987773,22.1837727 Z M167.917298,22.8253307 C168.891359,22.9628784 169.873918,23.1173199 170.863541,23.2894269 L171.214091,21.3444357 C170.202824,21.1685647 169.198794,21.0107482 168.203419,20.8701906 L167.917298,22.8253307 Z M173.794092,23.8476303 C174.762906,24.0483891 175.732041,24.2654869 176.700531,24.4994402 L177.180715,22.5813483 C176.190395,22.3421218 175.199553,22.1201613 174.209144,21.9149277 L173.794092,23.8476303 Z M179.588856,25.2485206 C180.544959,25.5138048 181.496652,25.7953964 182.443189,26.093693 L183.057461,24.212877 C182.088291,23.9074475 181.114038,23.6191809 180.135445,23.3476566 L179.588856,25.2485206 Z M185.267152,27.0393602 C186.202568,27.3715123 187.130241,27.720174 188.049552,28.0856749 L188.803961,26.2547209 C187.861025,25.8798272 186.90974,25.5222913 185.95073,25.181761 L185.267152,27.0393602 Z M190.793298,29.2381756 C191.699754,29.6399018 192.595854,30.0584536 193.481063,30.4941172 L194.381795,28.7281335 C193.472052,28.2803946 192.551351,27.8503522 191.620238,27.4376988 L190.793298,29.2381756 Z M196.101902,31.8519107 C196.970636,32.3252796 197.826865,32.8158191 198.670114,33.3237852 L199.721307,31.6399475 C198.852955,31.1168594 197.971455,30.6118417 197.077299,30.1246206 L196.101902,31.8519107 Z M201.171644,34.9077003 C201.99268,35.4538618 202.799435,36.0174777 203.591487,36.5987817 L204.795022,35.016421 C203.977908,34.416723 203.145798,33.835394 202.299141,33.2721892 L201.171644,34.9077003 Z M205.929956,38.4015676 C206.693737,39.0199565 207.441821,39.65597 208.173828,40.3098234 L209.526632,38.8484317 C208.770414,38.1729527 207.997695,37.5159946 207.208885,36.8773403 L205.929956,38.4015676 Z M210.330967,42.3347383 C211.027674,43.0221015 211.707677,43.7270514 212.370638,44.4497865 L213.864469,43.1275564 C213.179082,42.3803739 212.476107,41.6516094 211.755913,40.9410732 L210.330967,42.3347383 Z M214.308247,46.6718004 C214.930427,47.4226654 215.535309,48.1908568 216.122592,48.9765558 L217.743417,47.8075314 C217.136319,46.9953222 216.510989,46.2011608 215.867751,45.4248836 L214.308247,46.6718004 Z M217.831275,51.3862878 C218.373485,52.1929647 218.898217,53.0164618 219.405206,53.8569412 L221.135128,52.8500227 C220.611509,51.9819754 220.069477,51.1313286 219.509315,50.2979428 L217.831275,51.3862878 Z M220.85222,56.3915764 C221.312744,57.2448955 221.755973,58.1143227 222.181675,59 L224,58.1566684 C223.561041,57.2434103 223.1039,56.346693 222.628817,55.4663976 L220.85222,56.3915764 Z"/>
      <polygon points="226 62 232 74 220 74" transform="rotate(158 226 68)"/>
      <polygon points="2 39 95.039 39 95.039 41 0 41 0 0 152 0 152 41 123.861 41 123.861 39 150 39 150 2 2 2"/>
      <path d="M105.99637,65 L110.00363,65 C116.634448,65 122,59.627417 122,53 L122,32.9950893 C122,31.8926228 121.104569,31 120,31 C118.88773,31 118,31.8932319 118,32.9950893 L118,41 C118,41 117.972856,41.9617915 117.098381,41.9617915 C116.223905,41.9617915 116,41 116,41 C116.070956,40.649129 116,27.5028229 116,27.5028229 C116,26.1259806 114.880712,25 113.5,25 C112.109662,25 111,26.120552 111,27.5028229 L111,41 C110.154994,42.4683606 109,41 109,41 L109,24.5005016 C109,23.1253794 107.880712,22 106.5,22 C105.109662,22 104,23.1195127 104,24.5005016 L104,41 C103.558772,42.7970122 101.983603,41.6539922 102,40.9987039 L102,28.5005016 C102,27.1253794 100.880712,26 99.5,26 C98.1096621,26 97,27.1195127 97,28.5005016 L97,43.2911407 C97,45.8741736 95.0071897,46.9683508 95,45.8741736 L95,40.9987039 L90,41 L90,46.9683508 C90,48.353756 90.0976629,49.960607 91.6132773,52.1858498 L94.5979231,56.7521874 C96.1726229,61.5426205 100.680752,65 105.99637,65 Z M89.9602708,53.3117137 C88.4360325,51.0738091 88,49.3346259 88,46.9683508 L88,41 C88,39.895633 88.8951146,39.0002863 89.9994816,39 L94.9994816,38.998704 C94.9995968,38.998704 94.9997696,35.4993032 95,28.5005016 C95,26.0128893 97.0071329,24 99.5,24 C100.424853,24 101.284813,24.2799504 102,24.7594295 L102,24.5005016 C102,22.0128893 104.007133,20 106.5,20 C108.743167,20 110.604585,21.6468685 110.944531,23.7931396 C111.669444,23.2928372 112.549354,23 113.5,23 C115.984589,23 118,25.02071 117.999971,27.4920283 C118.000959,27.6751025 118.002685,28.0104849 118.004904,28.4685584 C118.006557,28.8097572 118.00821,29.1634445 118.009841,29.5269407 C118.59546,29.1916138 119.274743,29 120,29 C122.208157,29 124,30.7870668 124,32.9950893 L124,53 C124,60.73358 117.737426,67 110.00363,67 L105.99637,67 C99.9980255,67 94.7329466,63.1925747 92.7856041,57.6349422 L89.9602708,53.3117137 Z"/>
    </g>
    <text fill="#AAA6A0" font-family="Helvetica" font-size="14" letter-spacing=".3">
      <tspan x="193" y="275">Drag Row, Columns, Tabs, Block, Dynamic Block or HTML Code here</tspan>
    </text>
    <path fill="#D0021B" fill-rule="nonzero" d="M794.868686,123.388163 L795.740261,123.878424 L807.740261,130.628424 L809.289729,131.5 L807.740261,132.371576 L795.740261,139.121576 L794.868686,139.611837 L793.888163,137.868686 L794.759739,137.378424 L803.432,132.5 L46.567,132.5 L55.2402612,137.378424 L56.1118368,137.868686 L55.1313143,139.611837 L54.2597388,139.121576 L42.2597388,132.371576 L40.7102711,131.5 L42.2597388,130.628424 L54.2597388,123.878424 L55.1313143,123.388163 L56.1118368,125.131314 L55.2402612,125.621576 L46.567,130.5 L803.432,130.5 L794.759739,125.621576 L793.888163,125.131314 L794.868686,123.388163 Z"/>
    <text fill="#D0021B" font-family="Helvetica-Bold, Helvetica" font-size="14" font-weight="bold">
      <tspan x="365" y="120">768px</tspan>
    </text>
    <line x1="384" x2="384" y1="96" y2="77" stroke="#D0021B" stroke-linecap="square" stroke-width="2"/>
  </g>
</svg>
