<svg xmlns="http://www.w3.org/2000/svg" width="959" height="218" viewBox="0 0 959 218">
  <g fill="none" fill-rule="evenodd">
    <rect width="959" height="218" fill="#FFF"/>
    <text fill="#D0021B" font-family="Helvetica" font-size="26">
      <tspan x="19" y="173">#html-body</tspan>
    </text>
    <text fill="#06C" font-family="Helvetica" font-size="26">
      <tspan x="174.5" y="172">[ data-content-type =</tspan>
    </text>
    <text fill="#06C" font-family="Helvetica" font-size="26">
      <tspan x="422.5" y="173">&apos;my-custom&apos;</tspan>
    </text>
    <path stroke="#D0021B" stroke-dasharray="2 4" stroke-linecap="square" stroke-width="2" d="M19,137 L19,120 L149,120 L149,137"/>
    <path stroke="#06C" stroke-dasharray="2 4" stroke-linecap="square" stroke-width="2" d="M174.5,139 L174.5,120 L573.5,120 L573.5,139"/>
    <text fill="#D0021B" font-family="Helvetica" font-size="14">
      <tspan x="52.766" y="75">html-body</tspan> <tspan x="50.045" y="94">ID selector </tspan>
    </text>
    <text fill="#06C" font-family="Helvetica" font-size="14">
      <tspan x="331.707" y="75">attribute</tspan> <tspan x="332.49" y="94">selector </tspan>
    </text>
    <text fill="#000" font-family="Helvetica-Bold, Helvetica" font-size="16" font-weight="bold">
      <tspan x="392.5" y="34">any additional selector </tspan>
    </text>
    <text fill="#000" font-family="Helvetica-Bold, Helvetica" font-size="16" font-weight="bold">
      <tspan x="793.5" y="35">Specificity</tspan>
    </text>
    <g transform="translate(755 62)">
      <circle cx="24" cy="24" r="24" fill="#E86764"/>
      <path fill="#FFF" fill-rule="nonzero" d="M18.4615385,19.9308894 L18.4615385,17.3076923 C19.6784917,17.2536055 20.5303461,17.1724765 21.0171274,17.0643029 C21.7923717,16.893028 22.423375,16.5504833 22.9101562,16.0366587 C23.2436916,15.6850944 23.4960929,15.2163491 23.6673678,14.6304087 C23.7665269,14.2788444 23.8161058,14.0174287 23.8161058,13.8461538 L27.0207332,13.8461538 L27.0207332,33.452524 L23.0724159,33.452524 L23.0724159,19.9308894 L18.4615385,19.9308894 Z"/>
    </g>
    <text fill="#D0021B" font-family="Helvetica" font-size="14">
      <tspan x="739.707" y="147">1 ID selector </tspan>
    </text>
    <text fill="#06C" font-family="Helvetica" font-size="14">
      <tspan x="765.65" y="180">1 attribute + 1 class selector</tspan>
    </text>
    <line x1="779.5" x2="779.5" y1="114.5" y2="133.5" stroke="#D0021B" stroke-linecap="square"/>
    <line x1="835.5" x2="835.5" y1="114.5" y2="161.5" stroke="#06C" stroke-linecap="square"/>
    <polygon fill="#06C" fill-rule="nonzero" points="573.472 177.116 573.472 153.224 568.597 153.224 568.597 155.09 571.301 155.09 571.301 175.25 568.597 175.25 568.597 177.116"/>
    <path fill="#FFF" fill-rule="nonzero" d="M837.095703 97.5L837.095703 77.6757812 833.855469 77.6757812C833.855469 77.8489583 833.805339 78.1132812 833.705078 78.46875 833.531901 79.0611979 833.276693 79.5351562 832.939453 79.890625 832.447266 80.4101562 831.809245 80.7565104 831.025391 80.9296875 830.533203 81.0390625 829.671875 81.1210938 828.441406 81.1757812L828.441406 81.1757812 828.441406 83.828125 833.103516 83.828125 833.103516 97.5 837.095703 97.5zM892.595703 97.5L892.595703 77.6757812 889.355469 77.6757812C889.355469 77.8489583 889.305339 78.1132812 889.205078 78.46875 889.031901 79.0611979 888.776693 79.5351562 888.439453 79.890625 887.947266 80.4101562 887.309245 80.7565104 886.525391 80.9296875 886.033203 81.0390625 885.171875 81.1210938 883.941406 81.1757812L883.941406 81.1757812 883.941406 83.828125 888.603516 83.828125 888.603516 97.5 892.595703 97.5z"/>
    <path fill="#000" fill-rule="nonzero" d="M632.790686,44.5562732 L633.26993,45.4339552 L638.038,54.168 L638.049047,53.3477003 L640.048888,53.3728936 L640.038,54.193 L645.025846,45.582052 L645.527047,44.7167212 L647.257709,45.7191237 L646.756507,46.5844545 L639.855883,58.4984751 L638.964859,60.0368409 L638.11287,58.4765173 L631.514566,46.392442 L631.035322,45.51476 L632.790686,44.5562732 Z M638.124627,47.3481764 L640.124468,47.3733697 L640.111871,48.3732903 L640.086678,50.3731316 L640.074081,51.3730523 L638.07424,51.347859 L638.086837,50.3479384 L638.11203,48.3480971 L638.124627,47.3481764 Z M639.326028,41.2660549 L639.545597,42.2416518 C639.655858,42.731567 639.754916,43.235534 639.842806,43.7535585 L639.926974,44.2762691 L640.077768,45.2648343 L638.100638,45.5664223 L637.949844,44.5778571 C637.882954,44.1393446 637.807987,43.7121248 637.724968,43.2962016 L637.594403,42.6807898 L637.374834,41.7051928 L639.326028,41.2660549 Z M636.783476,35.4900343 L637.295425,36.34905 C637.560464,36.7937666 637.808127,37.2599125 638.038481,37.7473909 L638.263068,38.2419766 L638.662864,39.158581 L636.829655,39.958172 L636.429859,39.0415676 C636.235891,38.5968584 636.027532,38.1728581 635.804849,37.7694697 L635.577394,37.3729485 L635.065444,36.5139328 L636.783476,35.4900343 Z M631.883843,31.1991458 L632.742078,31.7124039 C633.241935,32.0113386 633.717855,32.3425263 634.16956,32.7057846 L634.503795,32.9842387 L635.260921,33.6375074 L633.954384,35.1517597 L633.197257,34.498491 C632.85071,34.1994808 632.486357,33.9242415 632.103969,33.672623 L631.715561,33.4288725 L630.857327,32.9156144 L631.883843,31.1991458 Z M625.756895,29.7431429 L626.742889,29.909924 C627.324009,30.0082206 627.870222,30.1110565 628.380905,30.2185772 L628.757245,30.3000983 L629.733288,30.5176768 L629.298131,32.4697625 L628.322088,32.252184 C627.857497,32.1486177 627.356097,32.0488882 626.818911,31.9530551 L626.409327,31.8819119 L625.423333,31.7151307 L625.756895,29.7431429 Z M620.19736,29.1058436 L621.192726,29.2020013 C621.656715,29.2468252 622.108916,29.2932525 622.549099,29.3412986 L623.200333,29.4145838 L624.19367,29.5298296 L623.963178,31.5165037 L622.969841,31.4012578 C622.550426,31.3525978 622.118726,31.3054888 621.674996,31.2599239 L621.00041,31.1927335 L620.005044,31.0965758 L620.19736,29.1058436 Z M614.067252,28.6819753 L615.065576,28.7398536 C615.521884,28.7663083 615.971218,28.7938428 616.413397,28.8224654 L617.071277,28.8662162 L618.068952,28.9343655 L617.932654,30.9297158 L616.934979,30.8615665 C616.504641,30.832171 616.067004,30.8038476 615.622255,30.7765896 L614.949819,30.7365009 L613.951496,30.6786226 L614.067252,28.6819753 Z M581.565586,28.4537977 L581.582,28.89 L582,28.8907822 L582,30.8907822 L580.623271,30.8904967 C580.131973,30.8897364 579.684762,30.8874605 579.282335,30.8837116 L578.988922,30.8806243 L577.988992,30.8688279 L577.991,30.617 L577.662773,30.6357388 L577.553409,28.6387312 L578.551912,28.5840492 C579.025817,28.5580963 579.57577,28.5323179 580.1901,28.5072963 L580.566331,28.4923789 L581.565586,28.4537977 Z M607.660426,28.4198732 L608.659875,28.4530715 L609.669875,28.4882729 L609.669875,28.4882729 L610.664902,28.5263031 L611.664105,28.566225 L611.584261,30.5646306 L610.585058,30.5247087 L609.596795,30.4869373 L609.596795,30.4869373 L608.593478,30.451969 L607.594029,30.4187708 L607.660426,28.4198732 Z M588.083303,28.3009626 L588.118436,30.300654 L587.11859,30.3182205 C586.66482,30.3261928 586.217671,30.3347734 585.778313,30.3439255 L585.125266,30.3580777 L584.12552,30.3805968 L584.080481,28.381104 L585.080228,28.3585849 C585.513716,28.3488206 585.955571,28.3396133 586.404625,28.3309997 L587.083457,28.3185291 L588.083303,28.3009626 Z M601.481731,28.2871537 L602.481603,28.3031945 L603.487968,28.3205984 L603.487968,28.3205984 L604.485749,28.340399 L605.485526,28.36154 L605.443244,30.361093 L604.443467,30.339952 L603.45081,30.3202532 L603.45081,30.3202532 L602.449521,30.3029372 L601.44965,30.2868963 L601.481731,28.2871537 Z M593.659635,28.2491946 L593.670723,30.2491639 L592.670738,30.2547076 L591.669879,30.2612999 L591.669879,30.2612999 L590.675764,30.269923 L589.675811,30.2796432 L589.656371,28.2797377 L590.656323,28.2700174 L591.654609,28.2613582 L591.654609,28.2613582 L592.659651,28.2547383 L593.659635,28.2491946 Z M595.522133,28.2463146 L596.52213,28.24884 L597.525752,28.2524518 L597.525752,28.2524518 L598.527084,28.2582274 L599.527061,28.2650921 L599.513331,30.265045 L598.513355,30.2581803 L597.516376,30.2524298 L597.516376,30.2524298 L596.517079,30.2488337 L595.517082,30.2463082 L595.522133,28.2463146 Z"/>
    <g transform="translate(866 62)">
      <circle cx="24" cy="24" r="24" fill="#BE74FF"/>
      <path fill="#FFF" fill-rule="nonzero" d="M21.4732572,23.9738582 C21.4732572,26.2274752 21.658051,27.9514664 22.0276442,29.1458834 C22.3972374,30.3403004 23.1544414,30.9375 24.2992788,30.9375 C25.4441163,30.9375 26.1945595,30.3403004 26.550631,29.1458834 C26.9067025,27.9514664 27.0847356,26.2274752 27.0847356,23.9738582 C27.0847356,21.6120675 26.9067025,19.8632869 26.550631,18.7274639 C26.1945595,17.591641 25.4441163,17.023738 24.2992788,17.023738 C23.1544414,17.023738 22.3972374,17.591641 22.0276442,18.7274639 C21.658051,19.8632869 21.4732572,21.6120675 21.4732572,23.9738582 Z M24.2992788,13.8461538 C26.7962865,13.8461538 28.5473207,14.7250513 29.5524339,16.4828726 C30.5575471,18.2406939 31.0600962,20.7376641 31.0600962,23.9738582 C31.0600962,27.2100522 30.5575471,29.7025153 29.5524339,31.4513221 C28.5473207,33.2001289 26.7962865,34.0745192 24.2992788,34.0745192 C21.8022712,34.0745192 20.051237,33.2001289 19.0461238,31.4513221 C18.0410106,29.7025153 17.5384615,27.2100522 17.5384615,23.9738582 C17.5384615,20.7376641 18.0410106,18.2406939 19.0461238,16.4828726 C20.051237,14.7250513 21.8022712,13.8461538 24.2992788,13.8461538 Z"/>
    </g>
    <g transform="translate(810.5 62)">
      <circle cx="24" cy="24" r="24" fill="#60A1E3"/>
      <path fill="#FFF" fill-rule="nonzero" d="M31.4511719,34 L31.4511719,30.5683594 L22.796875,30.5683594 C23.0429688,30.1582031 23.3460286,29.7981771 23.7060547,29.4882812 C24.0660807,29.1783854 24.733724,28.6770833 25.7089844,27.984375 L25.7089844,27.984375 L27.2675781,26.8769531 C28.5800781,25.9472656 29.5234375,25.1041667 30.0976562,24.3476562 C30.9726562,23.2083333 31.4101562,21.9049479 31.4101562,20.4375 C31.4101562,18.5234375 30.7903646,16.9853516 29.5507812,15.8232422 C28.3111979,14.6611328 26.6432292,14.0800781 24.546875,14.0800781 C21.8945312,14.0800781 20.0488281,15.0690104 19.0097656,17.046875 C18.4628906,18.0859375 18.1575521,19.4485677 18.09375,21.1347656 L18.09375,21.1347656 L21.8808594,21.1347656 C21.9264323,20.0227865 22.0722656,19.2115885 22.3183594,18.7011719 C22.7467448,17.8170573 23.5533854,17.375 24.7382812,17.375 C25.6041667,17.375 26.2695312,17.6529948 26.734375,18.2089844 C27.1992188,18.764974 27.4316406,19.4622396 27.4316406,20.3007812 C27.4316406,21.3307292 27.0260417,22.2786458 26.2148438,23.1445312 C25.6861979,23.7005208 24.5240885,24.6210938 22.7285156,25.90625 C20.6595052,27.3828125 19.3470052,28.781901 18.7910156,30.1035156 C18.2167969,31.2792969 17.9114583,32.578125 17.875,34 L17.875,34 L31.4511719,34 Z"/>
    </g>
    <text fill="#06C" font-family="Helvetica" font-size="34">
      <tspan x="582" y="174">.</tspan> <tspan x="591.446" y="174" font-size="26">my-class</tspan>
    </text>
    <path stroke="#06C" stroke-dasharray="2 4" stroke-linecap="square" stroke-width="2" d="M582,138 L582,119 L694,119 L694,138"/>
    <text fill="#06C" font-family="Helvetica" font-size="14">
      <tspan x="623.052" y="81">class</tspan> <tspan x="614.49" y="100">selector </tspan>
    </text>
    <rect width="958" height="216" x=".5" y="1.5" stroke="#999"/>
  </g>
</svg>
