<svg xmlns="http://www.w3.org/2000/svg" width="847" height="408" viewBox="0 0 847 408">
  <g fill="none" fill-rule="evenodd">
    <rect width="847" height="408" fill="#FFF"/>
    <g transform="translate(40 82)">
      <text fill="#222" font-family="Helvetica" font-size="14">
        <tspan x="25" y="16">ModuleName</tspan>
      </text>
      <g transform="translate(0 2)">
        <polygon fill="#7C7C7C" points="0 0 6 0 8 3 16 3 16 16 0 16"/>
        <polygon fill="#BBB" points="3 7 20 7 17 16 0 16"/>
      </g>
    </g>
    <g transform="translate(65 107)">
      <text fill="#222" font-family="Helvetica" font-size="14">
        <tspan x="25" y="16">etc</tspan>
      </text>
      <g transform="translate(0 2)">
        <polygon fill="#7C7C7C" points="0 0 6 0 8 3 16 3 16 16 0 16"/>
        <polygon fill="#BBB" points="3 7 20 7 17 16 0 16"/>
      </g>
    </g>
    <g transform="translate(65 132)">
      <text fill="#222" font-family="Helvetica" font-size="14">
        <tspan x="25" y="16">view</tspan>
      </text>
      <g transform="translate(0 2)">
        <polygon fill="#7C7C7C" points="0 0 6 0 8 3 16 3 16 16 0 16"/>
        <polygon fill="#BBB" points="3 7 20 7 17 16 0 16"/>
      </g>
    </g>
    <g transform="translate(90 157)">
      <text fill="#06C" font-family="Helvetica" font-size="14">
        <tspan x="25" y="16">adminhtml</tspan>
      </text>
      <g transform="translate(0 2)">
        <polygon fill="#06C" points="0 0 6 0 8 3 16 3 16 16 0 16"/>
        <polygon fill="#B3D6FF" points="3 7 20 7 17 16 0 16"/>
      </g>
    </g>
    <g transform="translate(115 182)">
      <text fill="#222" font-family="Helvetica" font-size="14">
        <tspan x="25" y="16">web</tspan>
      </text>
      <g transform="translate(0 2)">
        <polygon fill="#7C7C7C" points="0 0 6 0 8 3 16 3 16 16 0 16"/>
        <polygon fill="#BBB" points="3 7 20 7 17 16 0 16"/>
      </g>
    </g>
    <g transform="translate(140 207)">
      <text fill="#222" font-family="Helvetica" font-size="14">
        <tspan x="25" y="16">css</tspan>
      </text>
      <g transform="translate(0 2)">
        <polygon fill="#7C7C7C" points="0 0 6 0 8 3 16 3 16 16 0 16"/>
        <polygon fill="#BBB" points="3 7 20 7 17 16 0 16"/>
      </g>
    </g>
    <g transform="translate(165 232)">
      <text fill="#222" font-family="Helvetica" font-size="14">
        <tspan x="25" y="16">source</tspan>
      </text>
      <g transform="translate(0 2)">
        <polygon fill="#7C7C7C" points="0 0 6 0 8 3 16 3 16 16 0 16"/>
        <polygon fill="#BBB" points="3 7 20 7 17 16 0 16"/>
      </g>
    </g>
    <g transform="translate(190 257)">
      <text fill="#222" font-family="Helvetica" font-size="14">
        <tspan x="25" y="16">content-type</tspan>
      </text>
      <g transform="translate(0 2)">
        <polygon fill="#7C7C7C" points="0 0 6 0 8 3 16 3 16 16 0 16"/>
        <polygon fill="#BBB" points="3 7 20 7 17 16 0 16"/>
      </g>
    </g>
    <g transform="translate(15 57)">
      <text fill="#222" font-family="Helvetica" font-size="14">
        <tspan x="25" y="16">VendorName</tspan>
      </text>
      <g transform="translate(0 2)">
        <polygon fill="#7C7C7C" points="0 0 6 0 8 3 16 3 16 16 0 16"/>
        <polygon fill="#BBB" points="3 7 20 7 17 16 0 16"/>
      </g>
    </g>
    <g transform="translate(215 282)">
      <text fill="#06C" font-family="Helvetica" font-size="14">
        <tspan x="25" y="16">heading</tspan>
      </text>
      <g transform="translate(0 2)">
        <polygon fill="#06C" points="0 0 6 0 8 3 16 3 16 16 0 16"/>
        <polygon fill="#B3D6FF" points="3 7 20 7 17 16 0 16"/>
      </g>
    </g>
    <path fill="#BD3C39" fill-rule="nonzero" d="M31.7861328,17.6667132 L31.7861328,18.3571429 L24,18.3571429 L24,17.6667132 L31.7861328,17.6667132 Z M14,3 L14,18 L0,18 L0,10 L6,10 L6,3 L14,3 Z M102.907227,9.09444754 C104.561523,9.09444754 104.561523,9.09444754 105.292969,10.0651507 C105.750977,10.680385 105.750977,10.680385 105.737305,11.3913225 L105.737305,11.3913225 L104.575195,11.3913225 L104.5525,11.2275335 C104.489062,10.905971 104.489062,10.905971 104.28125,10.6325335 C103.857422,10.1471819 103.857422,10.1471819 102.811523,10.1471819 C102.114258,10.1471819 102.114258,10.1471819 101.755371,10.4137835 C101.396484,10.680385 101.396484,10.680385 101.396484,11.117885 C101.396484,11.5964007 101.396484,11.5964007 101.868164,11.88351 C102.141602,12.0544085 102.141602,12.0544085 102.674805,12.1842913 L102.674805,12.1842913 L103.488281,12.3825335 L103.722172,12.4407802 C104.855469,12.7311663 104.855469,12.7311663 105.265625,13.0046038 C105.983398,13.4762835 105.983398,13.4762835 105.983398,14.4880022 C105.983398,15.4655413 105.983398,15.4655413 105.241699,16.1764788 C104.5,16.8874163 104.5,16.8874163 102.982422,16.8874163 C101.348633,16.8874163 101.348633,16.8874163 100.668457,16.1457171 C99.9882812,15.4040179 99.9882812,15.4040179 99.9404297,14.3102679 L99.9404297,14.3102679 L101.123047,14.3102679 L101.142718,14.4801897 C101.213867,14.9723772 101.213867,14.9723772 101.430664,15.2536272 C101.895508,15.8483538 101.895508,15.8483538 103.043945,15.8483538 C103.727539,15.8483538 103.727539,15.8483538 104.24707,15.5509905 C104.766602,15.2536272 104.766602,15.2536272 104.766602,14.6315569 C104.766602,14.1598772 104.766602,14.1598772 104.349609,13.9137835 C104.083008,13.7633929 104.083008,13.7633929 103.296875,13.5651507 L103.296875,13.5651507 L102.319336,13.3190569 L102.092896,13.260097 C101.327271,13.0507464 101.327271,13.0507464 100.938477,12.7995257 C100.145508,12.3005022 100.145508,12.3005022 100.145508,11.4186663 C100.145508,10.3796038 100.145508,10.3796038 100.894043,9.73702567 C101.642578,9.09444754 101.642578,9.09444754 102.907227,9.09444754 Z M95.9072266,9.09444754 C97.5615234,9.09444754 97.5615234,9.09444754 98.2929688,10.0651507 C98.7509766,10.680385 98.7509766,10.680385 98.7373047,11.3913225 L98.7373047,11.3913225 L97.5751953,11.3913225 L97.5525,11.2275335 C97.4890625,10.905971 97.4890625,10.905971 97.28125,10.6325335 C96.8574219,10.1471819 96.8574219,10.1471819 95.8115234,10.1471819 C95.1142578,10.1471819 95.1142578,10.1471819 94.7553711,10.4137835 C94.3964844,10.680385 94.3964844,10.680385 94.3964844,11.117885 C94.3964844,11.5964007 94.3964844,11.5964007 94.8681641,11.88351 C95.1416016,12.0544085 95.1416016,12.0544085 95.6748047,12.1842913 L95.6748047,12.1842913 L96.4882812,12.3825335 L96.722172,12.4407802 C97.8554688,12.7311663 97.8554688,12.7311663 98.265625,13.0046038 C98.9833984,13.4762835 98.9833984,13.4762835 98.9833984,14.4880022 C98.9833984,15.4655413 98.9833984,15.4655413 98.2416992,16.1764788 C97.5,16.8874163 97.5,16.8874163 95.9824219,16.8874163 C94.3486328,16.8874163 94.3486328,16.8874163 93.668457,16.1457171 C92.9882812,15.4040179 92.9882812,15.4040179 92.9404297,14.3102679 L92.9404297,14.3102679 L94.1230469,14.3102679 L94.1427176,14.4801897 C94.2138672,14.9723772 94.2138672,14.9723772 94.4306641,15.2536272 C94.8955078,15.8483538 94.8955078,15.8483538 96.0439453,15.8483538 C96.7275391,15.8483538 96.7275391,15.8483538 97.2470703,15.5509905 C97.7666016,15.2536272 97.7666016,15.2536272 97.7666016,14.6315569 C97.7666016,14.1598772 97.7666016,14.1598772 97.3496094,13.9137835 C97.0830078,13.7633929 97.0830078,13.7633929 96.296875,13.5651507 L96.296875,13.5651507 L95.3193359,13.3190569 L95.0928955,13.260097 C94.3272705,13.0507464 94.3272705,13.0507464 93.9384766,12.7995257 C93.1455078,12.3005022 93.1455078,12.3005022 93.1455078,11.4186663 C93.1455078,10.3796038 93.1455078,10.3796038 93.894043,9.73702567 C94.6425781,9.09444754 94.6425781,9.09444754 95.9072266,9.09444754 Z M47.3037109,9.07393973 C48.71875,9.07393973 48.71875,9.07393973 49.6962891,10.0172991 C50.6738281,10.9606585 50.6738281,10.9606585 50.6738281,12.7926897 C50.6738281,14.5631975 50.6738281,14.5631975 49.8125,15.718471 C48.9511719,16.8737444 48.9511719,16.8737444 47.1396484,16.8737444 C45.6289062,16.8737444 45.6289062,16.8737444 44.7402344,15.8517718 C43.8515625,14.8297991 43.8515625,14.8297991 43.8515625,13.1071429 C43.8515625,11.2614397 43.8515625,11.2614397 44.7880859,10.1676897 C45.7246094,9.07393973 45.7246094,9.07393973 47.3037109,9.07393973 Z M88.6542969,9.12179129 C89.4335938,9.12179129 89.4335938,9.12179129 90.1650391,9.48751395 C90.8964844,9.85323661 90.8964844,9.85323661 91.2792969,10.4342913 C91.6484375,10.9880022 91.6484375,10.9880022 91.7714844,11.7262835 C91.8808594,12.2321429 91.8808594,12.2321429 91.8808594,13.3395647 L91.8808594,13.3395647 L86.5146484,13.3395647 L86.5278983,13.5817341 C86.6035156,14.5286381 86.6035156,14.5286381 87.0410156,15.1271624 C87.5332031,15.8005022 87.5332031,15.8005022 88.5654297,15.8005022 C89.5292969,15.8005022 89.5292969,15.8005022 90.1035156,15.16476 C90.4316406,14.7956194 90.4316406,14.7956194 90.5683594,14.3102679 L90.5683594,14.3102679 L91.7783203,14.3102679 L91.750293,14.4752874 C91.6764648,14.8127093 91.6764648,14.8127093 91.4604492,15.2091936 C91.1904297,15.7047991 91.1904297,15.7047991 90.8554688,16.0192522 C90.2949219,16.5661272 90.2949219,16.5661272 89.4677734,16.7575335 C89.0234375,16.8669085 89.0234375,16.8669085 88.4628906,16.8669085 C87.0957031,16.8669085 87.0957031,16.8669085 86.1455078,15.8722796 C85.1953125,14.8776507 85.1953125,14.8776507 85.1953125,13.086635 C85.1953125,11.3229632 85.1953125,11.3229632 86.1523438,10.2223772 C87.109375,9.12179129 87.109375,9.12179129 88.6542969,9.12179129 Z M58.1044922,6.53097098 L58.1044922,16.6071429 L56.9970703,16.6071429 L56.9970703,15.5885882 L56.8708147,15.7742746 C56.4824219,16.3083147 56.4824219,16.3083147 55.9785156,16.5661272 C55.390625,16.8669085 55.390625,16.8669085 54.6318359,16.8669085 C53.4082031,16.8669085 53.4082031,16.8669085 52.5126953,15.8380999 C51.6171875,14.8092913 51.6171875,14.8092913 51.6171875,13.1003069 C51.6171875,11.5006975 51.6171875,11.5006975 52.434082,10.3283343 C53.2509766,9.15597098 53.2509766,9.15597098 54.7685547,9.15597098 C55.609375,9.15597098 55.609375,9.15597098 56.1767578,9.51143973 C56.5048828,9.71651786 56.5048828,9.71651786 56.921875,10.2292132 L56.921875,10.2292132 L56.921875,6.53097098 L58.1044922,6.53097098 Z M73.8681641,9.12179129 C74.6474609,9.12179129 74.6474609,9.12179129 75.3789062,9.48751395 C76.1103516,9.85323661 76.1103516,9.85323661 76.4931641,10.4342913 C76.8623047,10.9880022 76.8623047,10.9880022 76.9853516,11.7262835 C77.0947266,12.2321429 77.0947266,12.2321429 77.0947266,13.3395647 L77.0947266,13.3395647 L71.7285156,13.3395647 L71.7417655,13.5817341 C71.8173828,14.5286381 71.8173828,14.5286381 72.2548828,15.1271624 C72.7470703,15.8005022 72.7470703,15.8005022 73.7792969,15.8005022 C74.7431641,15.8005022 74.7431641,15.8005022 75.3173828,15.16476 C75.6455078,14.7956194 75.6455078,14.7956194 75.7822266,14.3102679 L75.7822266,14.3102679 L76.9921875,14.3102679 L76.9641602,14.4752874 C76.890332,14.8127093 76.890332,14.8127093 76.6743164,15.2091936 C76.4042969,15.7047991 76.4042969,15.7047991 76.0693359,16.0192522 C75.5087891,16.5661272 75.5087891,16.5661272 74.6816406,16.7575335 C74.2373047,16.8669085 74.2373047,16.8669085 73.6767578,16.8669085 C72.3095703,16.8669085 72.3095703,16.8669085 71.359375,15.8722796 C70.4091797,14.8776507 70.4091797,14.8776507 70.4091797,13.086635 C70.4091797,11.3229632 70.4091797,11.3229632 71.3662109,10.2223772 C72.3232422,9.12179129 72.3232422,9.12179129 73.8681641,9.12179129 Z M61.1533203,9.28585379 L61.1533203,14.1462054 L61.1582574,14.3273577 C61.1829427,14.765997 61.1829427,14.765997 61.3310547,15.062221 C61.6591797,15.718471 61.6591797,15.718471 62.5546875,15.718471 C63.8398438,15.718471 63.8398438,15.718471 64.3046875,14.5700335 C64.5576172,13.9547991 64.5576172,13.9547991 64.5576172,12.8815569 L64.5576172,12.8815569 L64.5576172,9.28585379 L65.7880859,9.28585379 L65.7880859,16.6071429 L64.6259766,16.6071429 L64.6396484,15.5270647 L64.5392969,15.6886663 C64.3292969,16.0014788 64.3292969,16.0014788 64.0449219,16.2311663 C63.3408203,16.805385 63.3408203,16.805385 62.3359375,16.805385 C60.7705078,16.805385 60.7705078,16.805385 60.203125,15.7594866 C59.8955078,15.1989397 59.8955078,15.1989397 59.8955078,14.2624163 L59.8955078,14.2624163 L59.8955078,9.28585379 L61.1533203,9.28585379 Z M40.2421875,9.12179129 C41.71875,9.12179129 41.71875,9.12179129 42.2519531,10.1881975 C42.5390625,10.7624163 42.5390625,10.7624163 42.5390625,11.7331194 L42.5390625,11.7331194 L42.5390625,16.6071429 L41.2607422,16.6071429 L41.2607422,11.5212054 L41.2550278,11.3455004 C41.2150269,10.7555804 41.2150269,10.7555804 40.8950195,10.5163225 C40.5292969,10.242885 40.5292969,10.242885 40.0029297,10.242885 C39.2783203,10.242885 39.2783203,10.242885 38.7553711,10.7282366 C38.2324219,11.2135882 38.2324219,11.2135882 38.2324219,12.3483538 L38.2324219,12.3483538 L38.2324219,16.6071429 L36.9814453,16.6071429 L36.9814453,11.8288225 L36.9778181,11.6241629 C36.9560547,11.0348772 36.9560547,11.0348772 36.8037109,10.7419085 C36.5234375,10.2292132 36.5234375,10.2292132 35.7578125,10.2292132 C35.0605469,10.2292132 35.0605469,10.2292132 34.4897461,10.7692522 C33.9189453,11.3092913 33.9189453,11.3092913 33.9189453,12.7243304 L33.9189453,12.7243304 L33.9189453,16.6071429 L32.6884766,16.6071429 L32.6884766,9.28585379 L33.9052734,9.28585379 L33.9052734,10.3249163 L34.0488281,10.1530684 C34.4020182,9.74386161 34.4020182,9.74386161 34.6982422,9.53878348 C35.3066406,9.12179129 35.3066406,9.12179129 36.0791016,9.12179129 C36.9541016,9.12179129 36.9541016,9.12179129 37.4873047,9.55245536 C37.7880859,9.79854911 37.7880859,9.79854911 38.0341797,10.2770647 C38.4443359,9.68917411 38.4443359,9.68917411 38.9980469,9.4054827 C39.5517578,9.12179129 39.5517578,9.12179129 40.2421875,9.12179129 Z M68.9736328,6.56515067 L68.9736328,16.6071429 L67.7431641,16.6071429 L67.7431641,6.56515067 L68.9736328,6.56515067 Z M80.328125,15.1169085 L80.328125,16.6071429 L78.8994141,16.6071429 L78.8994141,15.1169085 L80.328125,15.1169085 Z M83.7597656,6.56515067 L83.7597656,16.6071429 L82.5292969,16.6071429 L82.5292969,6.56515067 L83.7597656,6.56515067 Z M47.2695312,10.1471819 C46.1416016,10.1471819 46.1416016,10.1471819 45.6289062,11.00851 C45.1162109,11.8698382 45.1162109,11.8698382 45.1162109,13.086635 C45.1162109,14.2555804 45.1162109,14.2555804 45.6289062,15.0348772 C46.1416016,15.8141741 46.1416016,15.8141741 47.2558594,15.8141741 C48.4794922,15.8141741 48.4794922,15.8141741 48.934082,14.8879046 C49.3886719,13.961635 49.3886719,13.961635 49.3886719,12.8268694 C49.3886719,11.8014788 49.3886719,11.8014788 49.0605469,11.1589007 C48.5410156,10.1471819 48.5410156,10.1471819 47.2695312,10.1471819 Z M55.0009766,10.2292132 C54.0712891,10.2292132 54.0712891,10.2292132 53.4936523,10.9401507 C52.9160156,11.6510882 52.9160156,11.6510882 52.9160156,13.0319475 C52.9160156,14.2077288 52.9160156,14.2077288 53.4150391,15.0006975 C53.9140625,15.7936663 53.9140625,15.7936663 55.0146484,15.7936663 C55.8691406,15.7936663 55.8691406,15.7936663 56.4194336,15.058803 C56.9697266,14.3239397 56.9697266,14.3239397 56.9697266,12.9499163 C56.9697266,11.562221 56.9697266,11.562221 56.4023438,10.8957171 C55.8349609,10.2292132 55.8349609,10.2292132 55.0009766,10.2292132 Z M73.7929688,10.1950335 C72.9453125,10.1950335 72.9453125,10.1950335 72.3710938,10.8068499 C71.796875,11.4186663 71.796875,11.4186663 71.7626953,12.3620257 L71.7626953,12.3620257 L75.8300781,12.3620257 C75.7548828,11.562221 75.7548828,11.562221 75.4814453,11.0837054 C74.9755859,10.1950335 74.9755859,10.1950335 73.7929688,10.1950335 Z M88.5791016,10.1950335 C87.7314453,10.1950335 87.7314453,10.1950335 87.1572266,10.8068499 C86.5830078,11.4186663 86.5830078,11.4186663 86.5488281,12.3620257 L86.5488281,12.3620257 L90.6162109,12.3620257 C90.5410156,11.562221 90.5410156,11.562221 90.2675781,11.0837054 C89.7617188,10.1950335 89.7617188,10.1950335 88.5791016,10.1950335 Z M5,3 L5,9 L0,9 L5,3 Z" transform="translate(190 358)"/>
    <g transform="translate(53 157)">
      <circle cx="12" cy="10" r="10" fill="#4A4A4A"/>
      <text fill="#FFF" font-family="Helvetica-Bold, Helvetica" font-size="14" font-weight="bold">
        <tspan x="8.107" y="15">1</tspan>
      </text>
    </g>
    <g transform="translate(159 283)">
      <circle cx="12" cy="10" r="10" fill="#4A4A4A"/>
      <text fill="#FFF" font-family="Helvetica-Bold, Helvetica" font-size="14" font-weight="bold">
        <tspan x="8.107" y="15">2</tspan>
      </text>
    </g>
    <g transform="translate(193 308)">
      <circle cx="12" cy="10" r="10" fill="#4A4A4A"/>
      <text fill="#FFF" font-family="Helvetica-Bold, Helvetica" font-size="14" font-weight="bold">
        <tspan x="8.107" y="15">3</tspan>
      </text>
    </g>
    <g transform="translate(193 333)">
      <circle cx="12" cy="10" r="10" fill="#4A4A4A"/>
      <text fill="#FFF" font-family="Helvetica-Bold, Helvetica" font-size="14" font-weight="bold">
        <tspan x="8.107" y="15">4</tspan>
      </text>
    </g>
    <g transform="translate(159 358)">
      <circle cx="12" cy="10" r="10" fill="#4A4A4A"/>
      <text fill="#FFF" font-family="Helvetica-Bold, Helvetica" font-size="14" font-weight="bold">
        <tspan x="8.107" y="15">5</tspan>
      </text>
    </g>
    <g transform="translate(437 157)">
      <circle cx="12" cy="10" r="10" fill="#4A4A4A"/>
      <text fill="#FFF" font-family="Helvetica-Bold, Helvetica" font-size="14" font-weight="bold">
        <tspan x="8.107" y="15">1</tspan>
      </text>
    </g>
    <g transform="translate(540 283)">
      <circle cx="12" cy="10" r="10" fill="#4A4A4A"/>
      <text fill="#FFF" font-family="Helvetica-Bold, Helvetica" font-size="14" font-weight="bold">
        <tspan x="8.107" y="15">2</tspan>
      </text>
    </g>
    <g transform="translate(574 308)">
      <circle cx="12" cy="10" r="10" fill="#4A4A4A"/>
      <text fill="#FFF" font-family="Helvetica-Bold, Helvetica" font-size="14" font-weight="bold">
        <tspan x="8.107" y="15">3</tspan>
      </text>
    </g>
    <g transform="translate(574 333)">
      <circle cx="12" cy="10" r="10" fill="#4A4A4A"/>
      <text fill="#FFF" font-family="Helvetica-Bold, Helvetica" font-size="14" font-weight="bold">
        <tspan x="8.107" y="15">4</tspan>
      </text>
    </g>
    <g transform="translate(540 358)">
      <circle cx="12" cy="10" r="10" fill="#4A4A4A"/>
      <text fill="#FFF" font-family="Helvetica-Bold, Helvetica" font-size="14" font-weight="bold">
        <tspan x="8.107" y="15">5</tspan>
      </text>
    </g>
    <path fill="#06C" fill-rule="nonzero" d="M31.7861328,17.6667132 L31.7861328,18.3571429 L24,18.3571429 L24,17.6667132 L31.7861328,17.6667132 Z M14,3 L14,18 L0,18 L0,10 L6,10 L6,3 L14,3 Z M99.0244141,9.09444754 C100.678711,9.09444754 100.678711,9.09444754 101.410156,10.0651507 C101.868164,10.680385 101.868164,10.680385 101.854492,11.3913225 L101.854492,11.3913225 L100.692383,11.3913225 L100.669688,11.2275335 C100.60625,10.905971 100.60625,10.905971 100.398438,10.6325335 C99.9746094,10.1471819 99.9746094,10.1471819 98.9287109,10.1471819 C98.2314453,10.1471819 98.2314453,10.1471819 97.8725586,10.4137835 C97.5136719,10.680385 97.5136719,10.680385 97.5136719,11.117885 C97.5136719,11.5964007 97.5136719,11.5964007 97.9853516,11.88351 C98.2587891,12.0544085 98.2587891,12.0544085 98.7919922,12.1842913 L98.7919922,12.1842913 L99.6054688,12.3825335 L99.8393595,12.4407802 C100.972656,12.7311663 100.972656,12.7311663 101.382812,13.0046038 C102.100586,13.4762835 102.100586,13.4762835 102.100586,14.4880022 C102.100586,15.4655413 102.100586,15.4655413 101.358887,16.1764788 C100.617188,16.8874163 100.617188,16.8874163 99.0996094,16.8874163 C97.4658203,16.8874163 97.4658203,16.8874163 96.7856445,16.1457171 C96.1054688,15.4040179 96.1054688,15.4040179 96.0576172,14.3102679 L96.0576172,14.3102679 L97.2402344,14.3102679 L97.2599051,14.4801897 C97.3310547,14.9723772 97.3310547,14.9723772 97.5478516,15.2536272 C98.0126953,15.8483538 98.0126953,15.8483538 99.1611328,15.8483538 C99.8447266,15.8483538 99.8447266,15.8483538 100.364258,15.5509905 C100.883789,15.2536272 100.883789,15.2536272 100.883789,14.6315569 C100.883789,14.1598772 100.883789,14.1598772 100.466797,13.9137835 C100.200195,13.7633929 100.200195,13.7633929 99.4140625,13.5651507 L99.4140625,13.5651507 L98.4365234,13.3190569 L98.210083,13.260097 C97.444458,13.0507464 97.444458,13.0507464 97.0556641,12.7995257 C96.2626953,12.3005022 96.2626953,12.3005022 96.2626953,11.4186663 C96.2626953,10.3796038 96.2626953,10.3796038 97.0112305,9.73702567 C97.7597656,9.09444754 97.7597656,9.09444754 99.0244141,9.09444754 Z M92.0244141,9.09444754 C93.6787109,9.09444754 93.6787109,9.09444754 94.4101562,10.0651507 C94.8681641,10.680385 94.8681641,10.680385 94.8544922,11.3913225 L94.8544922,11.3913225 L93.6923828,11.3913225 L93.6696875,11.2275335 C93.60625,10.905971 93.60625,10.905971 93.3984375,10.6325335 C92.9746094,10.1471819 92.9746094,10.1471819 91.9287109,10.1471819 C91.2314453,10.1471819 91.2314453,10.1471819 90.8725586,10.4137835 C90.5136719,10.680385 90.5136719,10.680385 90.5136719,11.117885 C90.5136719,11.5964007 90.5136719,11.5964007 90.9853516,11.88351 C91.2587891,12.0544085 91.2587891,12.0544085 91.7919922,12.1842913 L91.7919922,12.1842913 L92.6054688,12.3825335 L92.8393595,12.4407802 C93.9726562,12.7311663 93.9726562,12.7311663 94.3828125,13.0046038 C95.1005859,13.4762835 95.1005859,13.4762835 95.1005859,14.4880022 C95.1005859,15.4655413 95.1005859,15.4655413 94.3588867,16.1764788 C93.6171875,16.8874163 93.6171875,16.8874163 92.0996094,16.8874163 C90.4658203,16.8874163 90.4658203,16.8874163 89.7856445,16.1457171 C89.1054688,15.4040179 89.1054688,15.4040179 89.0576172,14.3102679 L89.0576172,14.3102679 L90.2402344,14.3102679 L90.2599051,14.4801897 C90.3310547,14.9723772 90.3310547,14.9723772 90.5478516,15.2536272 C91.0126953,15.8483538 91.0126953,15.8483538 92.1611328,15.8483538 C92.8447266,15.8483538 92.8447266,15.8483538 93.3642578,15.5509905 C93.8837891,15.2536272 93.8837891,15.2536272 93.8837891,14.6315569 C93.8837891,14.1598772 93.8837891,14.1598772 93.4667969,13.9137835 C93.2001953,13.7633929 93.2001953,13.7633929 92.4140625,13.5651507 L92.4140625,13.5651507 L91.4365234,13.3190569 L91.210083,13.260097 C90.444458,13.0507464 90.444458,13.0507464 90.0556641,12.7995257 C89.2626953,12.3005022 89.2626953,12.3005022 89.2626953,11.4186663 C89.2626953,10.3796038 89.2626953,10.3796038 90.0112305,9.73702567 C90.7597656,9.09444754 90.7597656,9.09444754 92.0244141,9.09444754 Z M84.7714844,9.12179129 C85.5507812,9.12179129 85.5507812,9.12179129 86.2822266,9.48751395 C87.0136719,9.85323661 87.0136719,9.85323661 87.3964844,10.4342913 C87.765625,10.9880022 87.765625,10.9880022 87.8886719,11.7262835 C87.9980469,12.2321429 87.9980469,12.2321429 87.9980469,13.3395647 L87.9980469,13.3395647 L82.6318359,13.3395647 L82.6450858,13.5817341 C82.7207031,14.5286381 82.7207031,14.5286381 83.1582031,15.1271624 C83.6503906,15.8005022 83.6503906,15.8005022 84.6826172,15.8005022 C85.6464844,15.8005022 85.6464844,15.8005022 86.2207031,15.16476 C86.5488281,14.7956194 86.5488281,14.7956194 86.6855469,14.3102679 L86.6855469,14.3102679 L87.8955078,14.3102679 L87.8674805,14.4752874 C87.7936523,14.8127093 87.7936523,14.8127093 87.5776367,15.2091936 C87.3076172,15.7047991 87.3076172,15.7047991 86.9726562,16.0192522 C86.4121094,16.5661272 86.4121094,16.5661272 85.5849609,16.7575335 C85.140625,16.8669085 85.140625,16.8669085 84.5800781,16.8669085 C83.2128906,16.8669085 83.2128906,16.8669085 82.2626953,15.8722796 C81.3125,14.8776507 81.3125,14.8776507 81.3125,13.086635 C81.3125,11.3229632 81.3125,11.3229632 82.2695312,10.2223772 C83.2265625,9.12179129 83.2265625,9.12179129 84.7714844,9.12179129 Z M43.5234375,9.12179129 C44.3027344,9.12179129 44.3027344,9.12179129 45.0341797,9.48751395 C45.765625,9.85323661 45.765625,9.85323661 46.1484375,10.4342913 C46.5175781,10.9880022 46.5175781,10.9880022 46.640625,11.7262835 C46.75,12.2321429 46.75,12.2321429 46.75,13.3395647 L46.75,13.3395647 L41.3837891,13.3395647 L41.397039,13.5817341 C41.4726562,14.5286381 41.4726562,14.5286381 41.9101562,15.1271624 C42.4023438,15.8005022 42.4023438,15.8005022 43.4345703,15.8005022 C44.3984375,15.8005022 44.3984375,15.8005022 44.9726562,15.16476 C45.3007812,14.7956194 45.3007812,14.7956194 45.4375,14.3102679 L45.4375,14.3102679 L46.6474609,14.3102679 L46.6194336,14.4752874 C46.5456055,14.8127093 46.5456055,14.8127093 46.3295898,15.2091936 C46.0595703,15.7047991 46.0595703,15.7047991 45.7246094,16.0192522 C45.1640625,16.5661272 45.1640625,16.5661272 44.3369141,16.7575335 C43.8925781,16.8669085 43.8925781,16.8669085 43.3320312,16.8669085 C41.9648438,16.8669085 41.9648438,16.8669085 41.0146484,15.8722796 C40.0644531,14.8776507 40.0644531,14.8776507 40.0644531,13.086635 C40.0644531,11.3229632 40.0644531,11.3229632 41.0214844,10.2223772 C41.9785156,9.12179129 41.9785156,9.12179129 43.5234375,9.12179129 Z M38.65625,6.53097098 L38.65625,16.6071429 L37.5488281,16.6071429 L37.5488281,15.5885882 L37.4225725,15.7742746 C37.0341797,16.3083147 37.0341797,16.3083147 36.5302734,16.5661272 C35.9423828,16.8669085 35.9423828,16.8669085 35.1835938,16.8669085 C33.9599609,16.8669085 33.9599609,16.8669085 33.0644531,15.8380999 C32.1689453,14.8092913 32.1689453,14.8092913 32.1689453,13.1003069 C32.1689453,11.5006975 32.1689453,11.5006975 32.9858398,10.3283343 C33.8027344,9.15597098 33.8027344,9.15597098 35.3203125,9.15597098 C36.1611328,9.15597098 36.1611328,9.15597098 36.7285156,9.51143973 C37.0566406,9.71651786 37.0566406,9.71651786 37.4736328,10.2292132 L37.4736328,10.2292132 L37.4736328,6.53097098 L38.65625,6.53097098 Z M55.0214844,9.10811942 C56.3134766,9.10811942 56.3134766,9.10811942 57.1201172,9.60030692 C57.9199219,10.0924944 57.9199219,10.0924944 57.9199219,11.1315569 L57.9199219,11.1315569 L57.9199219,15.3493304 L57.9248352,15.4403338 C57.9395752,15.5697893 57.9395752,15.5697893 57.9985352,15.6569475 C58.0771484,15.7731585 58.0771484,15.7731585 58.3300781,15.7731585 C58.4121094,15.7731585 58.4121094,15.7731585 58.5146484,15.7629046 C58.6171875,15.7526507 58.6171875,15.7526507 58.7333984,15.7321429 L58.7333984,15.7321429 L58.7333984,16.6413225 L58.5983887,16.678493 C58.4086914,16.7284807 58.4086914,16.7284807 58.2958984,16.7438616 C58.1455078,16.7643694 58.1455078,16.7643694 57.8857422,16.7643694 C57.25,16.7643694 57.25,16.7643694 56.9628906,16.3131975 C56.8125,16.0739397 56.8125,16.0739397 56.7509766,15.6364397 C56.375,16.1286272 56.375,16.1286272 55.6708984,16.4909319 C54.9667969,16.8532366 54.9667969,16.8532366 54.1191406,16.8532366 C53.1005859,16.8532366 53.1005859,16.8532366 52.4545898,16.2345843 C51.8085938,15.6159319 51.8085938,15.6159319 51.8085938,14.6862444 C51.8085938,13.6676897 51.8085938,13.6676897 52.4443359,13.1071429 C53.0800781,12.546596 53.0800781,12.546596 54.1123047,12.4167132 L54.1123047,12.4167132 L56.0742188,12.1706194 L56.1895926,12.1499721 C56.5185547,12.0729632 56.5185547,12.0729632 56.6416016,11.8151507 C56.7236328,11.6510882 56.7236328,11.6510882 56.7236328,11.343471 C56.7236328,10.7145647 56.7236328,10.7145647 56.2758789,10.4308733 C55.828125,10.1471819 55.828125,10.1471819 54.9941406,10.1471819 C54.0302734,10.1471819 54.0302734,10.1471819 53.6269531,10.6667132 C53.4013672,10.9538225 53.4013672,10.9538225 53.3330078,11.5212054 L53.3330078,11.5212054 L52.1845703,11.5212054 L52.194622,11.3178463 C52.2836914,10.126937 52.2836914,10.126937 53.0629883,9.63790458 C53.9072266,9.10811942 53.9072266,9.10811942 55.0214844,9.10811942 Z M61.1669922,9.28585379 L61.1669922,14.1462054 L61.1719293,14.3273577 C61.1966146,14.765997 61.1966146,14.765997 61.3447266,15.062221 C61.6728516,15.718471 61.6728516,15.718471 62.5683594,15.718471 C63.8535156,15.718471 63.8535156,15.718471 64.3183594,14.5700335 C64.5712891,13.9547991 64.5712891,13.9547991 64.5712891,12.8815569 L64.5712891,12.8815569 L64.5712891,9.28585379 L65.8017578,9.28585379 L65.8017578,16.6071429 L64.6396484,16.6071429 L64.6533203,15.5270647 L64.5529688,15.6886663 C64.3429687,16.0014788 64.3429687,16.0014788 64.0585938,16.2311663 C63.3544922,16.805385 63.3544922,16.805385 62.3496094,16.805385 C60.7841797,16.805385 60.7841797,16.805385 60.2167969,15.7594866 C59.9091797,15.1989397 59.9091797,15.1989397 59.9091797,14.2624163 L59.9091797,14.2624163 L59.9091797,9.28585379 L61.1669922,9.28585379 Z M72.3232422,7.24190848 L72.3232422,9.28585379 L73.4921875,9.28585379 L73.4921875,10.2907366 L72.3232422,10.2907366 L72.3232422,15.0690569 L72.3285435,15.1732701 C72.3603516,15.4704241 72.3603516,15.4704241 72.5830078,15.5817522 C72.7265625,15.6569475 72.7265625,15.6569475 73.0615234,15.6569475 C73.1503906,15.6569475 73.1503906,15.6569475 73.2529297,15.6535296 C73.3554688,15.6501116 73.3554688,15.6501116 73.4921875,15.6364397 L73.4921875,15.6364397 L73.4921875,16.6071429 L73.3490126,16.6443607 C73.2039388,16.6777809 73.2039388,16.6777809 73.0512695,16.69601 C72.8222656,16.7233538 72.8222656,16.7233538 72.5556641,16.7233538 C71.6943359,16.7233538 71.6943359,16.7233538 71.3867188,16.2824358 C71.0791016,15.8415179 71.0791016,15.8415179 71.0791016,15.1374163 L71.0791016,15.1374163 L71.0791016,10.2907366 L70.0878906,10.2907366 L70.0878906,9.28585379 L71.0791016,9.28585379 L71.0791016,7.24190848 L72.3232422,7.24190848 Z M50.4960938,6.42159598 C50.6123047,6.42159598 50.6123047,6.42159598 50.7353516,6.42843192 C50.8583984,6.43526786 50.8583984,6.43526786 51.015625,6.44893973 L51.015625,6.44893973 L51.015625,7.57003348 L50.9265442,7.56383841 C50.8028564,7.55550711 50.8028564,7.55550711 50.7387695,7.55294364 C50.6533203,7.54952567 50.6533203,7.54952567 50.578125,7.54952567 C50.0175781,7.54952567 50.0175781,7.54952567 49.9082031,7.84005301 C49.7988281,8.13058036 49.7988281,8.13058036 49.7988281,9.32003348 L49.7988281,9.32003348 L51.015625,9.32003348 L51.015625,10.2907366 L49.7851562,10.2907366 L49.7851562,16.6071429 L48.5683594,16.6071429 L48.5683594,10.2907366 L47.5498047,10.2907366 L47.5498047,9.32003348 L48.5683594,9.32003348 L48.5683594,8.17159598 L48.5785065,7.98659842 C48.6256104,7.36153739 48.6256104,7.36153739 48.8349609,7.05050223 C49.265625,6.42159598 49.265625,6.42159598 50.4960938,6.42159598 Z M68.9873047,6.56515067 L68.9873047,16.6071429 L67.7568359,16.6071429 L67.7568359,6.56515067 L68.9873047,6.56515067 Z M76.4453125,15.1169085 L76.4453125,16.6071429 L75.0166016,16.6071429 L75.0166016,15.1169085 L76.4453125,15.1169085 Z M79.8769531,6.56515067 L79.8769531,16.6071429 L78.6464844,16.6071429 L78.6464844,6.56515067 L79.8769531,6.56515067 Z M56.6894531,12.8815569 L56.5685425,12.9503435 C56.375,13.0490374 56.375,13.0490374 56.1083984,13.1208147 C55.7529297,13.2165179 55.7529297,13.2165179 55.4111328,13.2575335 L55.4111328,13.2575335 L54.6660156,13.3532366 L54.4814453,13.3807199 C53.9482422,13.4694475 53.9482422,13.4694475 53.6611328,13.63351 C53.09375,13.9547991 53.09375,13.9547991 53.09375,14.6589007 C53.09375,15.1921038 53.09375,15.1921038 53.4833984,15.499721 C53.8730469,15.8073382 53.8730469,15.8073382 54.40625,15.8073382 C55.0556641,15.8073382 55.0556641,15.8073382 55.6640625,15.5065569 C56.6894531,15.0075335 56.6894531,15.0075335 56.6894531,13.8727679 L56.6894531,13.8727679 L56.6894531,12.8815569 Z M35.5527344,10.2292132 C34.6230469,10.2292132 34.6230469,10.2292132 34.0454102,10.9401507 C33.4677734,11.6510882 33.4677734,11.6510882 33.4677734,13.0319475 C33.4677734,14.2077288 33.4677734,14.2077288 33.9667969,15.0006975 C34.4658203,15.7936663 34.4658203,15.7936663 35.5664062,15.7936663 C36.4208984,15.7936663 36.4208984,15.7936663 36.9711914,15.058803 C37.5214844,14.3239397 37.5214844,14.3239397 37.5214844,12.9499163 C37.5214844,11.562221 37.5214844,11.562221 36.9541016,10.8957171 C36.3867188,10.2292132 36.3867188,10.2292132 35.5527344,10.2292132 Z M43.4482422,10.1950335 C42.6005859,10.1950335 42.6005859,10.1950335 42.0263672,10.8068499 C41.4521484,11.4186663 41.4521484,11.4186663 41.4179688,12.3620257 L41.4179688,12.3620257 L45.4853516,12.3620257 C45.4101562,11.562221 45.4101562,11.562221 45.1367188,11.0837054 C44.6308594,10.1950335 44.6308594,10.1950335 43.4482422,10.1950335 Z M84.6962891,10.1950335 C83.8486328,10.1950335 83.8486328,10.1950335 83.2744141,10.8068499 C82.7001953,11.4186663 82.7001953,11.4186663 82.6660156,12.3620257 L82.6660156,12.3620257 L86.7333984,12.3620257 C86.6582031,11.562221 86.6582031,11.562221 86.3847656,11.0837054 C85.8789062,10.1950335 85.8789062,10.1950335 84.6962891,10.1950335 Z M5,3 L5,9 L0,9 L5,3 Z" transform="translate(240 308)"/>
    <path fill="#BD3C39" fill-rule="nonzero" d="M50.8310547,9.10811942 C52.0751953,9.10811942 52.0751953,9.10811942 52.9433594,10.0617327 C53.8115234,11.015346 53.8115234,11.015346 53.8115234,12.7858538 C53.8115234,15.1784319 53.8115234,15.1784319 52.5605469,16.2038225 C51.7675781,16.8532366 51.7675781,16.8532366 50.7148438,16.8532366 C49.8876953,16.8532366 49.8876953,16.8532366 49.3271484,16.4909319 C48.9990234,16.2858538 48.9990234,16.2858538 48.5957031,15.7868304 L48.5957031,15.7868304 L48.5957031,19.5260882 L47.3652344,19.5260882 L47.3652344,9.32003348 L48.5615234,9.32003348 L48.5615234,10.2907366 L48.7119141,10.1001507 C49.0181641,9.73702567 49.0181641,9.73702567 49.3681641,9.51827567 C49.9902344,9.10811942 49.9902344,9.10811942 50.8310547,9.10811942 Z M31.7861328,17.6667132 L31.7861328,18.3571429 L24,18.3571429 L24,17.6667132 L31.7861328,17.6667132 Z M14,3 L14,18 L0,18 L0,10 L6,10 L6,3 L14,3 Z M95.8867188,9.09444754 C97.5410156,9.09444754 97.5410156,9.09444754 98.2724609,10.0651507 C98.7304688,10.680385 98.7304688,10.680385 98.7167969,11.3913225 L98.7167969,11.3913225 L97.5546875,11.3913225 L97.5319922,11.2275335 C97.4685547,10.905971 97.4685547,10.905971 97.2607422,10.6325335 C96.8369141,10.1471819 96.8369141,10.1471819 95.7910156,10.1471819 C95.09375,10.1471819 95.09375,10.1471819 94.7348633,10.4137835 C94.3759766,10.680385 94.3759766,10.680385 94.3759766,11.117885 C94.3759766,11.5964007 94.3759766,11.5964007 94.8476562,11.88351 C95.1210938,12.0544085 95.1210938,12.0544085 95.6542969,12.1842913 L95.6542969,12.1842913 L96.4677734,12.3825335 L96.7016642,12.4407802 C97.8349609,12.7311663 97.8349609,12.7311663 98.2451172,13.0046038 C98.9628906,13.4762835 98.9628906,13.4762835 98.9628906,14.4880022 C98.9628906,15.4655413 98.9628906,15.4655413 98.2211914,16.1764788 C97.4794922,16.8874163 97.4794922,16.8874163 95.9619141,16.8874163 C94.328125,16.8874163 94.328125,16.8874163 93.6479492,16.1457171 C92.9677734,15.4040179 92.9677734,15.4040179 92.9199219,14.3102679 L92.9199219,14.3102679 L94.1025391,14.3102679 L94.1222098,14.4801897 C94.1933594,14.9723772 94.1933594,14.9723772 94.4101562,15.2536272 C94.875,15.8483538 94.875,15.8483538 96.0234375,15.8483538 C96.7070312,15.8483538 96.7070312,15.8483538 97.2265625,15.5509905 C97.7460938,15.2536272 97.7460938,15.2536272 97.7460938,14.6315569 C97.7460938,14.1598772 97.7460938,14.1598772 97.3291016,13.9137835 C97.0625,13.7633929 97.0625,13.7633929 96.2763672,13.5651507 L96.2763672,13.5651507 L95.2988281,13.3190569 L95.0723877,13.260097 C94.3067627,13.0507464 94.3067627,13.0507464 93.9179688,12.7995257 C93.125,12.3005022 93.125,12.3005022 93.125,11.4186663 C93.125,10.3796038 93.125,10.3796038 93.8735352,9.73702567 C94.6220703,9.09444754 94.6220703,9.09444754 95.8867188,9.09444754 Z M88.8867188,9.09444754 C90.5410156,9.09444754 90.5410156,9.09444754 91.2724609,10.0651507 C91.7304688,10.680385 91.7304688,10.680385 91.7167969,11.3913225 L91.7167969,11.3913225 L90.5546875,11.3913225 L90.5319922,11.2275335 C90.4685547,10.905971 90.4685547,10.905971 90.2607422,10.6325335 C89.8369141,10.1471819 89.8369141,10.1471819 88.7910156,10.1471819 C88.09375,10.1471819 88.09375,10.1471819 87.7348633,10.4137835 C87.3759766,10.680385 87.3759766,10.680385 87.3759766,11.117885 C87.3759766,11.5964007 87.3759766,11.5964007 87.8476562,11.88351 C88.1210938,12.0544085 88.1210938,12.0544085 88.6542969,12.1842913 L88.6542969,12.1842913 L89.4677734,12.3825335 L89.7016642,12.4407802 C90.8349609,12.7311663 90.8349609,12.7311663 91.2451172,13.0046038 C91.9628906,13.4762835 91.9628906,13.4762835 91.9628906,14.4880022 C91.9628906,15.4655413 91.9628906,15.4655413 91.2211914,16.1764788 C90.4794922,16.8874163 90.4794922,16.8874163 88.9619141,16.8874163 C87.328125,16.8874163 87.328125,16.8874163 86.6479492,16.1457171 C85.9677734,15.4040179 85.9677734,15.4040179 85.9199219,14.3102679 L85.9199219,14.3102679 L87.1025391,14.3102679 L87.1222098,14.4801897 C87.1933594,14.9723772 87.1933594,14.9723772 87.4101562,15.2536272 C87.875,15.8483538 87.875,15.8483538 89.0234375,15.8483538 C89.7070312,15.8483538 89.7070312,15.8483538 90.2265625,15.5509905 C90.7460938,15.2536272 90.7460938,15.2536272 90.7460938,14.6315569 C90.7460938,14.1598772 90.7460938,14.1598772 90.3291016,13.9137835 C90.0625,13.7633929 90.0625,13.7633929 89.2763672,13.5651507 L89.2763672,13.5651507 L88.2988281,13.3190569 L88.0723877,13.260097 C87.3067627,13.0507464 87.3067627,13.0507464 86.9179688,12.7995257 C86.125,12.3005022 86.125,12.3005022 86.125,11.4186663 C86.125,10.3796038 86.125,10.3796038 86.8735352,9.73702567 C87.6220703,9.09444754 87.6220703,9.09444754 88.8867188,9.09444754 Z M58.2001953,9.07393973 C59.6152344,9.07393973 59.6152344,9.07393973 60.5927734,10.0172991 C61.5703125,10.9606585 61.5703125,10.9606585 61.5703125,12.7926897 C61.5703125,14.5631975 61.5703125,14.5631975 60.7089844,15.718471 C59.8476562,16.8737444 59.8476562,16.8737444 58.0361328,16.8737444 C56.5253906,16.8737444 56.5253906,16.8737444 55.6367188,15.8517718 C54.7480469,14.8297991 54.7480469,14.8297991 54.7480469,13.1071429 C54.7480469,11.2614397 54.7480469,11.2614397 55.6845703,10.1676897 C56.6210938,9.07393973 56.6210938,9.07393973 58.2001953,9.07393973 Z M81.6337891,9.12179129 C82.4130859,9.12179129 82.4130859,9.12179129 83.1445312,9.48751395 C83.8759766,9.85323661 83.8759766,9.85323661 84.2587891,10.4342913 C84.6279297,10.9880022 84.6279297,10.9880022 84.7509766,11.7262835 C84.8603516,12.2321429 84.8603516,12.2321429 84.8603516,13.3395647 L84.8603516,13.3395647 L79.4941406,13.3395647 L79.5073905,13.5817341 C79.5830078,14.5286381 79.5830078,14.5286381 80.0205078,15.1271624 C80.5126953,15.8005022 80.5126953,15.8005022 81.5449219,15.8005022 C82.5087891,15.8005022 82.5087891,15.8005022 83.0830078,15.16476 C83.4111328,14.7956194 83.4111328,14.7956194 83.5478516,14.3102679 L83.5478516,14.3102679 L84.7578125,14.3102679 L84.7297852,14.4752874 C84.655957,14.8127093 84.655957,14.8127093 84.4399414,15.2091936 C84.1699219,15.7047991 84.1699219,15.7047991 83.8349609,16.0192522 C83.2744141,16.5661272 83.2744141,16.5661272 82.4472656,16.7575335 C82.0029297,16.8669085 82.0029297,16.8669085 81.4423828,16.8669085 C80.0751953,16.8669085 80.0751953,16.8669085 79.125,15.8722796 C78.1748047,14.8776507 78.1748047,14.8776507 78.1748047,13.086635 C78.1748047,11.3229632 78.1748047,11.3229632 79.1318359,10.2223772 C80.0888672,9.12179129 80.0888672,9.12179129 81.6337891,9.12179129 Z M69.1855469,7.24190848 L69.1855469,9.28585379 L70.3544922,9.28585379 L70.3544922,10.2907366 L69.1855469,10.2907366 L69.1855469,15.0690569 L69.1908482,15.1732701 C69.2226562,15.4704241 69.2226562,15.4704241 69.4453125,15.5817522 C69.5888672,15.6569475 69.5888672,15.6569475 69.9238281,15.6569475 C70.0126953,15.6569475 70.0126953,15.6569475 70.1152344,15.6535296 C70.2177734,15.6501116 70.2177734,15.6501116 70.3544922,15.6364397 L70.3544922,15.6364397 L70.3544922,16.6071429 L70.2113173,16.6443607 C70.0662435,16.6777809 70.0662435,16.6777809 69.9135742,16.69601 C69.6845703,16.7233538 69.6845703,16.7233538 69.4179688,16.7233538 C68.5566406,16.7233538 68.5566406,16.7233538 68.2490234,16.2824358 C67.9414062,15.8415179 67.9414062,15.8415179 67.9414062,15.1374163 L67.9414062,15.1374163 L67.9414062,10.2907366 L66.9501953,10.2907366 L66.9501953,9.28585379 L67.9414062,9.28585379 L67.9414062,7.24190848 L69.1855469,7.24190848 Z M33.9394531,9.32003348 L33.9394531,16.6071429 L32.6884766,16.6071429 L32.6884766,9.32003348 L33.9394531,9.32003348 Z M43.3525391,9.12179129 C44.8291016,9.12179129 44.8291016,9.12179129 45.3623047,10.1881975 C45.6494141,10.7624163 45.6494141,10.7624163 45.6494141,11.7331194 L45.6494141,11.7331194 L45.6494141,16.6071429 L44.3710938,16.6071429 L44.3710938,11.5212054 L44.3653793,11.3455004 C44.3253784,10.7555804 44.3253784,10.7555804 44.0053711,10.5163225 C43.6396484,10.242885 43.6396484,10.242885 43.1132812,10.242885 C42.3886719,10.242885 42.3886719,10.242885 41.8657227,10.7282366 C41.3427734,11.2135882 41.3427734,11.2135882 41.3427734,12.3483538 L41.3427734,12.3483538 L41.3427734,16.6071429 L40.0917969,16.6071429 L40.0917969,11.8288225 L40.0881696,11.6241629 C40.0664062,11.0348772 40.0664062,11.0348772 39.9140625,10.7419085 C39.6337891,10.2292132 39.6337891,10.2292132 38.8681641,10.2292132 C38.1708984,10.2292132 38.1708984,10.2292132 37.6000977,10.7692522 C37.0292969,11.3092913 37.0292969,11.3092913 37.0292969,12.7243304 L37.0292969,12.7243304 L37.0292969,16.6071429 L35.7988281,16.6071429 L35.7988281,9.28585379 L37.015625,9.28585379 L37.015625,10.3249163 L37.1591797,10.1530684 C37.5123698,9.74386161 37.5123698,9.74386161 37.8085938,9.53878348 C38.4169922,9.12179129 38.4169922,9.12179129 39.1894531,9.12179129 C40.0644531,9.12179129 40.0644531,9.12179129 40.5976562,9.55245536 C40.8984375,9.79854911 40.8984375,9.79854911 41.1445312,10.2770647 C41.5546875,9.68917411 41.5546875,9.68917411 42.1083984,9.4054827 C42.6621094,9.12179129 42.6621094,9.12179129 43.3525391,9.12179129 Z M66.2324219,9.12179129 C66.2666016,9.12179129 66.2666016,9.12179129 66.3486328,9.12862723 C66.4306641,9.13546317 66.4306641,9.13546317 66.6289062,9.15597098 L66.6289062,9.15597098 L66.6289062,10.4547991 L66.5238037,10.4377093 L66.5238037,10.4377093 L66.4272461,10.4274554 C66.3349609,10.4206194 66.3349609,10.4206194 66.2255859,10.4206194 C65.2958984,10.4206194 65.2958984,10.4206194 64.796875,11.018764 C64.2978516,11.6169085 64.2978516,11.6169085 64.2978516,12.3962054 L64.2978516,12.3962054 L64.2978516,16.6071429 L63.0673828,16.6071429 L63.0673828,9.28585379 L64.2363281,9.28585379 L64.2363281,10.5505022 L64.2858538,10.441755 C64.4599609,10.105678 64.4599609,10.105678 64.9404297,9.65157645 C65.5009766,9.12179129 65.5009766,9.12179129 66.2324219,9.12179129 Z M73.3076172,15.1169085 L73.3076172,16.6071429 L71.8789062,16.6071429 L71.8789062,15.1169085 L73.3076172,15.1169085 Z M76.7392578,6.56515067 L76.7392578,16.6071429 L75.5087891,16.6071429 L75.5087891,6.56515067 L76.7392578,6.56515067 Z M58.1660156,10.1471819 C57.0380859,10.1471819 57.0380859,10.1471819 56.5253906,11.00851 C56.0126953,11.8698382 56.0126953,11.8698382 56.0126953,13.086635 C56.0126953,14.2555804 56.0126953,14.2555804 56.5253906,15.0348772 C57.0380859,15.8141741 57.0380859,15.8141741 58.1523438,15.8141741 C59.3759766,15.8141741 59.3759766,15.8141741 59.8305664,14.8879046 C60.2851562,13.961635 60.2851562,13.961635 60.2851562,12.8268694 C60.2851562,11.8014788 60.2851562,11.8014788 59.9570312,11.1589007 C59.4375,10.1471819 59.4375,10.1471819 58.1660156,10.1471819 Z M50.5507812,10.1881975 C49.2724609,10.1881975 49.2724609,10.1881975 48.8007812,11.4665179 C48.5478516,12.1501116 48.5478516,12.1501116 48.5478516,13.202846 C48.5478516,14.0505022 48.5478516,14.0505022 48.8007812,14.6452288 C49.2792969,15.7799944 49.2792969,15.7799944 50.5507812,15.7799944 C51.4121094,15.7799944 51.4121094,15.7799944 51.9829102,15.058803 C52.5537109,14.3376116 52.5537109,14.3376116 52.5537109,12.9020647 C52.5537109,12.0270647 52.5537109,12.0270647 52.3007812,11.3981585 C51.8222656,10.1881975 51.8222656,10.1881975 50.5507812,10.1881975 Z M81.5585938,10.1950335 C80.7109375,10.1950335 80.7109375,10.1950335 80.1367188,10.8068499 C79.5625,11.4186663 79.5625,11.4186663 79.5283203,12.3620257 L79.5283203,12.3620257 L83.5957031,12.3620257 C83.5205078,11.562221 83.5205078,11.562221 83.2470703,11.0837054 C82.7412109,10.1950335 82.7412109,10.1950335 81.5585938,10.1950335 Z M5,3 L5,9 L0,9 L5,3 Z M33.9394531,6.56515067 L33.9394531,7.95968192 L32.6884766,7.95968192 L32.6884766,6.56515067 L33.9394531,6.56515067 Z" transform="translate(240 333)"/>
    <g transform="translate(423 82)">
      <text fill="#222" font-family="Helvetica" font-size="14">
        <tspan x="25" y="16">ModuleName</tspan>
      </text>
      <g transform="translate(0 2)">
        <polygon fill="#7C7C7C" points="0 0 6 0 8 3 16 3 16 16 0 16"/>
        <polygon fill="#BBB" points="3 7 20 7 17 16 0 16"/>
      </g>
    </g>
    <g transform="translate(448 107)">
      <text fill="#222" font-family="Helvetica" font-size="14">
        <tspan x="25" y="16">etc</tspan>
      </text>
      <g transform="translate(0 2)">
        <polygon fill="#7C7C7C" points="0 0 6 0 8 3 16 3 16 16 0 16"/>
        <polygon fill="#BBB" points="3 7 20 7 17 16 0 16"/>
      </g>
    </g>
    <g transform="translate(448 132)">
      <text fill="#222" font-family="Helvetica" font-size="14">
        <tspan x="25" y="16">view</tspan>
      </text>
      <g transform="translate(0 2)">
        <polygon fill="#7C7C7C" points="0 0 6 0 8 3 16 3 16 16 0 16"/>
        <polygon fill="#BBB" points="3 7 20 7 17 16 0 16"/>
      </g>
    </g>
    <g transform="translate(498 182)">
      <text fill="#222" font-family="Helvetica" font-size="14">
        <tspan x="25" y="16">web</tspan>
      </text>
      <g transform="translate(0 2)">
        <polygon fill="#7C7C7C" points="0 0 6 0 8 3 16 3 16 16 0 16"/>
        <polygon fill="#BBB" points="3 7 20 7 17 16 0 16"/>
      </g>
    </g>
    <g transform="translate(523 207)">
      <text fill="#222" font-family="Helvetica" font-size="14">
        <tspan x="25" y="16">css</tspan>
      </text>
      <g transform="translate(0 2)">
        <polygon fill="#7C7C7C" points="0 0 6 0 8 3 16 3 16 16 0 16"/>
        <polygon fill="#BBB" points="3 7 20 7 17 16 0 16"/>
      </g>
    </g>
    <g transform="translate(548 232)">
      <text fill="#222" font-family="Helvetica" font-size="14">
        <tspan x="25" y="16">source</tspan>
      </text>
      <g transform="translate(0 2)">
        <polygon fill="#7C7C7C" points="0 0 6 0 8 3 16 3 16 16 0 16"/>
        <polygon fill="#BBB" points="3 7 20 7 17 16 0 16"/>
      </g>
    </g>
    <g transform="translate(573 257)">
      <text fill="#222" font-family="Helvetica" font-size="14">
        <tspan x="25" y="16">content-type</tspan>
      </text>
      <g transform="translate(0 2)">
        <polygon fill="#7C7C7C" points="0 0 6 0 8 3 16 3 16 16 0 16"/>
        <polygon fill="#BBB" points="3 7 20 7 17 16 0 16"/>
      </g>
    </g>
    <g transform="translate(398 57)">
      <text fill="#222" font-family="Helvetica" font-size="14">
        <tspan x="25" y="16">VendorName</tspan>
      </text>
      <g transform="translate(0 2)">
        <polygon fill="#7C7C7C" points="0 0 6 0 8 3 16 3 16 16 0 16"/>
        <polygon fill="#BBB" points="3 7 20 7 17 16 0 16"/>
      </g>
    </g>
    <g transform="translate(598 282)">
      <text fill="#06C" font-family="Helvetica" font-size="14">
        <tspan x="25" y="16">custom-content-type</tspan>
      </text>
      <g transform="translate(0 2)">
        <polygon fill="#06C" points="0 0 6 0 8 3 16 3 16 16 0 16"/>
        <polygon fill="#B3D6FF" points="3 7 20 7 17 16 0 16"/>
      </g>
    </g>
    <path fill="#BD3C39" fill-rule="nonzero" d="M31.7861328,17.6667132 L31.7861328,18.3571429 L24,18.3571429 L24,17.6667132 L31.7861328,17.6667132 Z M14,3 L14,18 L0,18 L0,10 L6,10 L6,3 L14,3 Z M102.907227,9.09444754 C104.561523,9.09444754 104.561523,9.09444754 105.292969,10.0651507 C105.750977,10.680385 105.750977,10.680385 105.737305,11.3913225 L105.737305,11.3913225 L104.575195,11.3913225 L104.5525,11.2275335 C104.489062,10.905971 104.489062,10.905971 104.28125,10.6325335 C103.857422,10.1471819 103.857422,10.1471819 102.811523,10.1471819 C102.114258,10.1471819 102.114258,10.1471819 101.755371,10.4137835 C101.396484,10.680385 101.396484,10.680385 101.396484,11.117885 C101.396484,11.5964007 101.396484,11.5964007 101.868164,11.88351 C102.141602,12.0544085 102.141602,12.0544085 102.674805,12.1842913 L102.674805,12.1842913 L103.488281,12.3825335 L103.722172,12.4407802 C104.855469,12.7311663 104.855469,12.7311663 105.265625,13.0046038 C105.983398,13.4762835 105.983398,13.4762835 105.983398,14.4880022 C105.983398,15.4655413 105.983398,15.4655413 105.241699,16.1764788 C104.5,16.8874163 104.5,16.8874163 102.982422,16.8874163 C101.348633,16.8874163 101.348633,16.8874163 100.668457,16.1457171 C99.9882812,15.4040179 99.9882812,15.4040179 99.9404297,14.3102679 L99.9404297,14.3102679 L101.123047,14.3102679 L101.142718,14.4801897 C101.213867,14.9723772 101.213867,14.9723772 101.430664,15.2536272 C101.895508,15.8483538 101.895508,15.8483538 103.043945,15.8483538 C103.727539,15.8483538 103.727539,15.8483538 104.24707,15.5509905 C104.766602,15.2536272 104.766602,15.2536272 104.766602,14.6315569 C104.766602,14.1598772 104.766602,14.1598772 104.349609,13.9137835 C104.083008,13.7633929 104.083008,13.7633929 103.296875,13.5651507 L103.296875,13.5651507 L102.319336,13.3190569 L102.092896,13.260097 C101.327271,13.0507464 101.327271,13.0507464 100.938477,12.7995257 C100.145508,12.3005022 100.145508,12.3005022 100.145508,11.4186663 C100.145508,10.3796038 100.145508,10.3796038 100.894043,9.73702567 C101.642578,9.09444754 101.642578,9.09444754 102.907227,9.09444754 Z M95.9072266,9.09444754 C97.5615234,9.09444754 97.5615234,9.09444754 98.2929688,10.0651507 C98.7509766,10.680385 98.7509766,10.680385 98.7373047,11.3913225 L98.7373047,11.3913225 L97.5751953,11.3913225 L97.5525,11.2275335 C97.4890625,10.905971 97.4890625,10.905971 97.28125,10.6325335 C96.8574219,10.1471819 96.8574219,10.1471819 95.8115234,10.1471819 C95.1142578,10.1471819 95.1142578,10.1471819 94.7553711,10.4137835 C94.3964844,10.680385 94.3964844,10.680385 94.3964844,11.117885 C94.3964844,11.5964007 94.3964844,11.5964007 94.8681641,11.88351 C95.1416016,12.0544085 95.1416016,12.0544085 95.6748047,12.1842913 L95.6748047,12.1842913 L96.4882812,12.3825335 L96.722172,12.4407802 C97.8554688,12.7311663 97.8554688,12.7311663 98.265625,13.0046038 C98.9833984,13.4762835 98.9833984,13.4762835 98.9833984,14.4880022 C98.9833984,15.4655413 98.9833984,15.4655413 98.2416992,16.1764788 C97.5,16.8874163 97.5,16.8874163 95.9824219,16.8874163 C94.3486328,16.8874163 94.3486328,16.8874163 93.668457,16.1457171 C92.9882812,15.4040179 92.9882812,15.4040179 92.9404297,14.3102679 L92.9404297,14.3102679 L94.1230469,14.3102679 L94.1427176,14.4801897 C94.2138672,14.9723772 94.2138672,14.9723772 94.4306641,15.2536272 C94.8955078,15.8483538 94.8955078,15.8483538 96.0439453,15.8483538 C96.7275391,15.8483538 96.7275391,15.8483538 97.2470703,15.5509905 C97.7666016,15.2536272 97.7666016,15.2536272 97.7666016,14.6315569 C97.7666016,14.1598772 97.7666016,14.1598772 97.3496094,13.9137835 C97.0830078,13.7633929 97.0830078,13.7633929 96.296875,13.5651507 L96.296875,13.5651507 L95.3193359,13.3190569 L95.0928955,13.260097 C94.3272705,13.0507464 94.3272705,13.0507464 93.9384766,12.7995257 C93.1455078,12.3005022 93.1455078,12.3005022 93.1455078,11.4186663 C93.1455078,10.3796038 93.1455078,10.3796038 93.894043,9.73702567 C94.6425781,9.09444754 94.6425781,9.09444754 95.9072266,9.09444754 Z M47.3037109,9.07393973 C48.71875,9.07393973 48.71875,9.07393973 49.6962891,10.0172991 C50.6738281,10.9606585 50.6738281,10.9606585 50.6738281,12.7926897 C50.6738281,14.5631975 50.6738281,14.5631975 49.8125,15.718471 C48.9511719,16.8737444 48.9511719,16.8737444 47.1396484,16.8737444 C45.6289062,16.8737444 45.6289062,16.8737444 44.7402344,15.8517718 C43.8515625,14.8297991 43.8515625,14.8297991 43.8515625,13.1071429 C43.8515625,11.2614397 43.8515625,11.2614397 44.7880859,10.1676897 C45.7246094,9.07393973 45.7246094,9.07393973 47.3037109,9.07393973 Z M88.6542969,9.12179129 C89.4335938,9.12179129 89.4335938,9.12179129 90.1650391,9.48751395 C90.8964844,9.85323661 90.8964844,9.85323661 91.2792969,10.4342913 C91.6484375,10.9880022 91.6484375,10.9880022 91.7714844,11.7262835 C91.8808594,12.2321429 91.8808594,12.2321429 91.8808594,13.3395647 L91.8808594,13.3395647 L86.5146484,13.3395647 L86.5278983,13.5817341 C86.6035156,14.5286381 86.6035156,14.5286381 87.0410156,15.1271624 C87.5332031,15.8005022 87.5332031,15.8005022 88.5654297,15.8005022 C89.5292969,15.8005022 89.5292969,15.8005022 90.1035156,15.16476 C90.4316406,14.7956194 90.4316406,14.7956194 90.5683594,14.3102679 L90.5683594,14.3102679 L91.7783203,14.3102679 L91.750293,14.4752874 C91.6764648,14.8127093 91.6764648,14.8127093 91.4604492,15.2091936 C91.1904297,15.7047991 91.1904297,15.7047991 90.8554688,16.0192522 C90.2949219,16.5661272 90.2949219,16.5661272 89.4677734,16.7575335 C89.0234375,16.8669085 89.0234375,16.8669085 88.4628906,16.8669085 C87.0957031,16.8669085 87.0957031,16.8669085 86.1455078,15.8722796 C85.1953125,14.8776507 85.1953125,14.8776507 85.1953125,13.086635 C85.1953125,11.3229632 85.1953125,11.3229632 86.1523438,10.2223772 C87.109375,9.12179129 87.109375,9.12179129 88.6542969,9.12179129 Z M58.1044922,6.53097098 L58.1044922,16.6071429 L56.9970703,16.6071429 L56.9970703,15.5885882 L56.8708147,15.7742746 C56.4824219,16.3083147 56.4824219,16.3083147 55.9785156,16.5661272 C55.390625,16.8669085 55.390625,16.8669085 54.6318359,16.8669085 C53.4082031,16.8669085 53.4082031,16.8669085 52.5126953,15.8380999 C51.6171875,14.8092913 51.6171875,14.8092913 51.6171875,13.1003069 C51.6171875,11.5006975 51.6171875,11.5006975 52.434082,10.3283343 C53.2509766,9.15597098 53.2509766,9.15597098 54.7685547,9.15597098 C55.609375,9.15597098 55.609375,9.15597098 56.1767578,9.51143973 C56.5048828,9.71651786 56.5048828,9.71651786 56.921875,10.2292132 L56.921875,10.2292132 L56.921875,6.53097098 L58.1044922,6.53097098 Z M73.8681641,9.12179129 C74.6474609,9.12179129 74.6474609,9.12179129 75.3789062,9.48751395 C76.1103516,9.85323661 76.1103516,9.85323661 76.4931641,10.4342913 C76.8623047,10.9880022 76.8623047,10.9880022 76.9853516,11.7262835 C77.0947266,12.2321429 77.0947266,12.2321429 77.0947266,13.3395647 L77.0947266,13.3395647 L71.7285156,13.3395647 L71.7417655,13.5817341 C71.8173828,14.5286381 71.8173828,14.5286381 72.2548828,15.1271624 C72.7470703,15.8005022 72.7470703,15.8005022 73.7792969,15.8005022 C74.7431641,15.8005022 74.7431641,15.8005022 75.3173828,15.16476 C75.6455078,14.7956194 75.6455078,14.7956194 75.7822266,14.3102679 L75.7822266,14.3102679 L76.9921875,14.3102679 L76.9641602,14.4752874 C76.890332,14.8127093 76.890332,14.8127093 76.6743164,15.2091936 C76.4042969,15.7047991 76.4042969,15.7047991 76.0693359,16.0192522 C75.5087891,16.5661272 75.5087891,16.5661272 74.6816406,16.7575335 C74.2373047,16.8669085 74.2373047,16.8669085 73.6767578,16.8669085 C72.3095703,16.8669085 72.3095703,16.8669085 71.359375,15.8722796 C70.4091797,14.8776507 70.4091797,14.8776507 70.4091797,13.086635 C70.4091797,11.3229632 70.4091797,11.3229632 71.3662109,10.2223772 C72.3232422,9.12179129 72.3232422,9.12179129 73.8681641,9.12179129 Z M61.1533203,9.28585379 L61.1533203,14.1462054 L61.1582574,14.3273577 C61.1829427,14.765997 61.1829427,14.765997 61.3310547,15.062221 C61.6591797,15.718471 61.6591797,15.718471 62.5546875,15.718471 C63.8398438,15.718471 63.8398438,15.718471 64.3046875,14.5700335 C64.5576172,13.9547991 64.5576172,13.9547991 64.5576172,12.8815569 L64.5576172,12.8815569 L64.5576172,9.28585379 L65.7880859,9.28585379 L65.7880859,16.6071429 L64.6259766,16.6071429 L64.6396484,15.5270647 L64.5392969,15.6886663 C64.3292969,16.0014788 64.3292969,16.0014788 64.0449219,16.2311663 C63.3408203,16.805385 63.3408203,16.805385 62.3359375,16.805385 C60.7705078,16.805385 60.7705078,16.805385 60.203125,15.7594866 C59.8955078,15.1989397 59.8955078,15.1989397 59.8955078,14.2624163 L59.8955078,14.2624163 L59.8955078,9.28585379 L61.1533203,9.28585379 Z M40.2421875,9.12179129 C41.71875,9.12179129 41.71875,9.12179129 42.2519531,10.1881975 C42.5390625,10.7624163 42.5390625,10.7624163 42.5390625,11.7331194 L42.5390625,11.7331194 L42.5390625,16.6071429 L41.2607422,16.6071429 L41.2607422,11.5212054 L41.2550278,11.3455004 C41.2150269,10.7555804 41.2150269,10.7555804 40.8950195,10.5163225 C40.5292969,10.242885 40.5292969,10.242885 40.0029297,10.242885 C39.2783203,10.242885 39.2783203,10.242885 38.7553711,10.7282366 C38.2324219,11.2135882 38.2324219,11.2135882 38.2324219,12.3483538 L38.2324219,12.3483538 L38.2324219,16.6071429 L36.9814453,16.6071429 L36.9814453,11.8288225 L36.9778181,11.6241629 C36.9560547,11.0348772 36.9560547,11.0348772 36.8037109,10.7419085 C36.5234375,10.2292132 36.5234375,10.2292132 35.7578125,10.2292132 C35.0605469,10.2292132 35.0605469,10.2292132 34.4897461,10.7692522 C33.9189453,11.3092913 33.9189453,11.3092913 33.9189453,12.7243304 L33.9189453,12.7243304 L33.9189453,16.6071429 L32.6884766,16.6071429 L32.6884766,9.28585379 L33.9052734,9.28585379 L33.9052734,10.3249163 L34.0488281,10.1530684 C34.4020182,9.74386161 34.4020182,9.74386161 34.6982422,9.53878348 C35.3066406,9.12179129 35.3066406,9.12179129 36.0791016,9.12179129 C36.9541016,9.12179129 36.9541016,9.12179129 37.4873047,9.55245536 C37.7880859,9.79854911 37.7880859,9.79854911 38.0341797,10.2770647 C38.4443359,9.68917411 38.4443359,9.68917411 38.9980469,9.4054827 C39.5517578,9.12179129 39.5517578,9.12179129 40.2421875,9.12179129 Z M68.9736328,6.56515067 L68.9736328,16.6071429 L67.7431641,16.6071429 L67.7431641,6.56515067 L68.9736328,6.56515067 Z M80.328125,15.1169085 L80.328125,16.6071429 L78.8994141,16.6071429 L78.8994141,15.1169085 L80.328125,15.1169085 Z M83.7597656,6.56515067 L83.7597656,16.6071429 L82.5292969,16.6071429 L82.5292969,6.56515067 L83.7597656,6.56515067 Z M47.2695312,10.1471819 C46.1416016,10.1471819 46.1416016,10.1471819 45.6289062,11.00851 C45.1162109,11.8698382 45.1162109,11.8698382 45.1162109,13.086635 C45.1162109,14.2555804 45.1162109,14.2555804 45.6289062,15.0348772 C46.1416016,15.8141741 46.1416016,15.8141741 47.2558594,15.8141741 C48.4794922,15.8141741 48.4794922,15.8141741 48.934082,14.8879046 C49.3886719,13.961635 49.3886719,13.961635 49.3886719,12.8268694 C49.3886719,11.8014788 49.3886719,11.8014788 49.0605469,11.1589007 C48.5410156,10.1471819 48.5410156,10.1471819 47.2695312,10.1471819 Z M55.0009766,10.2292132 C54.0712891,10.2292132 54.0712891,10.2292132 53.4936523,10.9401507 C52.9160156,11.6510882 52.9160156,11.6510882 52.9160156,13.0319475 C52.9160156,14.2077288 52.9160156,14.2077288 53.4150391,15.0006975 C53.9140625,15.7936663 53.9140625,15.7936663 55.0146484,15.7936663 C55.8691406,15.7936663 55.8691406,15.7936663 56.4194336,15.058803 C56.9697266,14.3239397 56.9697266,14.3239397 56.9697266,12.9499163 C56.9697266,11.562221 56.9697266,11.562221 56.4023438,10.8957171 C55.8349609,10.2292132 55.8349609,10.2292132 55.0009766,10.2292132 Z M73.7929688,10.1950335 C72.9453125,10.1950335 72.9453125,10.1950335 72.3710938,10.8068499 C71.796875,11.4186663 71.796875,11.4186663 71.7626953,12.3620257 L71.7626953,12.3620257 L75.8300781,12.3620257 C75.7548828,11.562221 75.7548828,11.562221 75.4814453,11.0837054 C74.9755859,10.1950335 74.9755859,10.1950335 73.7929688,10.1950335 Z M88.5791016,10.1950335 C87.7314453,10.1950335 87.7314453,10.1950335 87.1572266,10.8068499 C86.5830078,11.4186663 86.5830078,11.4186663 86.5488281,12.3620257 L86.5488281,12.3620257 L90.6162109,12.3620257 C90.5410156,11.562221 90.5410156,11.562221 90.2675781,11.0837054 C89.7617188,10.1950335 89.7617188,10.1950335 88.5791016,10.1950335 Z M5,3 L5,9 L0,9 L5,3 Z" transform="translate(573 357)"/>
    <path fill="#06C" fill-rule="nonzero" d="M31.7861328,17.6667132 L31.7861328,18.3571429 L24,18.3571429 L24,17.6667132 L31.7861328,17.6667132 Z M14,3 L14,18 L0,18 L0,10 L6,10 L6,3 L14,3 Z M99.0244141,9.09444754 C100.678711,9.09444754 100.678711,9.09444754 101.410156,10.0651507 C101.868164,10.680385 101.868164,10.680385 101.854492,11.3913225 L101.854492,11.3913225 L100.692383,11.3913225 L100.669688,11.2275335 C100.60625,10.905971 100.60625,10.905971 100.398438,10.6325335 C99.9746094,10.1471819 99.9746094,10.1471819 98.9287109,10.1471819 C98.2314453,10.1471819 98.2314453,10.1471819 97.8725586,10.4137835 C97.5136719,10.680385 97.5136719,10.680385 97.5136719,11.117885 C97.5136719,11.5964007 97.5136719,11.5964007 97.9853516,11.88351 C98.2587891,12.0544085 98.2587891,12.0544085 98.7919922,12.1842913 L98.7919922,12.1842913 L99.6054688,12.3825335 L99.8393595,12.4407802 C100.972656,12.7311663 100.972656,12.7311663 101.382812,13.0046038 C102.100586,13.4762835 102.100586,13.4762835 102.100586,14.4880022 C102.100586,15.4655413 102.100586,15.4655413 101.358887,16.1764788 C100.617188,16.8874163 100.617188,16.8874163 99.0996094,16.8874163 C97.4658203,16.8874163 97.4658203,16.8874163 96.7856445,16.1457171 C96.1054688,15.4040179 96.1054688,15.4040179 96.0576172,14.3102679 L96.0576172,14.3102679 L97.2402344,14.3102679 L97.2599051,14.4801897 C97.3310547,14.9723772 97.3310547,14.9723772 97.5478516,15.2536272 C98.0126953,15.8483538 98.0126953,15.8483538 99.1611328,15.8483538 C99.8447266,15.8483538 99.8447266,15.8483538 100.364258,15.5509905 C100.883789,15.2536272 100.883789,15.2536272 100.883789,14.6315569 C100.883789,14.1598772 100.883789,14.1598772 100.466797,13.9137835 C100.200195,13.7633929 100.200195,13.7633929 99.4140625,13.5651507 L99.4140625,13.5651507 L98.4365234,13.3190569 L98.210083,13.260097 C97.444458,13.0507464 97.444458,13.0507464 97.0556641,12.7995257 C96.2626953,12.3005022 96.2626953,12.3005022 96.2626953,11.4186663 C96.2626953,10.3796038 96.2626953,10.3796038 97.0112305,9.73702567 C97.7597656,9.09444754 97.7597656,9.09444754 99.0244141,9.09444754 Z M92.0244141,9.09444754 C93.6787109,9.09444754 93.6787109,9.09444754 94.4101562,10.0651507 C94.8681641,10.680385 94.8681641,10.680385 94.8544922,11.3913225 L94.8544922,11.3913225 L93.6923828,11.3913225 L93.6696875,11.2275335 C93.60625,10.905971 93.60625,10.905971 93.3984375,10.6325335 C92.9746094,10.1471819 92.9746094,10.1471819 91.9287109,10.1471819 C91.2314453,10.1471819 91.2314453,10.1471819 90.8725586,10.4137835 C90.5136719,10.680385 90.5136719,10.680385 90.5136719,11.117885 C90.5136719,11.5964007 90.5136719,11.5964007 90.9853516,11.88351 C91.2587891,12.0544085 91.2587891,12.0544085 91.7919922,12.1842913 L91.7919922,12.1842913 L92.6054688,12.3825335 L92.8393595,12.4407802 C93.9726562,12.7311663 93.9726562,12.7311663 94.3828125,13.0046038 C95.1005859,13.4762835 95.1005859,13.4762835 95.1005859,14.4880022 C95.1005859,15.4655413 95.1005859,15.4655413 94.3588867,16.1764788 C93.6171875,16.8874163 93.6171875,16.8874163 92.0996094,16.8874163 C90.4658203,16.8874163 90.4658203,16.8874163 89.7856445,16.1457171 C89.1054688,15.4040179 89.1054688,15.4040179 89.0576172,14.3102679 L89.0576172,14.3102679 L90.2402344,14.3102679 L90.2599051,14.4801897 C90.3310547,14.9723772 90.3310547,14.9723772 90.5478516,15.2536272 C91.0126953,15.8483538 91.0126953,15.8483538 92.1611328,15.8483538 C92.8447266,15.8483538 92.8447266,15.8483538 93.3642578,15.5509905 C93.8837891,15.2536272 93.8837891,15.2536272 93.8837891,14.6315569 C93.8837891,14.1598772 93.8837891,14.1598772 93.4667969,13.9137835 C93.2001953,13.7633929 93.2001953,13.7633929 92.4140625,13.5651507 L92.4140625,13.5651507 L91.4365234,13.3190569 L91.210083,13.260097 C90.444458,13.0507464 90.444458,13.0507464 90.0556641,12.7995257 C89.2626953,12.3005022 89.2626953,12.3005022 89.2626953,11.4186663 C89.2626953,10.3796038 89.2626953,10.3796038 90.0112305,9.73702567 C90.7597656,9.09444754 90.7597656,9.09444754 92.0244141,9.09444754 Z M84.7714844,9.12179129 C85.5507812,9.12179129 85.5507812,9.12179129 86.2822266,9.48751395 C87.0136719,9.85323661 87.0136719,9.85323661 87.3964844,10.4342913 C87.765625,10.9880022 87.765625,10.9880022 87.8886719,11.7262835 C87.9980469,12.2321429 87.9980469,12.2321429 87.9980469,13.3395647 L87.9980469,13.3395647 L82.6318359,13.3395647 L82.6450858,13.5817341 C82.7207031,14.5286381 82.7207031,14.5286381 83.1582031,15.1271624 C83.6503906,15.8005022 83.6503906,15.8005022 84.6826172,15.8005022 C85.6464844,15.8005022 85.6464844,15.8005022 86.2207031,15.16476 C86.5488281,14.7956194 86.5488281,14.7956194 86.6855469,14.3102679 L86.6855469,14.3102679 L87.8955078,14.3102679 L87.8674805,14.4752874 C87.7936523,14.8127093 87.7936523,14.8127093 87.5776367,15.2091936 C87.3076172,15.7047991 87.3076172,15.7047991 86.9726562,16.0192522 C86.4121094,16.5661272 86.4121094,16.5661272 85.5849609,16.7575335 C85.140625,16.8669085 85.140625,16.8669085 84.5800781,16.8669085 C83.2128906,16.8669085 83.2128906,16.8669085 82.2626953,15.8722796 C81.3125,14.8776507 81.3125,14.8776507 81.3125,13.086635 C81.3125,11.3229632 81.3125,11.3229632 82.2695312,10.2223772 C83.2265625,9.12179129 83.2265625,9.12179129 84.7714844,9.12179129 Z M43.5234375,9.12179129 C44.3027344,9.12179129 44.3027344,9.12179129 45.0341797,9.48751395 C45.765625,9.85323661 45.765625,9.85323661 46.1484375,10.4342913 C46.5175781,10.9880022 46.5175781,10.9880022 46.640625,11.7262835 C46.75,12.2321429 46.75,12.2321429 46.75,13.3395647 L46.75,13.3395647 L41.3837891,13.3395647 L41.397039,13.5817341 C41.4726562,14.5286381 41.4726562,14.5286381 41.9101562,15.1271624 C42.4023438,15.8005022 42.4023438,15.8005022 43.4345703,15.8005022 C44.3984375,15.8005022 44.3984375,15.8005022 44.9726562,15.16476 C45.3007812,14.7956194 45.3007812,14.7956194 45.4375,14.3102679 L45.4375,14.3102679 L46.6474609,14.3102679 L46.6194336,14.4752874 C46.5456055,14.8127093 46.5456055,14.8127093 46.3295898,15.2091936 C46.0595703,15.7047991 46.0595703,15.7047991 45.7246094,16.0192522 C45.1640625,16.5661272 45.1640625,16.5661272 44.3369141,16.7575335 C43.8925781,16.8669085 43.8925781,16.8669085 43.3320312,16.8669085 C41.9648438,16.8669085 41.9648438,16.8669085 41.0146484,15.8722796 C40.0644531,14.8776507 40.0644531,14.8776507 40.0644531,13.086635 C40.0644531,11.3229632 40.0644531,11.3229632 41.0214844,10.2223772 C41.9785156,9.12179129 41.9785156,9.12179129 43.5234375,9.12179129 Z M38.65625,6.53097098 L38.65625,16.6071429 L37.5488281,16.6071429 L37.5488281,15.5885882 L37.4225725,15.7742746 C37.0341797,16.3083147 37.0341797,16.3083147 36.5302734,16.5661272 C35.9423828,16.8669085 35.9423828,16.8669085 35.1835938,16.8669085 C33.9599609,16.8669085 33.9599609,16.8669085 33.0644531,15.8380999 C32.1689453,14.8092913 32.1689453,14.8092913 32.1689453,13.1003069 C32.1689453,11.5006975 32.1689453,11.5006975 32.9858398,10.3283343 C33.8027344,9.15597098 33.8027344,9.15597098 35.3203125,9.15597098 C36.1611328,9.15597098 36.1611328,9.15597098 36.7285156,9.51143973 C37.0566406,9.71651786 37.0566406,9.71651786 37.4736328,10.2292132 L37.4736328,10.2292132 L37.4736328,6.53097098 L38.65625,6.53097098 Z M55.0214844,9.10811942 C56.3134766,9.10811942 56.3134766,9.10811942 57.1201172,9.60030692 C57.9199219,10.0924944 57.9199219,10.0924944 57.9199219,11.1315569 L57.9199219,11.1315569 L57.9199219,15.3493304 L57.9248352,15.4403338 C57.9395752,15.5697893 57.9395752,15.5697893 57.9985352,15.6569475 C58.0771484,15.7731585 58.0771484,15.7731585 58.3300781,15.7731585 C58.4121094,15.7731585 58.4121094,15.7731585 58.5146484,15.7629046 C58.6171875,15.7526507 58.6171875,15.7526507 58.7333984,15.7321429 L58.7333984,15.7321429 L58.7333984,16.6413225 L58.5983887,16.678493 C58.4086914,16.7284807 58.4086914,16.7284807 58.2958984,16.7438616 C58.1455078,16.7643694 58.1455078,16.7643694 57.8857422,16.7643694 C57.25,16.7643694 57.25,16.7643694 56.9628906,16.3131975 C56.8125,16.0739397 56.8125,16.0739397 56.7509766,15.6364397 C56.375,16.1286272 56.375,16.1286272 55.6708984,16.4909319 C54.9667969,16.8532366 54.9667969,16.8532366 54.1191406,16.8532366 C53.1005859,16.8532366 53.1005859,16.8532366 52.4545898,16.2345843 C51.8085938,15.6159319 51.8085938,15.6159319 51.8085938,14.6862444 C51.8085938,13.6676897 51.8085938,13.6676897 52.4443359,13.1071429 C53.0800781,12.546596 53.0800781,12.546596 54.1123047,12.4167132 L54.1123047,12.4167132 L56.0742188,12.1706194 L56.1895926,12.1499721 C56.5185547,12.0729632 56.5185547,12.0729632 56.6416016,11.8151507 C56.7236328,11.6510882 56.7236328,11.6510882 56.7236328,11.343471 C56.7236328,10.7145647 56.7236328,10.7145647 56.2758789,10.4308733 C55.828125,10.1471819 55.828125,10.1471819 54.9941406,10.1471819 C54.0302734,10.1471819 54.0302734,10.1471819 53.6269531,10.6667132 C53.4013672,10.9538225 53.4013672,10.9538225 53.3330078,11.5212054 L53.3330078,11.5212054 L52.1845703,11.5212054 L52.194622,11.3178463 C52.2836914,10.126937 52.2836914,10.126937 53.0629883,9.63790458 C53.9072266,9.10811942 53.9072266,9.10811942 55.0214844,9.10811942 Z M61.1669922,9.28585379 L61.1669922,14.1462054 L61.1719293,14.3273577 C61.1966146,14.765997 61.1966146,14.765997 61.3447266,15.062221 C61.6728516,15.718471 61.6728516,15.718471 62.5683594,15.718471 C63.8535156,15.718471 63.8535156,15.718471 64.3183594,14.5700335 C64.5712891,13.9547991 64.5712891,13.9547991 64.5712891,12.8815569 L64.5712891,12.8815569 L64.5712891,9.28585379 L65.8017578,9.28585379 L65.8017578,16.6071429 L64.6396484,16.6071429 L64.6533203,15.5270647 L64.5529688,15.6886663 C64.3429687,16.0014788 64.3429687,16.0014788 64.0585938,16.2311663 C63.3544922,16.805385 63.3544922,16.805385 62.3496094,16.805385 C60.7841797,16.805385 60.7841797,16.805385 60.2167969,15.7594866 C59.9091797,15.1989397 59.9091797,15.1989397 59.9091797,14.2624163 L59.9091797,14.2624163 L59.9091797,9.28585379 L61.1669922,9.28585379 Z M72.3232422,7.24190848 L72.3232422,9.28585379 L73.4921875,9.28585379 L73.4921875,10.2907366 L72.3232422,10.2907366 L72.3232422,15.0690569 L72.3285435,15.1732701 C72.3603516,15.4704241 72.3603516,15.4704241 72.5830078,15.5817522 C72.7265625,15.6569475 72.7265625,15.6569475 73.0615234,15.6569475 C73.1503906,15.6569475 73.1503906,15.6569475 73.2529297,15.6535296 C73.3554688,15.6501116 73.3554688,15.6501116 73.4921875,15.6364397 L73.4921875,15.6364397 L73.4921875,16.6071429 L73.3490126,16.6443607 C73.2039388,16.6777809 73.2039388,16.6777809 73.0512695,16.69601 C72.8222656,16.7233538 72.8222656,16.7233538 72.5556641,16.7233538 C71.6943359,16.7233538 71.6943359,16.7233538 71.3867188,16.2824358 C71.0791016,15.8415179 71.0791016,15.8415179 71.0791016,15.1374163 L71.0791016,15.1374163 L71.0791016,10.2907366 L70.0878906,10.2907366 L70.0878906,9.28585379 L71.0791016,9.28585379 L71.0791016,7.24190848 L72.3232422,7.24190848 Z M50.4960938,6.42159598 C50.6123047,6.42159598 50.6123047,6.42159598 50.7353516,6.42843192 C50.8583984,6.43526786 50.8583984,6.43526786 51.015625,6.44893973 L51.015625,6.44893973 L51.015625,7.57003348 L50.9265442,7.56383841 C50.8028564,7.55550711 50.8028564,7.55550711 50.7387695,7.55294364 C50.6533203,7.54952567 50.6533203,7.54952567 50.578125,7.54952567 C50.0175781,7.54952567 50.0175781,7.54952567 49.9082031,7.84005301 C49.7988281,8.13058036 49.7988281,8.13058036 49.7988281,9.32003348 L49.7988281,9.32003348 L51.015625,9.32003348 L51.015625,10.2907366 L49.7851562,10.2907366 L49.7851562,16.6071429 L48.5683594,16.6071429 L48.5683594,10.2907366 L47.5498047,10.2907366 L47.5498047,9.32003348 L48.5683594,9.32003348 L48.5683594,8.17159598 L48.5785065,7.98659842 C48.6256104,7.36153739 48.6256104,7.36153739 48.8349609,7.05050223 C49.265625,6.42159598 49.265625,6.42159598 50.4960938,6.42159598 Z M68.9873047,6.56515067 L68.9873047,16.6071429 L67.7568359,16.6071429 L67.7568359,6.56515067 L68.9873047,6.56515067 Z M76.4453125,15.1169085 L76.4453125,16.6071429 L75.0166016,16.6071429 L75.0166016,15.1169085 L76.4453125,15.1169085 Z M79.8769531,6.56515067 L79.8769531,16.6071429 L78.6464844,16.6071429 L78.6464844,6.56515067 L79.8769531,6.56515067 Z M56.6894531,12.8815569 L56.5685425,12.9503435 C56.375,13.0490374 56.375,13.0490374 56.1083984,13.1208147 C55.7529297,13.2165179 55.7529297,13.2165179 55.4111328,13.2575335 L55.4111328,13.2575335 L54.6660156,13.3532366 L54.4814453,13.3807199 C53.9482422,13.4694475 53.9482422,13.4694475 53.6611328,13.63351 C53.09375,13.9547991 53.09375,13.9547991 53.09375,14.6589007 C53.09375,15.1921038 53.09375,15.1921038 53.4833984,15.499721 C53.8730469,15.8073382 53.8730469,15.8073382 54.40625,15.8073382 C55.0556641,15.8073382 55.0556641,15.8073382 55.6640625,15.5065569 C56.6894531,15.0075335 56.6894531,15.0075335 56.6894531,13.8727679 L56.6894531,13.8727679 L56.6894531,12.8815569 Z M35.5527344,10.2292132 C34.6230469,10.2292132 34.6230469,10.2292132 34.0454102,10.9401507 C33.4677734,11.6510882 33.4677734,11.6510882 33.4677734,13.0319475 C33.4677734,14.2077288 33.4677734,14.2077288 33.9667969,15.0006975 C34.4658203,15.7936663 34.4658203,15.7936663 35.5664062,15.7936663 C36.4208984,15.7936663 36.4208984,15.7936663 36.9711914,15.058803 C37.5214844,14.3239397 37.5214844,14.3239397 37.5214844,12.9499163 C37.5214844,11.562221 37.5214844,11.562221 36.9541016,10.8957171 C36.3867188,10.2292132 36.3867188,10.2292132 35.5527344,10.2292132 Z M43.4482422,10.1950335 C42.6005859,10.1950335 42.6005859,10.1950335 42.0263672,10.8068499 C41.4521484,11.4186663 41.4521484,11.4186663 41.4179688,12.3620257 L41.4179688,12.3620257 L45.4853516,12.3620257 C45.4101562,11.562221 45.4101562,11.562221 45.1367188,11.0837054 C44.6308594,10.1950335 44.6308594,10.1950335 43.4482422,10.1950335 Z M84.6962891,10.1950335 C83.8486328,10.1950335 83.8486328,10.1950335 83.2744141,10.8068499 C82.7001953,11.4186663 82.7001953,11.4186663 82.6660156,12.3620257 L82.6660156,12.3620257 L86.7333984,12.3620257 C86.6582031,11.562221 86.6582031,11.562221 86.3847656,11.0837054 C85.8789062,10.1950335 85.8789062,10.1950335 84.6962891,10.1950335 Z M5,3 L5,9 L0,9 L5,3 Z" transform="translate(623 308)"/>
    <path fill="#BD3C39" fill-rule="nonzero" d="M50.8310547,9.10811942 C52.0751953,9.10811942 52.0751953,9.10811942 52.9433594,10.0617327 C53.8115234,11.015346 53.8115234,11.015346 53.8115234,12.7858538 C53.8115234,15.1784319 53.8115234,15.1784319 52.5605469,16.2038225 C51.7675781,16.8532366 51.7675781,16.8532366 50.7148438,16.8532366 C49.8876953,16.8532366 49.8876953,16.8532366 49.3271484,16.4909319 C48.9990234,16.2858538 48.9990234,16.2858538 48.5957031,15.7868304 L48.5957031,15.7868304 L48.5957031,19.5260882 L47.3652344,19.5260882 L47.3652344,9.32003348 L48.5615234,9.32003348 L48.5615234,10.2907366 L48.7119141,10.1001507 C49.0181641,9.73702567 49.0181641,9.73702567 49.3681641,9.51827567 C49.9902344,9.10811942 49.9902344,9.10811942 50.8310547,9.10811942 Z M31.7861328,17.6667132 L31.7861328,18.3571429 L24,18.3571429 L24,17.6667132 L31.7861328,17.6667132 Z M14,3 L14,18 L0,18 L0,10 L6,10 L6,3 L14,3 Z M95.8867188,9.09444754 C97.5410156,9.09444754 97.5410156,9.09444754 98.2724609,10.0651507 C98.7304688,10.680385 98.7304688,10.680385 98.7167969,11.3913225 L98.7167969,11.3913225 L97.5546875,11.3913225 L97.5319922,11.2275335 C97.4685547,10.905971 97.4685547,10.905971 97.2607422,10.6325335 C96.8369141,10.1471819 96.8369141,10.1471819 95.7910156,10.1471819 C95.09375,10.1471819 95.09375,10.1471819 94.7348633,10.4137835 C94.3759766,10.680385 94.3759766,10.680385 94.3759766,11.117885 C94.3759766,11.5964007 94.3759766,11.5964007 94.8476562,11.88351 C95.1210938,12.0544085 95.1210938,12.0544085 95.6542969,12.1842913 L95.6542969,12.1842913 L96.4677734,12.3825335 L96.7016642,12.4407802 C97.8349609,12.7311663 97.8349609,12.7311663 98.2451172,13.0046038 C98.9628906,13.4762835 98.9628906,13.4762835 98.9628906,14.4880022 C98.9628906,15.4655413 98.9628906,15.4655413 98.2211914,16.1764788 C97.4794922,16.8874163 97.4794922,16.8874163 95.9619141,16.8874163 C94.328125,16.8874163 94.328125,16.8874163 93.6479492,16.1457171 C92.9677734,15.4040179 92.9677734,15.4040179 92.9199219,14.3102679 L92.9199219,14.3102679 L94.1025391,14.3102679 L94.1222098,14.4801897 C94.1933594,14.9723772 94.1933594,14.9723772 94.4101562,15.2536272 C94.875,15.8483538 94.875,15.8483538 96.0234375,15.8483538 C96.7070312,15.8483538 96.7070312,15.8483538 97.2265625,15.5509905 C97.7460938,15.2536272 97.7460938,15.2536272 97.7460938,14.6315569 C97.7460938,14.1598772 97.7460938,14.1598772 97.3291016,13.9137835 C97.0625,13.7633929 97.0625,13.7633929 96.2763672,13.5651507 L96.2763672,13.5651507 L95.2988281,13.3190569 L95.0723877,13.260097 C94.3067627,13.0507464 94.3067627,13.0507464 93.9179688,12.7995257 C93.125,12.3005022 93.125,12.3005022 93.125,11.4186663 C93.125,10.3796038 93.125,10.3796038 93.8735352,9.73702567 C94.6220703,9.09444754 94.6220703,9.09444754 95.8867188,9.09444754 Z M88.8867188,9.09444754 C90.5410156,9.09444754 90.5410156,9.09444754 91.2724609,10.0651507 C91.7304688,10.680385 91.7304688,10.680385 91.7167969,11.3913225 L91.7167969,11.3913225 L90.5546875,11.3913225 L90.5319922,11.2275335 C90.4685547,10.905971 90.4685547,10.905971 90.2607422,10.6325335 C89.8369141,10.1471819 89.8369141,10.1471819 88.7910156,10.1471819 C88.09375,10.1471819 88.09375,10.1471819 87.7348633,10.4137835 C87.3759766,10.680385 87.3759766,10.680385 87.3759766,11.117885 C87.3759766,11.5964007 87.3759766,11.5964007 87.8476562,11.88351 C88.1210938,12.0544085 88.1210938,12.0544085 88.6542969,12.1842913 L88.6542969,12.1842913 L89.4677734,12.3825335 L89.7016642,12.4407802 C90.8349609,12.7311663 90.8349609,12.7311663 91.2451172,13.0046038 C91.9628906,13.4762835 91.9628906,13.4762835 91.9628906,14.4880022 C91.9628906,15.4655413 91.9628906,15.4655413 91.2211914,16.1764788 C90.4794922,16.8874163 90.4794922,16.8874163 88.9619141,16.8874163 C87.328125,16.8874163 87.328125,16.8874163 86.6479492,16.1457171 C85.9677734,15.4040179 85.9677734,15.4040179 85.9199219,14.3102679 L85.9199219,14.3102679 L87.1025391,14.3102679 L87.1222098,14.4801897 C87.1933594,14.9723772 87.1933594,14.9723772 87.4101562,15.2536272 C87.875,15.8483538 87.875,15.8483538 89.0234375,15.8483538 C89.7070312,15.8483538 89.7070312,15.8483538 90.2265625,15.5509905 C90.7460938,15.2536272 90.7460938,15.2536272 90.7460938,14.6315569 C90.7460938,14.1598772 90.7460938,14.1598772 90.3291016,13.9137835 C90.0625,13.7633929 90.0625,13.7633929 89.2763672,13.5651507 L89.2763672,13.5651507 L88.2988281,13.3190569 L88.0723877,13.260097 C87.3067627,13.0507464 87.3067627,13.0507464 86.9179688,12.7995257 C86.125,12.3005022 86.125,12.3005022 86.125,11.4186663 C86.125,10.3796038 86.125,10.3796038 86.8735352,9.73702567 C87.6220703,9.09444754 87.6220703,9.09444754 88.8867188,9.09444754 Z M58.2001953,9.07393973 C59.6152344,9.07393973 59.6152344,9.07393973 60.5927734,10.0172991 C61.5703125,10.9606585 61.5703125,10.9606585 61.5703125,12.7926897 C61.5703125,14.5631975 61.5703125,14.5631975 60.7089844,15.718471 C59.8476562,16.8737444 59.8476562,16.8737444 58.0361328,16.8737444 C56.5253906,16.8737444 56.5253906,16.8737444 55.6367188,15.8517718 C54.7480469,14.8297991 54.7480469,14.8297991 54.7480469,13.1071429 C54.7480469,11.2614397 54.7480469,11.2614397 55.6845703,10.1676897 C56.6210938,9.07393973 56.6210938,9.07393973 58.2001953,9.07393973 Z M81.6337891,9.12179129 C82.4130859,9.12179129 82.4130859,9.12179129 83.1445312,9.48751395 C83.8759766,9.85323661 83.8759766,9.85323661 84.2587891,10.4342913 C84.6279297,10.9880022 84.6279297,10.9880022 84.7509766,11.7262835 C84.8603516,12.2321429 84.8603516,12.2321429 84.8603516,13.3395647 L84.8603516,13.3395647 L79.4941406,13.3395647 L79.5073905,13.5817341 C79.5830078,14.5286381 79.5830078,14.5286381 80.0205078,15.1271624 C80.5126953,15.8005022 80.5126953,15.8005022 81.5449219,15.8005022 C82.5087891,15.8005022 82.5087891,15.8005022 83.0830078,15.16476 C83.4111328,14.7956194 83.4111328,14.7956194 83.5478516,14.3102679 L83.5478516,14.3102679 L84.7578125,14.3102679 L84.7297852,14.4752874 C84.655957,14.8127093 84.655957,14.8127093 84.4399414,15.2091936 C84.1699219,15.7047991 84.1699219,15.7047991 83.8349609,16.0192522 C83.2744141,16.5661272 83.2744141,16.5661272 82.4472656,16.7575335 C82.0029297,16.8669085 82.0029297,16.8669085 81.4423828,16.8669085 C80.0751953,16.8669085 80.0751953,16.8669085 79.125,15.8722796 C78.1748047,14.8776507 78.1748047,14.8776507 78.1748047,13.086635 C78.1748047,11.3229632 78.1748047,11.3229632 79.1318359,10.2223772 C80.0888672,9.12179129 80.0888672,9.12179129 81.6337891,9.12179129 Z M69.1855469,7.24190848 L69.1855469,9.28585379 L70.3544922,9.28585379 L70.3544922,10.2907366 L69.1855469,10.2907366 L69.1855469,15.0690569 L69.1908482,15.1732701 C69.2226562,15.4704241 69.2226562,15.4704241 69.4453125,15.5817522 C69.5888672,15.6569475 69.5888672,15.6569475 69.9238281,15.6569475 C70.0126953,15.6569475 70.0126953,15.6569475 70.1152344,15.6535296 C70.2177734,15.6501116 70.2177734,15.6501116 70.3544922,15.6364397 L70.3544922,15.6364397 L70.3544922,16.6071429 L70.2113173,16.6443607 C70.0662435,16.6777809 70.0662435,16.6777809 69.9135742,16.69601 C69.6845703,16.7233538 69.6845703,16.7233538 69.4179688,16.7233538 C68.5566406,16.7233538 68.5566406,16.7233538 68.2490234,16.2824358 C67.9414062,15.8415179 67.9414062,15.8415179 67.9414062,15.1374163 L67.9414062,15.1374163 L67.9414062,10.2907366 L66.9501953,10.2907366 L66.9501953,9.28585379 L67.9414062,9.28585379 L67.9414062,7.24190848 L69.1855469,7.24190848 Z M33.9394531,9.32003348 L33.9394531,16.6071429 L32.6884766,16.6071429 L32.6884766,9.32003348 L33.9394531,9.32003348 Z M43.3525391,9.12179129 C44.8291016,9.12179129 44.8291016,9.12179129 45.3623047,10.1881975 C45.6494141,10.7624163 45.6494141,10.7624163 45.6494141,11.7331194 L45.6494141,11.7331194 L45.6494141,16.6071429 L44.3710938,16.6071429 L44.3710938,11.5212054 L44.3653793,11.3455004 C44.3253784,10.7555804 44.3253784,10.7555804 44.0053711,10.5163225 C43.6396484,10.242885 43.6396484,10.242885 43.1132812,10.242885 C42.3886719,10.242885 42.3886719,10.242885 41.8657227,10.7282366 C41.3427734,11.2135882 41.3427734,11.2135882 41.3427734,12.3483538 L41.3427734,12.3483538 L41.3427734,16.6071429 L40.0917969,16.6071429 L40.0917969,11.8288225 L40.0881696,11.6241629 C40.0664062,11.0348772 40.0664062,11.0348772 39.9140625,10.7419085 C39.6337891,10.2292132 39.6337891,10.2292132 38.8681641,10.2292132 C38.1708984,10.2292132 38.1708984,10.2292132 37.6000977,10.7692522 C37.0292969,11.3092913 37.0292969,11.3092913 37.0292969,12.7243304 L37.0292969,12.7243304 L37.0292969,16.6071429 L35.7988281,16.6071429 L35.7988281,9.28585379 L37.015625,9.28585379 L37.015625,10.3249163 L37.1591797,10.1530684 C37.5123698,9.74386161 37.5123698,9.74386161 37.8085938,9.53878348 C38.4169922,9.12179129 38.4169922,9.12179129 39.1894531,9.12179129 C40.0644531,9.12179129 40.0644531,9.12179129 40.5976562,9.55245536 C40.8984375,9.79854911 40.8984375,9.79854911 41.1445312,10.2770647 C41.5546875,9.68917411 41.5546875,9.68917411 42.1083984,9.4054827 C42.6621094,9.12179129 42.6621094,9.12179129 43.3525391,9.12179129 Z M66.2324219,9.12179129 C66.2666016,9.12179129 66.2666016,9.12179129 66.3486328,9.12862723 C66.4306641,9.13546317 66.4306641,9.13546317 66.6289062,9.15597098 L66.6289062,9.15597098 L66.6289062,10.4547991 L66.5238037,10.4377093 L66.5238037,10.4377093 L66.4272461,10.4274554 C66.3349609,10.4206194 66.3349609,10.4206194 66.2255859,10.4206194 C65.2958984,10.4206194 65.2958984,10.4206194 64.796875,11.018764 C64.2978516,11.6169085 64.2978516,11.6169085 64.2978516,12.3962054 L64.2978516,12.3962054 L64.2978516,16.6071429 L63.0673828,16.6071429 L63.0673828,9.28585379 L64.2363281,9.28585379 L64.2363281,10.5505022 L64.2858538,10.441755 C64.4599609,10.105678 64.4599609,10.105678 64.9404297,9.65157645 C65.5009766,9.12179129 65.5009766,9.12179129 66.2324219,9.12179129 Z M73.3076172,15.1169085 L73.3076172,16.6071429 L71.8789062,16.6071429 L71.8789062,15.1169085 L73.3076172,15.1169085 Z M76.7392578,6.56515067 L76.7392578,16.6071429 L75.5087891,16.6071429 L75.5087891,6.56515067 L76.7392578,6.56515067 Z M58.1660156,10.1471819 C57.0380859,10.1471819 57.0380859,10.1471819 56.5253906,11.00851 C56.0126953,11.8698382 56.0126953,11.8698382 56.0126953,13.086635 C56.0126953,14.2555804 56.0126953,14.2555804 56.5253906,15.0348772 C57.0380859,15.8141741 57.0380859,15.8141741 58.1523438,15.8141741 C59.3759766,15.8141741 59.3759766,15.8141741 59.8305664,14.8879046 C60.2851562,13.961635 60.2851562,13.961635 60.2851562,12.8268694 C60.2851562,11.8014788 60.2851562,11.8014788 59.9570312,11.1589007 C59.4375,10.1471819 59.4375,10.1471819 58.1660156,10.1471819 Z M50.5507812,10.1881975 C49.2724609,10.1881975 49.2724609,10.1881975 48.8007812,11.4665179 C48.5478516,12.1501116 48.5478516,12.1501116 48.5478516,13.202846 C48.5478516,14.0505022 48.5478516,14.0505022 48.8007812,14.6452288 C49.2792969,15.7799944 49.2792969,15.7799944 50.5507812,15.7799944 C51.4121094,15.7799944 51.4121094,15.7799944 51.9829102,15.058803 C52.5537109,14.3376116 52.5537109,14.3376116 52.5537109,12.9020647 C52.5537109,12.0270647 52.5537109,12.0270647 52.3007812,11.3981585 C51.8222656,10.1881975 51.8222656,10.1881975 50.5507812,10.1881975 Z M81.5585938,10.1950335 C80.7109375,10.1950335 80.7109375,10.1950335 80.1367188,10.8068499 C79.5625,11.4186663 79.5625,11.4186663 79.5283203,12.3620257 L79.5283203,12.3620257 L83.5957031,12.3620257 C83.5205078,11.562221 83.5205078,11.562221 83.2470703,11.0837054 C82.7412109,10.1950335 82.7412109,10.1950335 81.5585938,10.1950335 Z M5,3 L5,9 L0,9 L5,3 Z M33.9394531,6.56515067 L33.9394531,7.95968192 L32.6884766,7.95968192 L32.6884766,6.56515067 L33.9394531,6.56515067 Z" transform="translate(623 333)"/>
    <rect width="846" height="407" x=".5" y=".5" stroke="#999"/>
    <text fill="#000" font-family="Helvetica-Bold, Helvetica" font-size="15" font-weight="bold">
      <tspan x="15" y="37">Extension module</tspan>
    </text>
    <text fill="#000" font-family="Helvetica-Bold, Helvetica" font-size="15" font-weight="bold">
      <tspan x="190" y="173">and</tspan>
    </text>
    <text fill="#000" font-family="Helvetica-Bold, Helvetica" font-size="15" font-weight="bold">
      <tspan x="395" y="37">Custom content type module</tspan>
    </text>
    <g transform="translate(231 158)">
      <text fill="#06C" font-family="Helvetica" font-size="14">
        <tspan x="25" y="16">frontend</tspan>
      </text>
      <g transform="translate(0 2)">
        <polygon fill="#06C" points="0 0 6 0 8 3 16 3 16 16 0 16"/>
        <polygon fill="#B3D6FF" points="3 7 20 7 17 16 0 16"/>
      </g>
    </g>
    <g transform="translate(474 157)">
      <text fill="#06C" font-family="Helvetica" font-size="14">
        <tspan x="25" y="16">adminhtml</tspan>
      </text>
      <g transform="translate(0 2)">
        <polygon fill="#06C" points="0 0 6 0 8 3 16 3 16 16 0 16"/>
        <polygon fill="#B3D6FF" points="3 7 20 7 17 16 0 16"/>
      </g>
    </g>
    <text fill="#000" font-family="Helvetica-Bold, Helvetica" font-size="15" font-weight="bold">
      <tspan x="575" y="173">and</tspan>
    </text>
    <g transform="translate(616 158)">
      <text fill="#06C" font-family="Helvetica" font-size="14">
        <tspan x="25" y="16">frontend</tspan>
      </text>
      <g transform="translate(0 2)">
        <polygon fill="#06C" points="0 0 6 0 8 3 16 3 16 16 0 16"/>
        <polygon fill="#B3D6FF" points="3 7 20 7 17 16 0 16"/>
      </g>
    </g>
  </g>
</svg>
