<svg xmlns="http://www.w3.org/2000/svg" width="850" height="163" viewBox="0 0 850 163">
  <g fill="none" fill-rule="evenodd">
    <rect width="850" height="163" fill="#FFF"/>
    <rect width="850" height="49" y="20" fill="#373331"/>
    <polygon fill="#F7F3EB" fill-rule="nonzero" points="815.73 49.567 818.295 47 820 48.703 817.435 51.269 819.168 53 814 53 814 47.84" transform="rotate(180 817 50)"/>
    <polygon fill="#F7F3EB" fill-rule="nonzero" points="825.723 39.578 828.297 37 830 38.695 827.427 41.273 829.162 43 824 43 824 37.863"/>
    <g transform="translate(628 30)">
      <rect width="145" height="31" fill="#E3E3E3" stroke="#ADADAD"/>
      <text fill="#333" font-family="Helvetica-Bold, Helvetica" font-size="14" font-weight="bold">
        <tspan x="14.228" y="21">Save as Template</tspan>
      </text>
    </g>
    <g transform="translate(490 30)">
      <rect width="132" height="31" fill="#E3E3E3" stroke="#ADADAD"/>
      <text fill="#333" font-family="Helvetica-Bold, Helvetica" font-size="14" font-weight="bold">
        <tspan x="14.319" y="21">Apply Template</tspan>
      </text>
    </g>
    <rect width="849" height="162" x=".5" y=".5" stroke="#999"/>
    <path fill="#D0021B" fill-rule="nonzero" d="M470.287283 106.539846L470.292128 108.53984 469.292131 108.542263 468.284364 108.544191 468.284364 108.544191 467.289212 108.545066 466.289212 108.545423 466.288499 106.545423 467.288499 106.545066 468.281583 106.544193 468.281583 106.544193 469.287286 106.542269 470.287283 106.539846zM460.296072 106.520523L461.296051 106.527054 462.289759 106.532942 462.289759 106.532942 463.293878 106.537686 464.293869 106.541815 464.285613 108.541798 463.285621 108.537669 462.279099 108.532914 462.279099 108.532914 461.282988 108.527011 460.28301 108.52048 460.296072 106.520523zM476.280177 106.502895L476.29599 108.502832 475.296021 108.510738 474.288892 108.518276 474.288892 108.518276 473.294536 108.524866 472.294555 108.531058 472.282171 106.531097 473.282152 106.524904 474.274791 106.518326 474.274791 106.518326 475.280209 106.510801 476.280177 106.502895zM454.305794 106.451482L455.305695 106.465512 456.30272 106.478883 456.30272 106.478883 457.30242 106.49104 458.302353 106.502569 458.279294 108.502436 457.279361 108.490907 456.277151 108.47872 456.277151 108.47872 455.277637 108.465315 454.277736 108.451286 454.305794 106.451482zM482.278087 106.436907L482.302967 108.436753 481.303044 108.449192 480.296137 108.461368 480.296137 108.461368 479.301443 108.472691 478.301504 108.483716 478.279456 106.483837 479.279395 106.472813 480.27267 106.461505 480.27267 106.461505 481.278165 106.449347 482.278087 106.436907zM448.312927 106.340419L449.312718 106.360888C449.768539 106.37022 450.214481 106.379095 450.654373 106.387573L451.310151 106.400001 452.309977 106.41862 452.27274 108.418273 451.272913 108.399654C450.837265 108.391542 450.397501 108.383062 449.949789 108.374156L449.27178 108.360469 448.27199 108.34 448.312927 106.340419zM488.276095 106.346919L488.308486 108.346657 487.308617 108.362852 486.302406 108.378859 486.302406 108.378859 485.307606 108.394099 484.307719 108.409119 484.277679 106.409344 485.277567 106.394325 486.271188 106.379103 486.271188 106.379103 487.276226 106.363115 488.276095 106.346919zM494.273036 106.23695L494.311707 108.236577 493.311894 108.255912 492.306186 108.275117 492.306186 108.275117 491.311058 108.293628 490.311226 108.311976 490.274529 106.312313 491.274361 106.293965 492.2685 106.275472 492.2685 106.275472 493.273223 106.256286 494.273036 106.23695zM442.315453 106.206098L443.315198 106.228686C443.637903 106.235977 444.936062 106.265427 445.263164 106.272818L445.289217 106.273407 445.289217 106.273407 445.315276 106.273995 446.315021 106.296574 446.269863 108.296064 445.270118 108.273485C445.244048 108.272897 445.244048 108.272897 445.217986 108.272308 444.91803 108.26553 443.802221 108.240219 443.369866 108.230434L443.270022 108.228176 442.270277 108.205588 442.315453 106.206098zM500.266858 106.110208L500.310837 108.109724 499.311079 108.131714 498.306079 108.15361 498.306079 108.15361 497.310866 108.174876 496.31109 108.196028 496.268787 106.196475 497.268563 106.175324 498.262937 106.154075 498.262937 106.154075 499.2671 106.132197 500.266858 106.110208zM436.314611 106.085528L437.314448 106.103548C437.746172 106.111329 438.184312 106.119579 438.633352 106.128366L439.315647 106.141958 440.315442 106.162215 440.274928 108.161805 439.275133 108.141548C438.815033 108.132226 438.368094 108.123475 437.929838 108.115227L437.278409 108.103223 436.278571 108.085203 436.314611 106.085528zM505.973065 105.976195L506.021379 107.975611 505.021671 107.999768 504.161317 108.020426 504.161317 108.020426 503.307635 108.04066 502.307912 108.064199 502.260835 106.064753 503.260558 106.041214 504.11362 106.020995 504.11362 106.020995 504.973357 106.000352 505.973065 105.976195zM430.3022 106.013235L431.302162 106.021918 432.303181 106.031467 432.303181 106.031467 433.304899 106.042719 434.304826 106.054784 434.280696 108.054638 433.280769 108.042574 432.282416 108.03136 432.282416 108.03136 431.284796 108.021843 430.284834 108.01316 430.3022 106.013235zM424.299544 105.986118L425.299499 105.995647C425.602079 105.998531 425.907034 105.999984 426.21432 106L426.75861 106.000242 426.75861 106.000242 427.296913 106.000966 428.296911 106.002767 428.29331 108.002764 427.293312 108.000963C426.936723 108.000321 426.578896 108 426.214266 108L425.745582 107.998876 425.745582 107.998876 425.280439 107.995557 424.280485 107.986027 424.299544 105.986118zM418.411231 105.653847L419.407851 105.736002C419.836435 105.771332 420.270912 105.80315 420.711316 105.831437L421.376371 105.871216 422.374837 105.926582 422.264106 107.923514 421.26564 107.868148C420.807471 107.842743 420.355196 107.813686 419.908779 107.780997L419.243541 107.729241 418.246921 107.647086 418.411231 105.653847zM412.587672 104.791737L413.570909 104.974068C413.989986 105.051781 414.416429 105.125179 414.850293 105.194228L415.50666 105.294535 416.496086 105.439579 416.205997 107.41843 415.216572 107.273385C414.758791 107.206277 414.308399 107.134585 413.865341 107.058334L413.206247 106.940542 412.22301 106.758211 412.587672 104.791737zM406.942843 103.183037L407.888383 103.508542C408.286414 103.645565 408.693901 103.77717 409.110946 103.903302L409.743692 104.088389 410.705955 104.360509 410.161715 106.285036 409.199452 106.012916C408.749112 105.885563 408.308366 105.752235 407.877123 105.61297L407.237373 105.399623 406.291833 105.074118 406.942843 103.183037zM401.77027 100.528612L402.619893 101.056002C403.016673 101.302298 403.428733 101.54 403.856357 101.768999L404.289179 101.995092 405.180189 102.449075 404.272223 104.231096 403.381213 103.777112C402.905904 103.534935 402.446657 103.28275 402.003248 103.02065L401.565112 102.755249 400.715489 102.227858 401.77027 100.528612zM397.667026 96.6317143L398.313643 97.3945295C398.615076 97.7501304 398.934006 98.0955516 399.270936 98.4307343L399.613886 98.762502 400.342198 99.4477476 398.971706 100.904372 398.243394 100.219126C397.853356 99.8521511 397.483139 99.4732022 397.132346 99.0824471L396.788013 98.6877628 396.141396 97.9249476 397.667026 96.6317143zM395.098993 91.5696406L395.453048 92.504865C395.622105 92.9514205 395.807156 93.3874355 396.008803 93.8130467L396.216004 94.2351951 396.669054 95.1266805 394.886083 96.0327794 394.433033 95.141294C394.195403 94.6736975 393.976843 94.1952466 393.776669 93.7059236L393.5826 93.212976 393.228544 92.2777516 395.098993 91.5696406zM394.076441 85.8948684L394.180132 86.8894779C394.225569 87.3253078 394.280051 87.7528873 394.344056 88.1729352L394.447264 88.7974481 394.622939 89.7818963 392.654043 90.1332466 392.478368 89.1487984C392.398898 88.7034673 392.330104 88.251424 392.271422 87.7918858L392.190913 87.0968597 392.087222 86.1022501 394.076441 85.8948684zM393.254782 71.2105669L394.103702 72.7725619 400.678245 84.8695814 401.155763 85.7482036 399.398519 86.7032388 398.921001 85.8246166 394.169 77.081 394.155805 78.0141376 392.156017 77.9850141 392.169 77.052 387.165399 85.6534163 386.662498 86.5177604 384.93381 85.5119585 385.43671 84.6476145 392.360736 72.7471786 393.254782 71.2105669zM392.126894 79.9848021L394.126682 80.0139256 394.11212 81.0138196 394.082997 83.0136075 394.068435 84.0135015 392.068647 83.984378 392.083209 82.984484 392.112332 80.9846961 392.126894 79.9848021zM451.119656 132.690375L451.122122 134.690374 450.122122 134.691607 449.124911 134.692707 449.124911 134.692707 448.122213 134.693557 447.122213 134.694277 447.120772 132.694278 448.120772 132.693557 449.122959 132.692708 449.122959 132.692708 450.119656 132.691608 451.119656 132.690375zM441.122246 132.692835L442.122246 132.693535 443.123898 132.694123 443.123898 132.694123 445.120224 132.694727 445.119734 134.694727 443.122952 134.694123 442.120847 134.693534 441.120847 134.692834 441.122246 132.692835zM435.121423 132.683515L436.121421 132.685476 437.124243 132.687342 437.124243 132.687342 438.121809 132.688998 439.121807 132.690555 439.118693 134.690552 438.118694 134.688995 437.120724 134.687339 437.120724 134.687339 436.117499 134.685472 435.117501 134.683511 435.121423 132.683515zM457.112153 132.676428L457.117953 134.676419 456.117957 134.679319 455.121341 134.682063 455.121341 134.682063 454.119014 134.684533 453.119017 134.686854 453.114375 132.68686 454.114372 132.684538 455.116122 132.68207 455.116122 132.68207 456.112157 132.679327 457.112153 132.676428zM429.119864 132.667202L430.119859 132.670282 431.121537 132.673279 431.121537 132.673279 432.117969 132.676081 433.117966 132.678803 433.112521 134.678796 432.112525 134.676074 431.115734 134.67327 431.115734 134.67327 430.1137 134.670273 429.113704 134.667193 429.119864 132.667202zM463.111552 132.651593L463.12113 134.651571 462.121142 134.65636 461.123133 134.660973 461.123133 134.660973 460.119088 134.665285 459.119097 134.669418 459.110832 132.669435 460.110824 132.665303 461.114213 132.660993 461.114213 132.660993 462.111564 132.656383 463.111552 132.651593zM423.118348 132.644697L424.118339 132.648767 425.120239 132.652766 425.120239 132.652766 426.11679 132.656586 427.116783 132.66034 427.109276 134.660326 426.109283 134.656572 425.112415 134.652751 425.112415 134.652751 424.1102 134.64875 423.110208 134.64468 423.118348 132.644697zM469.115128 132.614374L469.129009 134.614326 468.129033 134.621266 467.131621 134.628 467.131621 134.628 466.12779 134.634401 465.127809 134.640594 465.115425 132.640632 466.115406 132.63444 467.11849 132.628043 467.11849 132.628043 468.115152 132.621314 469.115128 132.614374zM417.117137 132.616731L418.117125 132.621672 419.118404 132.626551 419.118404 132.626551 420.114111 132.631264 421.114101 132.635928 421.104773 134.635906 420.104784 134.631242 419.108798 134.626528 419.108798 134.626528 418.107243 134.621647 417.107255 134.616706 417.117137 132.616731zM411.116241 132.583983L412.116224 132.589685 413.118451 132.595339 413.118451 132.595339 414.114691 132.60084 415.114676 132.606301 415.103756 134.606271 414.103771 134.60081 413.107288 134.595308 413.107288 134.595308 412.104821 134.589652 411.104837 134.58395 411.116241 132.583983zM475.105834 132.563141L475.124632 134.563053 474.124677 134.572452 473.128126 134.581602 473.128126 134.581602 472.124682 134.590385 471.124719 134.598926 471.107638 132.598999 472.107601 132.590458 473.110189 132.581683 473.110189 132.581683 474.105878 132.57254 475.105834 132.563141zM405.128017 132.547174L406.127997 132.55353 407.1317 132.559859 407.1317 132.559859 408.128737 132.566042 409.128718 132.572191 409.11642 134.572153 408.116439 134.566004 407.119194 134.55982 407.119194 134.55982 406.115284 134.55349 405.115304 134.547133 405.128017 132.547174zM481.107567 132.495556L481.132055 134.495407 480.13213 134.50765 479.135728 134.5196 479.135728 134.5196 478.131832 134.53114 477.131896 134.542389 477.109398 132.542516 478.109334 132.531267 479.112238 132.519738 479.112238 132.519738 480.107642 132.5078 481.107567 132.495556zM399.127966 132.506768L400.127942 132.513678 401.132189 132.520576 401.132189 132.520576 402.128678 132.527333 403.128655 132.53407 403.115182 134.534024 402.115204 134.527288 401.118541 134.520529 401.118541 134.520529 400.114121 134.513631 399.114145 134.50672 399.127966 132.506768zM393.129263 132.463446L394.129236 132.470811C394.545598 132.473868 394.788476 132.475651 395.002572 132.477216L395.254933 132.479058C395.438552 132.480394 395.643551 132.481881 395.961053 132.484183L396.129602 132.485405 397.129576 132.492629 397.115127 134.492577 396.115153 134.485353C395.197348 134.478699 395.120865 134.478145 394.344694 134.472447L394.114506 134.470756 393.114533 134.463392 393.129263 132.463446zM487.1014 132.40917L487.13252 134.408928 486.132641 134.424489 485.136611 134.439695 485.136611 134.439695 484.132343 134.454441 483.132447 134.468836 483.103657 132.469043 484.103553 132.454648 485.106659 132.439919 485.106659 132.439919 486.101521 132.424731 487.1014 132.40917zM387.1214 132.41773L388.12137 132.425449C388.537917 132.428657 388.780902 132.430529 388.995131 132.432174L389.247671 132.43411C389.431436 132.435517 389.636629 132.437083 389.954439 132.439508L390.123151 132.440796 391.123122 132.448408 391.107898 134.44835 390.107927 134.440738C389.189262 134.433727 389.112707 134.433143 388.336216 134.427163L388.105933 134.42539 387.105963 134.417671 387.1214 132.41773zM381.11938 132.37035L382.119348 132.378318C382.535165 132.381627 382.777725 132.383557 382.991619 132.385256L383.243787 132.387257C383.427298 132.388711 383.632242 132.390333 383.949672 132.392844L384.118182 132.394177 385.118151 132.402074 385.102357 134.402011 384.102389 134.394114C383.685326 134.390815 383.44204 134.388891 383.227928 134.387194L382.975742 134.385193C382.792391 134.383737 382.587979 134.382111 382.271444 134.379592L382.103412 134.378255 381.103443 134.370287 381.11938 132.37035zM493.098236 132.300484L493.13721 134.300105 492.1374 134.319592 491.141402 134.338654 491.141402 134.338654 490.136224 134.357194 489.136388 134.375295 489.100187 132.375623 490.100023 132.357522 491.103818 132.339007 491.103818 132.339007 492.098426 132.319972 493.098236 132.300484zM375.127281 132.321987L376.127249 132.330095C377.042441 132.337511 377.118707 132.338129 377.896799 132.344417L378.127564 132.346282 379.127531 132.354356 379.111383 134.354291 378.111416 134.346217C377.192951 134.338795 377.116412 134.338176 376.340995 134.331893L376.111032 134.330029 375.111065 134.321921 375.127281 132.321987zM369.127772 132.273192L370.127739 132.281322C371.042258 132.288759 371.118468 132.289379 371.89651 132.295709L372.127262 132.297587 373.127229 132.305723 373.110956 134.305657 372.110989 134.297521C371.693546 134.294124 371.450037 134.292143 371.235823 134.2904L370.98357 134.288348C370.800209 134.286857 370.595863 134.285195 370.279448 134.282622L370.11148 134.281256 369.111513 134.273126 369.127772 132.273192zM499.086493 132.165358L499.134911 134.164772 498.135204 134.188981 497.139703 134.212662 497.139703 134.212662 496.133828 134.235745 495.134082 134.258274 495.089023 132.258782 496.08877 132.236252 497.09297 132.213208 497.09297 132.213208 498.086786 132.189567 499.086493 132.165358zM363.130067 132.224802L364.130035 132.232822C364.544987 132.236154 364.787042 132.238097 365.00064 132.239815L365.252543 132.241842C365.435923 132.243319 365.640843 132.244971 365.958262 132.247531L366.126768 132.24889 367.126735 132.256962 367.110592 134.256896 366.110624 134.248825C365.693624 134.245462 365.450373 134.2435 365.236441 134.241777L364.984552 134.23975C364.801478 134.238278 364.597498 134.23664 364.281659 134.234104L364.113996 134.232757 363.114028 134.224738 363.130067 132.224802zM357.124137 132.177603L358.124107 132.18536C358.539703 132.188592 358.782134 132.190478 358.996129 132.192147L359.248535 132.194119C359.432309 132.195557 359.637722 132.197168 359.955917 132.199665L360.124835 132.200991 361.124804 132.208854 361.109078 134.208792 360.109109 134.200929C359.69111 134.197649 359.447277 134.195735 359.232897 134.194058L358.980517 134.192086C358.797112 134.190656 358.592819 134.189066 358.276506 134.186606L358.108592 134.1853 357.108622 134.177542 357.124137 132.177603zM351.12715 132.132738L352.127123 132.140056C352.56412 132.143254 353.006265 132.146516 353.454029 132.149844L354.129947 132.154887 355.129919 132.162374 355.114945 134.162318 354.114973 134.154831C353.661547 134.151436 353.213976 134.148109 352.771789 134.144847L352.112487 134.140003 351.112513 134.132684 351.12715 132.132738zM345.129497 132.091351L346.129474 132.098012C346.56726 132.100929 347.009679 132.103913 347.457015 132.106968L348.131741 132.111602 349.131717 132.11851 349.117902 134.118462 348.117926 134.111554C347.66571 134.10843 347.218555 134.105377 346.776175 134.102393L346.116152 134.097968 345.116174 134.091307 345.129497 132.091351zM505.084059 131.997454L505.144126 133.996551 504.144577 134.026585 503.14993 134.055942 503.14993 134.055942 502.143343 134.0846 501.143734 134.112548 501.087838 132.113329 502.087448 132.085381 503.091956 132.056782 503.091956 132.056782 504.08451 132.027487 505.084059 131.997454zM339.121444 132.054916L340.121427 132.060642 341.112441 132.066405 341.112441 132.066405 342.119 132.072433 343.118982 132.078506 343.106837 134.078469 342.106855 134.072396 341.10064 134.066371 341.10064 134.066371 340.109974 134.060609 339.109991 134.054883 339.121444 132.054916zM333.126154 132.02556L334.126144 132.029989 335.120178 132.034514 335.120178 132.034514 336.130084 132.039355 337.130072 132.044266 337.120251 134.044242 336.120263 134.039331 335.110836 134.034492 335.110836 134.034492 334.117286 134.029969 333.117296 134.02554 333.126154 132.02556zM327.117604 132.005888L328.117601 132.008508C328.554452 132.009653 328.996224 132.010912 329.443028 132.012285L330.117023 132.01443 331.117017 132.01772 331.110436 134.01771 330.110442 134.014419C329.658871 134.012933 329.212392 134.011561 328.770891 134.010303L328.112361 134.008501 327.112365 134.005881 327.117604 132.005888zM321.119638 131.999942L322.119638 132.000004 323.446426 132.000522 324.122557 132.001108 325.122556 132.002129 325.120513 134.002128 324.120514 134.001107 323.781697 134.000787 323.781697 134.000787 322.119515 134.000004 321.119515 133.999942 321.119638 131.999942zM315.210763 131.680814L316.207229 131.764813C316.637588 131.801091 317.072097 131.833202 317.510774 131.861124L318.171918 131.899864 319.170486 131.953371 319.063473 133.950506 318.064905 133.896999C317.608555 133.872546 317.156346 133.843756 316.708263 133.810647L316.03923 133.757745 315.042765 133.673745 315.210763 131.680814zM309.371586 130.778498L310.353507 130.967791C310.775879 131.049215 311.203045 131.1259 311.63503 131.197818L312.286623 131.302116 313.275014 131.454047 312.971152 133.430829 311.982761 133.278898C311.529371 133.209205 311.080794 133.134515 310.637008 133.054853L309.974921 132.931632 308.993 132.742339 309.371586 130.778498zM303.727171 129.17996L304.675953 129.495894C305.082657 129.631322 305.494851 129.761408 305.91257 129.886117L306.543297 130.069144 307.50578 130.340486 306.963095 132.265452 306.000612 131.99411C305.55748 131.869182 305.119927 131.738538 304.687926 131.602209L304.044084 131.393456 303.095303 131.077522 303.727171 129.17996zM298.378655 126.754841L299.265461 127.216983C299.644875 127.414708 300.030416 127.606554 300.422132 127.792478L301.014345 128.066919 301.925463 128.479065 301.101171 130.301301 300.190053 129.889155C299.769684 129.699 299.355672 129.502473 298.94798 129.299618L298.341177 128.990595 297.454371 128.528453 298.378655 126.754841zM293.580431 123.471495L294.369978 124.085185C294.708264 124.348124 295.053061 124.604879 295.404432 124.855402L295.936426 125.226505 296.762422 125.790181 295.635071 127.442174 294.809075 126.878498C294.428383 126.618707 294.054624 126.352196 293.68775 126.079024L293.142597 125.664279 292.353051 125.050589 293.580431 123.471495zM289.478769 119.351694L290.139177 120.102601C290.423598 120.425998 290.714514 120.743288 291.011996 121.054421L291.463151 121.516498 292.169212 122.224649 290.752909 123.63677 290.046848 122.928619C289.723082 122.603893 289.406379 122.272625 289.096675 121.934881L288.637362 121.423416 287.976955 120.672509 289.478769 119.351694zM286.177405 114.52241L286.693524 115.378926C286.917523 115.75066 287.147615 116.116775 287.383871 116.477221L287.742886 117.013632 288.3071 117.839261 286.655842 118.967688 286.091629 118.14206C285.834761 117.766179 285.584565 117.384425 285.340961 116.996861L284.980491 116.411165 284.464372 115.554648 286.177405 114.52241zM283.713455 109.241564L284.092017 110.16714C284.257491 110.571719 284.42841 110.971428 284.604849 111.366225L284.873657 111.954732 285.296612 112.860883 283.48431 113.706791 283.061355 112.80064C282.870189 112.391079 282.684955 111.976554 282.505569 111.557111L282.240865 110.924264 281.862303 109.998688 283.713455 109.241564zM281.967433 103.607478L282.225166 104.573694C282.338429 104.998305 282.456394 105.418855 282.579143 105.835327L282.766862 106.456972 283.062348 107.412319 281.151655 108.003292 280.856168 107.047946C280.723405 106.618707 280.595724 106.185429 280.473035 105.748128L280.292734 105.08916 280.035001 104.122943 281.967433 103.607478zM280.849559 97.8172079L281.008049 98.8045685C281.078035 99.2405691 281.151991 99.6731834 281.230007 100.102448L281.350086 100.743838 281.539352 101.725763 279.575501 102.104296 279.386234 101.122371C279.301478 100.68265 279.220992 100.23968 279.144679 99.7934176L279.033328 99.1215485 278.874838 98.134188 280.849559 97.8172079zM280.233443 91.9166428L280.312633 92.9135023 280.397123 93.9027342 280.397123 93.9027342 280.492789 94.8820434 280.596223 95.8766797 278.60695 96.0835484 278.503516 95.0889121 278.405465 94.0852072 278.405465 94.0852072 278.318914 93.0718822 278.239724 92.0750227 280.233443 91.9166428zM280.010576 85.9794812L280.029881 86.9792948 280.053395 87.9765835 280.053395 87.9765835 280.085373 88.9614142 280.122432 89.9607274 278.123806 90.0348441 278.086747 89.035531 278.054184 88.0327626 278.054184 88.0327626 278.030254 87.0179049 278.010949 86.0180913 280.010576 85.9794812zM279.068787 71.210297L279.933683 72.7635032 286.631949 84.7924567 287.118453 85.6661352 285.371096 86.6391427 284.884593 85.7654643 280.043 77.07 280.039542 78.0042688 278.039561 77.995657 278.043 77.063 273.127853 85.7148405 272.633843 86.584297 270.89493 85.5962778 271.38894 84.7268213 278.190548 72.7559973 279.068787 71.210297zM278.030949 79.9956385L280.03093 80.0042503 280.018013 83.0042225 280.013707 84.0042132 278.013725 83.9956014 278.018031 82.9956107 278.030949 79.9956385z"/>
    <text fill="#D0021B" font-family="Helvetica" font-size="14">
      <tspan x="515" y="112">Add a viewport for the mobile-small breakpoint</tspan>
    </text>
    <text fill="#D0021B" font-family="Helvetica" font-size="14">
      <tspan x="515" y="138">Add a viewport for the tablet breakpoint</tspan>
    </text>
    <g transform="translate(194 20)">
      <rect width="230" height="49" fill="#373331"/>
      <rect width="53" height="48" fill="#000"/>
      <path fill="#FFF" fill-rule="nonzero" d="M39.9620763,33.0598881 L37.1104848,25.4283919 L37.1104848,14.7138817 C37.1155674,14.3249467 36.7924873,14.005516 36.3884472,14 L17.6115528,14 C17.2075127,14.005516 16.8844326,14.3249467 16.8895152,14.7138817 L16.8895152,25.4283919 L14.0379237,33.0598881 C14.0131803,33.1329493 14.0004058,33.2092735 14,33.2861183 C13.9949765,33.6750533 14.3180567,33.994484 14.7220967,34 L39.2779033,34 C39.6819433,33.994484 40.0050235,33.6750533 40,33.2861183 C39.9995942,33.2092735 39.9868197,33.1329493 39.9620763,33.0598881 Z M23,32 L23.8883532,29 L30.1116468,29 L31,31.9960457 L23,32 Z M36,26 L18,26 L18,16 L35.9986442,16 L36,26 Z"/>
      <path fill="#A1A09F" d="M95,14 C95.5522847,14 96,14.4477153 96,15 L96,33 C96,33.5522847 95.5522847,34 95,34 L75,34 C74.4477153,34 74,33.5522847 74,33 L74,15 C74,14.4477153 74.4477153,14 75,14 L95,14 Z M85,31 C84.4477153,31 84,31.4477153 84,32 C84,32.5522847 84.4477153,33 85,33 C85.2652165,33 85.5195704,32.8946432 85.7071068,32.7071068 C85.8946432,32.5195704 86,32.2652165 86,32 C86,31.4477153 85.5522847,31 85,31 Z M94,16 L76,16 L76,30 L94,30 L94,16 Z"/>
      <path fill="#A1A09F" fill-rule="nonzero" d="M145.9,14 L137.1,14 C136.492487,14 136,14.4924868 136,15.1 L136,32.7 C136,33.3075132 136.492487,33.8 137.1,33.8 L145.9,33.8 C146.507513,33.8 147,33.3075132 147,32.7 L147,15.1 C147,14.4924868 146.507513,14 145.9,14 Z M140.95,15.1 L142.05,15.1 C142.348954,15.1112932 142.588707,15.3510461 142.6,15.65 C142.588707,15.9489539 142.348954,16.1887068 142.05,16.2 L140.95,16.2 C140.64894,16.1935861 140.406414,15.9510599 140.4,15.65 C140.406972,15.3491784 140.649178,15.1069716 140.95,15.1 Z M141.5,33.305 C140.862111,33.305 140.345,32.7878889 140.345,32.15 C140.345,31.5121111 140.862111,30.995 141.5,30.995 C142.137889,30.995 142.655,31.5121111 142.655,32.15 C142.655,32.456325 142.533313,32.7501038 142.316708,32.9667083 C142.100104,33.1833128 141.806325,33.305 141.5,33.305 Z M145.9,30.5 L137.1,30.5 L137.1,17.3 L145.9,17.3 L145.9,30.5 Z"/>
      <path fill="#A1A09F" d="M205,17 L205,32 L195,32 L195,17 L205,17 Z M203.888889,18.0714286 L196.111111,18.0714286 L196.111111,28.7857143 L203.888889,28.7857143 L203.888889,18.0714286 Z"/>
    </g>
  </g>
</svg>
