<svg xmlns="http://www.w3.org/2000/svg" xmlns:xlink="http://www.w3.org/1999/xlink" width="870" height="500">
  <defs/>
  <defs>
    <circle id="b" cx="14" cy="14" r="14"/>
    <circle id="c" cx="14" cy="14" r="14"/>
    <circle id="d" cx="14" cy="14" r="14"/>
    <circle id="e" cx="14" cy="14" r="14"/>
    <circle id="f" cx="14" cy="14" r="14"/>
    <circle id="g" cx="14" cy="14" r="14"/>
    <circle id="h" cx="14" cy="14" r="14"/>
    <filter id="a">
      <feColorMatrix in="SourceGraphic" values="0 0 0 0 1.000000 0 0 0 0 1.000000 0 0 0 0 1.000000 0 0 0 1.000000 0"/>
    </filter>
  </defs>
  <g fill="none" fill-rule="evenodd">
    <path fill="#FFF" d="M0 0h870v500H0z"/>
    <g transform="translate(553 355)">
      <circle cx="30" cy="30" r="30" fill="#FFDADE"/>
      <circle cx="30" cy="30" r="25" fill="#FFA1AC"/>
      <g transform="translate(10 10)">
        <circle cx="20" cy="20" r="14.667" fill="#FFF"/>
        <circle cx="20" cy="20" r="20" fill="#D0021B"/>
        <g filter="url(#a)">
          <path fill="#0050C9" fill-rule="nonzero" d="M13.922 32c-.1 0-.2-.014-.292-.046-.306-.1-.454-.338-.349-.556l5.108-10.37h-5.142c-.227 0-.435-.076-.562-.203-.126-.127-.147-.288-.06-.429l6.753-10.971c.103-.171.35-.282.622-.282h6.416c.23 0 .443.078.567.209.124.13.142.293.05.434l-5.315 8.043h5.035c.248 0 .475.092.594.239.119.148.108.327-.029.468L14.487 31.793c-.13.134-.343.207-.565.207z"/>
        </g>
      </g>
    </g>
    <path fill="#373331" d="M43 60h108v49H43z"/>
    <path fill="#000" d="M43 60h54v48H43z"/>
    <path fill="#FFF" fill-rule="nonzero" d="M82.962 93.06l-2.852-7.632V74.714a.718.718 0 00-.722-.714H60.612a.718.718 0 00-.722.714v10.714l-2.852 7.632a.717.717 0 00-.038.226.718.718 0 00.722.714h24.556a.718.718 0 00.722-.714.717.717 0 00-.038-.226zM66 92l.888-3h6.224L74 91.996 66 92zm13-6H61V76h17.999L79 86zm49.9-12h-8.8a1.1 1.1 0 00-1.1 1.1v17.6a1.1 1.1 0 001.1 1.1h8.8a1.1 1.1 0 001.1-1.1V75.1a1.1 1.1 0 00-1.1-1.1zm-4.95 1.1h1.1a.572.572 0 01.55.55.572.572 0 01-.55.55h-1.1a.562.562 0 01-.55-.55c.007-.3.25-.543.55-.55zm.55 18.205a1.155 1.155 0 110-2.31 1.155 1.155 0 010 2.31zm4.4-2.805h-8.8V77.3h8.8v13.2z"/>
    <path stroke="#999" d="M869.5.5v499H.5V.5h869z"/>
    <path fill="#417505" fill-rule="nonzero" d="M587 28v17h17z"/>
    <path fill="#417505" fill-rule="nonzero" d="M586.583 46.75c-.42 0-.822-.164-1.12-.457a1.552 1.552 0 01-.463-1.105V28h-17.417c-.874 0-1.583.698-1.583 1.56v46.877c0 .415.167.812.463 1.105.297.293.7.458 1.12.458h34.834c.42 0 .822-.164 1.12-.457.296-.293.463-.69.463-1.105V46.75h-17.417z"/>
    <text fill="#FFF" font-family="Helvetica-Bold, Helvetica" font-size="14" font-weight="bold" transform="translate(566 28)">
      <tspan x="6.938" y="40">xml</tspan>
    </text>
    <text fill="#000" font-family="Helvetica-Bold, Helvetica" font-size="14" font-weight="bold">
      <tspan x="555" y="106">view.xml</tspan>
    </text>
    <text fill="#06C" font-family="Helvetica" font-size="14">
      <tspan x="536" y="126">viewports config</tspan>
    </text>
    <path fill="#DC332E" fill-rule="nonzero" d="M784 30v17h17z"/>
    <path fill="#DC332E" fill-rule="nonzero" d="M783.583 48.75c-.42 0-.822-.164-1.12-.457a1.552 1.552 0 01-.463-1.105V30h-17.417c-.874 0-1.583.698-1.583 1.56v46.877c0 .415.167.812.463 1.105.297.293.7.458 1.12.458h34.834c.42 0 .822-.164 1.12-.457.296-.293.463-.69.463-1.105V48.75h-17.417z"/>
    <text fill="#FFF" font-family="Helvetica-Bold, Helvetica" font-size="14" font-weight="bold" transform="translate(763 30)">
      <tspan x="7.438" y="40">svg</tspan>
    </text>
    <text fill="#000" font-family="Helvetica-Bold, Helvetica" font-size="14" font-weight="bold" transform="translate(720 30)">
      <tspan x="20.5" y="80">button icons</tspan>
    </text>
    <text fill="#06C" font-family="Helvetica" font-size="14" transform="translate(720 30)">
      <tspan x="0" y="100">switcher-desktop.svg</tspan>
    </text>
    <text fill="#06C" font-family="Helvetica" font-size="14" transform="translate(720 30)">
      <tspan x="4" y="119">switcher-mobile.svg</tspan>
    </text>
    <path fill="#BD10E0" fill-rule="nonzero" d="M587 173v17h17z"/>
    <path fill="#BD10E0" fill-rule="nonzero" d="M586.583 191.75c-.42 0-.822-.164-1.12-.457a1.552 1.552 0 01-.463-1.105V173h-17.417c-.874 0-1.583.698-1.583 1.56v46.878c0 .414.167.811.463 1.104.297.293.7.458 1.12.458h34.834c.42 0 .822-.164 1.12-.457.296-.293.463-.69.463-1.105V191.75h-17.417z"/>
    <text fill="#FFF" font-family="Helvetica-Bold, Helvetica" font-size="14" font-weight="bold" transform="translate(566 173)">
      <tspan x="5.376" y="40">less</tspan>
    </text>
    <text fill="#06C" font-family="Helvetica" font-size="14" transform="translate(510.5 173)">
      <tspan x="0" y="96.526">viewportClasses </tspan> <tspan x="104.877" y="96" font-family="Helvetica-Bold, Helvetica" font-weight="bold">defined</tspan>
    </text>
    <text fill="#000" font-family="Helvetica-Bold, Helvetica" font-size="14" font-weight="bold" transform="translate(510.5 173)">
      <tspan x="1.5" y="76">_mobile-viewport.less</tspan>
    </text>
    <text fill="#06C" font-family="Helvetica" font-size="14">
      <tspan x="45" y="50">default viewports</tspan>
    </text>
    <text fill="#000" font-family="Helvetica-Bold, Helvetica" font-size="14" font-weight="bold">
      <tspan x="275" y="245">page-builder.ts</tspan>
    </text>
    <text fill="#06C" font-family="Helvetica" font-size="14">
      <tspan x="294.014" y="264">properties</tspan> <tspan x="283.5" y="280">and functions</tspan>
    </text>
    <text fill="#D0021B" font-family="Helvetica-Bold, Helvetica" font-size="14" font-weight="bold">
      <tspan x="361" y="166">toggleViewport</tspan> <tspan x="463.047" y="166.526" font-family="Helvetica" font-weight="normal">(viewport)</tspan>
    </text>
    <text fill="#D0021B" font-family="Helvetica-Bold, Helvetica" font-size="14" font-weight="bold">
      <tspan x="371" y="89">initViewports(</tspan> <tspan x="464.495" y="89.526" font-family="Helvetica" font-weight="normal">config</tspan> <tspan x="500.917" y="89">)</tspan>
    </text>
    <path fill="#06C" fill-rule="nonzero" d="M328 169v17h17z"/>
    <path fill="#06C" fill-rule="nonzero" d="M327.583 187.75c-.42 0-.822-.164-1.12-.457a1.552 1.552 0 01-.463-1.105V169h-17.417c-.874 0-1.583.698-1.583 1.56v46.878c0 .414.167.811.463 1.104.297.293.7.458 1.12.458h34.834c.42 0 .822-.164 1.12-.457.296-.293.463-.69.463-1.105V187.75h-17.417z"/>
    <text fill="#FFF" font-family="Helvetica-Bold, Helvetica" font-size="14" font-weight="bold" transform="translate(307 169)">
      <tspan x="4.993" y="40">ts/js</tspan>
    </text>
    <text fill="#06C" font-family="Helvetica" font-size="14">
      <tspan x="774.266" y="460">widget.js</tspan> <tspan x="770.379" y="479">preview.js</tspan>
    </text>
    <text fill="#06C" font-family="Helvetica" font-size="14">
      <tspan x="499.063" y="460">stage:viewportChangeAfter</tspan> <tspan x="470.263" y="479">stage:${this.id}:viewportChangeAfter</tspan>
    </text>
    <text fill="#000" font-family="Helvetica-Bold, Helvetica" font-size="14" font-weight="bold">
      <tspan x="506.5" y="440">stage events triggered</tspan>
    </text>
    <text fill="#000" font-family="Helvetica-Bold, Helvetica" font-size="14" font-weight="bold">
      <tspan x="755.5" y="443">content types</tspan>
    </text>
    <text fill="#D0021B" font-family="Helvetica-Bold, Helvetica" font-size="14" font-weight="bold">
      <tspan x="759.021" y="325">Listening for </tspan> <tspan x="748.5" y="341">viewport events</tspan>
    </text>
    <path fill="#D0021B" fill-rule="nonzero" d="M150.016 389.955l1 .024.996.02.988.011 1 .008-.015 2-1-.008-1.005-.011-1.013-.02-1-.025.049-1.999zm9.93-.114l.098 1.998-1 .049-1.003.044-1.012.035-1 .029-.058-2 1-.028.992-.034.984-.044.999-.049zm-15.873-.216l.997.07.996.067.99.058.998.056-.112 1.997-.998-.056-1.003-.06-1.011-.067-.998-.07.14-1.995zm21.794-.33l.229 1.987-.993.114-1.001.11-1.011.098-.996.092-.183-1.992.996-.091.988-.097.978-.107.993-.114zm5.84-.972l.38 1.964-.982.19-.992.185-1.003.173-.986.164-.328-1.973.987-.164.976-.169.966-.18.982-.19zm5.738-1.466l.554 1.922-.96.277c-.43.124-.864.245-1.3.36l-.659.172-.969.247-.494-1.938.969-.247c.427-.109.85-.221 1.27-.338l.628-.177.96-.278zm5.526-2.011l.75 1.854-.927.375c-.417.169-.837.333-1.262.493l-.64.236-.94.342-.682-1.88.94-.342c.413-.15.823-.304 1.229-.462l.605-.241.927-.375zm5.274-2.628l.963 1.753-.876.482c-.395.217-.795.43-1.198.637l-.609.308-.895.445-.891-1.79.895-.446c.392-.195.78-.394 1.163-.598l.572-.31.876-.48zm4.902-3.27l1.182 1.613-.807.59c-.365.269-.735.531-1.11.789l-.565.383-.832.555-1.11-1.665.832-.554a44.49 44.49 0 001.076-.74l.527-.38.807-.592zm4.42-3.902l1.39 1.438-.719.695c-.327.316-.658.627-.994.933l-.508.455-.75.662-1.323-1.5.75-.662c.325-.287.647-.58.963-.876l.472-.45.72-.695zm3.857-4.476l1.571 1.237-.618.786c-.282.358-.568.711-.86 1.06l-.44.519-.652.757-1.516-1.305.653-.757c.283-.329.561-.662.835-1l.408-.511.619-.786zm3.179-4.836l1.714 1.031-.516.857c-.235.391-.474.777-.718 1.16l-.37.568-.55.835-1.67-1.1.55-.835c.239-.362.473-.728.703-1.1l.341-.559.516-.857zm2.635-5.275l1.821.828-.414.91c-.188.415-.38.826-.578 1.232l-.298.607-.447.894-1.789-.893.447-.895c.193-.387.383-.78.569-1.175l.276-.597.413-.91zm2.073-5.54l1.894.64-.32.947c-.145.431-.295.859-.448 1.283l-.233.632-.35.937-1.873-.7.35-.937c.152-.407.3-.817.445-1.23l.214-.625.32-.947zm1.562-5.723l1.944.474-.237.971-.248.988-.259.976-.263.965-1.93-.527.264-.964.252-.95.24-.961.237-.972zm1.114-5.839l1.973.328-.164.987-.173 1-.182.991-.187.983-1.965-.374.187-.983.178-.967.169-.978.164-.987zm.723-5.915l1.99.203-.101.994-.108 1.009-.117.999-.12.992-1.986-.242.12-.993.115-.978.106-.989.101-.995zm.384-5.952l1.998.094-.047 1-.052 1.01-.06 1.004-.064.997-1.996-.128.064-.998.059-.985.05-.995.048-.999zm2.09-5.987v1.004l-.004 1.017-.01 1.004-.016 1-2-.03.015-1c.01-.656.015-1.317.015-1.984v-1.011h2zm-2-5.988h2v3.997h-2v-3.997zm.002-6.005h2v4.001h-2v-2.58V313.51zm.004-6.002l2 .002-.001 1v.118l-.001 1.65v1.233l-2-.001v-1-1.774l.001-.228v-1zm.005-6.006l2 .001-.001 1-.001.731v1.038l-.001.235v1l-2-.002V303.365l.001-.132v-.731l.002-1zm.007-5.995l2 .003-.002 1v1.032l-.001.16v.632l-.001.178-.001 1-2-.003v-1l.001-.09v-.72l.001-.078v-.637l.001-.147v-.33l.002-1zm.01-5.998l2 .004-.002 1-.002 1.323-.001.676-.002 1-2-.004.002-1 .002-1.342.001-.657.002-1zm.014-6.004l2 .005-.002 1-.004 1.326-.001.675-.003 1-2-.005.003-1c0-.453.002-.9.003-1.341l.002-.66.002-1zm.019-5.999l2 .007-.003 1-.006 1.835v.165l-.004 1-2-.006.003-1 .006-1.75v-.25l.004-1zm.017-6l2 .005-.002 1-.004 1.477-.002.524-.003 1-2-.006.003-1 .004-1.52.002-.48.002-1zm2.004-5.997v3.001l-.001 1h-2v-4h2zm-.008-6l.001 1 .003 1.352v.648l.002 1-2 .003-.001-1-.002-1.315-.002-.685-.001-1 2-.004zm-.014-6.004l.003 1c0 .46.002.91.003 1.349l.001.65.003 1-2 .005-.003-1-.003-1.317-.001-.682-.003-1 2-.005zm-.017-6l.003 1 .001.339.001.266v.316l.001.094v.258l.001.114.001.269v.344l.004 1-2 .006-.003-1-.001-.345v-.268l-.001-.115v-.257l-.001-.095v-.202l-.001-.113v-.267l-.001-.159v-.18l-.004-1 2-.005zm-.018-5.999l.003 1 .002.635v.225l.001.103v.201l.001.107.001.31v.264l.001.155.003 1-2 .006-.003-1-.001-.418-.001-.311v-.308l-.001-.102-.001-.226-.001-.444v-.19l-.004-1 2-.007zm-.02-6.004l.004 1 .002.715v.201l.001.094v.259l.003.546v.185l.003 1-2 .006-.003-1-.002-.73-.001-.259V237.223l-.003-.536v-.178l-.004-1 2-.007zm-1.902-6.027l1.998.081-.04 1-.034.98-.02.99-.014 1-2-.029.014-1c.007-.454.017-.905.031-1.353l.024-.67.04-.999zm.602-6.066l1.983.26-.13.992c-.057.43-.109.862-.157 1.299l-.068.657-.099.995-1.99-.197.098-.995c.045-.454.095-.904.148-1.351l.084-.668.13-.992zm1.218-6.003l1.944.471-.236.972c-.102.42-.199.844-.291 1.271l-.135.644-.199.98-1.96-.398.199-.98c.09-.447.187-.891.288-1.331l.155-.657.235-.972zm1.924-5.81l1.87.712-.356.934c-.154.403-.302.81-.445 1.222l-.21.62-.314.95-1.899-.629.314-.95c.144-.433.293-.863.448-1.289l.237-.635.355-.934zm2.728-5.542l1.748.97-.485.875c-.21.377-.414.759-.612 1.145l-.293.582-.442.897-1.794-.884.442-.897c.202-.41.41-.816.625-1.216l.325-.598.486-.874zm3.496-5.027l1.58 1.226-.613.79c-.265.342-.524.689-.778 1.04l-.375.53-.572.821-1.641-1.142.57-.82c.262-.376.528-.746.802-1.11l.414-.545.613-.79zm4.266-4.468l1.373 1.454-.727.687c-.316.298-.627.6-.93.908l-.453.465-.692.722-1.444-1.383.691-.722c.314-.328.634-.652.96-.97l.495-.475.727-.686zm4.883-3.785l1.148 1.637-.819.574c-.358.251-.71.506-1.057.766l-.516.392-.792.612-1.223-1.582.792-.612a43.73 43.73 0 011.09-.816l.558-.397.819-.574zm5.342-3.092l.928 1.771-.885.464c-.39.204-.774.412-1.153.624l-.565.32-.866.5-1-1.732.867-.5c.39-.225.784-.445 1.184-.662l.604-.321.886-.464zm39.876-14.79l.856.517 11.788 7.114 1.522.918-1.575.824-12.2 6.38-.887.464-.927-1.773.887-.463 10.624-5.557-10.265-6.194-.856-.517 1.033-1.712zm-34.358 12.396l.732 1.86-.93.367c-.411.162-.817.327-1.219.495l-.598.256-.918.398-.796-1.835.918-.398a58.42 58.42 0 011.246-.524l.634-.253.93-.366zm5.81-1.875l.557 1.92-.96.28c-.426.123-.847.25-1.264.379l-.622.197-.952.306-.613-1.904.952-.306c.425-.137.855-.27 1.288-.4l.653-.194.96-.278zm5.931-1.39l.408 1.958-.98.204-.97.208-.96.218-.973.228-.455-1.948.974-.228.982-.223.995-.213.979-.204zm5.999-.977l.28 1.98-.99.14-.984.145-.974.153-.987.16-.32-1.974.987-.16.993-.156 1.004-.148.99-.14zm6.039-.628l.171 1.993-.996.086-.992.09-.982.097-.994.103-.206-1.99.994-.102 1-.1 1.008-.09.997-.087zm6.056-.33l.08 1.999-1 .04-.996.042-.987.05-.999.054-.108-1.997.999-.054 1.001-.05 1.011-.044 1-.04zm8.087.029l1 .03 1.998.061 1 .03-.061 2-1-.03-1.999-.062-1-.03.062-2zm-3.366-.103l.367.011.999.03-.06 2-1-.03-.334-.012-.817.004-.812.008-1 .012-.024-2 1-.012c.546-.007 1.096-.01 1.681-.011zm257.549-1.126l.871.49 12 6.75 1.55.872-1.55.872-12 6.75-.871.49-.98-1.743.87-.49 8.741-4.917v-1.924l-8.74-4.916-.872-.49.98-1.744zM362 188v2h-4v-2h4zm6 0v2h-4v-2h4zm6 0v2h-4v-2h4zm6 0v2h-4v-2h4zm6 0v2h-4v-2h4zm6 0v2h-4v-2h4zm6 0v2h-4v-2h4zm6 0v2h-4v-2h4zm6 0v2h-4v-2h4zm6 0v2h-4v-2h4zm6 0v2h-4v-2h4zm6 0v2h-4v-2h4zm6 0v2h-4v-2h4zm6 0v2h-4v-2h4zm6 0v2h-4v-2h4zm6 0v2h-4v-2h4zm6 0v2h-4v-2h4zm6 0v2h-4v-2h4zm6 0v2h-4v-2h4zm6 0v2h-4v-2h4zm6 0v2h-4v-2h4zm6 0v2h-4v-2h4zm6 0v2h-4v-2h4zm6 0v2h-4v-2h4zm6 0v2h-4v-2h4zm6 0v2h-4v-2h4zm6 0v2h-4v-2h4zm6 0v2h-4v-2h4zm6 0v2h-4v-2h4zm6 0v2h-4v-2h4zm6 0v2h-4v-2h4z"/>
    <path fill="#D0021B" fill-rule="nonzero" d="M276.369 174.888l.871.49 12 6.75 1.55.872-1.55.872-12 6.75-.871.49-.98-1.743.87-.49 8.672-4.879H284v-2h.934l-8.674-4.878-.872-.49.98-1.744zM150 182v2h-4v-2h4zm6 0v2h-4v-2h4zm6 0v2h-4v-2h4zm6 0v2h-4v-2h4zm6 0v2h-4v-2h4zm6 0v2h-4v-2h4zm6 0v2h-4v-2h4zm6 0v2h-4v-2h4zm6 0v2h-4v-2h4zm6 0v2h-4v-2h4zm6 0v2h-4v-2h4zm6 0v2h-4v-2h4zm6 0v2h-4v-2h4zm6 0v2h-4v-2h4zm6 0v2h-4v-2h4zm6 0v2h-4v-2h4zm6 0v2h-4v-2h4zm6 0v2h-4v-2h4zm6 0v2h-4v-2h4zm6 0v2h-4v-2h4zm6 0v2h-4v-2h4zm6 0v2h-4v-2h4zm6 0v2h-4v-2h4zM734.369 49.888l.871.49 12 6.75 1.55.872-1.55.872-12 6.75-.871.49-.98-1.743.87-.49L742.932 59H740v-2h2.934l-8.674-4.878-.872-.49.98-1.744zM630 57v2h-4v-2h4zm6 0v2h-4v-2h4zm6 0v2h-4v-2h4zm6 0v2h-4v-2h4zm6 0v2h-4v-2h4zm6 0v2h-4v-2h4zm6 0v2h-4v-2h4zm6 0v2h-4v-2h4zm6 0v2h-4v-2h4zm6 0v2h-4v-2h4zm6 0v2h-4v-2h4zm6 0v2h-4v-2h4zm6 0v2h-4v-2h4zm6 0v2h-4v-2h4zm6 0v2h-4v-2h4zm6 0v2h-4v-2h4zm6 0v2h-4v-2h4zm6 0v2h-4v-2h4zm6 0v2h-4v-2h4zm6 .6v.798l.71-.399-.71-.399zM535.369 379.888l.871.49 12 6.75 1.55.872-1.55.872-12 6.75-.871.49-.98-1.743.87-.49 8.672-4.879h-.372v-2h.375l-8.674-4.878-.872-.49.98-1.744zm-165.777 6.975l.999.05c.433.02.869.038 1.309.052l.662.017 1 .022-.044 2-1-.022c-.455-.01-.907-.024-1.355-.042l-.67-.03-1-.05.099-1.997zm39.968.137v2h-4.002v-2h4.002zm120 0v2h-4v-2h4zm-6 0v2h-4v-2h4zm-6.004 0v2h-4.001v-2h4zm-6 0v2h-4v-2h4zm-6.005 0v2h-4v-2h4zm-5.998 0v2h-4v-2h4zm-5.993 0v2h-4v-2h4zm-6.002 0v2h-4.002v-2h4.002zm-6.007 0v2h-4v-2h4zm-5.99 0v2h-4.002v-2h4.001zm-6.006 0v2h-3.998v-2h3.998zm-5.998 0v2h-3.998v-2h3.998zm-5.996 0v2h-4v-2h4zm-6.002 0v2h-4.004v-2h4.004zm-5.997 0v2h-4.004v-2h4.004zm-6.008 0v2h-4.003v-2h4.003zm-36.004 0v2h-3.999v-2h4zm-23.985 0v2h-4.006v-2h4.006zm5.996 0v2h-4.002v-2h4.002zm5.998 0v2h-4.003v-2h4.003zm5.998 0v2h-4v-2h4zm143.996 0v2h-4v-2h4zm-6 0v2h-4v-2h4zm-120.006 0v2h-3.996v-2h3.996zm6.005 0v2h-4.001v-2h4zm5.999 0v2h-3.996v-2h3.996zm6.006 0v2h-3.997v-2h3.997zm-69.85-.787l.99.142c.428.061.86.118 1.295.17l.656.076.994.11-.218 1.988-.994-.11c-.454-.05-.904-.104-1.35-.163l-.667-.092-.99-.142.284-1.98zm-5.738-1.256l.968.251c.417.108.839.212 1.265.31l.642.144.977.213-.426 1.954-.977-.212c-.447-.098-.89-.2-1.328-.308l-.655-.165-.968-.25.502-1.937zm-5.527-1.954l.927.376c.4.161.804.317 1.212.468l.617.223.943.332-.665 1.887-.943-.333c-.432-.152-.86-.31-1.283-.474l-.63-.25-.928-.375.75-1.854zm-5.173-2.71l.861.508a38.1 38.1 0 001.129.639l.575.307.887.463-.927 1.773-.886-.464c-.406-.212-.807-.43-1.203-.654l-.59-.341-.862-.508 1.016-1.723zm-4.718-3.502l.77.638c.334.276.672.545 1.015.81l.518.391.803.596-1.191 1.606-.803-.595c-.368-.273-.73-.551-1.086-.836l-.53-.431-.77-.638 1.274-1.54zm-4.095-4.192l.661.75c.288.326.58.646.877.961l.45.468.698.715-1.43 1.398-.699-.715c-.318-.326-.63-.657-.938-.994l-.458-.51-.661-.75 1.5-1.323zm-3.424-4.748l.547.837c.239.366.482.727.73 1.082l.376.529.585.811-1.622 1.17-.585-.811a44.093 44.093 0 01-.78-1.116l-.378-.57-.547-.838 1.674-1.094zm-2.79-5.193l.437.899c.193.394.389.785.59 1.17l.303.575.473.88-1.762.947-.473-.881a51.226 51.226 0 01-.626-1.203l-.303-.613-.438-.899 1.799-.875zm-2.19-5.462l.341.94c.15.415.305.825.462 1.23l.24.607.371.928-1.856.744-.372-.928c-.167-.416-.33-.835-.489-1.26l-.236-.638-.341-.94 1.88-.683zm-1.69-5.684l.259.966.262.955.273.942.285.96-1.918.568-.284-.958-.28-.969-.27-.98-.259-.967 1.932-.517zm-1.256-5.809l.19.982.193.974.202.964.211.977-1.954.422-.212-.977-.206-.985-.198-.996-.19-.982 1.964-.379zm-.895-5.88l.132.991.136.985.144.976.15.988-1.977.301-.15-.989-.146-.993-.14-1.003-.132-.99 1.983-.266zm-.6-5.918l.086.996.09.994.096.985.1.995-1.99.201-.1-.995-.097-.999-.091-1.008-.087-.996 1.993-.173zm-.362-5.957l.049.999.051.997.057.987.06.998-1.995.12-.06-.997-.059-.999-.052-1.008-.049-.999 1.998-.098zm-.176-5.97l.02 1 .023 1.003.027.99.03 1-2 .058-.03-1-.026-.998-.023-1.011-.02-1 1.999-.041zm-.041-5.977l.001 1c0 .454.002.9.004 1.338l.004.654.006 1-2 .014-.006-1-.007-1.325-.001-.678-.001-1 2-.003zm-1.965-6.01l2 .015-.008 1-.012 1.695-.002.303-.006 1-2-.012.006-1 .011-1.624.003-.377.008-1zm.028-5.995l2 .001v1c-.001.496-.002 1.016-.005 1.578l-.002.43-.005 1-2-.011.005-1 .006-1.623v-1.375zm1.864-6.036l.04 1c.02.474.036.97.049 1.491l.012.529.02 1-2 .041-.02-1c-.01-.527-.025-1.03-.041-1.509l-.018-.471-.04-1 1.998-.08zm1.019-153.964l.002 1 .001 1.004v2h-2v-1.998L323.98 145l-.002-1 2-.004zm-.034-6.004l.008 1 .006 1.007.006.999.006 1-2 .011-.005-1-.006-.997-.007-1.006-.008-1 2-.014zm-.06-6.002l.012 1 .014 1.34.007.658.01 1-2 .02-.01-1-.014-1.322-.007-.673-.011-1 2-.023zm-.076-6l.013 1 .02 1.518.006.478.013 1-2 .025-.013-1-.019-1.47-.007-.525-.013-1 2-.027zm-.081-6.01l.013 1 .022 1.634.005.37.013 1-2 .028-.013-1-.023-1.699-.004-.306-.013-1 2-.026zm-.066-5.993l.01 1 .013 1.315.007.686.011 1-2 .022-.01-1-.015-1.354-.006-.65-.01-1 2-.02zm-.025-5.983v1l.004 1.317.002.678.005 1-2 .01-.005-1a590.8 590.8 0 01-.004-1.348l-.001-.655-.001-1 2-.002zm-1.947-6.014l2 .03-.015 1c-.006.431-.012.87-.016 1.316l-.007.675-.009 1-2-.017.01-1c.003-.457.008-.905.013-1.347l.01-.657.014-1zm.19-6.028l1.997.082-.04 1c-.019.43-.035.868-.05 1.314l-.022.673-.031 1-2-.062.032-1c.014-.457.03-.907.046-1.35l.026-.658.041-1zm.411-6.027l1.993.169-.084.996c-.036.429-.07.865-.103 1.308l-.048.67-.067.998-1.996-.135.068-.998c.031-.458.064-.909.099-1.352l.054-.66.084-.996zm.779-6.027l1.976.309-.154.988c-.066.422-.13.852-.19 1.29l-.087.664-.128.992-1.983-.255.127-.992c.059-.458.12-.908.185-1.35l.1-.658.154-.988zm1.376-5.963l1.927.534-.267.963c-.112.408-.22.825-.325 1.25l-.153.645-.223.975-1.95-.447.224-.975c.104-.454.213-.898.326-1.334l.174-.648.267-.963zm2.32-5.718l1.797.877-.439.9c-.184.376-.361.763-.532 1.16l-.25.602-.375.927-1.855-.748.375-.928c.175-.435.358-.86.549-1.275l.29-.616.44-.899zm3.641-5.095l1.512 1.31-.655.755c-.276.319-.543.647-.8.985l-.38.513-.582.813-1.626-1.164.582-.813c.306-.428.626-.843.958-1.245l.337-.398.654-.756zm4.926-3.923l1.098 1.671-.836.55c-.36.236-.71.48-1.05.733l-.502.384-.785.62-1.24-1.57.786-.62c.405-.32.823-.628 1.256-.926l.437-.294.836-.548zm190.673-13.32l.872.49 12 6.75 1.55.871-1.55.872-12 6.75-.872.49-.98-1.743.871-.49 9.086-5.111v-1.536l-9.086-5.11-.871-.49.98-1.744zM342.996 60.584l.719 1.866-.933.36c-.412.158-.814.322-1.206.492l-.58.258-.91.417-.832-1.819.909-.416c.407-.187.825-.367 1.252-.542l.648-.257.933-.36zm5.947-1.643l.45 1.95-.974.224c-.436.1-.862.205-1.28.313l-.622.165-.964.264-.528-1.93.965-.263c.427-.117.863-.23 1.306-.338l.672-.16.975-.225zm6.038-.997l.272 1.982-.991.136c-.445.06-.882.124-1.312.19l-.64.103-.987.161-.323-1.974.987-.161c.435-.071.876-.14 1.325-.205l.678-.096.991-.136zm6.005-.57l.153 1.995-.997.076c-.448.035-.89.071-1.326.11l-.65.059-.995.094-.188-1.991.996-.094c.437-.042.88-.08 1.33-.118l.68-.054.997-.076zm6.01-.287l.071 1.999-.999.035c-.45.016-.894.033-1.332.052l-.654.03-.999.048-.095-1.998 1-.048c.438-.02.882-.04 1.331-.057l.679-.026.999-.035zm5.976-.09l.012 2-1 .007c-.45.002-.895.006-1.335.011l-.656.01-1 .014-.03-2 1-.015c.44-.006.883-.011 1.332-.015l.677-.005 1-.007zm6.01.002v2h-4v-2h4zm5.988 0v2h-3.994v-2h3.994zm6.02 0v2h-4.005v-2h4.006zm5.993 0v2h-3.999v-2h4zm6.003 0v2h-3.997v-2h3.997zm5.99 0v2h-4v-2h4zm6.017 0v2h-4.005v-2h4.005zm5.996 0v2h-4.002v-2h4.002zm5.987 0v2h-3.999v-2h4zm6.006 0v2h-3.996v-2h3.996zm5.995 0v2h-4v-2h4zm6.01 0v2h-3.999v-2h4zm5.996 0v2h-4v-2h4zm6 0v2h-4.001v-2h4.001zm5.998 0v2h-3.997v-2h3.997zm6 0v2h-3.998v-2h3.997zm5.997 0v2h-3.997v-2h3.997zm6 0v2h-3.999v-2h4zm6.004 0v2h-4v-2h4zm5.995 0v2h-4v-2h4zm6.01 0v2h-4v-2h4zm5.998 0v2h-4v-2h4zm5.997 0v2h-4.001v-2h4zm6.004 0v2h-4v-2h4zm5.998 0v2h-4v-2h4zm5.996 0v2h-4v-2h4zm6.003 0v2h-4v-2h4z"/>
    <text fill="#000" font-family="Helvetica-Bold, Helvetica" font-size="14" font-weight="bold">
      <tspan x="28.5" y="30">Page Builder Header</tspan>
    </text>
    <path fill="#D0021B" fill-rule="nonzero" d="M98 352v4h-2v-4h2zm0-6v4h-2v-4h2zm0-6v4h-2v-4h2zm0-6v4h-2v-4h2zm0-6v4h-2v-4h2zm0-6v4h-2v-4h2zm0-6v4h-2v-4h2zm0-6v4h-2v-4h2zm0-6v4h-2v-4h2zm0-6v4h-2v-4h2zm0-6v4h-2v-4h2zm0-6v4h-2v-4h2zm0-6v4h-2v-4h2zm0-6v4h-2v-4h2zm0-6v4h-2v-4h2zm0-6v4h-2v-4h2zm0-6v4h-2v-4h2zm0-6v4h-2v-4h2zm0-6v4h-2v-4h2zm0-6v4h-2v-4h2zm0-6v4h-2v-4h2zm0-6v4h-2v-4h2zm0-6v4h-2v-4h2zm0-6v4h-2v-4h2zm0-6v4h-2v-4h2zm0-6v4h-2v-4h2zm0-6v4h-2v-4h2zm0-6v4h-2v-4h2zm0-6v4h-2v-4h2zm0-6v4h-2v-4h2zm0-6v4h-2v-4h2zm0-6v4h-2v-4h2zm0-6v4h-2v-4h2zm0-6v4h-2v-4h2zm0-6v4h-2v-4h2zm0-6v4h-2v-4h2zm0-6v4h-2v-4h2zm0-6v4h-2v-4h2zm-1-12.79l.872 1.55 6.75 12 .49.871-1.743.98-.49-.87L97 121.288l-5.878 10.451-.49.872-1.744-.98.49-.872 6.75-12 .872-1.55zm1 6.79v4h-2v-4h2z"/>
    <path fill="#F5A623" fill-rule="nonzero" d="M102 363v17h17z"/>
    <path fill="#F5A623" fill-rule="nonzero" d="M101.583 381.75c-.42 0-.822-.164-1.12-.457a1.552 1.552 0 01-.463-1.105V363H82.583c-.874 0-1.583.698-1.583 1.56v46.877c0 .415.167.812.463 1.105.297.293.7.458 1.12.458h34.834c.42 0 .822-.164 1.12-.457.296-.293.463-.69.463-1.105V381.75h-17.417z"/>
    <text fill="#FFF" font-family="Helvetica-Bold, Helvetica" font-size="14" font-weight="bold" transform="translate(81 363)">
      <tspan x="4.224" y="40">html</tspan>
    </text>
    <text fill="#000" font-family="Helvetica-Bold, Helvetica" font-size="14" font-weight="bold">
      <tspan x="55" y="443">switcher.html</tspan>
    </text>
    <text fill="#06C" font-family="Helvetica" font-size="14">
      <tspan x="45" y="463">viewportTemplate</tspan>
    </text>
    <g>
      <path fill="#FFF" d="M178 290h67v51h-67z"/>
      <text fill="#D0021B" font-family="Helvetica-Bold, Helvetica" font-size="14" font-weight="bold" transform="translate(178 290)">
        <tspan x="8" y="21">$parent</tspan>
      </text>
    </g>
    <text fill="#D0021B" font-family="Helvetica" font-size="14">
      <tspan x="157.293" y="331">Knockout bindings</tspan>
    </text>
    <g opacity=".8">
      <path fill="#FCF8F9" d="M737.109 343.593c2.864 12.493 4.391 25.625 4.391 39.172 0 14.876-1.841 29.25-5.272 42.828L611.5 384.736l125.609-41.143z"/>
      <path fill="#FAEFF1" d="M723.098 348.593c2.545 10.97 3.902 22.5 3.902 34.395 0 13.062-1.636 25.683-4.684 37.605L611.5 384.719l111.598-36.126z"/>
      <path fill="#F5E0E3" d="M708.098 353.189A115.156 115.156 0 01712 383c0 11.321-1.636 22.26-4.684 32.593L596.5 384.5l111.598-31.311z"/>
      <path fill="#F1C7CC" d="M691.583 357.823A97.613 97.613 0 01695 383.5c0 9.56-1.376 18.8-3.941 27.53L596.5 384.5l95.083-26.677z"/>
      <path fill="#E896A0" d="M674.138 362.717A80.083 80.083 0 01677 384c0 7.707-1.09 15.159-3.123 22.21L596.5 384.5l77.638-21.783z"/>
      <path fill="#E16574" d="M657.875 367.28A62.584 62.584 0 01660 383.5c0 6.284-.927 12.352-2.653 18.073L596.5 384.5l61.375-17.22z"/>
      <path fill="#D93448" d="M640.43 372.174A45.054 45.054 0 01642 384c0 4.43-.64 8.71-1.832 12.753L596.5 384.5l43.93-12.326z"/>
      <path fill="#D0021B" d="M623.91 376.809c.71 2.44 1.09 5.021 1.09 7.691s-.38 5.25-1.09 7.69l-27.41-7.69 27.41-7.691z"/>
    </g>
    <text fill="#000" fill-rule="nonzero" font-family="Helvetica-Bold, Helvetica" font-size="14" font-weight="bold">
      <tspan x="672.5" y="392">viewport</tspan>
    </text>
    <path fill="#0050C9" fill-rule="nonzero" d="M821 355c-5.792.173-10.553 1.981-13.785 5.293-3.28 3.358-5.013 8.272-5.013 14.209 0 1.967.719 5.5 1.498 8.305-2.168 1.851-3.158 5.042-2.484 8.253.695 3.313 2.968 5.883 5.784 6.644.572 1.73 1.49 3.562 2.682 5.339 1.525 2.275 4.101 5.353 7.764 7.12.03.025.062.046.093.066l.017.02c.595.711 1.76 1.801 3.444 2.192v-2.625c-.704-.31-1.225-.82-1.522-1.175l-.17-.2a1.254 1.254 0 00-.4-.318l-.023-.01a3.102 3.102 0 00-.404-.243c-3.104-1.49-5.364-4.205-6.716-6.222-1.216-1.812-2.107-3.661-2.575-5.351a1.253 1.253 0 00-1.03-.906c-2.108-.298-3.955-2.291-4.492-4.845-.526-2.513.356-5.06 2.147-6.19.475-.301.691-.88.531-1.417-.793-2.664-1.637-6.527-1.637-8.437 0-5.27 1.487-9.58 4.3-12.462 2.755-2.822 6.896-4.369 11.991-4.534V355zm0 17.508c-2.35 0-5.297.02-7.832.94-1.269.46-2.453 1.169-3.33 2.27-.875 1.101-1.37 2.564-1.37 4.307-.005.45.23.87.622 1.1.392.226.87.226 1.263 0a1.26 1.26 0 00.621-1.1c0-1.287.314-2.102.823-2.743.509-.642 1.263-1.135 2.232-1.488 1.939-.7 4.66-.78 6.971-.78v-2.506zm-23.284 2.608c-.97.018-1.905.43-2.553 1.116a3.56 3.56 0 00-1.366-.705 3.58 3.58 0 00-4.379 2.528l-.046.178h-.003l-.076.265a3.53 3.53 0 00-.989-.433c-1.876-.504-3.885.664-4.38 2.527l-5.346 19.943c-1.432 5.338 1.75 10.845 7.09 12.276l3.493.935a7.399 7.399 0 006.812-1.589c.014-.008.028-.015.04-.024l11.121-8.38-.11-.17c-.51-.751-.92-1.363-1.263-1.957-.024.021-.039.052-.064.07l-11.073 8.342a1.225 1.225 0 00-.213.157 4.963 4.963 0 01-4.601 1.13l-3.493-.937c-4.004-1.072-6.391-5.2-5.319-9.205l5.348-19.942a1.068 1.068 0 012.066.548l-2.604 9.724 2.42.648 1.002-3.736.002-.003 2.604-9.719c.15-.556.737-.909 1.31-.756a1.066 1.066 0 01.759 1.31l-1.315 4.896-1.894 7.066 2.423.649.6-2.242v-.002l2.117-7.896.842-3.142.049-.179c.149-.557.744-.904 1.31-.756.568.153.907.74.756 1.31l-3.006 11.216-.803 2.99 2.423.65 1.114-4.156c-.003-.054-.01-.106-.012-.16-.074-1.949.415-4.219 1.219-5.65.144-.256.359-.582.6-.924l.085-.326c.071-.265.25-.48.472-.619-.476-1.714-.992-3.998-1.14-6.254a3.514 3.514 0 00-1.058-.494 3.489 3.489 0 00-.971-.118zm-29.247.316a1.254 1.254 0 00-.526 2.38c4.705 2.373 7.942 7.225 7.942 12.862 0 5.68-3.284 10.558-8.05 12.91a1.253 1.253 0 101.109 2.248c5.593-2.76 9.448-8.51 9.448-15.158 0-6.597-3.798-12.316-9.321-15.1a1.256 1.256 0 00-.602-.142zm-2.066 4.553a1.253 1.253 0 00-.565 2.37c2.99 1.57 5.034 4.696 5.034 8.319 0 3.649-2.076 6.789-5.105 8.348a1.253 1.253 0 101.148 2.227c3.836-1.975 6.464-5.974 6.464-10.575 0-4.567-2.585-8.546-6.374-10.537a1.254 1.254 0 00-.602-.152zm-2.166 4.586a1.253 1.253 0 00-.553 2.34c1.302.766 2.176 2.147 2.176 3.763 0 1.628-.888 3.014-2.208 3.778a1.253 1.253 0 101.256 2.168c2.051-1.187 3.458-3.4 3.458-5.946 0-2.527-1.384-4.73-3.41-5.922a1.254 1.254 0 00-.72-.181zm51.124 1.718a1.88 1.88 0 100 3.759 1.88 1.88 0 000-3.76zm-15.805 7.764l-1.955 7.292a1.256 1.256 0 00.509 1.362 1.257 1.257 0 001.456-.039l4.379-3.298c.09-.069.198-.097.3-.14-.698-.408-1.433-.943-2.136-1.612l-1.145.861.43-1.605c-.7-.793-1.34-1.729-1.838-2.821z"/>
    <g transform="translate(83 297.074)">
      <use fill="#D0021B" xlink:href="#b"/>
      <text fill="#FFF" font-family="Helvetica-Bold, Helvetica" font-size="20" font-weight="bold">
        <tspan x="8.438" y="21">1</tspan>
      </text>
    </g>
    <g transform="translate(231 169.074)">
      <use fill="#D0021B" xlink:href="#c"/>
      <text fill="#FFF" font-family="Helvetica-Bold, Helvetica" font-size="20" font-weight="bold">
        <tspan x="8.438" y="21">2</tspan>
      </text>
    </g>
    <g transform="translate(425 42.074)">
      <use fill="#D0021B" xlink:href="#d"/>
      <text fill="#FFF" font-family="Helvetica-Bold, Helvetica" font-size="20" font-weight="bold">
        <tspan x="8.438" y="21">3</tspan>
      </text>
    </g>
    <g transform="translate(676 42.074)">
      <use fill="#D0021B" xlink:href="#e"/>
      <text fill="#FFF" font-family="Helvetica-Bold, Helvetica" font-size="20" font-weight="bold">
        <tspan x="8.438" y="21">4</tspan>
      </text>
    </g>
    <g transform="translate(428 175.074)">
      <use fill="#D0021B" xlink:href="#f"/>
      <text fill="#FFF" font-family="Helvetica-Bold, Helvetica" font-size="20" font-weight="bold">
        <tspan x="8.438" y="21">5</tspan>
      </text>
    </g>
    <g transform="translate(428 374.074)">
      <use fill="#D0021B" xlink:href="#g"/>
      <text fill="#FFF" font-family="Helvetica-Bold, Helvetica" font-size="20" font-weight="bold">
        <tspan x="8.438" y="21">5</tspan>
      </text>
    </g>
    <g transform="translate(788 271.074)">
      <use fill="#D0021B" xlink:href="#h"/>
      <text fill="#FFF" font-family="Helvetica-Bold, Helvetica" font-size="20" font-weight="bold">
        <tspan x="8.438" y="21">6</tspan>
      </text>
    </g>
    <g>
      <path fill="#FFF" d="M63 155h67v118H63z"/>
      <text fill="#000" font-family="Helvetica-Bold, Helvetica" font-size="14" font-weight="bold" transform="translate(23 155)">
        <tspan x="18.5" y="88">page-builder.html</tspan>
      </text>
      <text fill="#06C" font-family="Helvetica" font-size="14" transform="translate(23 155)">
        <tspan x="0" y="108.526">viewportClasses </tspan> <tspan x="104.877" y="108" font-family="Helvetica-Bold, Helvetica" font-weight="bold">applied</tspan>
      </text>
      <path fill="#F5A623" fill-rule="nonzero" d="M102 167v17h17z"/>
      <path fill="#F5A623" fill-rule="nonzero" d="M101.583 185.75c-.42 0-.822-.164-1.12-.457a1.552 1.552 0 01-.463-1.105V167H82.583c-.874 0-1.583.698-1.583 1.56v46.878c0 .414.167.811.463 1.104.297.293.7.458 1.12.458h34.834c.42 0 .822-.164 1.12-.457.296-.293.463-.69.463-1.105V185.75h-17.417z"/>
      <text fill="#FFF" font-family="Helvetica-Bold, Helvetica" font-size="14" font-weight="bold" transform="translate(81 167)">
        <tspan x="4.224" y="40">html</tspan>
      </text>
    </g>
    <path stroke="#D0021B" stroke-linecap="square" stroke-width="2" d="M441 200v178"/>
    <g>
      <path fill="#FFF" d="M409 340h67v34h-67z"/>
      <text fill="#D0021B" font-family="Helvetica-Bold, Helvetica" font-size="14" font-weight="bold" transform="translate(361 340)">
        <tspan x="0" y="24">toggleViewport</tspan> <tspan x="102.047" y="24.526" font-family="Helvetica" font-weight="normal">(viewport)</tspan>
      </text>
    </g>
  </g>
</svg>
