<svg xmlns="http://www.w3.org/2000/svg" width="875" height="281" viewBox="0 0 875 281">
  <g fill="none" fill-rule="evenodd">
    <rect width="875" height="281" fill="#FFF"/>
    <text fill="#D0021B" font-family="Helvetica" font-size="26">
      <tspan x="15" y="189">#html-body</tspan>
    </text>
    <text fill="#06C" font-family="Helvetica" font-size="26">
      <tspan x="205.5" y="188">[ data-content-type =</tspan>
    </text>
    <text fill="#417505" font-family="Helvetica" font-size="26">
      <tspan x="453.5" y="189">&apos;heading&apos;</tspan>
    </text>
    <path stroke="#D0021B" stroke-dasharray="2 4" stroke-linecap="square" stroke-width="2" d="M15,153 L15,136 L145,136 L145,153"/>
    <path stroke="#06C" stroke-dasharray="2 4" stroke-linecap="square" stroke-width="2" d="M205.5,155 L205.5,136 L429.5,136 L429.5,155"/>
    <path stroke="#417505" stroke-dasharray="2 4" stroke-linecap="square" stroke-width="2" d="M452.5,153 L452.5,136 L558.5,136 L558.5,153"/>
    <text fill="#D0021B" font-family="Helvetica" font-size="14">
      <tspan x="39.417" y="91">Page Builder </tspan> <tspan x="46.045" y="110">ID selector </tspan>
    </text>
    <text fill="#9013FE" font-family="Helvetica" font-size="14">
      <tspan x="157.097" y="91">element</tspan> <tspan x="157.49" y="110">selector </tspan>
    </text>
    <text fill="#D0021B" font-family="Helvetica" font-size="14">
      <tspan x="42.652" y="233">Same for all</tspan> <tspan x="38.362" y="252">content types </tspan>
    </text>
    <text fill="#06C" font-family="Helvetica" font-size="14">
      <tspan x="277.152" y="233">Same for all </tspan> <tspan x="272.862" y="252">content types </tspan>
    </text>
    <text fill="#417505" font-family="Helvetica" font-size="14">
      <tspan x="461.483" y="233">Different for all </tspan> <tspan x="465.362" y="252">content types </tspan>
    </text>
    <text fill="#06C" font-family="Helvetica" font-size="14">
      <tspan x="279.917" y="91">Page Builder</tspan> <tspan x="228.169" y="110">content type attribute selector </tspan>
    </text>
    <text fill="#417505" font-family="Helvetica" font-size="14">
      <tspan x="467.417" y="91">Page Builder </tspan> <tspan x="449.907" y="110">content type name </tspan>
    </text>
    <text fill="#000" font-family="Helvetica-Bold, Helvetica" font-size="16" font-weight="bold">
      <tspan x="674.5" y="106">Specificity</tspan>
    </text>
    <g transform="translate(636 133)">
      <circle cx="24" cy="24" r="24" fill="#E86764"/>
      <path fill="#FFF" fill-rule="nonzero" d="M18.4615385,19.9308894 L18.4615385,17.3076923 C19.6784917,17.2536055 20.5303461,17.1724765 21.0171274,17.0643029 C21.7923717,16.893028 22.423375,16.5504833 22.9101562,16.0366587 C23.2436916,15.6850944 23.4960929,15.2163491 23.6673678,14.6304087 C23.7665269,14.2788444 23.8161058,14.0174287 23.8161058,13.8461538 L27.0207332,13.8461538 L27.0207332,33.452524 L23.0724159,33.452524 L23.0724159,19.9308894 L18.4615385,19.9308894 Z"/>
    </g>
    <circle cx="24" cy="24" r="24" fill="#60A1E3" transform="translate(692 133)"/>
    <circle cx="24" cy="24" r="24" fill="#BE74FF" transform="translate(747 133)"/>
    <text fill="#D0021B" font-family="Helvetica" font-size="14">
      <tspan x="620.707" y="218">1 ID selector </tspan>
    </text>
    <text fill="#06C" font-family="Helvetica" font-size="14">
      <tspan x="658.414" y="252">1 attribute selector</tspan>
    </text>
    <line x1="660.5" x2="660.5" y1="185.5" y2="204.5" stroke="#D0021B" stroke-linecap="square"/>
    <line x1="770.5" x2="770.5" y1="185.5" y2="204.5" stroke="#D0021B" stroke-linecap="square"/>
    <line x1="183" x2="183" y1="120" y2="160" stroke="#9013FE" stroke-linecap="square" stroke-width="2"/>
    <line x1="716.5" x2="716.5" y1="185.5" y2="232.5" stroke="#06C" stroke-linecap="square"/>
    <polygon fill="#06C" fill-rule="nonzero" points="569.472 193.116 569.472 169.224 564.597 169.224 564.597 171.09 567.301 171.09 567.301 191.25 564.597 191.25 564.597 193.116"/>
    <text fill="#9013FE" fill-rule="nonzero" font-family="Helvetica" font-size="26">
      <tspan x="168.5" y="190">h1</tspan>
    </text>
    <path fill="#FFF" fill-rule="nonzero" d="M718.095703 168.5L718.095703 148.675781 714.855469 148.675781C714.855469 148.848958 714.805339 149.113281 714.705078 149.46875 714.531901 150.061198 714.276693 150.535156 713.939453 150.890625 713.447266 151.410156 712.809245 151.75651 712.025391 151.929688 711.533203 152.039062 710.671875 152.121094 709.441406 152.175781L709.441406 152.175781 709.441406 154.828125 714.103516 154.828125 714.103516 168.5 718.095703 168.5zM773.595703 168.5L773.595703 148.675781 770.355469 148.675781C770.355469 148.848958 770.305339 149.113281 770.205078 149.46875 770.031901 150.061198 769.776693 150.535156 769.439453 150.890625 768.947266 151.410156 768.309245 151.75651 767.525391 151.929688 767.033203 152.039062 766.171875 152.121094 764.941406 152.175781L764.941406 152.175781 764.941406 154.828125 769.603516 154.828125 769.603516 168.5 773.595703 168.5z"/>
    <text fill="#9013FE" font-family="Helvetica" font-size="14">
      <tspan x="742.304" y="220">1 element selector</tspan>
    </text>
    <text fill="#000" font-family="Helvetica-Bold, Helvetica" font-size="16" font-weight="bold">
      <tspan x="240.944" y="41">any additional selector </tspan>
    </text>
    <path fill="#000" fill-rule="nonzero" d="M188.395375,51.1857496 L190.169797,52.1084777 L189.708433,52.9956887 L183.356294,65.2109592 L182.536091,66.7882231 L181.614084,65.2682244 L174.473509,53.4964491 L173.95488,52.6414498 L175.664878,51.6041915 L176.183508,52.4591907 L181.344,60.966 L181.281644,59.0634691 L181.248793,58.0640088 L183.247713,57.9983058 L183.280565,58.9977661 L183.343,60.901 L187.934011,52.0729606 L188.395375,51.1857496 Z M182.763,62.016 L181.996,62.041 L182.402,62.71 L182.763,62.016 Z M183.050604,52.0015443 L183.083456,53.0010046 L183.149159,54.9999251 L183.18201,55.9993853 L181.18309,56.0650883 L181.150238,55.0656281 L181.084535,53.0667076 L181.051684,52.0672474 L183.050604,52.0015443 Z M182.03944,45.9177835 L183.992641,46.3479046 L183.777581,47.3245054 C183.678105,47.7762277 183.588098,48.2453225 183.507605,48.7317675 L183.430284,49.2239952 L183.283021,50.2130927 L181.304826,49.9185679 L181.452089,48.9294704 C181.531215,48.3980145 181.620781,47.8835817 181.720832,47.3861499 L181.824379,46.8943843 L182.03944,45.9177835 Z M184.70699,40.1379512 L186.377435,41.2377753 L185.827523,42.0729978 C185.570844,42.4628495 185.331023,42.8858905 185.108291,43.3423249 L184.94445,43.6909151 L184.53207,44.6019273 L182.710046,43.7771684 L183.122425,42.8661562 C183.370409,42.3183218 183.640635,41.8048336 183.933335,41.3258958 L184.157078,40.9731738 L184.70699,40.1379512 Z M190.185836,36.4959364 L190.955943,38.3417247 L190.033049,38.7267784 C189.551149,38.9278389 189.104037,39.1454851 188.69076,39.3803273 L188.38713,39.5596928 L187.535019,40.0830535 L186.488298,38.3788309 L187.340409,37.8554703 C187.809795,37.5671765 188.313521,37.3021767 188.852287,37.0591555 L189.262942,36.8809901 L190.185836,36.4959364 Z M196.314381,35.1822108 L196.603766,37.161164 L195.61429,37.3058568 C195.109678,37.3796471 194.625141,37.4605543 194.159885,37.5488611 L193.701028,37.6396448 L192.721619,37.8415295 L192.317849,35.882711 L193.297259,35.6808262 C193.779067,35.5815115 194.279292,35.4904954 194.798858,35.4073885 L195.324904,35.3269035 L196.314381,35.1822108 Z M228.448267,34.9896709 L229.448254,34.9947919 L230.452494,34.9986903 L230.452494,34.9986903 L231.444444,35 L232.444444,35 L232.444444,37 L231.444444,37 L230.447332,36.9986836 L230.447332,36.9986836 L229.438012,36.9947657 L228.438025,36.9896447 L228.448267,34.9896709 Z M222.46008,34.9100477 L223.459943,34.9266351 C223.917951,34.9342333 224.365112,34.9412239 224.804413,34.9476287 L225.457842,34.9567993 L226.457751,34.9702748 L226.4308,36.9700932 L225.430891,36.9566177 C224.997272,36.9507739 224.557322,36.9443542 224.108048,36.9373369 L223.426768,36.9263599 L222.426905,36.9097725 L222.46008,34.9100477 Z M202.399884,34.7451073 L202.489278,36.7431084 L201.490278,36.7878058 C201.033679,36.8082349 200.589789,36.8315206 200.157801,36.8577753 L199.518645,36.8993983 L198.521058,36.9688301 L198.382194,34.9736567 L199.379781,34.9042249 C199.811369,34.8741865 200.254229,34.847285 200.709212,34.8233955 L201.400883,34.7898046 L202.399884,34.7451073 Z M216.467422,34.7902735 L217.46721,34.8108482 C218.077353,34.8234192 218.077353,34.8234192 218.693083,34.8360765 C219.023704,34.8428476 219.070936,34.8438148 219.321943,34.8489133 L219.466684,34.8518528 L220.466479,34.8720995 L220.425985,36.8716895 L219.42619,36.8514429 C219.038002,36.8435597 219.038002,36.8435597 218.652074,36.835656 C218.104568,36.8244012 218.043734,36.8231506 217.608504,36.8141837 L217.426061,36.8104248 L216.426273,36.7898502 L216.467422,34.7902735 Z M210.461676,34.6878931 L211.461584,34.7014827 C211.934653,34.707912 212.42495,34.7153723 212.940785,34.7239436 L213.46544,34.7328882 L214.465287,34.7503475 L214.430369,36.7500426 L213.430521,36.7325834 C212.898583,36.7232947 212.395002,36.7151422 211.911509,36.7080456 L211.434405,36.701298 L210.434497,36.6877085 L210.461676,34.6878931 Z M208.447472,34.6714305 L208.448097,36.6714304 L207.448097,36.6717429 C206.987417,36.6718868 206.539973,36.6735337 206.104227,36.6767384 L205.459189,36.6827206 L204.459252,36.6939732 L204.436747,34.6940998 L205.436684,34.6828473 C205.86614,34.6780145 206.306404,34.6747871 206.759041,34.6731079 L207.447472,34.671743 L208.447472,34.6714305 Z"/>
    <rect width="874" height="280" x=".5" y=".5" stroke="#999"/>
  </g>
</svg>
