<svg xmlns="http://www.w3.org/2000/svg" width="870" height="368" viewBox="0 0 870 368">
  <defs>
    <filter id="pagebuilder-viewport-files-a">
      <feColorMatrix in="SourceGraphic" values="0 0 0 0 1.000000 0 0 0 0 1.000000 0 0 0 0 1.000000 0 0 0 1.000000 0"/>
    </filter>
  </defs>
  <g fill="none" fill-rule="evenodd">
    <rect width="870" height="368" fill="#FFF"/>
    <g transform="translate(29.5 38)">
      <rect width="108" height="49" fill="#373331"/>
      <rect width="54" height="48" fill="#000"/>
      <path fill="#FFF" fill-rule="nonzero" d="M39.9620763 33.0598881L37.1104848 25.4283919 37.1104848 14.7138817C37.1155674 14.3249467 36.7924873 14.005516 36.3884472 14L17.6115528 14C17.2075127 14.005516 16.8844326 14.3249467 16.8895152 14.7138817L16.8895152 25.4283919 14.0379237 33.0598881C14.0131803 33.1329493 14.0004058 33.2092735 14 33.2861183 13.9949765 33.6750533 14.3180567 33.994484 14.7220967 34L39.2779033 34C39.6819433 33.994484 40.0050235 33.6750533 40 33.2861183 39.9995942 33.2092735 39.9868197 33.1329493 39.9620763 33.0598881zM23 32L23.8883532 29 30.1116468 29 31 31.9960457 23 32zM36 26L18 26 18 16 35.9986442 16 36 26zM85.9 14L77.1 14C76.4924868 14 76 14.4924868 76 15.1L76 32.7C76 33.3075132 76.4924868 33.8 77.1 33.8L85.9 33.8C86.5075132 33.8 87 33.3075132 87 32.7L87 15.1C87 14.4924868 86.5075132 14 85.9 14zM80.95 15.1L82.05 15.1C82.3489539 15.1112932 82.5887068 15.3510461 82.6 15.65 82.5887068 15.9489539 82.3489539 16.1887068 82.05 16.2L80.95 16.2C80.6489401 16.1935861 80.4064139 15.9510599 80.4 15.65 80.4069716 15.3491784 80.6491784 15.1069716 80.95 15.1zM81.5 33.305C80.8621111 33.305 80.345 32.7878889 80.345 32.15 80.345 31.5121111 80.8621111 30.995 81.5 30.995 82.1378889 30.995 82.655 31.5121111 82.655 32.15 82.655 32.456325 82.5333128 32.7501038 82.3167083 32.9667083 82.1001038 33.1833128 81.806325 33.305 81.5 33.305zM85.9 30.5L77.1 30.5 77.1 17.3 85.9 17.3 85.9 30.5z"/>
    </g>
    <text fill="#06C" font-family="Helvetica" font-size="14">
      <tspan x="31.5" y="138">default viewports</tspan>
    </text>
    <text fill="#000" font-family="Helvetica-Bold, Helvetica" font-size="14" font-weight="bold">
      <tspan x="15" y="119">Page Builder Header</tspan>
    </text>
    <g transform="translate(236 229)">
      <text fill="#000" font-family="Helvetica-Bold, Helvetica" font-size="14" font-weight="bold">
        <tspan x="0" y="76">page-builder.html</tspan>
      </text>
      <text fill="#06C" font-family="Helvetica" font-size="14">
        <tspan x="8.038" y="95">viewportClasses</tspan> <tspan x="5.714" y="114" font-family="Helvetica-Bold, Helvetica" font-weight="bold">applied to stage</tspan>
      </text>
      <g transform="translate(39.5)">
        <polygon fill="#F5A623" fill-rule="nonzero" points="21 0 21 17 38 17"/>
        <path fill="#F5A623" fill-rule="nonzero" d="M20.5833334,18.7500001 C20.1635164,18.7501079 19.7608507,18.5856339 19.4639181,18.2927607 C19.1669855,17.9998875 19.0001092,17.6026056 19,17.1883126 L19,0 L1.58333338,0 C0.709326948,0 0.00045465444,0.698431345 0,1.56093768 L0,48.4375 C0,48.851793 0.16655777,49.2491605 0.463335967,49.5421861 C0.760114164,49.8352117 1.16269312,50 1.58251005,50 L36.4166667,50 C36.8365172,50 37.2392018,49.8355557 37.5361344,49.5426356 C37.833067,49.2497155 38,48.8523887 38,48.4380625 L38,18.7500001 L20.5833334,18.7500001 Z"/>
        <text fill="#FFF" font-family="Helvetica-Bold, Helvetica" font-size="14" font-weight="bold">
          <tspan x="4.224" y="40">html</tspan>
        </text>
      </g>
    </g>
    <g transform="translate(239 35)">
      <g transform="translate(36)">
        <polygon fill="#F5A623" fill-rule="nonzero" points="21 0 21 17 38 17"/>
        <path fill="#F5A623" fill-rule="nonzero" d="M20.5833334,18.7500001 C20.1635164,18.7501079 19.7608507,18.5856339 19.4639181,18.2927607 C19.1669855,17.9998875 19.0001092,17.6026056 19,17.1883126 L19,0 L1.58333338,0 C0.709326948,0 0.00045465444,0.698431345 0,1.56093768 L0,48.4375 C0,48.851793 0.16655777,49.2491605 0.463335967,49.5421861 C0.760114164,49.8352117 1.16269312,50 1.58251005,50 L36.4166667,50 C36.8365172,50 37.2392018,49.8355557 37.5361344,49.5426356 C37.833067,49.2497155 38,48.8523887 38,48.4380625 L38,18.7500001 L20.5833334,18.7500001 Z"/>
        <text fill="#FFF" font-family="Helvetica-Bold, Helvetica" font-size="14" font-weight="bold">
          <tspan x="4.224" y="40">html</tspan>
        </text>
      </g>
      <text fill="#000" font-family="Helvetica-Bold, Helvetica" font-size="14" font-weight="bold">
        <tspan x="10" y="80">switcher.html</tspan>
      </text>
      <text fill="#06C" font-family="Helvetica" font-size="14">
        <tspan x="0" y="100">viewportTemplate</tspan>
      </text>
    </g>
    <g transform="translate(396 38)">
      <text fill="#000" font-family="Helvetica-Bold, Helvetica" font-size="14" font-weight="bold">
        <tspan x="0" y="78">page-builder.ts</tspan>
      </text>
      <text fill="#06C" font-family="Helvetica" font-size="14">
        <tspan x="19.373" y="96">properties</tspan> <tspan x="8.859" y="115">and functions</tspan>
      </text>
      <g transform="translate(32)">
        <polygon fill="#06C" fill-rule="nonzero" points="21 0 21 17 38 17"/>
        <path fill="#06C" fill-rule="nonzero" d="M20.5833334,18.7500001 C20.1635164,18.7501079 19.7608507,18.5856339 19.4639181,18.2927607 C19.1669855,17.9998875 19.0001092,17.6026056 19,17.1883126 L19,0 L1.58333338,0 C0.709326948,0 0.00045465444,0.698431345 0,1.56093768 L0,48.4375 C0,48.851793 0.16655777,49.2491605 0.463335967,49.5421861 C0.760114164,49.8352117 1.16269312,50 1.58251005,50 L36.4166667,50 C36.8365172,50 37.2392018,49.8355557 37.5361344,49.5426356 C37.833067,49.2497155 38,48.8523887 38,48.4380625 L38,18.7500001 L20.5833334,18.7500001 Z"/>
        <text fill="#FFF" font-family="Helvetica-Bold, Helvetica" font-size="14" font-weight="bold">
          <tspan x="4.993" y="40">ts/js</tspan>
        </text>
      </g>
    </g>
    <g transform="translate(574 38)">
      <g transform="translate(30)">
        <polygon fill="#417505" fill-rule="nonzero" points="21 0 21 17 38 17"/>
        <path fill="#417505" fill-rule="nonzero" d="M20.5833334,18.7500001 C20.1635164,18.7501079 19.7608507,18.5856339 19.4639181,18.2927607 C19.1669855,17.9998875 19.0001092,17.6026056 19,17.1883126 L19,0 L1.58333338,0 C0.709326948,0 0.00045465444,0.698431345 0,1.56093768 L0,48.4375 C0,48.851793 0.16655777,49.2491605 0.463335967,49.5421861 C0.760114164,49.8352117 1.16269312,50 1.58251005,50 L36.4166667,50 C36.8365172,50 37.2392018,49.8355557 37.5361344,49.5426356 C37.833067,49.2497155 38,48.8523887 38,48.4380625 L38,18.7500001 L20.5833334,18.7500001 Z"/>
        <text fill="#FFF" font-family="Helvetica-Bold, Helvetica" font-size="14" font-weight="bold">
          <tspan x="6.938" y="40">xml</tspan>
        </text>
      </g>
      <text fill="#000" font-family="Helvetica-Bold, Helvetica" font-size="14" font-weight="bold">
        <tspan x="19" y="78">view.xml</tspan>
      </text>
      <text fill="#06C" font-family="Helvetica" font-size="14">
        <tspan x="0" y="98">viewports config</tspan>
      </text>
    </g>
    <g transform="translate(722 38)">
      <g transform="translate(43)">
        <polygon fill="#DC332E" fill-rule="nonzero" points="21 0 21 17 38 17"/>
        <path fill="#DC332E" fill-rule="nonzero" d="M20.5833334,18.7500001 C20.1635164,18.7501079 19.7608507,18.5856339 19.4639181,18.2927607 C19.1669855,17.9998875 19.0001092,17.6026056 19,17.1883126 L19,0 L1.58333338,0 C0.709326948,0 0.00045465444,0.698431345 0,1.56093768 L0,48.4375 C0,48.851793 0.16655777,49.2491605 0.463335967,49.5421861 C0.760114164,49.8352117 1.16269312,50 1.58251005,50 L36.4166667,50 C36.8365172,50 37.2392018,49.8355557 37.5361344,49.5426356 C37.833067,49.2497155 38,48.8523887 38,48.4380625 L38,18.7500001 L20.5833334,18.7500001 Z"/>
        <text fill="#FFF" font-family="Helvetica-Bold, Helvetica" font-size="14" font-weight="bold">
          <tspan x="7.438" y="40">svg</tspan>
        </text>
      </g>
      <text fill="#000" font-family="Helvetica-Bold, Helvetica" font-size="14" font-weight="bold">
        <tspan x="20.5" y="80">button icons</tspan>
      </text>
      <text fill="#06C" font-family="Helvetica" font-size="14">
        <tspan x="0" y="100">switcher-desktop.svg</tspan>
      </text>
      <text fill="#06C" font-family="Helvetica" font-size="14">
        <tspan x="4" y="119">switcher-mobile.svg</tspan>
      </text>
    </g>
    <g transform="translate(602 229)">
      <polygon fill="#BD10E0" fill-rule="nonzero" points="21 0 21 17 38 17"/>
      <path fill="#BD10E0" fill-rule="nonzero" d="M20.5833334,18.7500001 C20.1635164,18.7501079 19.7608507,18.5856339 19.4639181,18.2927607 C19.1669855,17.9998875 19.0001092,17.6026056 19,17.1883126 L19,0 L1.58333338,0 C0.709326948,0 0.00045465444,0.698431345 0,1.56093768 L0,48.4375 C0,48.851793 0.16655777,49.2491605 0.463335967,49.5421861 C0.760114164,49.8352117 1.16269312,50 1.58251005,50 L36.4166667,50 C36.8365172,50 37.2392018,49.8355557 37.5361344,49.5426356 C37.833067,49.2497155 38,48.8523887 38,48.4380625 L38,18.7500001 L20.5833334,18.7500001 Z"/>
      <text fill="#FFF" font-family="Helvetica-Bold, Helvetica" font-size="14" font-weight="bold">
        <tspan x="5.376" y="40">less</tspan>
      </text>
    </g>
    <text fill="#06C" font-family="Helvetica" font-size="14">
      <tspan x="573.538" y="325">viewportClasses</tspan> <tspan x="568.104" y="344" font-family="Helvetica-Bold, Helvetica" font-weight="bold">defined for stage</tspan>
    </text>
    <text fill="#000" font-family="Helvetica-Bold, Helvetica" font-size="14" font-weight="bold">
      <tspan x="548" y="305">_mobile-viewport.less</tspan>
    </text>
    <text fill="#06C" font-family="Helvetica" font-size="14">
      <tspan x="757.759" y="325">triggered for</tspan> <tspan x="741.414" y="344">viewportChanges</tspan>
    </text>
    <g transform="translate(765 222)">
      <circle cx="30" cy="30" r="30" fill="#FFDADE"/>
      <circle cx="30" cy="30" r="25" fill="#FFA1AC"/>
      <g transform="translate(10 10)">
        <circle cx="20" cy="20" r="14.667" fill="#FFF"/>
        <circle cx="20" cy="20" r="20" fill="#D0021B"/>
        <g filter="url(#pagebuilder-viewport-files-a)">
          <path fill="#0050C9" fill-rule="nonzero" d="M2.49345156,24 C2.3932098,24 2.29296735,23.9857143 2.20063893,23.9535717 C1.89463672,23.8535717 1.74691152,23.6160713 1.85242952,23.3982144 L6.95950088,13.0285714 L1.81813634,13.0285714 C1.59127297,13.0285714 1.38287474,12.9517856 1.25625314,12.8250002 C1.12963154,12.6982144 1.10852794,12.5374999 1.19558012,12.3964288 L7.94873233,1.42500023 C8.05161255,1.25357166 8.29957952,1.14285714 8.57128855,1.14285714 L14.9867832,1.14285714 C15.216285,1.14285714 15.4299588,1.22142857 15.5539426,1.3517856 C15.6779264,1.48214309 15.6963916,1.64464274 15.6040638,1.78571429 L10.2885942,9.82857143 L15.3244408,9.82857143 C15.5724084,9.82857143 15.7992718,9.92142857 15.9179794,10.0678574 C16.0366876,10.2160713 16.0261358,10.3946427 15.8889624,10.5357143 L3.05797322,23.7928571 C2.92871316,23.9267858 2.71503937,24 2.49345156,24 Z" transform="translate(11.429 8)"/>
        </g>
      </g>
    </g>
    <text fill="#000" font-family="Helvetica-Bold, Helvetica" font-size="14" font-weight="bold">
      <tspan x="753" y="304">stage events</tspan>
    </text>
    <path fill="#D0021B" fill-rule="nonzero" d="M163.631314 52.3881632L164.611837 54.1313143 163.740261 54.6215755 155.067 59.5 156 59.5 156 61.5 155.067 61.5 163.740261 66.3784245 164.611837 66.8686857 163.631314 68.6118368 162.759739 68.1215755 150.759739 61.3715755 149.210271 60.5 150.759739 59.6284245 162.759739 52.8784245 163.631314 52.3881632zM162 59.5L162 61.5 158 61.5 158 59.5 162 59.5zM168 59.5L168 61.5 164 61.5 164 59.5 168 59.5zM174 59.5L174 61.5 170 61.5 170 59.5 174 59.5zM180 59.5L180 61.5 176 61.5 176 59.5 180 59.5zM186 59.5L186 61.5 182 61.5 182 59.5 186 59.5zM192 59.5L192 61.5 188 61.5 188 59.5 192 59.5zM198 59.5L198 61.5 194 61.5 194 59.5 198 59.5zM204 59.5L204 61.5 200 61.5 200 59.5 204 59.5zM210 59.5L210 61.5 206 61.5 206 59.5 210 59.5zM216 59.5L216 61.5 212 61.5 212 59.5 216 59.5zM222 59.5L222 61.5 218 61.5 218 59.5 222 59.5zM228 59.5L228 61.5 224 61.5 224 59.5 228 59.5zM234 59.5L234 61.5 230 61.5 230 59.5 234 59.5zM240 59.5L240 61.5 236 61.5 236 59.5 240 59.5zM246 59.5L246 61.5 242 61.5 242 59.5 246 59.5zM252 59.5L252 61.5 248 61.5 248 59.5 252 59.5zM258 59.5L258 61.5 254 61.5 254 59.5 258 59.5zM147.004254 260.998698L148.004254 260.99934 150.001837 260.99997 151.001837 261.000051 151.001676 263.000051 150.001676 262.99997 148.00297 262.999339 147.002971 262.998697 147.004254 260.998698zM259 261L259 263 255.004176 263 255.004176 261 259 261zM252.996145 261L252.996145 263 248.9964 263 248.9964 261 252.996145 261zM246.999342 261L246.999342 263 242.995855 263 242.995855 261 246.999342 261zM240.998553 261L240.998553 263 236.994915 263 236.994915 261 240.998553 261zM234.997854 261L234.997854 263 231.000646 263 231.000646 261 234.997854 261zM229.002614 261L229.002614 263 225.002259 263 225.002259 261 229.002614 261zM223.003857 261L223.003857 263 219.004665 263 219.004665 261 223.003857 261zM217.003695 261L217.003695 263 213.005454 263 213.005454 261 217.003695 261zM210.999579 261L210.999579 263 207.001811 263 207.001811 261 210.999579 261zM204.99996 261L204.99996 263 201.001249 263 201.001249 261 204.99996 261zM199.00286 261L199.00286 263 195.003329 263 195.003329 261 199.00286 261zM192.999104 261L192.999104 263 188.998928 263 188.998928 261 192.999104 261zM187.000508 261L187.000508 263 183.001323 263 183.001323 261 187.000508 261zM181.002593 261L181.002593 263 177.002557 263 177.002557 261 181.002593 261zM174.997713 261L174.997713 263 170.99809 263 170.99809 261 174.997713 261zM169.002499 261L169.002499 263 165.002383 263 165.002383 261 169.002499 261zM162.997823 261L162.997823 263 158.997601 263 158.997601 261 162.997823 261zM157.000209 261L157.000209 263 153.000246 263 153.000246 261 157.000209 261zM141.003423 260.976778L142.003406 260.982633C142.431955 260.985143 142.869477 260.987334 143.318397 260.989231L144.000629 260.991861 145.000623 260.995355 144.993634 262.995343 143.99364 262.991849C143.531699 262.990234 143.082349 262.988339 142.643161 262.986136L141.991695 262.982599 140.991712 262.976743 141.003423 260.976778zM135.015563 260.899632L136.015415 260.916883C136.448768 260.92436 136.888683 260.931246 137.33601 260.937568L138.012667 260.946634 139.012587 260.959309 138.987237 262.959148 137.987318 262.946473C137.530371 262.940681 137.081239 262.934337 136.639063 262.927412L135.980912 262.916585 134.981061 262.899334 135.015563 260.899632zM129.042213 260.724483L130.041549 260.760905C130.475179 260.776709 130.914452 260.791593 131.359811 260.80559L132.032468 260.825923 133.032047 260.854959 132.973975 262.854115 131.974396 262.825079C131.51961 262.811869 131.071099 262.797778 130.628415 262.782774L129.968705 262.759578 128.969369 262.723156 129.042213 260.724483zM123.076919 260.395521L124.07475 260.461347C124.507957 260.489925 124.946549 260.517165 125.390807 260.543105L126.061478 260.581045 127.059981 260.63574 126.95059 262.632747 125.952087 262.578051C125.497213 262.553134 125.048103 262.526916 124.604472 262.499358L123.943099 262.457009 122.945268 262.391184 123.076919 260.395521zM117.145915 259.839439L118.139949 259.948504C118.570005 259.99569 119.005552 260.041003 119.446791 260.084489L120.11294 260.148354 121.108623 260.241179 120.922973 262.232544 119.92729 262.139719C119.473181 262.097384 119.024806 262.0532 118.581962 262.00712L117.921819 261.936573 116.927784 261.827508 117.145915 259.839439zM111.267951 258.95337L112.253085 259.125159C112.677289 259.199132 113.107424 259.270521 113.543641 259.339379L114.202545 259.440776 115.191484 259.589099 114.894839 261.566977 113.9059 261.418654C113.453246 261.350764 113.006677 261.280279 112.566038 261.207138L111.909507 261.095427 110.924373 260.923638 111.267951 258.95337zM105.520556 257.598646L106.485652 257.860543C106.899148 257.972753 107.319363 258.081406 107.746416 258.186572L108.392137 258.341713 109.365756 258.569893 108.909395 260.517131 107.935776 260.288951C107.486993 260.183772 107.045028 260.074943 106.609758 259.962383L105.961859 259.790735 104.996763 259.528838 105.520556 257.598646zM100.007189 255.578241L100.928193 255.967795C101.319721 256.133398 101.719053 256.294163 102.126282 256.450174L102.743059 256.680636 103.682623 257.023011 102.997874 258.902138 102.05831 258.559764C101.622235 258.400859 101.194075 258.236838 100.773737 258.067595L100.149085 257.809802 99.2280809 257.420248 100.007189 255.578241zM94.9595603 252.659252L95.7888008 253.218144C96.139127 253.454257 96.4984086 253.683972 96.8667232 253.9074L97.4259797 254.237841 98.292704 254.736628 97.2951291 256.470077 96.4284048 255.971289C96.023998 255.738559 95.6288685 255.498875 95.2429632 255.252106L94.6710167 254.876625 93.8417763 254.317733 94.9595603 252.659252zM90.7870985 248.732534L91.4555989 249.476246C91.7390707 249.79161 92.0320678 250.099125 92.334645 250.398937L92.7957027 250.842894 93.5258419 251.526193 92.159245 252.986471 91.4291058 252.303173C91.0890251 251.984909 90.7592363 251.658155 90.4397282 251.322783L89.9681753 250.813246 89.2996749 250.069535 90.7870985 248.732534zM87.7511469 243.845617L88.2064702 244.735943C88.4024822 245.11922 88.6074701 245.494091 88.8214436 245.860703L89.1491445 246.404445 89.6773854 247.253539 87.9791963 248.310021 87.4509554 247.460926C87.2082602 247.070818 86.9754895 246.672043 86.7526434 246.264498L86.4258179 245.64659 85.9704946 244.756264 87.7511469 243.845617zM85.9207622 238.330212L86.1713719 239.2983C86.2810755 239.722077 86.3984374 240.138098 86.5234413 240.546464L86.7166769 241.153286 87.0309055 242.102633 85.1322108 242.731091 84.8179822 241.781743C84.6760064 241.352806 84.5423415 240.916206 84.4169893 240.47186L84.2351956 239.79952 83.9845858 238.831431 85.9207622 238.330212zM85.1025383 232.517679L85.1932934 233.513552C85.2334639 233.954351 85.2798756 234.388553 85.3325103 234.816224L85.4161275 235.452841 85.5545247 236.443218 83.5737711 236.720012 83.4353739 235.729635C83.3735444 235.28718 83.3182903 234.83831 83.2696181 234.382958L83.2015469 233.695062 83.1107919 232.699189 85.1025383 232.517679zM85 226.573017L85 227.573017 85 229.074182 85.0005505 229.320221 85.0005505 229.320221 85.0021926 229.565082 85.0111484 230.565042 83.0112286 230.582953 83.0022728 229.582994 83.0005706 229.329183 83.0005706 229.329183 83 229.0742 83 227.573017 83 226.573017 85 226.573017zM85 220.573017L85 224.573017 83 224.573017 83 220.573017 85 220.573017zM85 214.573017L85 218.573017 83 218.573017 83 214.573017 85 214.573017zM85 208.573017L85 212.573017 83 212.573017 83 208.573017 85 208.573017zM85 202.573017L85 206.573017 83 206.573017 83 202.573017 85 202.573017zM85 196.573017L85 200.573017 83 200.573017 83 196.573017 85 196.573017zM85 190.573017L85 194.573017 83 194.573017 83 190.573017 85 190.573017zM85 184.573017L85 188.573017 83 188.573017 83 184.573017 85 184.573017zM85 178.573017L85 182.573017 83 182.573017 83 178.573017 85 178.573017zM85 172.573017L85 176.573017 83 176.573017 83 172.573017 85 172.573017zM84 159.210271L84.8715755 160.759739 91.6215755 172.759739 92.1118368 173.631314 90.3686857 174.611837 89.8784245 173.740261 84.722 164.573 83.278 164.573 78.1215755 173.740261 77.6313143 174.611837 75.8881632 173.631314 76.3784245 172.759739 83.1284245 160.759739 84 159.210271zM85 166.573017L85 170.573017 83 170.573017 83 166.573017 85 166.573017zM334.631314 55.8881632L335.611837 57.6313143 334.740261 58.1215755 326.067 63 327 63 327 65 326.067 65 334.740261 69.8784245 335.611837 70.3686857 334.631314 72.1118368 333.759739 71.6215755 321.759739 64.8715755 320.210271 64 321.759739 63.1284245 333.759739 56.3784245 334.631314 55.8881632zM333 63L333 65 329 65 329 63 333 63zM339 63L339 65 335 65 335 63 339 63zM345 63L345 65 341 65 341 63 345 63zM351 63L351 65 347 65 347 63 351 63zM357 63L357 65 353 65 353 63 357 63zM363 63L363 65 359 65 359 63 363 63zM369 63L369 65 365 65 365 63 369 63zM375 63L375 65 371 65 371 63 375 63zM381 63L381 65 377 65 377 63 381 63zM387 63L387 65 383 65 383 63 387 63zM393 63L393 65 389 65 389 63 393 63zM399 63L399 65 395 65 395 63 399 63zM405 63L405 65 401 65 401 63 405 63zM411 63L411 65 407 65 407 63 411 63zM496.631314 55.8881632L497.611837 57.6313143 496.740261 58.1215755 488.067 63 489 63 489 65 488.067 65 496.740261 69.8784245 497.611837 70.3686857 496.631314 72.1118368 495.759739 71.6215755 483.759739 64.8715755 482.210271 64 483.759739 63.1284245 495.759739 56.3784245 496.631314 55.8881632zM495 63L495 65 491 65 491 63 495 63zM501 63L501 65 497 65 497 63 501 63zM507 63L507 65 503 65 503 63 507 63zM513 63L513 65 509 65 509 63 513 63zM519 63L519 65 515 65 515 63 519 63zM525 63L525 65 521 65 521 63 525 63zM531 63L531 65 527 65 527 63 531 63zM537 63L537 65 533 65 533 63 537 63zM543 63L543 65 539 65 539 63 543 63zM549 63L549 65 545 65 545 63 549 63zM555 63L555 65 551 65 551 63 555 63zM561 63L561 65 557 65 557 63 561 63zM567 63L567 65 563 65 563 63 567 63zM573 63L573 65 569 65 569 63 573 63zM579 63L579 65 575 65 575 63 579 63zM676.631314 55.8881632L677.611837 57.6313143 676.740261 58.1215755 668.065 63 669 63 669 65 668.068 65 676.740261 69.8784245 677.611837 70.3686857 676.631314 72.1118368 675.759739 71.6215755 663.759739 64.8715755 662.210271 64 663.759739 63.1284245 675.759739 56.3784245 676.631314 55.8881632zM675 63L675 65 671 65 671 63 675 63zM681 63L681 65 677 65 677 63 681 63zM687 63L687 65 683 65 683 63 687 63zM693 63L693 65 689 65 689 63 693 63zM699 63L699 65 695 65 695 63 699 63zM705 63L705 65 701 65 701 63 705 63zM711 63L711 65 707 65 707 63 711 63zM717 63L717 65 713 65 713 63 717 63zM723 63L723 65 719 65 719 63 723 63zM729 63L729 65 725 65 725 63 729 63zM735 63L735 65 731 65 731 63 735 63zM741 63L741 65 737 65 737 63 741 63zM747 63L747 65 743 65 743 63 747 63zM347.631314 253.888163L348.611837 255.631314 347.740261 256.121576 339.067 261 340 261 340 263 339.067 263 347.740261 267.878424 348.611837 268.368686 347.631314 270.111837 346.759739 269.621576 334.759739 262.871576 333.210271 262 334.759739 261.128424 346.759739 254.378424 347.631314 253.888163zM346 261L346 263 342 263 342 261 346 261zM352 261L352 263 348 263 348 261 352 261zM358 261L358 263 354 263 354 261 358 261zM364 261L364 263 360 263 360 261 364 261zM370 261L370 263 366 263 366 261 370 261zM376 261L376 263 372 263 372 261 376 261zM382 261L382 263 378 263 378 261 382 261zM388 261L388 263 384 263 384 261 388 261zM394 261L394 263 390 263 390 261 394 261zM400 261L400 263 396 263 396 261 400 261zM406 261L406 263 402 263 402 261 406 261zM412 261L412 263 408 263 408 261 412 261zM418 261L418 263 414 263 414 261 418 261zM424 261L424 263 420 263 420 261 424 261zM430 261L430 263 426 263 426 261 430 261zM436 261L436 263 432 263 432 261 436 261zM442 261L442 263 438 263 438 261 442 261zM448 261L448 263 444 263 444 261 448 261zM454 261L454 263 450 263 450 261 454 261zM460 261L460 263 456 263 456 261 460 261zM466 261L466 263 462 263 462 261 466 261zM472 261L472 263 468 263 468 261 472 261zM478 261L478 263 474 263 474 261 478 261zM484 261L484 263 480 263 480 261 484 261zM490 261L490 263 486 263 486 261 490 261zM496 261L496 263 492 263 492 261 496 261zM502 261L502 263 498 263 498 261 502 261zM508 261L508 263 504 263 504 261 508 261zM514 261L514 263 510 263 510 261 514 261zM520 261L520 263 516 263 516 261 520 261zM526 261L526 263 522 263 522 261 526 261zM532 261L532 263 528 263 528 261 532 261zM538 261L538 263 534 263 534 261 538 261zM544 261L544 263 540 263 540 261 544 261zM550 261L550 263 546 263 546 261 550 261zM556 261L556 263 552 263 552 261 556 261zM562 261L562 263 558 263 558 261 562 261zM568 261L568 263 564 263 564 261 568 261zM574 261L574 263 570 263 570 261 574 261zM580 261L580 263 576 263 576 261 580 261z"/>
    <path stroke="#D0021B" stroke-dasharray="2 4" stroke-linecap="square" stroke-width="2" d="M488,64.1111111 C516.666667,61.3703704 531.322097,80.3346561 531.966292,121.003968 C532.932584,182.007937 531.966292,159.344807 531.966292,201.396049 C531.966292,229.43021 547.644195,242.622757 579,240.973689"/>
    <path fill="#D0021B" fill-rule="nonzero" d="M740.866979,232.810217 L741.768521,233.242908 L754.181111,239.200266 L755.783853,239.969494 L754.294187,240.939745 L742.757326,248.453954 L741.919388,248.99972 L740.827855,247.323846 L741.665792,246.778079 L750.966,240.72 L750.909,239.849 L740.90314,235.045993 L740.001597,234.613302 L740.866979,232.810217 Z M733.134868,239.482507 L734.128686,239.593532 C734.262334,239.608463 734.388107,239.623764 734.506496,239.639459 C735.364353,239.753186 735.593427,239.819108 736.171367,240.050185 L736.204552,240.062845 L736.204552,240.062845 L736.228094,240.070339 L737.191664,240.337795 L736.656751,242.264935 L735.693181,241.997479 C735.600982,241.971887 735.519047,241.943307 735.428861,241.907249 C734.99353,241.733191 734.91836,241.711559 734.243653,241.622112 L734.081086,241.601486 L734.081086,241.601486 L733.906636,241.581168 L732.912818,241.470142 L733.134868,239.482507 Z M742.890268,239.805713 L743.019659,241.801523 L742.021754,241.866219 L741.901161,241.874031 C741.298725,241.910935 740.764964,241.942684 740.289482,241.969874 L740.011103,241.985645 L739.012673,242.041657 L738.900649,240.044797 L739.899079,239.988785 C740.348569,239.963569 740.85452,239.933905 741.42513,239.899333 L741.775322,239.877997 L741.892363,239.870409 L742.890268,239.805713 Z M748.877447,239.416339 L749.007184,241.412126 L748.00929,241.476995 L745.015609,241.671601 L744.885871,239.675814 L745.883765,239.610945 L747.879553,239.481207 L748.877447,239.416339 Z M727.054826,239.243096 L728.054479,239.26946 C728.636113,239.284799 729.180864,239.301539 729.690144,239.319642 L730.065475,239.333475 L731.064746,239.371653 L730.98839,241.370195 L729.989119,241.332017 C729.503998,241.313483 728.983571,241.296264 728.426473,241.280404 L728.001752,241.268765 L727.002099,241.242401 L727.054826,239.243096 Z M721.03696,239.164073 L722.036925,239.172533 C722.501449,239.176463 722.952879,239.180909 723.391412,239.185862 L724.039563,239.193672 L725.039481,239.206497 L725.013831,241.206332 L724.013914,241.193508 C723.590201,241.188073 723.153667,241.18314 722.704117,241.178716 L722.020005,241.172462 L721.02004,241.164002 L721.03696,239.164073 Z M715.02581,239.146768 L716.025805,239.149994 L716.072886,239.15012 L716.072886,239.15012 L716.894921,239.150655 L717.468184,239.151241 L717.468184,239.151241 L718.030961,239.152215 L719.030959,239.154311 L719.026767,241.154307 L718.026769,241.152211 C717.655739,241.151433 717.27856,241.150914 716.893515,241.150655 L716.105437,241.150211 L716.019354,241.149983 L715.019359,241.146758 L715.02581,239.146768 Z M709.077775,238.826392 L710.074393,238.908569 C710.502005,238.943829 710.935816,238.975256 711.375879,239.002837 L712.040666,239.041321 L713.039256,239.094413 L712.93307,241.091592 L711.93448,241.0385 C711.475326,241.014087 711.022384,240.985694 710.575601,240.953329 L709.910038,240.901805 L708.913421,240.819627 L709.077775,238.826392 Z M703.247434,237.922659 L704.228596,238.115844 C704.645682,238.197966 705.070422,238.27526 705.502896,238.347704 L706.157416,238.452732 L707.145834,238.604488 L706.84232,240.581324 L705.853903,240.429567 C705.39537,240.359166 704.944541,240.283635 704.501333,240.202984 L703.842226,240.078169 L702.861064,239.884984 L703.247434,237.922659 Z M697.654447,236.192061 L698.590179,236.544774 C698.983251,236.692938 699.385825,236.834899 699.798041,236.970634 L700.423612,237.169563 L701.37959,237.463004 L700.792707,239.374958 L699.83673,239.081517 C699.388468,238.943921 698.949929,238.799493 698.520986,238.648238 L697.884754,238.416237 L696.949022,238.063524 L697.654447,236.192061 Z M692.626254,233.334066 L693.449476,233.901787 C693.79264,234.138444 694.146975,234.367202 694.512725,234.588062 L695.069941,234.913429 L695.940752,235.405048 L694.957515,237.146669 L694.086704,236.65505 C693.623453,236.393521 693.175384,236.120611 692.742229,235.836317 L692.314035,235.54823 L691.490813,234.980509 L692.626254,233.334066 Z M688.680852,229.213749 L689.295523,230.002533 C689.586994,230.376567 689.89244,230.738745 690.212311,231.089228 L690.537007,231.435818 L691.230133,232.156635 L689.788499,233.542886 L689.095373,232.822069 C688.729708,232.441794 688.380203,232.048587 688.04646,231.642396 L687.717955,231.231875 L687.103284,230.443091 L688.680852,229.213749 Z M686.106826,224.105812 L686.479473,225.033785 C686.641018,225.436069 686.811291,225.828716 686.990573,226.211965 L687.26629,226.779821 L687.71619,227.6729 L685.930032,228.5727 L685.480132,227.679621 C685.248878,227.220569 685.030662,226.749587 684.825009,226.266376 L684.623526,225.779079 L684.250879,224.851106 L686.106826,224.105812 Z M684.70177,218.488973 L684.890897,219.470926 C684.9749,219.907067 685.064712,220.333911 685.160583,220.751931 L685.308963,221.3724 L685.550746,222.34273 L683.610086,222.826296 L683.368303,221.855966 C683.260398,221.422919 683.159195,220.98152 683.064405,220.531266 L682.926992,219.849181 L682.737865,218.867228 L684.70177,218.488973 Z M684.054811,212.620695 L684.133492,213.617595 C684.169063,214.068283 684.207919,214.508639 684.250286,214.939784 L684.316499,215.579736 L684.424657,216.57387 L682.436389,216.790185 L682.328231,215.796051 C682.280834,215.360394 682.237225,214.916337 682.197161,214.462713 L682.139692,213.774956 L682.061011,212.778057 L684.054811,212.620695 Z M683.823146,206.670887 L683.848347,207.670569 C683.861554,208.194477 683.876268,208.694856 683.892851,209.178489 L683.910071,209.656793 L683.947808,210.65608 L681.949232,210.731553 L681.911496,209.732266 C681.893377,209.252454 681.877291,208.75844 681.862867,208.243346 L681.848982,207.72097 L681.823782,206.721287 L683.823146,206.670887 Z M683.73432,200.707921 L683.748873,201.707815 C683.754332,202.082899 683.758227,202.363758 683.767796,203.064641 C683.771462,203.333157 683.772073,203.37791 683.774747,203.57155 L683.77664,203.708581 L683.790527,204.708485 L681.79072,204.736259 L681.776832,203.736356 C681.772383,203.414255 681.772383,203.414255 681.767982,203.091943 C681.761609,202.625099 681.757755,202.344824 681.754281,202.098951 L681.750853,201.85891 L681.749085,201.736922 L681.734532,200.737028 L683.73432,200.707921 Z M683.557599,194.662832 L683.598821,195.661982 C683.616563,196.092011 683.632611,196.53132 683.647192,196.98351 L683.667991,197.671907 L683.696244,198.671507 L681.697042,198.728013 L681.668789,197.728412 C681.655776,197.267995 681.641435,196.822376 681.625545,196.388 L681.600521,195.744427 L681.559299,194.745277 L683.557599,194.662832 Z M683.063751,188.604359 L683.170247,189.598672 C683.21714,190.036499 683.260582,190.48088 683.300771,190.932731 L683.35864,191.616227 L683.438864,192.613003 L681.44531,192.773451 L681.365087,191.776674 C681.329021,191.328566 681.289913,190.888528 681.247574,190.455672 L681.18162,189.811662 L681.075125,188.817349 L683.063751,188.604359 Z M681.988964,182.564757 L682.204741,183.5412 C682.301091,183.977207 682.392013,184.419244 682.477713,184.867697 L682.602373,185.545233 L682.776667,186.529927 L680.80728,186.878515 L680.632986,185.893821 C680.555682,185.457085 680.473543,185.027087 680.386383,184.603461 L680.251855,183.972753 L680.036079,182.99631 L681.988964,182.564757 Z M680.05861,176.741378 L680.428288,177.670538 C680.595699,178.091316 680.755574,178.518359 680.908126,178.951842 L681.131487,179.606919 L681.445044,180.556488 L679.545905,181.183602 L679.232348,180.234032 C679.095297,179.81899 678.951577,179.41049 678.801,179.008351 L678.569967,178.409892 L678.20029,177.480732 L680.05861,176.741378 Z M677.011871,171.33576 L677.565484,172.168534 C677.819658,172.550878 678.064617,172.939824 678.300553,173.335433 L678.647715,173.933852 L679.139088,174.804801 L677.397189,175.787547 L676.905816,174.916597 C676.69471,174.542415 676.475417,174.174645 676.247746,173.813198 L675.899935,173.275759 L675.346322,172.442985 L677.011871,171.33576 Z M672.826663,166.712343 L673.552233,167.400491 C673.8894,167.720269 674.21686,168.046528 674.534762,168.379277 L675.004466,168.883269 L675.677116,169.623231 L674.197194,170.96853 L673.524544,170.228569 C673.238312,169.913694 672.943193,169.60476 672.639016,169.301737 L672.175936,168.851631 L671.450366,168.163482 L672.826663,166.712343 Z M667.764753,163.082845 L668.613993,163.610853 C669.008227,163.855965 669.393585,164.106735 669.770173,164.363161 L670.328493,164.752041 L671.142924,165.332301 L669.982404,166.961163 L669.167973,166.380903 C668.82296,166.135091 668.469501,165.894401 668.107469,165.658836 L667.557977,165.309332 L666.708738,164.781324 L667.764753,163.082845 Z M662.191769,160.413818 L663.114418,160.79946 C663.541034,160.977774 663.960029,161.160755 664.371478,161.348397 L664.983,161.633354 L665.885897,162.06321 L665.026186,163.869005 L664.123288,163.439149 C663.738928,163.256161 663.347123,163.077471 662.94779,162.903092 L662.343134,162.644757 L661.420485,162.259115 L662.191769,160.413818 Z M656.382736,158.532332 L657.345003,158.804437 C657.788602,158.929875 658.225741,159.059138 658.656476,159.192217 L659.297781,159.394698 L660.249484,159.70172 L659.635439,161.605125 L658.683737,161.298103 C658.274932,161.166221 657.859736,161.037939 657.438095,160.913268 L656.800793,160.728972 L655.838525,160.456867 L656.382736,158.532332 Z M650.415249,157.241225 L651.398274,157.424697 C651.848388,157.508707 652.293057,157.595857 652.732321,157.68614 L653.387168,157.823914 L654.364765,158.034398 L653.943797,159.989593 L652.966199,159.779108 C652.544382,159.688288 652.117148,159.600475 651.684459,159.515678 L651.031329,159.390747 L650.048304,159.207275 L650.415249,157.241225 Z M644.406436,156.414052 L645.399839,156.528729 C645.8534,156.581087 646.302288,156.636089 646.746529,156.693729 L647.409411,156.782165 L648.400141,156.918007 L648.128457,158.899468 L647.137726,158.763626 C646.707575,158.704647 646.272761,158.648228 645.833259,158.59438 L645.170485,158.515534 L644.177082,158.400858 L644.406436,156.414052 Z M638.367989,155.944949 L639.366174,156.005172 L640.3776,156.070388 L640.3776,156.070388 L641.37549,156.143161 L642.372521,156.220165 L642.218513,158.214227 L641.221483,158.137223 L640.240414,158.065677 L640.240414,158.065677 L639.245727,158.001542 L638.247543,157.941319 L638.367989,155.944949 Z M632.313114,155.761697 L633.312981,155.777984 L634.323926,155.797834 L634.323926,155.797834 L635.322975,155.824247 L636.322528,155.854131 L636.26276,157.853238 L635.263206,157.823354 L634.277788,157.797301 L634.277788,157.797301 L633.280408,157.777719 L632.28054,157.761432 L632.313114,155.761697 Z M628.326942,155.756926 L628.832719,155.757016 L628.832719,155.757016 L630.353515,155.757185 L630.35331,157.757185 L628.832406,157.757016 L628.577689,157.756974 L628.577689,157.756974 L626.353124,157.756342 L626.353777,155.756342 L628.326942,155.756926 Z M620.404551,155.749826 L621.404549,155.751425 C621.835797,155.752115 622.275055,155.752734 622.723676,155.753286 L623.403801,155.754064 L624.4038,155.755124 L624.401679,157.755123 L623.40168,157.754063 C622.943122,157.753577 622.494602,157.753025 622.054765,157.752405 L621.401351,157.751423 L620.401352,157.749824 L620.404551,155.749826 Z M614.387913,155.731067 L615.387904,155.735115 C615.821781,155.736871 616.262189,155.738505 616.709783,155.740023 L617.386646,155.742212 L618.386642,155.745294 L618.380477,157.745285 L617.380482,157.742203 C616.925117,157.740799 616.47726,157.739282 616.036257,157.737644 L615.379809,157.735098 L614.379818,157.731051 L614.387913,155.731067 Z M608.406781,155.691785 L609.406748,155.699838 C609.84162,155.70334 610.28238,155.706653 610.729441,155.709785 L611.40481,155.714347 L612.404789,155.720855 L612.391773,157.720812 L611.391794,157.714304 C610.937652,157.711349 610.490012,157.708214 610.048459,157.704893 L609.390643,157.699773 L608.390676,157.69172 L608.406781,155.691785 Z M602.41376,155.620075 L603.413659,155.634314 C603.848761,155.64051 604.289499,155.646429 604.736173,155.652078 L605.410675,155.660351 L606.410604,155.672239 L606.386829,157.672098 L605.386899,157.66021 C604.933181,157.654816 604.485543,157.649155 604.043681,157.64322 L603.385181,157.634111 L602.385282,157.619872 L602.41376,155.620075 Z M596.418886,155.499467 L597.41861,155.522976 C597.853543,155.533203 598.294106,155.543032 598.740543,155.552471 L599.414636,155.566339 L600.414436,155.586346 L600.374423,157.585945 L599.374623,157.565939 C598.920712,157.556855 598.472787,157.547386 598.0306,157.53752 L597.371592,157.522423 L596.371868,157.498914 L596.418886,155.499467 Z M590.429208,155.306343 L591.428514,155.3436 C591.862629,155.359785 592.302561,155.375399 592.748525,155.390456 L593.422023,155.412626 L594.421508,155.444692 L594.357376,157.443664 L593.35789,157.411597 C592.903561,157.397021 592.455355,157.38189 592.013052,157.36619 L591.354,157.342211 L590.354694,157.304954 L590.429208,155.306343 Z M584.440371,155.005027 L585.4387,155.062809 C585.871171,155.08784 586.309839,155.112052 586.754908,155.135461 L587.427337,155.169978 L588.426086,155.219997 L588.326047,157.217493 L587.327299,157.167474 C586.87237,157.14469 586.423918,157.121104 585.981735,157.096697 L585.323135,157.059467 L584.324806,157.001685 L584.440371,155.005027 Z M578.480311,154.542233 L579.476355,154.6311 C579.906435,154.669471 580.34334,154.706644 580.787276,154.742644 L581.458479,154.795768 L582.45551,154.872774 L582.3015,156.866835 L581.304469,156.78983 C580.848245,156.754594 580.399114,156.718174 579.956863,156.680544 L579.298621,156.623187 L578.302577,156.53432 L578.480311,154.542233 Z M572.554141,153.829328 L573.544647,153.966798 C573.96965,154.025784 574.402408,154.082967 574.843146,154.13839 L575.510268,154.220209 L576.503192,154.338959 L576.265692,156.324807 L575.272768,156.206057 C574.815779,156.151403 574.366817,156.094948 573.925647,156.036649 L573.269706,155.94781 L572.2792,155.810339 L572.554141,153.829328 Z M566.72407,152.720305 L567.700396,152.936609 C568.115245,153.028519 568.539214,153.117616 568.972568,153.203968 L569.629671,153.331444 L570.612302,153.517011 L570.241169,155.482274 L569.258537,155.296707 C568.802235,155.210536 568.355348,155.121489 567.917597,155.029488 L567.267787,154.889261 L566.291462,154.672957 L566.72407,152.720305 Z M561.115416,150.962129 L562.052805,151.310415 C562.445475,151.456311 562.849109,151.597635 563.26405,151.734505 L563.894983,151.936486 L564.84996,152.233166 L564.2566,154.14312 L563.301623,153.84644 C562.852506,153.706914 562.414771,153.562519 561.988065,153.413103 L561.356233,153.185192 L560.418845,152.836906 L561.115416,150.962129 Z M556.131815,148.22445 L556.964265,148.778551 C557.351912,149.03658 557.755384,149.285155 558.175354,149.524635 L558.600849,149.761096 L559.480163,150.237337 L558.52768,151.995966 L557.648366,151.519725 C557.177816,151.264872 556.724389,150.999541 556.287483,150.723318 L555.856063,150.44345 L555.023613,149.889349 L556.131815,148.22445 Z M552.169494,144.088522 L552.776014,144.88359 C553.063199,145.260052 553.364638,145.622407 553.681026,145.971373 L554.002422,146.315901 L554.694862,147.037377 L553.251911,148.422257 L552.559471,147.700781 C552.193758,147.319733 551.845054,146.923953 551.512745,146.512855 L551.185878,146.09663 L550.579358,145.301561 L552.169494,144.088522 Z M549.69401,138.91644 L550.047483,139.851884 C550.221744,140.313055 550.405628,140.758578 550.599534,141.189224 L550.796795,141.61494 L551.227155,142.517598 L549.42184,143.378317 L548.99148,142.475659 C548.772569,142.016504 548.565265,141.542639 548.369085,141.053324 L548.176594,140.558831 L547.82312,139.623387 L549.69401,138.91644 Z M548.336235,133.251473 L548.522016,134.234065 C548.605489,134.675553 548.693458,135.105729 548.786085,135.525105 L548.928536,136.146134 L549.160185,137.118933 L547.214585,137.582229 L546.982937,136.60943 C546.880687,136.180033 546.783573,135.740312 546.691403,135.289724 L546.556833,134.605625 L546.371053,133.623034 L548.336235,133.251473 Z M547.634144,127.379375 L547.726874,128.375066 C547.76894,128.826744 547.813571,129.268144 547.860865,129.699814 L547.933817,130.340089 L548.051417,131.33315 L546.065295,131.56835 L545.947695,130.575289 C545.896377,130.14194 545.847888,129.699292 545.802119,129.246775 L545.735492,128.560526 L545.642762,127.564835 L547.634144,127.379375 Z M547.296342,121.439568 L547.339176,122.43865 C547.358714,122.894367 547.379697,123.340071 547.40219,123.776451 L547.437068,124.424113 L547.493198,125.422537 L545.496351,125.534795 L545.440221,124.536371 C545.415864,124.103103 545.393081,123.66095 545.371804,123.209209 L545.341012,122.524317 L545.298178,121.525235 L547.296342,121.439568 Z M547.153367,115.466742 L547.17008,116.466602 C547.177742,116.925017 547.186176,117.372511 547.195424,117.810167 L547.209913,118.459409 L547.23344,119.459133 L545.233994,119.506187 L545.210467,118.506463 C545.200319,118.075264 545.191017,117.634828 545.182516,117.184062 L545.170359,116.500028 L545.153646,115.500168 L547.153367,115.466742 Z M547.10813,109.475199 L547.112405,110.47519 C547.114389,110.939332 547.116721,111.388488 547.119434,111.825232 L547.123791,112.471359 L547.131086,113.471332 L545.131139,113.485922 L545.123844,112.485948 C545.120734,112.05958 545.118021,111.622125 545.115674,111.171001 L545.112423,110.48374 L545.108148,109.483749 L547.10813,109.475199 Z M546.932237,103.412621 L546.988034,104.411063 C547.012888,104.855797 547.033831,105.304061 547.050864,105.755856 L547.073483,106.436198 L547.102296,107.435783 L545.103126,107.493408 L545.074313,106.493824 C545.061533,106.050429 545.044951,105.610605 545.02457,105.174354 L544.99115,104.522657 L544.935353,103.524215 L546.932237,103.412621 Z M546.222807,97.3412086 L546.37168,98.330065 C546.438189,98.7718414 546.500179,99.2176843 546.557652,99.6675934 L546.640473,100.345507 L546.756337,101.338772 L544.769806,101.570499 L544.653943,100.577234 C544.602692,100.137876 544.547093,99.7026197 544.487146,99.2714653 L544.393967,98.6278098 L544.245094,97.6389534 L546.222807,97.3412086 Z M544.859525,91.3579419 L545.121347,92.323058 C545.238812,92.7560511 545.351054,93.1937336 545.458077,93.6361037 L545.614696,94.3031745 L545.83673,95.2782134 L543.886652,95.7222812 L543.664618,94.7472423 C543.566839,94.3178587 543.464097,93.8931702 543.356392,93.4731751 L543.191115,92.8467024 L542.929293,91.8815863 L544.859525,91.3579419 Z M542.714732,85.587415 L543.109114,86.5063614 C543.287129,86.9211519 543.459186,87.3413016 543.625287,87.7668062 L543.869971,88.4090787 L544.218373,89.3464242 L542.343682,90.0432268 L541.99528,89.1058813 C541.842769,88.6955619 541.684663,88.2905308 541.520964,87.8907839 L541.271221,87.2951261 L540.876839,86.3761797 L542.714732,85.587415 Z M539.752561,80.3031106 L540.289342,81.146832 C540.533426,81.5304873 540.770953,81.9200896 541.001921,82.315632 L541.343455,82.9133999 L541.831364,83.7862942 L540.085576,84.7621128 L539.597667,83.8892185 C539.385565,83.5097577 539.167343,83.136041 538.943002,82.7680616 L538.601899,82.2203945 L538.065118,81.376673 L539.752561,80.3031106 Z M535.803914,75.4749131 L536.48394,76.2081013 C536.795288,76.5437896 537.099819,76.885752 537.397527,77.233982 L537.838974,77.7610269 L538.473312,78.534082 L536.927202,79.8027597 L536.292863,79.0297045 C536.019069,78.6960379 535.738874,78.3682928 535.452272,78.0464626 L535.017563,77.5681527 L534.337537,76.8349645 L535.803914,75.4749131 Z M531.060176,71.4539372 L531.860679,72.0532654 C532.228748,72.3288344 532.590216,72.6105714 532.945077,72.8984736 L533.472411,73.3349507 L534.236454,73.9801164 L532.946122,75.5082018 L532.182079,74.8630361 C531.853767,74.5858057 531.51914,74.3143207 531.17819,74.0485786 L530.662023,73.6542722 L529.86152,73.054944 L531.060176,71.4539372 Z M525.733595,68.3141009 L526.621031,68.7750315 C527.028973,68.9869147 527.430902,69.2044682 527.826813,69.4276932 L528.416166,69.7667844 L529.278537,70.2730619 L528.265982,71.9978032 L527.403611,71.4915257 C527.033667,71.2743403 526.657846,71.0624451 526.27614,70.8558412 L525.69917,70.5499039 L524.811734,70.0889732 L525.733595,68.3141009 Z M520.069375,66.0170741 L521.011853,66.3513399 C521.444262,66.5047008 521.871369,66.6630734 522.293172,66.82646 L522.921898,67.0753008 L523.848985,67.4501466 L523.099294,69.304321 L522.172207,68.9294752 C521.773691,68.768345 521.369908,68.6119408 520.960855,68.4602649 L520.343322,68.2362976 L519.400843,67.9020317 L520.069375,66.0170741 Z M514.134816,64.4193875 L515.109322,64.643747 C515.554942,64.7463414 515.995961,64.8532776 516.432378,64.9645576 L517.083552,65.1347356 L518.049523,65.3933871 L517.53222,67.3253286 L516.566249,67.0666771 C516.149696,66.9551394 515.728527,66.8477492 515.302743,66.7445085 L514.660604,66.5927599 L513.686097,66.3684004 L514.134816,64.4193875 Z M508.11629,63.4277782 L509.107352,63.5611766 C509.559309,63.6220106 510.007269,63.6866037 510.451232,63.7549573 L511.11418,63.8603083 L512.101012,64.0220587 L511.777511,65.9957221 L510.790679,65.8339716 C510.363359,65.7639301 509.932012,65.69752 509.496637,65.6347427 L508.840555,65.5433016 L507.849493,65.4099031 L508.11629,63.4277782 Z M502.057631,62.9262754 L503.055914,62.9848493 L504.071115,63.0502755 L504.071115,63.0502755 L505.074551,63.126732 L506.071192,63.2086295 L505.907397,65.2019111 L504.910756,65.1200135 L503.930698,65.0453402 L503.930698,65.0453402 L502.938766,64.9814155 L501.940483,64.9228416 L502.057631,62.9262754 Z M493.959961,62.8693485 L494.03667,64.867877 L493.037405,64.9062312 L492.050572,64.9481517 L492.050572,64.9481517 L491.054464,64.9985157 L490.055949,65.0529802 L489.94702,63.0559488 L490.945536,63.0014843 L491.957712,62.9503086 L491.957712,62.9503086 L492.960697,62.9077027 L493.959961,62.8693485 Z M496.997392,62.8225696 L498.011296,62.8242236 L498.011296,62.8242236 L499.014873,62.8355306 L500.014742,62.8516881 L499.982427,64.851427 L498.982558,64.8352695 L497.9983,64.8241814 L497.9983,64.8241814 L497.003617,64.8225599 L496.003622,64.8256726 L495.997397,62.8256823 L496.997392,62.8225696 Z"/>
    <g transform="translate(421 231)">
      <rect width="67" height="42" fill="#FFF"/>
      <text fill="#D0021B" font-family="Helvetica-Bold, Helvetica" font-size="14" font-weight="bold">
        <tspan x="11.717" y="20">switch</tspan> <tspan x="15.214" y="37">stage</tspan> <tspan x="11.334" y="54">widths</tspan>
      </text>
    </g>
    <g transform="translate(128 248)">
      <rect width="78" height="42" fill="#FFF"/>
      <text fill="#D0021B" font-family="Helvetica-Bold, Helvetica" font-size="14" font-weight="bold">
        <tspan x="12" y="20">stage UI</tspan>
      </text>
    </g>
    <text fill="#D0021B" font-family="Helvetica-Bold, Helvetica" font-size="14" font-weight="bold">
      <tspan x="517" y="49">data</tspan>
    </text>
    <text fill="#D0021B" font-family="Helvetica-Bold, Helvetica" font-size="14" font-weight="bold">
      <tspan x="548" y="197">toggleViewport()</tspan>
    </text>
    <text fill="#D0021B" font-family="Helvetica-Bold, Helvetica" font-size="14" font-weight="bold">
      <tspan x="692" y="49">images</tspan>
    </text>
    <text fill="#D0021B" font-family="Helvetica-Bold, Helvetica" font-size="14" font-weight="bold">
      <tspan x="350" y="49">bindings</tspan>
    </text>
    <text fill="#D0021B" font-family="Helvetica-Bold, Helvetica" font-size="14" font-weight="bold">
      <tspan x="176.5" y="49">viewport UI</tspan>
    </text>
    <rect width="869" height="367" x=".5" y=".5" stroke="#999"/>
  </g>
</svg>
