<svg height="441" viewBox="0 0 735 441" width="735" xmlns="http://www.w3.org/2000/svg"><g fill="none" fill-rule="evenodd"><path d="m0 0h735v441h-735z" fill="#fff"/><g transform="translate(90 94)"><text fill="#222" font-family="Helvetica" font-size="14"><tspan x="25" y="16">ThemeName</tspan></text><g transform="translate(0 2)"><path d="m0 0h6l2 3h8v13h-16z" fill="#7c7c7c"/><path d="m3 7h17l-3 9h-17z" fill="#bbb"/></g></g><g transform="translate(115 119)"><text fill="#222" font-family="Helvetica" font-size="14"><tspan x="25" y="16">web</tspan></text><g transform="translate(0 2)"><path d="m0 0h6l2 3h8v13h-16z" fill="#7c7c7c"/><path d="m3 7h17l-3 9h-17z" fill="#bbb"/></g></g><g transform="translate(140 144)"><text fill="#222" font-family="Helvetica" font-size="14"><tspan x="25" y="16">css</tspan></text><g transform="translate(0 2)"><path d="m0 0h6l2 3h8v13h-16z" fill="#7c7c7c"/><path d="m3 7h17l-3 9h-17z" fill="#bbb"/></g></g><g transform="translate(165 169)"><text fill="#222" font-family="Helvetica" font-size="14"><tspan x="25" y="16">source</tspan></text><g transform="translate(0 2)"><path d="m0 0h6l2 3h8v13h-16z" fill="#7c7c7c"/><path d="m3 7h17l-3 9h-17z" fill="#bbb"/></g></g><g transform="translate(190 194)"><text fill="#222" font-family="Helvetica" font-size="14"><tspan x="25" y="16">content-type</tspan></text><g transform="translate(0 2)"><path d="m0 0h6l2 3h8v13h-16z" fill="#7c7c7c"/><path d="m3 7h17l-3 9h-17z" fill="#bbb"/></g></g><g transform="translate(65 69)"><text fill="#222" font-family="Helvetica" font-size="14"><tspan x="25" y="16">VendorName</tspan></text><g transform="translate(0 2)"><path d="m0 0h6l2 3h8v13h-16z" fill="#7c7c7c"/><path d="m3 7h17l-3 9h-17z" fill="#bbb"/></g></g><g transform="translate(40 44)"><text fill="#06c" font-family="Helvetica" font-size="14"><tspan x="25" y="16">frontend</tspan></text><g transform="translate(0 2)"><path d="m0 0h6l2 3h8v13h-16z" fill="#06c"/><path d="m3 7h17l-3 9h-17z" fill="#b3d6ff"/></g></g><g transform="translate(15 19)"><text fill="#222" font-family="Helvetica" font-size="14"><tspan x="25" y="16">design</tspan></text><g transform="translate(0 2)"><path d="m0 0h6l2 3h8v13h-16z" fill="#7c7c7c"/><path d="m3 7h17l-3 9h-17z" fill="#bbb"/></g></g><g transform="translate(215 219)"><text fill="#222" font-family="Helvetica" font-size="14"><tspan x="25" y="16">heading</tspan></text><g transform="translate(0 2)"><path d="m0 0h6l2 3h8v13h-16z" fill="#7c7c7c"/><path d="m3 7h17l-3 9h-17z" fill="#bbb"/></g></g><g transform="translate(215 294)"><text fill="#222" font-family="Helvetica" font-size="14"><tspan x="25" y="16">products</tspan></text><g transform="translate(0 2)"><path d="m0 0h6l2 3h8v13h-16z" fill="#7c7c7c"/><path d="m3 7h17l-3 9h-17z" fill="#bbb"/></g></g><path d="m50.8310547 8.10811942c1.2441406 0 1.2441406 0 2.1123047.95361328.868164.9536133.868164.9536133.868164 2.7241211 0 2.3925781 0 2.3925781-1.2509765 3.4179687-.7929688.6494141-.7929688.6494141-1.8457031.6494141-.8271485 0-.8271485 0-1.3876954-.3623047-.328125-.2050781-.328125-.2050781-.7314453-.7041015v3.7392578h-1.2304687v-10.20605472h1.196289v.97070313l.1503907-.19058594c.30625-.363125.30625-.363125.65625-.581875.6220703-.41015625.6220703-.41015625 1.4628906-.41015625zm-36.8310547-5.10811942v15h-14v-8h6v-7zm17.7861328 13.6667132v.6904297h-7.7861328v-.6904297zm64.100586-8.57226566c1.6542968 0 1.6542968 0 2.3857421.97070313.4580079.61523437.4580079.61523437.444336 1.32617183h-1.1621094l-.0226953-.163789c-.0634375-.32156252-.0634375-.32156252-.27125-.59500002-.4238281-.48535156-.4238281-.48535156-1.4697266-.48535156-.6972656 0-.6972656 0-1.0561523.26660156s-.3588867.26660156-.3588867.70410152c0 .4785157 0 .4785157.4716796.765625.2734376.1708985.2734376.1708985.8066407.3007813l.8134765.1982422.2338908.0582467c1.1332967.2903861 1.1332967.2903861 1.543453.5638236.7177734.4716797.7177734.4716797.7177734 1.4833984 0 .9775391 0 .9775391-.7416992 1.6884766s-.7416992.7109375-2.2592773.7109375c-1.6337891 0-1.6337891 0-2.3139649-.7416992s-.6801758-.7416992-.7280273-1.8354492h1.1826172l.0196707.1699218c.0711496.4921875.0711496.4921875.2879464.7734375.4648438.5947266.4648438.5947266 1.6132813.5947266.6835937 0 .6835937 0 1.203125-.2973633s.5195313-.2973633.5195313-.9194336c0-.4716797 0-.4716797-.4169922-.7177734-.2666016-.1503906-.2666016-.1503906-1.0527344-.3486328l-.9775391-.2460938-.2264404-.0589599c-.765625-.2093506-.765625-.2093506-1.1544189-.4605713-.7929688-.4990235-.7929688-.4990235-.7929688-1.3808594 0-1.03906251 0-1.03906251.7485352-1.68164063.7485351-.64257813.7485351-.64257813 2.0131836-.64257813zm-7 0c1.6542968 0 1.6542968 0 2.3857421.97070313.4580079.61523437.4580079.61523437.444336 1.32617183h-1.1621094l-.0226953-.163789c-.0634375-.32156252-.0634375-.32156252-.27125-.59500002-.4238281-.48535156-.4238281-.48535156-1.4697266-.48535156-.6972656 0-.6972656 0-1.0561523.26660156s-.3588867.26660156-.3588867.70410152c0 .4785157 0 .4785157.4716796.765625.2734376.1708985.2734376.1708985.8066407.3007813l.8134765.1982422.2338908.0582467c1.1332967.2903861 1.1332967.2903861 1.543453.5638236.7177734.4716797.7177734.4716797.7177734 1.4833984 0 .9775391 0 .9775391-.7416992 1.6884766s-.7416992.7109375-2.2592773.7109375c-1.6337891 0-1.6337891 0-2.3139649-.7416992s-.6801758-.7416992-.7280273-1.8354492h1.1826172l.0196707.1699218c.0711496.4921875.0711496.4921875.2879464.7734375.4648438.5947266.4648438.5947266 1.6132813.5947266.6835937 0 .6835937 0 1.203125-.2973633s.5195313-.2973633.5195313-.9194336c0-.4716797 0-.4716797-.4169922-.7177734-.2666016-.1503906-.2666016-.1503906-1.0527344-.3486328l-.9775391-.2460938-.2264404-.0589599c-.765625-.2093506-.765625-.2093506-1.1544189-.4605713-.7929688-.4990235-.7929688-.4990235-.7929688-1.3808594 0-1.03906251 0-1.03906251.7485352-1.68164063.7485351-.64257813.7485351-.64257813 2.0131836-.64257813zm-30.6865235-.02050781c1.4150391 0 1.4150391 0 2.3925781.94335938.9775391.94335937.9775391.94335937.9775391 2.77539059 0 1.7705078 0 1.7705078-.8613281 2.9257813-.8613282 1.1552734-.8613282 1.1552734-2.6728516 1.1552734-1.5107422 0-1.5107422 0-2.399414-1.0219726-.8886719-1.0219727-.8886719-1.0219727-.8886719-2.7446289 0-1.8457032 0-1.8457032.9365234-2.93945317.9365235-1.09375.9365235-1.09375 2.515625-1.09375zm23.4335938.04785156c.7792968 0 .7792968 0 1.5107421.36572266.7314454.36572266.7314454.36572266 1.1142579.94677734.3691406.55371094.3691406.55371094.4921875 1.29199221.109375.5058594.109375.5058594.109375 1.6132812h-5.366211l.0132499.2421694c.0756173.946904.0756173.946904.5131173 1.5454283.4921875.6733398.4921875.6733398 1.5244141.6733398.9638672 0 .9638672 0 1.5380859-.6357422.328125-.3691406.328125-.3691406.4648438-.8544921h1.2099609l-.0280273.1650195c-.0738282.3374219-.0738282.3374219-.2898438.7339062-.2700195.4956055-.2700195.4956055-.6049805.8100586-.5605468.546875-.5605468.546875-1.3876953.7382813-.4443359.109375-.4443359.109375-1.0048828.109375-1.3671875 0-1.3671875 0-2.3173828-.9946289s-.9501953-.9946289-.9501953-2.7856446c0-1.7636718 0-1.7636718.9570312-2.86425777.9570313-1.10058594.9570313-1.10058594 2.5019532-1.10058594zm-12.4482422-1.87988281v2.04394531h1.1689453v1.00488282h-1.1689453v4.77832029l.0053013.1042132c.031808.297154.031808.297154.2544643.4084821.1435547.0751953.1435547.0751953.4785156.0751953.0888672 0 .0888672 0 .1914063-.0034179.102539-.003418.102539-.003418.2392578-.0170899v.9707032l-.1431749.0372178c-.1450738.0334202-.1450738.0334202-.2977431.0516493-.2290039.0273438-.2290039.0273438-.4956054.0273438-.8613282 0-.8613282 0-1.1689454-.440918-.3076172-.4409179-.3076172-.4409179-.3076172-1.1450195v-4.84667969h-.9912109v-1.00488282h.9912109v-2.04394531zm-35.2460938 2.078125v7.28710942h-1.2509765v-7.28710942zm9.413086-.19824219c1.4765625 0 1.4765625 0 2.0097656 1.06640625.2871094.57421875.2871094.57421875.2871094 1.54492186v4.8740235h-1.2783203v-5.0859375l-.0057145-.175705c-.0400009-.58992004-.0400009-.58992004-.3600082-.82917786-.3657227-.2734375-.3657227-.2734375-.8920899-.2734375-.7246093 0-.7246093 0-1.2475585.48535157-.5229493.48535159-.5229493.48535159-.5229493 1.62011719v4.2587891h-1.2509765v-4.7783204l-.0036273-.2046596c-.0217634-.5892857-.0217634-.5892857-.1741071-.88225442-.2802734-.51269531-.2802734-.51269531-1.0458984-.51269531-.6972657 0-.6972657 0-1.2680664.54003906-.5708008.54003907-.5708008.54003907-.5708008 1.95507817v3.8828125h-1.2304688v-7.32128911h1.2167969v1.0390625l.1435547-.17184787c.3531901-.40920681.3531901-.40920681.6494141-.61428494.6083984-.41699219.6083984-.41699219 1.3808593-.41699219.875 0 .875 0 1.4082031.43066407.3007813.24609375.3007813.24609375.546875.72460937.4101563-.58789062.4101563-.58789062.9638672-.87158203.553711-.28369141.553711-.28369141 1.2441407-.28369141zm22.8798828 0c.0341797 0 .0341797 0 .1162109.00683594.0820313.00683594.0820313.00683594.2802734.02734375v1.29882813l-.1051025-.01708985-.0965576-.0102539c-.0922852-.00683594-.0922852-.00683594-.2016602-.00683594-.9296875 0-.9296875 0-1.4287109.59814458-.4990234.5981445-.4990234.5981445-.4990234 1.3774414v4.2109375h-1.2304688v-7.32128911h1.1689453v1.26464844l.0495257-.10874721c.1741071-.33607701.1741071-.33607701.6545759-.79017857.5605469-.52978516.5605469-.52978516 1.2919922-.52978516zm7.0751953 5.99511721v1.4902344h-1.428711v-1.4902344zm3.4316406-8.55175783v10.04199223h-1.2304687v-10.04199223zm-18.5732422 3.58203125c-1.1279297 0-1.1279297 0-1.640625.86132808-.5126953.8613282-.5126953.8613282-.5126953 2.078125 0 1.1689454 0 1.1689454.5126953 1.9482422.5126953.7792969.5126953.7792969 1.6269532.7792969 1.2236328 0 1.2236328 0 1.6782226-.9262695.4545898-.9262696.4545898-.9262696.4545898-2.0610352 0-1.0253906 0-1.0253906-.328125-1.6679687-.5195312-1.01171878-.5195312-1.01171878-1.7910156-1.01171878zm-7.6152344.04101562c-1.2783203 0-1.2783203 0-1.75 1.27832036-.2529296.6835937-.2529296.6835937-.2529296 1.7363281 0 .8476562 0 .8476562.2529296 1.4423828.4785157 1.1347656.4785157 1.1347656 1.75 1.1347656.8613282 0 .8613282 0 1.432129-.7211914.5708007-.7211914.5708007-.7211914.5708007-2.1567383 0-.875 0-.875-.2529297-1.5039062-.4785156-1.20996096-.4785156-1.20996096-1.75-1.20996096zm31.0078126.00683594c-.8476563 0-.8476563 0-1.421875.61181641-.5742188.61181641-.5742188.61181641-.6083985 1.55517581h4.0673828c-.0751953-.7998047-.0751953-.7998047-.3486328-1.2783203-.5058594-.88867192-.5058594-.88867192-1.6884765-.88867192zm-76.5585938-6.19503348v6h-5zm28.9394531 2.56515067v1.39453125h-1.2509765v-1.39453125z" fill="#bd3c39" fill-rule="nonzero" transform="translate(240 369)"/><path d="m14 3v15h-14v-8h6v-7zm17.7861328 13.6667132v.6904297h-7.7861328v-.6904297zm60.2382813-8.57226566c1.6542968 0 1.6542968 0 2.3857421.97070313.4580079.61523437.4580079.61523437.444336 1.32617183h-1.1621094l-.0226953-.163789c-.0634375-.32156252-.0634375-.32156252-.27125-.59500002-.4238281-.48535156-.4238281-.48535156-1.4697266-.48535156-.6972656 0-.6972656 0-1.0561523.26660156s-.3588867.26660156-.3588867.70410152c0 .4785157 0 .4785157.4716797.765625.2734375.1708985.2734375.1708985.8066406.3007813l.8134766.1982422.2338907.0582467c1.1332967.2903861 1.1332967.2903861 1.543453.5638236.7177734.4716797.7177734.4716797.7177734 1.4833984 0 .9775391 0 .9775391-.7416992 1.6884766s-.7416992.7109375-2.2592773.7109375c-1.6337891 0-1.6337891 0-2.3139649-.7416992-.6801757-.7416992-.6801757-.7416992-.7280273-1.8354492h1.1826172l.0196707.1699218c.0711496.4921875.0711496.4921875.2879465.7734375.4648437.5947266.4648437.5947266 1.6132812.5947266.6835938 0 .6835938 0 1.203125-.2973633.5195313-.2973633.5195313-.2973633.5195313-.9194336 0-.4716797 0-.4716797-.4169922-.7177734-.2666016-.1503906-.2666016-.1503906-1.0527344-.3486328l-.9775391-.2460938-.2264404-.0589599c-.765625-.2093506-.765625-.2093506-1.1544189-.4605713-.7929688-.4990235-.7929688-.4990235-.7929688-1.3808594 0-1.03906251 0-1.03906251.7485352-1.68164063.7485351-.64257813.7485351-.64257813 2.0131836-.64257813zm7 0c1.6542969 0 1.6542969 0 2.3857419.97070313.458008.61523437.458008.61523437.444336 1.32617183h-1.162109l-.022695-.163789c-.063438-.32156252-.063438-.32156252-.27125-.59500002-.4238286-.48535156-.4238286-.48535156-1.4697271-.48535156-.6972656 0-.6972656 0-1.0561523.26660156s-.3588867.26660156-.3588867.70410152c0 .4785157 0 .4785157.4716797.765625.2734375.1708985.2734375.1708985.8066406.3007813l.8134766.1982422.2338907.0582467c1.1332965.2903861 1.1332965.2903861 1.5434525.5638236.717774.4716797.717774.4716797.717774 1.4833984 0 .9775391 0 .9775391-.741699 1.6884766s-.741699.7109375-2.2592776.7109375c-1.6337891 0-1.6337891 0-2.3139649-.7416992-.6801757-.7416992-.6801757-.7416992-.7280273-1.8354492h1.1826172l.0196707.1699218c.0711496.4921875.0711496.4921875.2879465.7734375.4648437.5947266.4648437.5947266 1.6132812.5947266.6835938 0 .6835938 0 1.2031252-.2973633.519531-.2973633.519531-.2973633.519531-.9194336 0-.4716797 0-.4716797-.416992-.7177734-.266602-.1503906-.266602-.1503906-1.0527345-.3486328l-.9775391-.2460938-.2264404-.0589599c-.765625-.2093506-.765625-.2093506-1.1544189-.4605713-.7929688-.4990235-.7929688-.4990235-.7929688-1.3808594 0-1.03906251 0-1.03906251.7485352-1.68164063.7485351-.64257813.7485351-.64257813 2.0131836-.64257813zm-63.2871094.02734375c.7792969 0 .7792969 0 1.5107422.36572266s.7314453.36572266 1.1142578.94677734c.3691406.55371094.3691406.55371094.4921875 1.29199221.109375.5058594.109375.5058594.109375 1.6132812h-5.366211l.01325.2421694c.0756172.946904.0756172.946904.5131172 1.5454283.4921875.6733398.4921875.6733398 1.5244141.6733398.9638672 0 .9638672 0 1.5380859-.6357422.328125-.3691406.328125-.3691406.4648438-.8544921h1.2099609l-.0280273.1650195c-.0738281.3374219-.0738281.3374219-.2898438.7339062-.2700195.4956055-.2700195.4956055-.6049804.8100586-.5605469.546875-.5605469.546875-1.3876954.7382813-.4443359.109375-.4443359.109375-1.0048828.109375-1.3671875 0-1.3671875 0-2.3173828-.9946289s-.9501953-.9946289-.9501953-2.7856446c0-1.7636718 0-1.7636718.9570313-2.86425777.9570312-1.10058594.9570312-1.10058594 2.5019531-1.10058594zm18.6757812 0c.7792969 0 .7792969 0 1.5107422.36572266s.7314453.36572266 1.1142578.94677734c.3691407.55371094.3691407.55371094.4921875 1.29199221.109375.5058594.109375.5058594.109375 1.6132812h-5.3662109l.0132499.2421694c.0756173.946904.0756173.946904.5131173 1.5454283.4921875.6733398.4921875.6733398 1.5244141.6733398.9638671 0 .9638671 0 1.5380859-.6357422.328125-.3691406.328125-.3691406.4648437-.8544921h1.209961l-.0280274.1650195c-.0738281.3374219-.0738281.3374219-.2898437.7339062-.2700195.4956055-.2700195.4956055-.6049805.8100586-.5605469.546875-.5605469.546875-1.3876953.7382813-.4443359.109375-.4443359.109375-1.0048828.109375-1.3671875 0-1.3671875 0-2.3173828-.9946289s-.9501953-.9946289-.9501953-2.7856446c0-1.7636718 0-1.7636718.9570312-2.86425777.9570313-1.10058594.9570313-1.10058594 2.5019531-1.10058594zm18.491211-2.59082031v10.07617192h-1.1074219v-1.0185547l-.1262556.1856864c-.3883928.5340401-.3883928.5340401-.8922991.7918526-.5878906.3007813-.5878906.3007813-1.3466797.3007813-1.2236328 0-1.2236328 0-2.1191406-1.0288086s-.8955078-1.0288086-.8955078-2.737793c0-1.5996094 0-1.5996094.8168945-2.77197264.8168945-1.17236328.8168945-1.17236328 2.3344727-1.17236328.8408203 0 .8408203 0 1.4082031.35546875.328125.20507813.328125.20507813.7451172.71777344v-3.69824219zm11.8671875 2.59082031c.7792968 0 .7792968 0 1.5107422.36572266.7314453.36572266.7314453.36572266 1.1142578.94677734.3691406.55371094.3691406.55371094.4921875 1.29199221.109375.5058594.109375.5058594.109375 1.6132812h-5.366211l.0132499.2421694c.0756173.946904.0756173.946904.5131173 1.5454283.4921875.6733398.4921875.6733398 1.5244141.6733398.9638672 0 .9638672 0 1.5380859-.6357422.328125-.3691406.328125-.3691406.4648438-.8544921h1.2099609l-.0280273.1650195c-.0738282.3374219-.0738282.3374219-.2898438.7339062-.2700195.4956055-.2700195.4956055-.6049805.8100586-.5605468.546875-.5605468.546875-1.3876953.7382813-.4443359.109375-.4443359.109375-1.0048828.109375-1.3671875 0-1.3671875 0-2.3173828-.9946289s-.9501953-.9946289-.9501953-2.7856446c0-1.7636718 0-1.7636718.9570312-2.86425777.9570313-1.10058594.9570313-1.10058594 2.5019532-1.10058594zm-35.8066406-1.87988281v2.04394531h1.1689453v1.00488282h-1.1689453v4.77832029l.0053013.1042132c.031808.297154.031808.297154.2544643.4084821.1435547.0751953.1435547.0751953.4785156.0751953.0888672 0 .0888672 0 .1914062-.0034179.1025391-.003418.1025391-.003418.2392579-.0170899v.9707032l-.143175.0372178c-.1450737.0334202-.1450737.0334202-.297743.0516493-.2290039.0273438-.2290039.0273438-.4956055.0273438-.8613281 0-.8613281 0-1.1689453-.440918-.3076172-.4409179-.3076172-.4409179-.3076172-1.1450195v-4.84667969h-.9912109v-1.00488282h.9912109v-2.04394531zm30.9121093-.67675781v10.04199223h-1.2304687v-10.04199223zm-3.4316406 8.55175783v1.4902344h-1.4287109v-1.4902344zm-13.7333984-5.99511721c1.5585937 0 1.5585937 0 2.1054687 1.08691407.3007813.59472656.3007813.59472656.3007813 1.70214844v4.6962891h-1.2509766v-4.6142579l-.0055067-.2160915c-.0275337-.5221897-.0275337-.5221897-.1927355-.86398658-.328125-.68359375-.328125-.68359375-1.1894531-.68359375-.4375 0-.4375 0-.7177734.08886719-.5058594.15039062-.5058594.15039062-.8886719.6015625-.3076172.36230464-.3076172.36230464-.3999024.74853514-.0922851.3862305-.0922851.3862305-.0922851 1.1040039v3.834961h-1.2304688v-7.32128911h1.1689453v1.0390625l.1496931-.17619977c.452846-.50641741.452846-.50641741.9508929-.74665179.5810547-.28027344.5810547-.28027344 1.2919922-.28027344zm-21.3417969.1640625 1.6816406 2.57714841 1.7021484-2.57714841 1.4970704.03417969-2.4677735 3.53417972 2.5771485 3.7529297h-1.5722657l-1.8183593-2.7480469-1.7636719 2.7480469h-1.5585938l2.5771485-3.7529297-2.4472656-3.56835941zm28.430664.94335938c-.9296874 0-.9296874 0-1.5073242.7109375-.5776367.71093753-.5776367.71093753-.5776367 2.09179683 0 1.1757813 0 1.1757813.4990235 1.96875.4990234.7929688.4990234.7929688 1.5996093.7929688.8544922 0 .8544922 0 1.4047852-.7348633.5502929-.7348633.5502929-.7348633.5502929-2.1088867 0-1.3876953 0-1.3876953-.5673828-2.05419922-.5673828-.66650391-.5673828-.66650391-1.4013672-.66650391zm-34.1386718-.03417969c-.8476563 0-.8476563 0-1.421875.61181641-.5742188.61181641-.5742188.61181641-.6083985 1.55517581h4.0673829c-.0751954-.7998047-.0751954-.7998047-.3486329-1.2783203-.5058593-.88867192-.5058593-.88867192-1.6884765-.88867192zm18.6757812 0c-.8476562 0-.8476562 0-1.421875.61181641-.5742187.61181641-.5742187.61181641-.6083984 1.55517581h4.0673828c-.0751953-.7998047-.0751953-.7998047-.3486328-1.2783203-.5058594-.88867192-.5058594-.88867192-1.6884766-.88867192zm30.3583985 0c-.8476563 0-.8476563 0-1.421875.61181641-.5742188.61181641-.5742188.61181641-.6083985 1.55517581h4.0673828c-.0751953-.7998047-.0751953-.7998047-.3486328-1.2783203-.5058594-.88867192-.5058594-.88867192-1.6884765-.88867192zm-79.6962891-6.19503348v6h-5z" fill="#bd3c39" fill-rule="nonzero" transform="translate(190 394)"/><text fill="#06c" font-family="Helvetica" font-size="14"><tspan x="422.5" y="98">Your CSS overrides for </tspan><tspan x="422.5" y="121">content types go here</tspan></text><text fill="#bd3c39" font-family="Helvetica" font-size="14"><tspan x="519.5" y="321">_extend.less is required</tspan></text><path d="m381.133988 248.27984.979948 1.743474-.871737.489974-8.674199 4.874712.385324.00098-.000659 2-.387665-.00098 8.673323 4.882136.871413.490549-.981097 1.742828-.871414-.490549-11.997774-6.753956-1.54918-.872086 1.549755-.871065 12.002225-6.746043zm-5.180664 7.110129 2 .00066 1 .000329-.000659 2-1-.00033-2-.000659-1-.00033.000659-1.999999zm8.940732-.226425.127698 1.995919-.997959.063849-1.004053.060401-1.00792.052971-.998812.048719-.097437-1.997625.998812-.048719.992799-.052176.988913-.05949zm5.947393-.568944.222381 1.987598-.993799.11119-1.000708.107868-1.004738.100127-.99546.095177-.190355-1.990921.995461-.095177.988731-.098532.984688-.10614zm5.902822-.860474.321982 1.973911-.986956.160991-.994626.157882-.998813.149845-.989553.144172-.288344-1.979105.989553-.144172.981995-.147322.977806-.155211zm5.850092-1.166626.426026 1.954098-.97705.213013-.98552.210231-.989853.20192-.980703.195507-.391014-1.961405.980703-.195507.972342-.198347.96802-.206498zm5.770467-1.48221.533462 1.927542-.963771.266731-.973191.264442-.977659.255885-.96858.248703-.497405-1.93716.96858-.248702.959617-.251164.955176-.259546zm5.670694-1.805013.643099 1.893786-.946893.321549-.95658.31969-.961154.310944-.952919.303224-.606448-1.905839.95292-.303224.942806-.305008.938277-.313573zm5.556915-2.134012.753646 1.852571-.926286.376823-.936627.375637-.941284.366748-.933553.35844-.71688-1.867105.933553-.35844.92287-.359574.918276-.368277zm5.38334-2.444255.862728 1.804355-.902178.431365-.913067.430957-.917777.421985-.910643.413193-.826386-1.821287.910643-.413193.899566-.413611.894936-.4224zm5.264744-2.783848.970233 1.748898-.874449.485117-.886305.485879-.891041.476877-.884036.46742-.934839-1.768071.884035-.46742.873296-.46738.868657-.476204zm5.086109-3.095805 1.073753 1.687322-.843661.536876-.855623.538511-.860341.52956-.854215.51992-1.03984-1.70843.854215-.51992.84333-.519089.838721-.527874zm4.8744-3.38042 1.17157 1.620933-.810466.585785-.822607.588451-.827278.57961-.821801.569774-1.139548-1.643603.821802-.569774.811206-.56835.806656-.577041zm4.686653-3.672311 1.263345 1.550471-.775236.631672-.787026.635079-.791613.626412-.787139.616776-1.233552-1.574277.787139-.616776.776653-.614575.772194-.62311zm4.469654-3.929732 1.347938 1.477519-.73876.673969-.749385.677412-.753852.668983-.751002.660301-1.320601-1.502004.751002-.6603.740119-.656797.735781-.665114zm4.244679-4.161434 1.425009 1.403335-.701667.712504c-.025111.025473-.045201.045851-.062279.06317l-.082431.083505c-.026161.026461-.05637.056976-.106719.107835l-.5855.586588-.588424.581078-.71407.700074-1.400149-1.42814.71407-.700074c.386387-.378814.770881-.761258 1.153483-1.147334.098929-.099931.118715-.119918.185826-.187978l.061184-.062059zm4.022025-4.389374 1.498734 1.32431-.662155.749367-.671234.75272-.678888.747537-.675642.73723-1.47446-1.351284.675643-.73723.666693-.73411.659154-.739173zm3.731616-4.547079 1.568723 1.240607-.620303.784362-.629527.7885-.637281.783257-.634693.772764-1.545528-1.269387.634693-.772764.625619-.768924.617993-.774053zm3.521068-4.811306 1.63571 1.15085-.575426.817854-.584423.822464-.592228.817197-.590579.806979-1.613959-1.181159.59058-.806979.581282-.802094.573618-.807258zm3.244719-5.000333 1.697751 1.057185-.528592.848876-.537477.854241-.545286.848978-.544337.838866-1.677733-1.088675.544337-.838866.535203-.833279.527542-.83845zm2.960464-5.175359 1.754117.960766-.480383.877059-.489048.883177-.496814.877952-.496515.868028-1.736057-.993029.496515-.868028.487707-.86186.480094-.867006zm2.666618-5.324329 1.804213.863026-.431513.902107-.439614.908454-.447281.903304-.447809.894129-1.788258-.895618.447809-.894129.439227-.887039.431713-.892127zm2.374511-5.459628 1.847853.765139-.38257.923927-.390641.931775-.398187.926711-.398847.917018-1.834035-.797693.398846-.917017.391204-.910459.383807-.915474zm2.085997-5.579993 1.885067.668224-.334112.942533-.341616.950832-.348991.94589-.350161.936689-1.873379-.700323.350162-.936689.343074-.929857.335844-.934766zm1.793175-5.650768 1.915912.573832-.286916.957956-.293344.965091-.300495.960303-.302552.953133-1.906266-.605105.302553-.953133.295604-.944677.288588-.949444zm1.526953-5.764121 1.941097.481811-.240905.970548-.24685.978218-.253779.973582-.256026.96667-1.93334-.512054.256027-.96667.249838-.958465.243033-.963092zm1.260214-5.831768 1.960943.393321-.196661.980472-.201987.988125-.208675.983653-.211161.977452-1.954902-.422323.211161-.977451.205598-.969153.199023-.973624zm1.00389-5.879471 1.976003.308892-.154446.988001-.159327.996452-.165775.992141-.168275.98574-1.97148-.336549.168274-.98574.163464-.978309.157117-.982627zm.759546-5.906053 1.986858.228897-.114449.99343-.118626 1.000791-.124807.996659-.127544.991833-1.983666-.255088.127544-.991832.123166-.983558.117075-.987703zm.53091-5.942184 1.994125.153179-.076589.997063-.080333 1.005147-.086272 1.001176-.088961.996035-1.99207-.177921.08896-.996035.085206-.988797.079344-.992784zm.31386-5.957267 1.998322.081894-.040947.999161-.044193 1.007041-.049885 1.003235-.052587.998616-1.997233-.105174.052587-.998617.049306-.991585.043683-.99541zm.109906-5.966861 1.999944.014924-.007462.999972-.010233 1.005749-.015664 1.002116-.018369.999831-1.999662-.036739.018369-.999831.015492-.991199.010123-.994851z" fill="#06c" fill-rule="nonzero"/><path d="m385.115501 336.170437.983914 1.741239-.870619.491957-8.665796 4.895367.950108-.001913.003893 1.999996-.946001.001917 8.680682 4.86146.872529.488564-.977128 1.745056-.872528-.488563-12.013117-6.726628-1.551162-.868557 1.547768-.87459 11.986838-6.773348zm-1.602405 7.11497.003894 1.999996-3.999993.007787-.003893-1.999996zm5.853133-.511332.258297 1.983251-.991625.129148-1.005327.123713-1.009339.109797-.99487.101163-.202326-1.989739.994869-.101164.981348-.106751.977348-.120269zm5.819513-1.102718.429016 1.953445-.976722.214508-.992001.210295-.996129.196064-.982552.185987-.371975-1.965104.982552-.185988.967574-.190443.963514-.204255zm5.69833-1.608696.599467 1.908046-.954023.299733-.970112.296973-.974294.282658-.962422.271559-.543118-1.924843.962421-.27156.946058-.274465.942-.288368zm5.476502-2.078655.762654 1.84888-.924441.381327-.941117.380255-.945288.366073-.935118.354337-.708674-1.870236.935118-.354337.918212-.355587.914213-.369385zm5.351728-2.57667.917906 1.776921-.888461.458953-.905599.459825-.909697.445978-.900976.433868-.867736-1.801953.900976-.433868.884508-.43363.880618-.447141zm5.11544-3.008391 1.059335 1.69641-.848206.529668-.864107.531711-.868062.518409-.861948.506997-1.013994-1.723896.861948-.506997.84528-.504804.841549-.517831zm4.867875-3.399201 1.185318 1.610907-.805454.592659-.820787.596216-.824566.583545-.819842.57259-1.14518-1.639683.819841-.57259.804387-.569266.800829-.581719zm4.61049-3.74214 1.295452 1.523747-.761874.647726-.776411.652579-.779986.640606-.776392.630251-1.260501-1.552784.776392-.63025.762407-.62617.75904-.637979zm4.336606-4.022597 1.390114 1.437909-.718954.695057-.731353.699816-.734704.688601-.733184.68003-1.36006-1.466369.733184-.680029.719583-.67443.716419-.685528zm4.114324-4.304398 1.471631 1.354364-.677182.735816-.688299.740948-.691432.730459-.690866.722983-1.445966-1.381732.690866-.722983.678517-.716816.675549-.727224zm3.874487-4.52383 1.541018 1.274858-.637429.770509-.647581.776112-.650505.76631-.650407.759586-1.519172-1.300813.650406-.759586.639512-.753361.636729-.763106zm3.64883-4.711867 1.599991 1.200012-.600006.799995-.608713.80522-.611437.796081-.612183.790716-1.581432-1.224367.612184-.790716.602097-.783921.599493-.793025zm3.432881-4.865561 1.65007 1.130162-.565081.825036-.57391.831778-.576459.823208-.576464.817122-1.634245-1.152927.576464-.817123.568496-.811837.566047-.820384zm3.240263-5.008541 1.692791 1.065111-.532556.846395-.539687.851848-.542062.843857-.543116.839657-1.679315-1.086233.543117-.839657.535281-.833302.532992-.841281zm3.055548-5.12297 1.729272 1.004796-.502398.864637-.509545.871264-.511771.863755-.512207.858862-1.717724-1.024413.512206-.858862.505962-.853951.503806-.861452zm2.888367-5.229011 1.760781.948499-.474249.880391c-.268207.497894-.538137.993706-.809799 1.48745-.06223.113027-.074676.135632-.116259.210972l-.037883.068629-.483516.875336-1.750671-.967032.483516-.875336c.075549-.136859.075549-.136859.152544-.276701l.401917-.734353.39937-.737464zm2.720991-5.311918 1.789228.893678-.446839.894614-.451919.899085-.455472.894795-.455906.890028-1.780056-.911811.455905-.890028.450861-.885735.447359-.890012zm2.563764-5.399335 1.814976.840157-.420079.907488-.424843.911963-.428299.90779-.428908.903348-1.806696-.857816.428908-.903348.424135-.898965.420728-.903129zm2.404618-5.465962 1.838137.788197-.394099.919068-.39867.923783-.40203.919726-.402674.915343-1.830687-.805348.402674-.915343.398283-.911154.394968-.915204zm2.25404-5.533871 1.858934.737811-.368906.929467-.372969.933632-.376228.929697-.377206.92613-1.852259-.754412.377206-.92613.37287-.921399.369652-.925329zm2.096675-5.563589 1.87745.689333-.344667.938726-.348622.943274-.351788.939451-.352693.935739-1.871478-.705386.352693-.935739.348783-.931426.345655-.935247zm1.968159-5.651243 1.894075.642247-.321124.947038-.324752.951358-.327822.947649-.328863.944378-1.888755-.657727.328863-.944377.325145-.939911.322109-.943617zm1.829449-5.693181 1.908846.596914-.298458.954423-.30189.958839-.304868.955241-.305913.952059-1.904119-.611826.305913-.952059.302489-.947785.299542-.951383zm1.698334-5.737501 1.92195.553271-.276635.960975-.279889.965512-.282778.962022-.283809.95888-1.917761-.567618.283809-.958881.280668-.954847.27781-.958339zm1.57182-5.776203 1.933538.511304-.255652.966768-.258428.970292-.261224.966913-.262539.964921-1.929843-.525079.262539-.964921.259363-.960024.256594-.963406zm1.447682-5.800348 1.943736.471052-.235526.971868-.238292.97604-.241007.972758-.242145.970241-1.94048-.484291.242145-.97024.239367-.966138.236676-.969422zm1.332457-5.836875 1.952708.432359-.21618.976354-.218873.980974-.221509.977788-.222536.974925-1.949849-.445073.222537-.974925.220068-.971429.217455-.974619zm1.219323-5.859179 1.960556.39525-.197625.980277-.199876.983575-.202425.980493-.203717.97903-1.95806-.407434.203717-.97903.201167-.974398.198638-.977486zm1.110514-5.876171 1.967391.359681-.179841.983696-.18214.987996-.18462.984998-.185691.982608-1.965216-.371382.185691-.982608.183523-.979145.181062-.982148zm1.007537-5.897649 1.973327.32555-.162775.986664-.164778.990069-.167179.987164-.168382.985721-1.971444-.336764.168382-.985722.16623-.981554.163844-.984465zm.906901-5.904587 1.978441.292864-.146432.989221-.148225.992057-.302364 1.977649-1.976819-.303617.151808-.98841.149736-.983861.147423-.986683zm.814296-5.936626 1.982842.261416-.130708.991421-.132289.993478-.134547.990744-.135862.990728-1.981456-.271724.135862-.990728.133847-.985588.131603-.988326zm.722214-5.944691 1.986584.231266-.115634.993292-.117194.995937-.119392.993278-.120581.992703-1.985407-.241164.120582-.992703.118796-.988327.116613-.99099zm.633753-5.948298 1.989735.202367-.101183.994867-.102655.997547-.104791.994961-.105934.994373-1.988746-.211867.105934-.994373.10429-.990209.102166-.992798zm.550661-5.968613 1.992366.174571-.087286.996184-.088752.999785-.090832.997267-.091851.995773-1.991545-.183701.09185-.995773.090417-.9927.088347-.995223zm.468765-5.964131 1.994521.147935-.073967.99726-.075227.999425-.077245.996983-.078345.996926-1.993853-.156691.078346-.996926.076905-.992602.074898-.995049zm.391629-5.977104 1.996256.122315-.061157.998128-.062442 1.001829-.064412.999444-.065371.997861-1.995722-.130742.065371-.997861.06414-.995228.062179-.997618zm.316641-5.975771 1.997612.097719-.04886.998806-.050105 1.003451-.052025 1.001124-.052914.998599-1.997198-.105828.052914-.998599.051814-.997068.049902-.999399zm.245052-5.98191 1.998628.074061-.037031.999315-.038025.999974-.039881.997726-.040914.999163-1.998326-.081829.040915-.999162.039726-.993841.037877-.996093zm.176328-5.996176 1.999343.051263-.025631.999671-.026627 1.002011-.057815 1.999381-1.999137-.058747.029374-.999569.028335-.996068.026527-.99827zm.109509-5.98478 1.999784.029371-.014685.999892-.015669 1.005246-.017449 1.003091-.018299.999833-1.999665-.036597.018299-.999833.017386-.999476.015613-1.001634zm.045627-5.987252 1.999983.008287-.004144.999991-.005033 1.004692-.006767 1.002592-.007621.999971-1.999942-.015242.007621-.999971.006743-.999113.005017-1.001215z" fill="#06c" fill-rule="nonzero"/><path d="m329.177814 398.473235.970472 1.748766-.874383.485237-8.699903 4.827762.703097.004713-.011512 1.999966-.704585-.004679 8.64523 4.928892.86874.49527-.99054 1.737478-.868739-.49527-11.960949-6.81896-1.544425-.88048 1.554459-.862642 12.038654-6.680816zm4.090712 7.110495.001539 2-.999999.000769-2.001494.000083-.999999-.000684.001368-1.999999 1 .000684 1.998586-.000083zm6.000913-.022343.010432 1.999973-2.000004.010057-1.001578.004101-.999993.003721-.007443-1.999986 2.000078-.007816.998521-.004834zm-15.992375-.010162.999984.005756 1.999966.011512.999984.005756-.011512 1.999967-2.99995-.017269-.999984-.005756zm21.991866-.039356.019577 1.999904-.999952.009789-1.000004.009403-1.001594.008648-.999966.008251-.016501-1.999932 2.000023-.016885.998465-.009389zm5.982966-.077231.028961 1.999791-.999895.01448-.999638.014081-1.001259.013311-.999917.012898-.025798-1.999833.999917-.012899.999678-.01329.998056-.014058zm6.00545-.106316.038659 1.999627-.999813.019329-.999884.018922-1.001538.018138-.999843.0177-.0354-1.999686 1.999752-.035809.998254-.018891zm5.985738-.135539.048616 1.999409-.999705.024308-.9998.023889-1.001486.023089-.999744.02263-.045259-1.999488 1.999552-.04568.998121-.023849zm5.97794-.165735.058864 1.999134-1.998615.058414-1.000767.028168-.999616.027703-.055407-1.999232.999616-.027704.999039-.028118.997319-.028933zm5.994496-.197629.069459 1.998794-.999396.034729-.99993.0343-1.001687.033466-.999457.032946-.065892-1.998915.999458-.032945.999904-.033406.998144-.034239zm5.995722-.230167.080394 1.998383-1.998097.079921-1.000697.038873-.999264.038358-.076716-1.998528.999264-.038358.998859-.038801.997066-.039651zm5.994861-.263694.091681 1.997897-.998949.045841-.998488.045342-1.000319.044474-.999034.043942-.087885-1.998068.999034-.043942.998422-.044389.99659-.045257zm5.979319-.297558.103309 1.99733-.998665.051654-.998634.05116-1.000506.050272-.998765.049693-.099387-1.997529 1.997311-.099866.996672-.05106zm5.986927-.333689.115343 1.996671-.998336.057672-.998424.057166-1.000338.056258-.998451.055644-.111289-1.996901.998451-.055644.998312-.056144.996396-.057051zm5.979666-.370245.127773 1.995914-1.995908.127245-.999909.062429-.998089.061791-.123582-1.996178 1.995903-.124089.995855-.063226zm5.982361-.408702.140643 1.995049-.997525.070322-.998601.06985-1.00061.068896-.997675.068151-.136302-1.99535.997675-.068151.99844-.068747.99643-.069698zm5.982408-.448411.153971 1.994065-.997032.076986-.998409.076524-1.000466.075548-.997203.074738-.149476-1.994407.997203-.074738.998219-.075378.996161-.076352zm5.967937-.488377.167751 1.992952-.996476.083876-.996632.083301-.998733.082303-.996669.08155-.1631-1.993338.996669-.08155.996408-.082112.994306-.083107zm5.974579-.531577.182056 1.991697-.995848.091028-.995003.090343-.997151.089322-.996065.08862-.17724-1.992131.996065-.08862.994744-.089107.992593-.090124zm5.966484-.575135.196885 1.990286-1.990002.196223-.997063.096734-.995387.095943-.191885-1.990774.995387-.095942.994565-.096492.992358-.097536zm5.966986-.621236.212287 1.988701-.994351.106144-.994648.105516-.996911.104441-.994625.103547-.207094-1.989249.994624-.103547.994317-.104169.99205-.105241zm5.952981-.667587.22826 1.986931-.993466.11413-.995223.113645-.997554.112537-.993772.11143-.222858-1.987545.993772-.111429.994854-.112233.992521-.113336zm5.936123-.715285.24483 1.984958-.992479.122415-.994178.121909-.996569.120772-.992822.119608-.239215-1.985643.992821-.119608.993763-.120431.99137-.121565zm5.949063-.768713.262121 1.982749-1.983587.261486-.994666.12926-.991756.128142-.256285-1.983511.991756-.128143.991749-.12888.989294-.130043zm5.936145-.821149.280101 1.980289-.990144.14005-.989635.139203-.99215.138008-.990569.137017-.274034-1.981137.990569-.137018.989118-.137585.9866-.138776zm5.919756-.875221.298805 1.977553-.988777.149403-.990621.148867-.993221.147631-.98925.146235-.292469-1.9785.98925-.146234.990054-.147161.987452-.148391zm5.920638-.934336.318337 1.974503-.987251.159168-.988397.158503-.991068.157232-.987778.155868-.311735-1.975556.987778-.155867.987769-.156709.985094-.157974zm5.906708-.993839.338702 1.971111-.985556.169351-.986903.168692-.989656.167383-.986142.165906-.331811-1.972283.986141-.165906.986212-.166801.983457-.168102zm5.898681-1.05715.35998 1.967337-.983669.17999-.982507.178847-.985328.177506-.984319.1764-.3528-1.968637.984318-.1764.981741-.176859.978916-.178194zm5.88592-1.122687.382215 1.963138-.98157.191108-.983606.190522-.986536.189128-.982294.187344-.374687-1.964589.982294-.187344.982774-.188407.979841-.189793zm5.868347-1.190484.405457 1.95847-.979235.202729-.97801.201449-.981013.200021-.980039.198804-.397609-1.960078.98004-.198804.97709-.199221.974084-.200641zm5.855396-1.262687.429797 1.953273-.976636.214898-.978634.214252-.981755.212767-.977534.210776-.421554-1.955068.977535-.210777.977635-.211873.974509-.213349zm5.836922-1.33748.455294 1.947488-.973744.227647-.972634.226249-.975841.224723-.97474.223341-.446682-1.94948.97474-.223341.971537-.223733.968327-.225247zm5.812835-1.414901.482003 1.94105-.970525.241001-.973457.240519-.9768.238927-.971639.236467-.472936-1.943278.971639-.236468.972269-.237818.968921-.239398zm5.802958-1.501503.510868 1.933653-.966826.255434-.966841.254098-.973017.253051-.968126.250463-.500926-1.936253.968126-.250463.968051-.251759.961865-.25279zm5.775097-1.593308.54283 1.924925-.962463.271415-.962722.26999-.969353.268865-.963998.26591-.53182-1.927996.963998-.26591.963854-.267339.957212-.268445zm5.743631-1.69543.57837 1.914546-.957273.289186-.957575.287588-.964724.286373-.959105.283052-.566103-1.918209.959104-.283052.958598-.284554.951435-.285745zm5.708584-1.810215.618179 1.902066-.951034.30909-.951793.307415-.959548.306093-.953243.302204-.604409-1.906486.953243-.302204.952672-.3039.9449-.305189zm5.663877-1.938657.66309 1.886879-.94344.331545-.944154.329588-.952609.328145-.946139.323761-.647523-1.892278.946139-.323761.944835-.325466.936361-.326868zm5.602883-2.081819.714126 1.868161-.93408.357063-.936012.355226-.945316.353633-.937429.348178-.696355-1.874857.937428-.348178.936441-.350312.927117-.35185zm5.538711-2.249486.772769 1.844675-.922338.386385-.924329.384177-.934623.382407-.926556.376158-.752315-1.853111.926555-.376158.924408-.378227.914091-.379922zm5.445019-2.437874.840689 1.814729-.907364.420344-.909849.417839-.921346.415851-.91278.408452-.816905-1.825559.91278-.408452.909465-.410489.897946-.412371zm5.246991-2.615017.918877 1.776419-.888209.459439-.891958.456896-.904922.454641-.895285.445493-.890987-1.790571.895286-.445493.890986-.447638.878003-.449747zm5.207373-2.929348 1.013271 1.724321-.862161.506635-.86742.504069-.882245.501469-.871686.490066-.980131-1.743372.871686-.490065.865678-.492051.850848-.494437zm5.000249-3.237404 1.125973 1.652932-.826466.562987c-.367154.250104-.739408.499303-1.116762.747598l-.569856.371765-.839649.54313-1.086259-1.679298.839648-.543129c.373616-.241674.74214-.484159 1.105573-.727452l.541332-.365547zm4.722257-3.609444 1.261212 1.552205-.776103.630607c-.345253.280528-.696492.559979-1.053717.838355l-.540325.416758-.794831.606831-1.213663-1.58966.79483-.606832c.35259-.269193.69923-.539319 1.03992-.810376l.506574-.407282zm4.315343-4.039441 1.421482 1.406907-.703453.710741c-.314248.317504-.635624.633705-.964125.948608l-.498096.47138-.730672.682729-1.365457-1.461344.730672-.682729c.32303-.301835.639032-.604752.948005-.908748l.458191-.456803zm3.707157-4.489746 1.602093 1.197204-.598602.801046c-.269022.360004-.546542.718441-.832555 1.075313l-.435389.534135-.638156.769907-1.539815-1.276311.638156-.769907c.280322-.338197.552377-.677647.816171-1.018349l.389495-.511992zm2.942092-5.072108 1.788964.894208-.447104.894482c-.202926.405974-.415854.810125-.638776 1.212448l-.341877.602115-.502729.864444-1.728888-1.005458.502729-.864444c.218861-.376331.428191-.754116.628001-1.133358l.292576-.569955zm1.844332-5.491978 1.936513.499916-.249957.968256c-.114679.444231-.240465.88653-.37735 1.326887l-.213651.659076-.319816.94748-1.89496-.639631.319816-.94748c.137643-.407778.26492-.817216.381838-1.228326l.167609-.617921zm.591527-5.750896 1.999105.059837-.029919.999552c-.013832.462132-.038841.922455-.075029 1.380955l-.062666.686383-.103167.994664-1.989328-.206335.103167-.994664c.043994-.42415.07761-.850095.100847-1.27785l.027072-.64299z" fill="#bd3c39" fill-rule="nonzero"/><path d="m.5.5h734v440h-734z" stroke="#999"/><g transform="translate(149 216)"><circle cx="12" cy="10" fill="#d0021b" r="10"/><text fill="#fff" font-family="Helvetica-Bold, Helvetica" font-size="14" font-weight="bold"><tspan x="8.107" y="15">1</tspan></text></g><g transform="translate(199 331)"><circle cx="12" cy="10" fill="#d0021b" r="10"/><text fill="#fff" font-family="Helvetica-Bold, Helvetica" font-size="14" font-weight="bold"><tspan x="8.107" y="15">2</tspan></text></g><g transform="translate(199 245)"><circle cx="12" cy="10" fill="#d0021b" r="10"/><text fill="#fff" font-family="Helvetica-Bold, Helvetica" font-size="14" font-weight="bold"><tspan x="8.107" y="15">2</tspan></text></g><g transform="translate(199 369)"><circle cx="12" cy="10" fill="#d0021b" r="10"/><text fill="#fff" font-family="Helvetica-Bold, Helvetica" font-size="14" font-weight="bold"><tspan x="8.107" y="15">3</tspan></text></g><g transform="translate(199 270)"><circle cx="12" cy="10" fill="#d0021b" r="10"/><text fill="#fff" font-family="Helvetica-Bold, Helvetica" font-size="14" font-weight="bold"><tspan x="8.107" y="15">3</tspan></text></g><g transform="translate(149 394)"><circle cx="12" cy="10" fill="#d0021b" r="10"/><text fill="#fff" font-family="Helvetica-Bold, Helvetica" font-size="14" font-weight="bold"><tspan x="8.107" y="15">4</tspan></text></g><path d="m363 321v43" stroke="#06c" stroke-linecap="square" stroke-width="2"/><g fill-rule="nonzero"><path d="m14 3v15h-14v-8h6v-7zm17.7861328 13.6667132v.6904297h-7.7861328v-.6904297zm67.2382813-8.57226566c1.6542969 0 1.6542969 0 2.3857419.97070313.458008.61523437.458008.61523437.444336 1.32617183h-1.162109l-.022695-.163789c-.063438-.32156252-.063438-.32156252-.27125-.59500002-.4238286-.48535156-.4238286-.48535156-1.4697271-.48535156-.6972656 0-.6972656 0-1.0561523.26660156s-.3588867.26660156-.3588867.70410152c0 .4785157 0 .4785157.4716797.765625.2734375.1708985.2734375.1708985.8066406.3007813l.8134766.1982422.2338907.0582467c1.1332965.2903861 1.1332965.2903861 1.5434525.5638236.717774.4716797.717774.4716797.717774 1.4833984 0 .9775391 0 .9775391-.741699 1.6884766s-.741699.7109375-2.2592776.7109375c-1.6337891 0-1.6337891 0-2.3139649-.7416992-.6801757-.7416992-.6801757-.7416992-.7280273-1.8354492h1.1826172l.0196707.1699218c.0711496.4921875.0711496.4921875.2879465.7734375.4648437.5947266.4648437.5947266 1.6132812.5947266.6835938 0 .6835938 0 1.2031252-.2973633.519531-.2973633.519531-.2973633.519531-.9194336 0-.4716797 0-.4716797-.416992-.7177734-.266602-.1503906-.266602-.1503906-1.0527345-.3486328l-.9775391-.2460938-.2264404-.0589599c-.765625-.2093506-.765625-.2093506-1.1544189-.4605713-.7929688-.4990235-.7929688-.4990235-.7929688-1.3808594 0-1.03906251 0-1.03906251.7485352-1.68164063.7485351-.64257813.7485351-.64257813 2.0131836-.64257813zm-7 0c1.6542968 0 1.6542968 0 2.3857421.97070313.4580079.61523437.4580079.61523437.444336 1.32617183h-1.1621094l-.0226953-.163789c-.0634375-.32156252-.0634375-.32156252-.27125-.59500002-.4238281-.48535156-.4238281-.48535156-1.4697266-.48535156-.6972656 0-.6972656 0-1.0561523.26660156s-.3588867.26660156-.3588867.70410152c0 .4785157 0 .4785157.4716797.765625.2734375.1708985.2734375.1708985.8066406.3007813l.8134766.1982422.2338907.0582467c1.1332967.2903861 1.1332967.2903861 1.543453.5638236.7177734.4716797.7177734.4716797.7177734 1.4833984 0 .9775391 0 .9775391-.7416992 1.6884766s-.7416992.7109375-2.2592773.7109375c-1.6337891 0-1.6337891 0-2.3139649-.7416992-.6801757-.7416992-.6801757-.7416992-.7280273-1.8354492h1.1826172l.0196707.1699218c.0711496.4921875.0711496.4921875.2879465.7734375.4648437.5947266.4648437.5947266 1.6132812.5947266.6835938 0 .6835938 0 1.203125-.2973633.5195313-.2973633.5195313-.2973633.5195313-.9194336 0-.4716797 0-.4716797-.4169922-.7177734-.2666016-.1503906-.2666016-.1503906-1.0527344-.3486328l-.9775391-.2460938-.2264404-.0589599c-.765625-.2093506-.765625-.2093506-1.1544189-.4605713-.7929688-.4990235-.7929688-.4990235-.7929688-1.3808594 0-1.03906251 0-1.03906251.7485352-1.68164063.7485351-.64257813.7485351-.64257813 2.0131836-.64257813zm-7.2529297.02734375c.7792968 0 .7792968 0 1.5107422.36572266.7314453.36572266.7314453.36572266 1.1142578.94677734.3691406.55371094.3691406.55371094.4921875 1.29199221.109375.5058594.109375.5058594.109375 1.6132812h-5.366211l.0132499.2421694c.0756173.946904.0756173.946904.5131173 1.5454283.4921875.6733398.4921875.6733398 1.5244141.6733398.9638672 0 .9638672 0 1.5380859-.6357422.328125-.3691406.328125-.3691406.4648438-.8544921h1.2099609l-.0280273.1650195c-.0738282.3374219-.0738282.3374219-.2898438.7339062-.2700195.4956055-.2700195.4956055-.6049805.8100586-.5605468.546875-.5605468.546875-1.3876953.7382813-.4443359.109375-.4443359.109375-1.0048828.109375-1.3671875 0-1.3671875 0-2.3173828-.9946289s-.9501953-.9946289-.9501953-2.7856446c0-1.7636718 0-1.7636718.9570312-2.86425777.9570313-1.10058594.9570313-1.10058594 2.5019532-1.10058594zm-41.2480469 0c.7792969 0 .7792969 0 1.5107422.36572266s.7314453.36572266 1.1142578.94677734c.3691406.55371094.3691406.55371094.4921875 1.29199221.109375.5058594.109375.5058594.109375 1.6132812h-5.3662109l.0132499.2421694c.0756172.946904.0756172.946904.5131172 1.5454283.4921876.6733398.4921876.6733398 1.5244141.6733398.9638672 0 .9638672 0 1.5380859-.6357422.328125-.3691406.328125-.3691406.4648438-.8544921h1.2099609l-.0280273.1650195c-.0738281.3374219-.0738281.3374219-.2898438.7339062-.2700195.4956055-.2700195.4956055-.6049804.8100586-.5605469.546875-.5605469.546875-1.3876953.7382813-.444336.109375-.444336.109375-1.0048829.109375-1.3671874 0-1.3671874 0-2.3173828-.9946289-.9501953-.9946289-.9501953-.9946289-.9501953-2.7856446 0-1.7636718 0-1.7636718.9570313-2.86425777.9570312-1.10058594.9570312-1.10058594 2.5019531-1.10058594zm-4.8671875-2.59082031v10.07617192h-1.1074219v-1.0185547l-.1262556.1856864c-.3883928.5340401-.3883928.5340401-.8922991.7918526-.5878906.3007813-.5878906.3007813-1.3466796.3007813-1.2236329 0-1.2236329 0-2.1191407-1.0288086s-.8955078-1.0288086-.8955078-2.737793c0-1.5996094 0-1.5996094.8168945-2.77197264.8168946-1.17236328.8168946-1.17236328 2.3344727-1.17236328.8408203 0 .8408203 0 1.4082031.35546875.328125.20507813.328125.20507813.7451172.71777344v-3.69824219zm16.3652344 2.57714844c1.2919922 0 1.2919922 0 2.0986328.4921875.7998047.4921875.7998047.4921875.7998047 1.53124998v4.2177735l.0049133.0910034c.01474.1294555.01474.1294555.0737.2166137.0786132.116211.0786132.116211.3315429.116211.0820313 0 .0820313 0 .1845703-.0102539.1025391-.0102539.1025391-.0102539.21875-.0307617v.9091796l-.1350097.0371705c-.1896973.0499877-.1896973.0499877-.3024903.0653686-.1503906.0205078-.1503906.0205078-.4101562.0205078-.6357422 0-.6357422 0-.9228516-.4511719-.1503906-.2392578-.1503906-.2392578-.211914-.6767578-.3759766.4921875-.3759766.4921875-1.0800782.8544922-.7041015.3623047-.7041015.3623047-1.5517578.3623047-1.0185547 0-1.0185547 0-1.6645508-.6186523-.645996-.6186524-.645996-.6186524-.645996-1.5483399 0-1.0185547 0-1.0185547.6357421-1.5791015.6357422-.5605469.6357422-.5605469 1.6679688-.6904297l1.9619141-.2460938.1153738-.0206473c.3289621-.0770089.3289621-.0770089.452009-.3348214.0820312-.1640625.0820312-.1640625.0820312-.4716797 0-.62890627 0-.62890627-.4477539-.91259767-.4477539-.28369141-.4477539-.28369141-1.2817383-.28369141-.9638672 0-.9638672 0-1.3671875.51953125-.2255859.28710937-.2255859.28710937-.2939453.85449223h-1.1484375l.0100517-.2033591c.0890694-1.19090927.0890694-1.19090927.8683663-1.67994172.8442383-.52978516.8442383-.52978516 1.9584961-.52978516zm6.1455078.17773437v4.86035161l.0049371.1811523c.0246853.4386393.0246853.4386393.1727973.7348633.328125.65625.328125.65625 1.2236328.65625 1.2851562 0 1.2851562 0 1.75-1.1484375.2529297-.6152344.2529297-.6152344.2529297-1.6884766v-3.59570311h1.2304687v7.32128911h-1.1621094l.0136719-1.0800782-.1003515.1616016c-.2100001.3128125-.2100001.3128125-.494375.5425-.7041016.5742187-.7041016.5742187-1.7089844.5742187-1.5654297 0-1.5654297 0-2.1328125-1.0458984-.3076172-.5605469-.3076172-.5605469-.3076172-1.4970703v-4.97656251zm11.15625-2.04394531v2.04394531h1.1689453v1.00488282h-1.1689453v4.77832029l.0053013.1042132c.0318081.297154.0318081.297154.2544643.4084821.1435547.0751953.1435547.0751953.4785156.0751953.0888672 0 .0888672 0 .1914063-.0034179.1025391-.003418.1025391-.003418.2392578-.0170899v.9707032l-.1431749.0372178c-.1450738.0334202-.1450738.0334202-.2977431.0516493-.2290039.0273438-.2290039.0273438-.4956054.0273438-.8613282 0-.8613282 0-1.1689453-.440918-.3076172-.4409179-.3076172-.4409179-.3076172-1.1450195v-4.84667969h-.991211v-1.00488282h.991211v-2.04394531zm-21.8271484-.8203125c.1162109 0 .1162109 0 .2392578.00683594.1230468.00683594.1230468.00683594.2802734.02050781v1.12109375l-.0890808-.00619507c-.1236878-.0083313-.1236878-.0083313-.1877747-.01089477-.0854492-.00341797-.0854492-.00341797-.1606445-.00341797-.5605469 0-.5605469 0-.6699219.29052734-.109375.29052735-.109375.29052735-.109375 1.47998047h1.2167969v.97070313h-1.2304688v6.31640629h-1.2167968v-6.31640629h-1.0185547v-.97070313h1.0185547v-1.1484375l.0101471-.18499756c.0471039-.62506103.0471039-.62506103.2564544-.93609619.4306641-.62890625.4306641-.62890625 1.6611329-.62890625zm18.4912109.14355469v10.04199223h-1.2304688v-10.04199223zm7.4580078 8.55175783v1.4902344h-1.4287109v-1.4902344zm3.4316406-8.55175783v10.04199223h-1.2304687v-10.04199223zm-23.1875 6.31640623-.1209106.0687866c-.1935425.0986939-.1935425.0986939-.4601441.1704712-.3554687.0957032-.3554687.0957032-.6972656.1367188l-.7451172.0957031-.1845703.0274833c-.5332031.0887276-.5332031.0887276-.8203125.2527901-.5673828.3212891-.5673828.3212891-.5673828 1.0253907 0 .5332031 0 .5332031.3896484.8408203.3896485.3076172.3896485.3076172.9228516.3076172.6494141 0 .6494141 0 1.2578125-.3007813 1.0253906-.4990234 1.0253906-.4990234 1.0253906-1.633789zm-21.1367187-2.65234373c-.9296875 0-.9296875 0-1.5073242.7109375-.5776368.71093753-.5776368.71093753-.5776368 2.09179683 0 1.1757813 0 1.1757813.4990235 1.96875.4990234.7929688.4990234.7929688 1.5996093.7929688.8544922 0 .8544922 0 1.4047852-.7348633s.550293-.7348633.550293-2.1088867c0-1.3876953 0-1.3876953-.5673828-2.05419922-.5673828-.66650391-.5673828-.66650391-1.4013672-.66650391zm7.8955078-.03417969c-.8476563 0-.8476563 0-1.421875.61181641-.5742188.61181641-.5742188.61181641-.6083984 1.55517581h4.0673828c-.0751954-.7998047-.0751954-.7998047-.3486328-1.2783203-.5058594-.88867192-.5058594-.88867192-1.6884766-.88867192zm41.2480469 0c-.8476563 0-.8476563 0-1.421875.61181641-.5742188.61181641-.5742188.61181641-.6083985 1.55517581h4.0673828c-.0751953-.7998047-.0751953-.7998047-.3486328-1.2783203-.5058594-.88867192-.5058594-.88867192-1.6884765-.88867192zm-79.6962891-6.19503348v6h-5z" fill="#06c" transform="translate(240 245)"/><path d="m50.8310547 8.10811942c1.2441406 0 1.2441406 0 2.1123047.95361328.868164.9536133.868164.9536133.868164 2.7241211 0 2.3925781 0 2.3925781-1.2509765 3.4179687-.7929688.6494141-.7929688.6494141-1.8457031.6494141-.8271485 0-.8271485 0-1.3876954-.3623047-.328125-.2050781-.328125-.2050781-.7314453-.7041015v3.7392578h-1.2304687v-10.20605472h1.196289v.97070313l.1503907-.19058594c.30625-.363125.30625-.363125.65625-.581875.6220703-.41015625.6220703-.41015625 1.4628906-.41015625zm-36.8310547-5.10811942v15h-14v-8h6v-7zm17.7861328 13.6667132v.6904297h-7.7861328v-.6904297zm64.100586-8.57226566c1.6542968 0 1.6542968 0 2.3857421.97070313.4580079.61523437.4580079.61523437.444336 1.32617183h-1.1621094l-.0226953-.163789c-.0634375-.32156252-.0634375-.32156252-.27125-.59500002-.4238281-.48535156-.4238281-.48535156-1.4697266-.48535156-.6972656 0-.6972656 0-1.0561523.26660156s-.3588867.26660156-.3588867.70410152c0 .4785157 0 .4785157.4716796.765625.2734376.1708985.2734376.1708985.8066407.3007813l.8134765.1982422.2338908.0582467c1.1332967.2903861 1.1332967.2903861 1.543453.5638236.7177734.4716797.7177734.4716797.7177734 1.4833984 0 .9775391 0 .9775391-.7416992 1.6884766s-.7416992.7109375-2.2592773.7109375c-1.6337891 0-1.6337891 0-2.3139649-.7416992s-.6801758-.7416992-.7280273-1.8354492h1.1826172l.0196707.1699218c.0711496.4921875.0711496.4921875.2879464.7734375.4648438.5947266.4648438.5947266 1.6132813.5947266.6835937 0 .6835937 0 1.203125-.2973633s.5195313-.2973633.5195313-.9194336c0-.4716797 0-.4716797-.4169922-.7177734-.2666016-.1503906-.2666016-.1503906-1.0527344-.3486328l-.9775391-.2460938-.2264404-.0589599c-.765625-.2093506-.765625-.2093506-1.1544189-.4605713-.7929688-.4990235-.7929688-.4990235-.7929688-1.3808594 0-1.03906251 0-1.03906251.7485352-1.68164063.7485351-.64257813.7485351-.64257813 2.0131836-.64257813zm-7 0c1.6542968 0 1.6542968 0 2.3857421.97070313.4580079.61523437.4580079.61523437.444336 1.32617183h-1.1621094l-.0226953-.163789c-.0634375-.32156252-.0634375-.32156252-.27125-.59500002-.4238281-.48535156-.4238281-.48535156-1.4697266-.48535156-.6972656 0-.6972656 0-1.0561523.26660156s-.3588867.26660156-.3588867.70410152c0 .4785157 0 .4785157.4716796.765625.2734376.1708985.2734376.1708985.8066407.3007813l.8134765.1982422.2338908.0582467c1.1332967.2903861 1.1332967.2903861 1.543453.5638236.7177734.4716797.7177734.4716797.7177734 1.4833984 0 .9775391 0 .9775391-.7416992 1.6884766s-.7416992.7109375-2.2592773.7109375c-1.6337891 0-1.6337891 0-2.3139649-.7416992s-.6801758-.7416992-.7280273-1.8354492h1.1826172l.0196707.1699218c.0711496.4921875.0711496.4921875.2879464.7734375.4648438.5947266.4648438.5947266 1.6132813.5947266.6835937 0 .6835937 0 1.203125-.2973633s.5195313-.2973633.5195313-.9194336c0-.4716797 0-.4716797-.4169922-.7177734-.2666016-.1503906-.2666016-.1503906-1.0527344-.3486328l-.9775391-.2460938-.2264404-.0589599c-.765625-.2093506-.765625-.2093506-1.1544189-.4605713-.7929688-.4990235-.7929688-.4990235-.7929688-1.3808594 0-1.03906251 0-1.03906251.7485352-1.68164063.7485351-.64257813.7485351-.64257813 2.0131836-.64257813zm-30.6865235-.02050781c1.4150391 0 1.4150391 0 2.3925781.94335938.9775391.94335937.9775391.94335937.9775391 2.77539059 0 1.7705078 0 1.7705078-.8613281 2.9257813-.8613282 1.1552734-.8613282 1.1552734-2.6728516 1.1552734-1.5107422 0-1.5107422 0-2.399414-1.0219726-.8886719-1.0219727-.8886719-1.0219727-.8886719-2.7446289 0-1.8457032 0-1.8457032.9365234-2.93945317.9365235-1.09375.9365235-1.09375 2.515625-1.09375zm23.4335938.04785156c.7792968 0 .7792968 0 1.5107421.36572266.7314454.36572266.7314454.36572266 1.1142579.94677734.3691406.55371094.3691406.55371094.4921875 1.29199221.109375.5058594.109375.5058594.109375 1.6132812h-5.366211l.0132499.2421694c.0756173.946904.0756173.946904.5131173 1.5454283.4921875.6733398.4921875.6733398 1.5244141.6733398.9638672 0 .9638672 0 1.5380859-.6357422.328125-.3691406.328125-.3691406.4648438-.8544921h1.2099609l-.0280273.1650195c-.0738282.3374219-.0738282.3374219-.2898438.7339062-.2700195.4956055-.2700195.4956055-.6049805.8100586-.5605468.546875-.5605468.546875-1.3876953.7382813-.4443359.109375-.4443359.109375-1.0048828.109375-1.3671875 0-1.3671875 0-2.3173828-.9946289s-.9501953-.9946289-.9501953-2.7856446c0-1.7636718 0-1.7636718.9570312-2.86425777.9570313-1.10058594.9570313-1.10058594 2.5019532-1.10058594zm-12.4482422-1.87988281v2.04394531h1.1689453v1.00488282h-1.1689453v4.77832029l.0053013.1042132c.031808.297154.031808.297154.2544643.4084821.1435547.0751953.1435547.0751953.4785156.0751953.0888672 0 .0888672 0 .1914063-.0034179.102539-.003418.102539-.003418.2392578-.0170899v.9707032l-.1431749.0372178c-.1450738.0334202-.1450738.0334202-.2977431.0516493-.2290039.0273438-.2290039.0273438-.4956054.0273438-.8613282 0-.8613282 0-1.1689454-.440918-.3076172-.4409179-.3076172-.4409179-.3076172-1.1450195v-4.84667969h-.9912109v-1.00488282h.9912109v-2.04394531zm-35.2460938 2.078125v7.28710942h-1.2509765v-7.28710942zm9.413086-.19824219c1.4765625 0 1.4765625 0 2.0097656 1.06640625.2871094.57421875.2871094.57421875.2871094 1.54492186v4.8740235h-1.2783203v-5.0859375l-.0057145-.175705c-.0400009-.58992004-.0400009-.58992004-.3600082-.82917786-.3657227-.2734375-.3657227-.2734375-.8920899-.2734375-.7246093 0-.7246093 0-1.2475585.48535157-.5229493.48535159-.5229493.48535159-.5229493 1.62011719v4.2587891h-1.2509765v-4.7783204l-.0036273-.2046596c-.0217634-.5892857-.0217634-.5892857-.1741071-.88225442-.2802734-.51269531-.2802734-.51269531-1.0458984-.51269531-.6972657 0-.6972657 0-1.2680664.54003906-.5708008.54003907-.5708008.54003907-.5708008 1.95507817v3.8828125h-1.2304688v-7.32128911h1.2167969v1.0390625l.1435547-.17184787c.3531901-.40920681.3531901-.40920681.6494141-.61428494.6083984-.41699219.6083984-.41699219 1.3808593-.41699219.875 0 .875 0 1.4082031.43066407.3007813.24609375.3007813.24609375.546875.72460937.4101563-.58789062.4101563-.58789062.9638672-.87158203.553711-.28369141.553711-.28369141 1.2441407-.28369141zm22.8798828 0c.0341797 0 .0341797 0 .1162109.00683594.0820313.00683594.0820313.00683594.2802734.02734375v1.29882813l-.1051025-.01708985-.0965576-.0102539c-.0922852-.00683594-.0922852-.00683594-.2016602-.00683594-.9296875 0-.9296875 0-1.4287109.59814458-.4990234.5981445-.4990234.5981445-.4990234 1.3774414v4.2109375h-1.2304688v-7.32128911h1.1689453v1.26464844l.0495257-.10874721c.1741071-.33607701.1741071-.33607701.6545759-.79017857.5605469-.52978516.5605469-.52978516 1.2919922-.52978516zm7.0751953 5.99511721v1.4902344h-1.428711v-1.4902344zm3.4316406-8.55175783v10.04199223h-1.2304687v-10.04199223zm-18.5732422 3.58203125c-1.1279297 0-1.1279297 0-1.640625.86132808-.5126953.8613282-.5126953.8613282-.5126953 2.078125 0 1.1689454 0 1.1689454.5126953 1.9482422.5126953.7792969.5126953.7792969 1.6269532.7792969 1.2236328 0 1.2236328 0 1.6782226-.9262695.4545898-.9262696.4545898-.9262696.4545898-2.0610352 0-1.0253906 0-1.0253906-.328125-1.6679687-.5195312-1.01171878-.5195312-1.01171878-1.7910156-1.01171878zm-7.6152344.04101562c-1.2783203 0-1.2783203 0-1.75 1.27832036-.2529296.6835937-.2529296.6835937-.2529296 1.7363281 0 .8476562 0 .8476562.2529296 1.4423828.4785157 1.1347656.4785157 1.1347656 1.75 1.1347656.8613282 0 .8613282 0 1.432129-.7211914.5708007-.7211914.5708007-.7211914.5708007-2.1567383 0-.875 0-.875-.2529297-1.5039062-.4785156-1.20996096-.4785156-1.20996096-1.75-1.20996096zm31.0078126.00683594c-.8476563 0-.8476563 0-1.421875.61181641-.5742188.61181641-.5742188.61181641-.6083985 1.55517581h4.0673828c-.0751953-.7998047-.0751953-.7998047-.3486328-1.2783203-.5058594-.88867192-.5058594-.88867192-1.6884765-.88867192zm-76.5585938-6.19503348v6h-5zm28.9394531 2.56515067v1.39453125h-1.2509765v-1.39453125z" fill="#bd3c39" transform="translate(240 270)"/><path d="m14 3v15h-14v-8h6v-7zm17.7861328 13.6667132v.6904297h-7.7861328v-.6904297zm67.2382813-8.57226566c1.6542969 0 1.6542969 0 2.3857419.97070313.458008.61523437.458008.61523437.444336 1.32617183h-1.162109l-.022695-.163789c-.063438-.32156252-.063438-.32156252-.27125-.59500002-.4238286-.48535156-.4238286-.48535156-1.4697271-.48535156-.6972656 0-.6972656 0-1.0561523.26660156s-.3588867.26660156-.3588867.70410152c0 .4785157 0 .4785157.4716797.765625.2734375.1708985.2734375.1708985.8066406.3007813l.8134766.1982422.2338907.0582467c1.1332965.2903861 1.1332965.2903861 1.5434525.5638236.717774.4716797.717774.4716797.717774 1.4833984 0 .9775391 0 .9775391-.741699 1.6884766s-.741699.7109375-2.2592776.7109375c-1.6337891 0-1.6337891 0-2.3139649-.7416992-.6801757-.7416992-.6801757-.7416992-.7280273-1.8354492h1.1826172l.0196707.1699218c.0711496.4921875.0711496.4921875.2879465.7734375.4648437.5947266.4648437.5947266 1.6132812.5947266.6835938 0 .6835938 0 1.2031252-.2973633.519531-.2973633.519531-.2973633.519531-.9194336 0-.4716797 0-.4716797-.416992-.7177734-.266602-.1503906-.266602-.1503906-1.0527345-.3486328l-.9775391-.2460938-.2264404-.0589599c-.765625-.2093506-.765625-.2093506-1.1544189-.4605713-.7929688-.4990235-.7929688-.4990235-.7929688-1.3808594 0-1.03906251 0-1.03906251.7485352-1.68164063.7485351-.64257813.7485351-.64257813 2.0131836-.64257813zm-7 0c1.6542968 0 1.6542968 0 2.3857421.97070313.4580079.61523437.4580079.61523437.444336 1.32617183h-1.1621094l-.0226953-.163789c-.0634375-.32156252-.0634375-.32156252-.27125-.59500002-.4238281-.48535156-.4238281-.48535156-1.4697266-.48535156-.6972656 0-.6972656 0-1.0561523.26660156s-.3588867.26660156-.3588867.70410152c0 .4785157 0 .4785157.4716797.765625.2734375.1708985.2734375.1708985.8066406.3007813l.8134766.1982422.2338907.0582467c1.1332967.2903861 1.1332967.2903861 1.543453.5638236.7177734.4716797.7177734.4716797.7177734 1.4833984 0 .9775391 0 .9775391-.7416992 1.6884766s-.7416992.7109375-2.2592773.7109375c-1.6337891 0-1.6337891 0-2.3139649-.7416992-.6801757-.7416992-.6801757-.7416992-.7280273-1.8354492h1.1826172l.0196707.1699218c.0711496.4921875.0711496.4921875.2879465.7734375.4648437.5947266.4648437.5947266 1.6132812.5947266.6835938 0 .6835938 0 1.203125-.2973633.5195313-.2973633.5195313-.2973633.5195313-.9194336 0-.4716797 0-.4716797-.4169922-.7177734-.2666016-.1503906-.2666016-.1503906-1.0527344-.3486328l-.9775391-.2460938-.2264404-.0589599c-.765625-.2093506-.765625-.2093506-1.1544189-.4605713-.7929688-.4990235-.7929688-.4990235-.7929688-1.3808594 0-1.03906251 0-1.03906251.7485352-1.68164063.7485351-.64257813.7485351-.64257813 2.0131836-.64257813zm-7.2529297.02734375c.7792968 0 .7792968 0 1.5107422.36572266.7314453.36572266.7314453.36572266 1.1142578.94677734.3691406.55371094.3691406.55371094.4921875 1.29199221.109375.5058594.109375.5058594.109375 1.6132812h-5.366211l.0132499.2421694c.0756173.946904.0756173.946904.5131173 1.5454283.4921875.6733398.4921875.6733398 1.5244141.6733398.9638672 0 .9638672 0 1.5380859-.6357422.328125-.3691406.328125-.3691406.4648438-.8544921h1.2099609l-.0280273.1650195c-.0738282.3374219-.0738282.3374219-.2898438.7339062-.2700195.4956055-.2700195.4956055-.6049805.8100586-.5605468.546875-.5605468.546875-1.3876953.7382813-.4443359.109375-.4443359.109375-1.0048828.109375-1.3671875 0-1.3671875 0-2.3173828-.9946289s-.9501953-.9946289-.9501953-2.7856446c0-1.7636718 0-1.7636718.9570312-2.86425777.9570313-1.10058594.9570313-1.10058594 2.5019532-1.10058594zm-41.2480469 0c.7792969 0 .7792969 0 1.5107422.36572266s.7314453.36572266 1.1142578.94677734c.3691406.55371094.3691406.55371094.4921875 1.29199221.109375.5058594.109375.5058594.109375 1.6132812h-5.3662109l.0132499.2421694c.0756172.946904.0756172.946904.5131172 1.5454283.4921876.6733398.4921876.6733398 1.5244141.6733398.9638672 0 .9638672 0 1.5380859-.6357422.328125-.3691406.328125-.3691406.4648438-.8544921h1.2099609l-.0280273.1650195c-.0738281.3374219-.0738281.3374219-.2898438.7339062-.2700195.4956055-.2700195.4956055-.6049804.8100586-.5605469.546875-.5605469.546875-1.3876953.7382813-.444336.109375-.444336.109375-1.0048829.109375-1.3671874 0-1.3671874 0-2.3173828-.9946289-.9501953-.9946289-.9501953-.9946289-.9501953-2.7856446 0-1.7636718 0-1.7636718.9570313-2.86425777.9570312-1.10058594.9570312-1.10058594 2.5019531-1.10058594zm-4.8671875-2.59082031v10.07617192h-1.1074219v-1.0185547l-.1262556.1856864c-.3883928.5340401-.3883928.5340401-.8922991.7918526-.5878906.3007813-.5878906.3007813-1.3466796.3007813-1.2236329 0-1.2236329 0-2.1191407-1.0288086s-.8955078-1.0288086-.8955078-2.737793c0-1.5996094 0-1.5996094.8168945-2.77197264.8168946-1.17236328.8168946-1.17236328 2.3344727-1.17236328.8408203 0 .8408203 0 1.4082031.35546875.328125.20507813.328125.20507813.7451172.71777344v-3.69824219zm16.3652344 2.57714844c1.2919922 0 1.2919922 0 2.0986328.4921875.7998047.4921875.7998047.4921875.7998047 1.53124998v4.2177735l.0049133.0910034c.01474.1294555.01474.1294555.0737.2166137.0786132.116211.0786132.116211.3315429.116211.0820313 0 .0820313 0 .1845703-.0102539.1025391-.0102539.1025391-.0102539.21875-.0307617v.9091796l-.1350097.0371705c-.1896973.0499877-.1896973.0499877-.3024903.0653686-.1503906.0205078-.1503906.0205078-.4101562.0205078-.6357422 0-.6357422 0-.9228516-.4511719-.1503906-.2392578-.1503906-.2392578-.211914-.6767578-.3759766.4921875-.3759766.4921875-1.0800782.8544922-.7041015.3623047-.7041015.3623047-1.5517578.3623047-1.0185547 0-1.0185547 0-1.6645508-.6186523-.645996-.6186524-.645996-.6186524-.645996-1.5483399 0-1.0185547 0-1.0185547.6357421-1.5791015.6357422-.5605469.6357422-.5605469 1.6679688-.6904297l1.9619141-.2460938.1153738-.0206473c.3289621-.0770089.3289621-.0770089.452009-.3348214.0820312-.1640625.0820312-.1640625.0820312-.4716797 0-.62890627 0-.62890627-.4477539-.91259767-.4477539-.28369141-.4477539-.28369141-1.2817383-.28369141-.9638672 0-.9638672 0-1.3671875.51953125-.2255859.28710937-.2255859.28710937-.2939453.85449223h-1.1484375l.0100517-.2033591c.0890694-1.19090927.0890694-1.19090927.8683663-1.67994172.8442383-.52978516.8442383-.52978516 1.9584961-.52978516zm6.1455078.17773437v4.86035161l.0049371.1811523c.0246853.4386393.0246853.4386393.1727973.7348633.328125.65625.328125.65625 1.2236328.65625 1.2851562 0 1.2851562 0 1.75-1.1484375.2529297-.6152344.2529297-.6152344.2529297-1.6884766v-3.59570311h1.2304687v7.32128911h-1.1621094l.0136719-1.0800782-.1003515.1616016c-.2100001.3128125-.2100001.3128125-.494375.5425-.7041016.5742187-.7041016.5742187-1.7089844.5742187-1.5654297 0-1.5654297 0-2.1328125-1.0458984-.3076172-.5605469-.3076172-.5605469-.3076172-1.4970703v-4.97656251zm11.15625-2.04394531v2.04394531h1.1689453v1.00488282h-1.1689453v4.77832029l.0053013.1042132c.0318081.297154.0318081.297154.2544643.4084821.1435547.0751953.1435547.0751953.4785156.0751953.0888672 0 .0888672 0 .1914063-.0034179.1025391-.003418.1025391-.003418.2392578-.0170899v.9707032l-.1431749.0372178c-.1450738.0334202-.1450738.0334202-.2977431.0516493-.2290039.0273438-.2290039.0273438-.4956054.0273438-.8613282 0-.8613282 0-1.1689453-.440918-.3076172-.4409179-.3076172-.4409179-.3076172-1.1450195v-4.84667969h-.991211v-1.00488282h.991211v-2.04394531zm-21.8271484-.8203125c.1162109 0 .1162109 0 .2392578.00683594.1230468.00683594.1230468.00683594.2802734.02050781v1.12109375l-.0890808-.00619507c-.1236878-.0083313-.1236878-.0083313-.1877747-.01089477-.0854492-.00341797-.0854492-.00341797-.1606445-.00341797-.5605469 0-.5605469 0-.6699219.29052734-.109375.29052735-.109375.29052735-.109375 1.47998047h1.2167969v.97070313h-1.2304688v6.31640629h-1.2167968v-6.31640629h-1.0185547v-.97070313h1.0185547v-1.1484375l.0101471-.18499756c.0471039-.62506103.0471039-.62506103.2564544-.93609619.4306641-.62890625.4306641-.62890625 1.6611329-.62890625zm18.4912109.14355469v10.04199223h-1.2304688v-10.04199223zm7.4580078 8.55175783v1.4902344h-1.4287109v-1.4902344zm3.4316406-8.55175783v10.04199223h-1.2304687v-10.04199223zm-23.1875 6.31640623-.1209106.0687866c-.1935425.0986939-.1935425.0986939-.4601441.1704712-.3554687.0957032-.3554687.0957032-.6972656.1367188l-.7451172.0957031-.1845703.0274833c-.5332031.0887276-.5332031.0887276-.8203125.2527901-.5673828.3212891-.5673828.3212891-.5673828 1.0253907 0 .5332031 0 .5332031.3896484.8408203.3896485.3076172.3896485.3076172.9228516.3076172.6494141 0 .6494141 0 1.2578125-.3007813 1.0253906-.4990234 1.0253906-.4990234 1.0253906-1.633789zm-21.1367187-2.65234373c-.9296875 0-.9296875 0-1.5073242.7109375-.5776368.71093753-.5776368.71093753-.5776368 2.09179683 0 1.1757813 0 1.1757813.4990235 1.96875.4990234.7929688.4990234.7929688 1.5996093.7929688.8544922 0 .8544922 0 1.4047852-.7348633s.550293-.7348633.550293-2.1088867c0-1.3876953 0-1.3876953-.5673828-2.05419922-.5673828-.66650391-.5673828-.66650391-1.4013672-.66650391zm7.8955078-.03417969c-.8476563 0-.8476563 0-1.421875.61181641-.5742188.61181641-.5742188.61181641-.6083984 1.55517581h4.0673828c-.0751954-.7998047-.0751954-.7998047-.3486328-1.2783203-.5058594-.88867192-.5058594-.88867192-1.6884766-.88867192zm41.2480469 0c-.8476563 0-.8476563 0-1.421875.61181641-.5742188.61181641-.5742188.61181641-.6083985 1.55517581h4.0673828c-.0751953-.7998047-.0751953-.7998047-.3486328-1.2783203-.5058594-.88867192-.5058594-.88867192-1.6884765-.88867192zm-79.6962891-6.19503348v6h-5z" fill="#06c" transform="translate(240 320)"/><path d="m14 3v15h-14v-8h6v-7zm17.7861328 13.6667132v.6904297h-7.7861328v-.6904297zm78.1210942-8.57226566c1.654296 0 1.654296 0 2.385742.97070313.458008.61523437.458008.61523437.444336 1.32617183h-1.16211l-.022695-.163789c-.063437-.32156252-.063437-.32156252-.27125-.59500002-.423828-.48535156-.423828-.48535156-1.469727-.48535156-.697265 0-.697265 0-1.056152.26660156s-.358887.26660156-.358887.70410152c0 .4785157 0 .4785157.47168.765625.273438.1708985.273438.1708985.806641.3007813l.813476.1982422.233891.0582467c1.133297.2903861 1.133297.2903861 1.543453.5638236.717773.4716797.717773.4716797.717773 1.4833984 0 .9775391 0 .9775391-.741699 1.6884766s-.741699.7109375-2.259277.7109375c-1.633789 0-1.633789 0-2.313965-.7416992s-.680176-.7416992-.728027-1.8354492h1.182617l.019671.1699218c.071149.4921875.071149.4921875.287946.7734375.464844.5947266.464844.5947266 1.613281.5947266.683594 0 .683594 0 1.203125-.2973633.519532-.2973633.519532-.2973633.519532-.9194336 0-.4716797 0-.4716797-.416993-.7177734-.266601-.1503906-.266601-.1503906-1.052734-.3486328l-.977539-.2460938-.22644-.0589599c-.765625-.2093506-.765625-.2093506-1.154419-.4605713-.792969-.4990235-.792969-.4990235-.792969-1.3808594 0-1.03906251 0-1.03906251.748535-1.68164063.748535-.64257813.748535-.64257813 2.013184-.64257813zm-7 0c1.654296 0 1.654296 0 2.385742.97070313.458008.61523437.458008.61523437.444336 1.32617183h-1.16211l-.022695-.163789c-.063438-.32156252-.063438-.32156252-.27125-.59500002-.423828-.48535156-.423828-.48535156-1.469727-.48535156-.697265 0-.697265 0-1.056152.26660156s-.358887.26660156-.358887.70410152c0 .4785157 0 .4785157.47168.765625.273438.1708985.273438.1708985.806641.3007813l.813476.1982422.233891.0582467c1.133297.2903861 1.133297.2903861 1.543453.5638236.717773.4716797.717773.4716797.717773 1.4833984 0 .9775391 0 .9775391-.741699 1.6884766s-.741699.7109375-2.259277.7109375c-1.633789 0-1.633789 0-2.313965-.7416992-.6801758-.7416992-.6801758-.7416992-.7280273-1.8354492h1.1826173l.019671.1699218c.071149.4921875.071149.4921875.287946.7734375.464844.5947266.464844.5947266 1.613281.5947266.683594 0 .683594 0 1.203125-.2973633.519532-.2973633.519532-.2973633.519532-.9194336 0-.4716797 0-.4716797-.416993-.7177734-.266601-.1503906-.266601-.1503906-1.052734-.3486328l-.977539-.2460938-.22644-.0589599c-.765625-.2093506-.765625-.2093506-1.154419-.4605713-.792969-.4990235-.792969-.4990235-.792969-1.3808594 0-1.03906251 0-1.03906251.748535-1.68164063.748535-.64257813.748535-.64257813 2.013184-.64257813zm-32.6826176 0c1.6542968 0 1.6542968 0 2.3857422.97070313.4580078.61523437.4580078.61523437.4443359 1.32617183h-1.1621094l-.0226953-.163789c-.0634375-.32156252-.0634375-.32156252-.27125-.59500002-.4238281-.48535156-.4238281-.48535156-1.4697266-.48535156-.6972656 0-.6972656 0-1.0561523.26660156s-.3588867.26660156-.3588867.70410152c0 .4785157 0 .4785157.4716797.765625.2734375.1708985.2734375.1708985.8066406.3007813l.8134766.1982422.2338907.0582467c1.1332968.2903861 1.1332968.2903861 1.543453.5638236.7177734.4716797.7177734.4716797.7177734 1.4833984 0 .9775391 0 .9775391-.7416992 1.6884766s-.7416992.7109375-2.2592773.7109375c-1.6337891 0-1.6337891 0-2.3139649-.7416992-.6801757-.7416992-.6801757-.7416992-.7280273-1.8354492h1.1826172l.0196707.1699218c.0711496.4921875.0711496.4921875.2879465.7734375.4648437.5947266.4648437.5947266 1.6132812.5947266.6835938 0 .6835938 0 1.203125-.2973633.5195313-.2973633.5195313-.2973633.5195313-.9194336 0-.4716797 0-.4716797-.4169922-.7177734-.2666016-.1503906-.2666016-.1503906-1.0527344-.3486328l-.977539-.2460938-.2264405-.0589599c-.765625-.2093506-.765625-.2093506-1.1544189-.4605713-.7929688-.4990235-.7929688-.4990235-.7929688-1.3808594 0-1.03906251 0-1.03906251.7485352-1.68164063.7485351-.64257813.7485351-.64257813 2.0131836-.64257813zm-15.1347656-.02050781c1.415039 0 1.415039 0 2.3925781.94335938.977539.94335937.977539.94335937.977539 2.77539059 0 1.7705078 0 1.7705078-.8613281 2.9257813-.8613281 1.1552734-.8613281 1.1552734-2.6728516 1.1552734-1.5107421 0-1.5107421 0-2.399414-1.0219726-.8886719-1.0219727-.8886719-1.0219727-.8886719-2.7446289 0-1.8457032 0-1.8457032.9365235-2.93945317.9365234-1.09375.9365234-1.09375 2.515625-1.09375zm40.5644531.04785156c.7792969 0 .7792969 0 1.5107422.36572266s.7314453.36572266 1.1142578.94677734c.3691406.55371094.3691406.55371094.4921875 1.29199221.109375.5058594.109375.5058594.109375 1.6132812h-5.366211l.0132499.2421694c.0756173.946904.0756173.946904.5131173 1.5454283.4921875.6733398.4921875.6733398 1.5244141.6733398.9638672 0 .9638672 0 1.5380859-.6357422.328125-.3691406.328125-.3691406.4648438-.8544921h1.2099609l-.0280273.1650195c-.0738282.3374219-.0738282.3374219-.2898438.7339062-.2700195.4956055-.2700195.4956055-.6049804.8100586-.5605469.546875-.5605469.546875-1.3876954.7382813-.4443359.109375-.4443359.109375-1.0048828.109375-1.3671875 0-1.3671875 0-2.3173828-.9946289s-.9501953-.9946289-.9501953-2.7856446c0-1.7636718 0-1.7636718.9570313-2.86425777.9570312-1.10058594.9570312-1.10058594 2.5019531-1.10058594zm-17.8964844 0c.7792969 0 .7792969 0 1.5107422.36572266s.7314453.36572266 1.1142578.94677734c.3691406.55371094.3691406.55371094.4921875 1.29199221.109375.5058594.109375.5058594.109375 1.6132812h-5.3662109l.0132499.2421694c.0756172.946904.0756172.946904.5131172 1.5454283.4921876.6733398.4921876.6733398 1.5244141.6733398.9638672 0 .9638672 0 1.5380859-.6357422.328125-.3691406.328125-.3691406.4648438-.8544921h1.2099609l-.0280273.1650195c-.0738281.3374219-.0738281.3374219-.2898438.7339062-.2700195.4956055-.2700195.4956055-.6049804.8100586-.5605469.546875-.5605469.546875-1.3876953.7382813-.444336.109375-.444336.109375-1.0048829.109375-1.3671874 0-1.3671874 0-2.3173828-.9946289-.9501953-.9946289-.9501953-.9946289-.9501953-2.7856446 0-1.7636718 0-1.7636718.9570313-2.86425777.9570312-1.10058594.9570312-1.10058594 2.5019531-1.10058594zm-35.1982422-.01367187c1.2919922 0 1.2919922 0 2.0986328.4921875.7998047.4921875.7998047.4921875.7998047 1.53124998v4.2177735l.0049133.0910034c.01474.1294555.01474.1294555.0737.2166137.0786133.116211.0786133.116211.331543.116211.0820312 0 .0820312 0 .1845703-.0102539.102539-.0102539.102539-.0102539.21875-.0307617v.9091796l-.1350098.0371705c-.1896973.0499877-.1896973.0499877-.3024902.0653686-.1503906.0205078-.1503906.0205078-.4101563.0205078-.6357422 0-.6357422 0-.9228515-.4511719-.1503907-.2392578-.1503907-.2392578-.2119141-.6767578-.3759766.4921875-.3759766.4921875-1.0800781.8544922-.7041016.3623047-.7041016.3623047-1.5517578.3623047-1.0185547 0-1.0185547 0-1.6645508-.6186523-.6459961-.6186524-.6459961-.6186524-.6459961-1.5483399 0-1.0185547 0-1.0185547.6357422-1.5791015.6357422-.5605469.6357422-.5605469 1.6679687-.6904297l1.9619141-.2460938.1153739-.0206473c.328962-.0770089.328962-.0770089.4520089-.3348214.0820313-.1640625.0820313-.1640625.0820313-.4716797 0-.62890627 0-.62890627-.447754-.91259767-.4477539-.28369141-.4477539-.28369141-1.2817382-.28369141-.9638672 0-.9638672 0-1.3671875.51953125-.225586.28710937-.225586.28710937-.2939453.85449223h-1.1484376l.0100517-.2033591c.0890694-1.19090927.0890694-1.19090927.8683663-1.67994172.8442383-.52978516.8442383-.52978516 1.9584961-.52978516zm-7.0478515-.03417969c1.2373046 0 1.2373046 0 2.0131835.6015625s.7758789.6015625.9331055 2.07128907h-1.196289l-.0369699-.1886858c-.1280692-.5520369-.1280692-.5520369-.4620536-.93582592-.3896484-.44775391-.3896484-.44775391-1.2509765-.44775391-1.1757813 0-1.1757813 0-1.6816407 1.14843753-.328125.7451172-.328125.7451172-.328125 1.8388672 0 1.1005859 0 1.1005859.4648438 1.852539.4648437.7519531.4648437.7519531 1.4628906.7519531.765625 0 .765625 0 1.2133789-.4682617s.4477539-.4682617.6186524-1.2817383h1.196289l-.0384521.2372403c-.2349854 1.2749261-.2349854 1.2749261-.9869385 1.8921543-.8203125.6733398-.8203125.6733398-2.0986328.6733398-1.4355469 0-1.4355469 0-2.2900391-1.0493164s-.8544922-1.0493164-.8544922-2.621582c0-1.9277344 0-1.9277344.9365235-3.00097658.9365234-1.07324219.9365234-1.07324219 2.3857422-1.07324219zm25.6416015.21191406v4.86035161l.0049371.1811523c.0246853.4386393.0246853.4386393.1727973.7348633.328125.65625.328125.65625 1.2236328.65625 1.2851563 0 1.2851563 0 1.75-1.1484375.2529297-.6152344.2529297-.6152344.2529297-1.6884766v-3.59570311h1.2304687v7.32128911h-1.1621093l.0136718-1.0800782-.1003515.1616016c-.21.3128125-.21.3128125-.494375.5425-.7041016.5742187-.7041016.5742187-1.7089844.5742187-1.5654297 0-1.5654297 0-2.1328125-1.0458984-.3076172-.5605469-.3076172-.5605469-.3076172-1.4970703v-4.97656251zm22.6064453-2.72070312v10.04199223h-1.2304687v-10.04199223zm3.5683594 8.55175783v1.4902344h-1.4287109v-1.4902344zm3.4316406-8.55175783v10.04199223h-1.2304687v-10.04199223zm-40.0859375 2.55664062c.0341797 0 .0341797 0 .116211.00683594.0820312.00683594.0820312.00683594.2802734.02734375v1.29882813l-.1051025-.01708985-.0965577-.0102539c-.0922851-.00683594-.0922851-.00683594-.2016601-.00683594-.9296875 0-.9296875 0-1.428711.59814458-.4990234.5981445-.4990234.5981445-.4990234 1.3774414v4.2109375h-1.2304687v-7.32128911h1.1689453l-.0007344 1.26314621.05026-.10724498c.1450893-.28006417.1450893-.28006417.5029297-.64208984l.1516462-.14808873c.5605469-.52978516.5605469-.52978516 1.2919922-.52978516zm4.381836 1.02539063c-1.1279297 0-1.1279297 0-1.640625.86132808-.5126953.8613282-.5126953.8613282-.5126953 2.078125 0 1.1689454 0 1.1689454.5126953 1.9482422.5126953.7792969.5126953.7792969 1.6269531.7792969 1.2236328 0 1.2236328 0 1.6782226-.9262695.4545899-.9262696.4545899-.9262696.4545899-2.0610352 0-1.0253906 0-1.0253906-.328125-1.6679687-.5195313-1.01171878-.5195313-1.01171878-1.7910156-1.01171878zm-10.828125 2.73437498-.1209107.0687866c-.1935425.0986939-.1935425.0986939-.460144.1704712-.3554688.0957032-.3554688.0957032-.6972656.1367188l-.7451172.0957031-.1845704.0274833c-.5332031.0887276-.5332031.0887276-.8203124.2527901-.5673829.3212891-.5673829.3212891-.5673829 1.0253907 0 .5332031 0 .5332031.3896485.8408203.3896484.3076172.3896484.3076172.9228515.3076172.6494141 0 .6494141 0 1.2578125-.3007813 1.0253907-.4990234 1.0253907-.4990234 1.0253907-1.633789zm51.3515625-2.68652342c-.8476563 0-.8476563 0-1.421875.61181641-.5742188.61181641-.5742188.61181641-.6083985 1.55517581h4.0673828c-.0751953-.7998047-.0751953-.7998047-.3486328-1.2783203-.5058593-.88867192-.5058593-.88867192-1.6884765-.88867192zm-17.8964844 0c-.8476563 0-.8476563 0-1.421875.61181641-.5742188.61181641-.5742188.61181641-.6083984 1.55517581h4.0673828c-.0751954-.7998047-.0751954-.7998047-.3486328-1.2783203-.5058594-.88867192-.5058594-.88867192-1.6884766-.88867192zm-72.6826172-6.19503348v6h-5z" fill="#06c" transform="translate(240 345)"/></g></g></svg>