<svg xmlns="http://www.w3.org/2000/svg" width="570" height="117" viewBox="0 0 570 117">
  <defs>
    <filter id="pagebuilder-html-code-editor-a" width="113.6%" height="197.3%" x="-6.8%" y="-48.6%" filterUnits="objectBoundingBox">
      <feOffset dy="2" in="SourceAlpha" result="shadowOffsetOuter1"/>
      <feGaussianBlur in="shadowOffsetOuter1" result="shadowBlurOuter1" stdDeviation="3.5"/>
      <feColorMatrix in="shadowBlurOuter1" result="shadowMatrixOuter1" values="0 0 0 0 0   0 0 0 0 0   0 0 0 0 0  0 0 0 0.246640079 0"/>
      <feMerge>
        <feMergeNode in="shadowMatrixOuter1"/>
        <feMergeNode in="SourceGraphic"/>
      </feMerge>
    </filter>
  </defs>
  <g fill="none" fill-rule="evenodd">
    <rect width="570" height="117" fill="#FFF"/>
    <rect width="539" height="63" x="14" y="38" fill="#FAFAFA" stroke="#999"/>
    <text fill="#A5A5A5" font-family="Helvetica" font-size="14" letter-spacing=".2">
      <tspan x="164" y="75">Enter HTML, CSS or JavaScript code</tspan>
    </text>
    <g filter="url(#pagebuilder-html-code-editor-a)" transform="translate(161 14)">
      <rect width="265" height="37" fill="#FFF" stroke="#B9B9B9"/>
      <path fill="#373331" d="M241.06035,28 L249.889587,28 L251,17 L240,17 L241.06035,28 L241.06035,28 Z M248.037798,12.9400566 L248.037798,10.6752121 C248.037798,10.3019793 247.766238,10 247.432169,10 L243.594987,10 C243.260405,10 242.989871,10.3025448 242.989871,10.6752121 L242.989871,12.9027333 C241.69356,13.0655985 240.344474,13.3811499 239,13.9200754 L239,16 L252,16 L252,13.864656 C252,13.864656 250.413172,13.2544769 248.036773,12.9400566 L248.037798,12.9400566 L248.037798,12.9400566 Z M247,12 C246.065098,11.9595186 245.057316,11.9485777 244,11.9876003 L244,11.2173596 C244,11.0977389 244.148036,11 244.334788,11 L246.662365,11 C246.850256,11 247,11.0977389 247,11.2173596 L247,12 L247,12 Z"/>
      <text fill="#333" font-family="Helvetica" font-size="14" letter-spacing=".2">
        <tspan x="35" y="24">HTML Code</tspan>
      </text>
      <g fill="#373331" transform="translate(12 10)">
        <rect width="4" height="4"/>
        <rect width="4" height="4" y="5"/>
        <rect width="4" height="4" y="10"/>
        <rect width="4" height="4" y="15"/>
        <rect width="4" height="4" x="5"/>
        <rect width="4" height="4" x="5" y="5"/>
        <rect width="4" height="4" x="5" y="10"/>
        <rect width="4" height="4" x="5" y="15"/>
      </g>
      <path fill="#373331" d="M170.007391,22.8003665 C169.631658,22.5479174 169.25269,22.2685948 168.870808,21.9625355 C167.287801,20.6934744 166.265564,19.4405462 166.222964,19.387992 L166,19.1137937 L166.222964,18.8396565 C166.265204,18.78698 167.287681,17.5343574 168.870808,16.2645019 C171.025384,14.5369362 173.086478,13.6614203 174.99871,13.6614203 C176.027039,13.6614203 177.09831,13.9143481 178.203795,14.4164477 L182.521464,10 L183.678244,11.1041817 L167.160318,28 L166.003538,26.8958183 L170.007391,22.8003665 Z M176.414796,16.2463751 C175.989097,16.0281301 175.508057,15.9052391 174.99871,15.9052391 C173.260001,15.9052391 171.849857,17.3410069 171.849857,19.112877 C171.849857,19.6365706 171.97275,20.1307083 172.190706,20.5671027 L176.414796,16.2463751 Z M172.699433,24.1677134 L174.537507,22.2875887 C174.688047,22.3100871 174.842045,22.3217372 174.99871,22.3217372 C176.739339,22.3217372 178.149963,20.8870082 178.149963,19.112877 C178.149963,18.9483641 178.137805,18.7867486 178.114355,18.6289107 L180.729928,15.953499 C180.862593,16.0538993 180.995625,16.1575688 181.129012,16.2645019 C182.712079,17.5340519 183.734856,18.7864912 183.778056,18.8396565 L184,19.1137937 L183.778056,19.387992 C183.734796,19.4406073 182.712319,20.6932911 181.129012,21.9625355 C178.974496,23.6894901 176.912142,24.5650671 174.99871,24.5650671 C174.25399,24.5650671 173.486427,24.4321315 172.699433,24.1677134 L172.699433,24.1677134 Z"/>
      <path fill="#373331" fill-rule="nonzero" d="M216.407164,26.352199 L216.407164,14.9017383 L207.740585,14.9017383 L207.740585,26.352199 L216.407164,26.352199 Z M216.407164,13.2939681 C217.258889,13.2939681 218,14.0218763 218,14.9025553 L218,26.353016 C218,27.233695 217.258889,28 216.407164,28 L207.740585,28 C206.88886,28 206.147748,27.233695 206.147748,26.353016 L206.147748,14.9025553 C206.147748,14.0218763 206.88886,13.2939681 207.740585,13.2939681 L216.407164,13.2939681 L216.407164,13.2939681 Z M214.036871,10 L214.036871,11.6469841 L204.555702,11.6469841 L204.555702,23.0974448 L203,23.0974448 L203,11.6469841 C203,10.7663051 203.703977,10 204.555702,10 L214.036871,10 Z"/>
      <rect width="35" height="35" x="122" y="1" fill="#EEE"/>
      <path fill="#373331" d="M149,19.9801726 L149,17.9329181 L148.710971,17.8388092 L146.518057,17.1214216 L145.933314,15.7092738 L147.0596,13.3298097 L145.6088,11.8816639 L145.337771,12.0189703 L143.281657,13.0634249 L141.869429,12.4792298 L140.980229,10 L138.933371,10 L138.838743,10.2905548 L138.122857,12.4823153 L136.711143,13.067539 L134.33,11.9428604 L132.881257,13.3910062 L133.020114,13.6620193 L134.0636,15.7190446 L133.478857,17.1306782 L131,18.0193132 L131,20.0681104 L131.289029,20.161705 L133.482971,20.8780641 L134.067714,22.290212 L132.944514,24.6707045 L134.3912,26.1188504 L134.662229,25.9815439 L136.719371,24.9365751 L138.132629,25.5212845 L139.019771,28 L141.067657,28 L141.162286,27.7099594 L141.878171,25.5171704 L143.2904,24.9314325 L145.67,26.0576538 L147.119771,24.6084795 L145.937429,22.2809554 L146.522171,20.8688075 L149,19.9801726 L149,19.9801726 Z M139.999462,22 C138.342657,22 137,20.6573427 137,18.9994621 C137,17.3426573 138.342657,16 139.999462,16 C141.657343,16 143,17.3426573 143,18.9994621 C143,20.6573427 141.657343,22 139.999462,22 L139.999462,22 Z"/>
    </g>
    <rect width="569" height="116" x=".5" y=".5" stroke="#999"/>
  </g>
</svg>
