<svg xmlns="http://www.w3.org/2000/svg" width="583" height="281" viewBox="0 0 583 281">
  <g fill="none" fill-rule="evenodd">
    <rect width="583" height="281" fill="#FFF"/>
    <g transform="translate(76 93)">
      <text fill="#222" font-family="Helvetica" font-size="14">
        <tspan x="25" y="16">adminhtml</tspan>
      </text>
      <g transform="translate(0 2)">
        <polygon fill="#7C7C7C" points="0 0 6 0 8 3 16 3 16 16 0 16"/>
        <polygon fill="#BBB" points="3 7 20 7 17 16 0 16"/>
      </g>
    </g>
    <g transform="translate(96 118)">
      <text fill="#222" font-family="Helvetica" font-size="14">
        <tspan x="25" y="16">web</tspan>
      </text>
      <g transform="translate(0 2)">
        <polygon fill="#7C7C7C" points="0 0 6 0 8 3 16 3 16 16 0 16"/>
        <polygon fill="#BBB" points="3 7 20 7 17 16 0 16"/>
      </g>
    </g>
    <g transform="translate(116 143)">
      <text fill="#222" font-family="Helvetica" font-size="14">
        <tspan x="25" y="16">css</tspan>
      </text>
      <g transform="translate(0 2)">
        <polygon fill="#7C7C7C" points="0 0 6 0 8 3 16 3 16 16 0 16"/>
        <polygon fill="#BBB" points="3 7 20 7 17 16 0 16"/>
      </g>
    </g>
    <g transform="translate(136 168)">
      <text fill="#222" font-family="Helvetica" font-size="14">
        <tspan x="25" y="16">images</tspan>
      </text>
      <g transform="translate(0 2)">
        <polygon fill="#7C7C7C" points="0 0 6 0 8 3 16 3 16 16 0 16"/>
        <polygon fill="#BBB" points="3 7 20 7 17 16 0 16"/>
      </g>
    </g>
    <g transform="translate(156 193)">
      <text fill="#222" font-family="Helvetica" font-size="14">
        <tspan x="25" y="16">switcher</tspan>
      </text>
      <g transform="translate(0 2)">
        <polygon fill="#7C7C7C" points="0 0 6 0 8 3 16 3 16 16 0 16"/>
        <polygon fill="#BBB" points="3 7 20 7 17 16 0 16"/>
      </g>
    </g>
    <g transform="translate(55.5 68)">
      <text fill="#222" font-family="Helvetica" font-size="14">
        <tspan x="25" y="16">view</tspan>
      </text>
      <g transform="translate(0 2)">
        <polygon fill="#7C7C7C" points="0 0 6 0 8 3 16 3 16 16 0 16"/>
        <polygon fill="#BBB" points="3 7 20 7 17 16 0 16"/>
      </g>
    </g>
    <g transform="translate(35.5 43)">
      <text fill="#222" font-family="Helvetica" font-size="14">
        <tspan x="25" y="16">PageBuilder</tspan>
      </text>
      <g transform="translate(0 2)">
        <polygon fill="#7C7C7C" points="0 0 6 0 8 3 16 3 16 16 0 16"/>
        <polygon fill="#BBB" points="3 7 20 7 17 16 0 16"/>
      </g>
    </g>
    <g transform="translate(15.5 18)">
      <text fill="#222" font-family="Helvetica" font-size="14">
        <tspan x="25" y="16">Magento</tspan>
      </text>
      <g transform="translate(0 2)">
        <polygon fill="#7C7C7C" points="0 0 6 0 8 3 16 3 16 16 0 16"/>
        <polygon fill="#BBB" points="3 7 20 7 17 16 0 16"/>
      </g>
    </g>
    <g fill-rule="nonzero" transform="translate(181 219.607)">
      <text fill="#06C" font-family="Helvetica" font-size="14">
        <tspan x="24" y="14">switcher-desktop.svg</tspan>
      </text>
      <path fill="#0050C9" d="M14.42125,10.511875 L13.591875,11.985625 C13.314375,12.479375 12.665625,12.615625 12.2125,12.275625 L8.741875,9.6725 L9.25625,13.95 C9.323125,14.50875 8.8875,15 8.325625,15 L6.675,15 C6.113125,15 5.676875,14.50875 5.744375,13.950625 L6.25875,9.673125 L2.7875,12.275625 C2.334375,12.615625 1.685625,12.47875 1.408125,11.985625 L0.57875,10.511875 C0.299375,10.015625 0.523125,9.386875 1.05375,9.179375 L5.1575,7.57 L1.020625,5.850625 C0.50375,5.635625 0.28875,5.01875 0.56125,4.529375 L1.39375,3.033125 C1.675,2.525625 2.345625,2.394375 2.79875,2.7575 L6.278125,5.5475 L5.741875,1.04875 C5.67625,0.490625 6.111875,0 6.673125,0 L8.32625,0 C8.888125,0 9.32375,0.490625 9.256875,1.048125 L8.720625,5.546875 L12.2,2.756875 C12.653125,2.39375 13.32375,2.525 13.605625,3.0325 L14.438125,4.52875 C14.71,5.018125 14.495625,5.635 13.97875,5.85 L9.841875,7.569375 L13.945625,9.17875 C14.476875,9.386875 14.700625,10.015625 14.42125,10.511875 Z" transform="translate(0 1.393)"/>
    </g>
    <g fill-rule="nonzero" transform="translate(181 244.607)">
      <text fill="#06C" font-family="Helvetica" font-size="14">
        <tspan x="24" y="14">switcher-mobile.svg</tspan>
      </text>
      <path fill="#0050C9" d="M14.42125,10.511875 L13.591875,11.985625 C13.314375,12.479375 12.665625,12.615625 12.2125,12.275625 L8.741875,9.6725 L9.25625,13.95 C9.323125,14.50875 8.8875,15 8.325625,15 L6.675,15 C6.113125,15 5.676875,14.50875 5.744375,13.950625 L6.25875,9.673125 L2.7875,12.275625 C2.334375,12.615625 1.685625,12.47875 1.408125,11.985625 L0.57875,10.511875 C0.299375,10.015625 0.523125,9.386875 1.05375,9.179375 L5.1575,7.57 L1.020625,5.850625 C0.50375,5.635625 0.28875,5.01875 0.56125,4.529375 L1.39375,3.033125 C1.675,2.525625 2.345625,2.394375 2.79875,2.7575 L6.278125,5.5475 L5.741875,1.04875 C5.67625,0.490625 6.111875,0 6.673125,0 L8.32625,0 C8.888125,0 9.32375,0.490625 9.256875,1.048125 L8.720625,5.546875 L12.2,2.756875 C12.653125,2.39375 13.32375,2.525 13.605625,3.0325 L14.438125,4.52875 C14.71,5.018125 14.495625,5.635 13.97875,5.85 L9.841875,7.569375 L13.945625,9.17875 C14.476875,9.386875 14.700625,10.015625 14.42125,10.511875 Z" transform="translate(0 1.393)"/>
    </g>
    <rect width="582" height="280" x=".5" y=".5" stroke="#999"/>
    <text fill="#06C" font-family="Helvetica-Bold, Helvetica" font-size="14" font-weight="bold">
      <tspan x="404.097" y="95">Viewport switcher </tspan> <tspan x="416.166" y="114">button images</tspan>
    </text>
    <path fill="#06C" fill-rule="nonzero" d="M376.574927,220.213653 L377.567483,221.94998 L376.69932,222.446259 L368.061,227.384 L368.900993,227.378742 L368.914827,229.378694 L368.075,229.384 L376.780641,234.202826 L377.655587,234.687047 L376.687145,236.436939 L375.8122,235.952718 L363.765797,229.285883 L362.210338,228.425046 L363.75374,227.542773 L375.706763,220.709931 L376.574927,220.213653 Z M374.90085,227.33724 L374.914684,229.337192 L373.914707,229.344109 L371.914755,229.357943 L370.914779,229.36486 L370.900945,227.364908 L371.900921,227.357991 L373.900873,227.344157 L374.90085,227.33724 Z M380.820113,226.982361 L380.995824,228.974628 L379.999691,229.062483 L378.996007,229.146342 L378.996007,229.146342 L377.98766,229.221285 L376.990083,229.290858 L376.850938,227.295704 L377.848515,227.226131 L378.838591,227.152546 L378.838591,227.152546 L379.82398,227.070217 L380.820113,226.982361 Z M386.732744,226.231963 L387.023254,228.210751 L386.03386,228.356006 L385.035816,228.497503 L385.035816,228.497503 L384.032883,228.629659 L383.040827,228.755457 L382.789231,226.771345 L383.781287,226.645548 L384.764767,226.515955 L384.764767,226.515955 L385.743349,226.377218 L386.732744,226.231963 Z M392.584569,225.127219 L392.996298,227.08438 L392.017718,227.290245 L391.02921,227.492793 L391.02921,227.492793 L390.035599,227.685603 L389.052935,227.870999 L388.682144,225.905671 L389.664807,225.720275 L390.637944,225.531438 L390.637944,225.531438 L391.605988,225.333084 L392.584569,225.127219 Z M398.344906,223.653441 L398.8828,225.579751 L397.919645,225.848698 L396.94557,226.114916 L396.94557,226.114916 L395.966205,226.371056 L394.997376,226.618787 L394.501915,224.681129 L395.470743,224.433398 L396.428875,224.182812 L396.428875,224.182812 L397.381751,223.922388 L398.344906,223.653441 Z M403.99326,221.797763 L404.660526,223.683169 L403.717823,224.016802 L402.763277,224.348488 L402.763277,224.348488 L401.803287,224.669826 L400.853209,224.981841 L400.22918,223.081686 L401.179257,222.769672 L402.117598,222.455581 L402.117598,222.455581 L403.050557,222.131395 L403.99326,221.797763 Z M409.457162,219.574124 L410.253618,221.408697 L409.336332,221.806925 L408.405975,222.204352 L408.405975,222.204352 L407.470058,222.591242 L406.543687,222.967852 L405.790466,221.115109 L406.716837,220.738498 L407.631089,220.360565 L407.631089,220.360565 L408.539876,219.972352 L409.457162,219.574124 Z M414.798287,216.947116 L415.72327,218.720364 L414.836646,219.182855 L413.936611,219.645573 L413.936611,219.645573 L413.030962,220.097682 L412.133621,220.539019 L411.250946,218.744337 L412.148287,218.302999 L413.03272,217.861482 L413.03272,217.861482 L413.911663,217.409608 L414.798287,216.947116 Z M419.929545,213.951551 L420.978311,215.654516 L420.126829,216.178899 L419.262346,216.704284 L419.262346,216.704284 L418.392259,217.21911 L417.528635,217.723248 L416.52036,215.996002 L417.383983,215.491864 L418.23375,214.989061 L418.23375,214.989061 L419.078062,214.475934 L419.929545,213.951551 Z M424.821353,210.61264 L425.98663,212.238102 L425.173899,212.820741 L424.347921,213.405677 L424.347921,213.405677 L423.516394,213.980188 L422.690378,214.543834 L421.563085,212.891802 L422.389102,212.328155 L423.201552,211.766824 L423.201552,211.766824 L424.008621,211.195279 L424.821353,210.61264 Z M429.489051,206.931384 L430.762501,208.473566 L429.99141,209.110291 L429.207067,209.750617 L429.207067,209.750617 L428.417285,210.380748 L427.632101,211.000011 L426.393576,209.429643 L427.17876,208.81038 L427.950991,208.194252 L427.950991,208.194252 L428.71796,207.568109 L429.489051,206.931384 Z M433.896423,202.953539 L435.26794,204.409198 L434.54011,205.094956 L433.800422,205.784477 L433.800422,205.784477 L433.055466,206.464143 L432.313113,207.134152 L430.973094,205.649447 L431.715447,204.979438 L432.444566,204.314221 L432.444566,204.314221 L433.168594,203.639297 L433.896423,202.953539 Z M437.986704,198.763593 L439.446333,200.130883 L438.762688,200.860698 L438.068496,201.593901 L438.068496,201.593901 L437.365263,202.321015 L436.66626,203.036133 L435.236023,201.638127 L435.935027,200.923008 L436.623488,200.211167 L436.623488,200.211167 L437.303059,199.493407 L437.986704,198.763593 Z M441.867793,194.241728 L443.413514,195.510879 L442.778939,196.28374 L442.133611,197.060985 L442.133611,197.060985 L441.479066,197.832033 L440.827756,198.590844 L439.310132,197.288224 L439.961442,196.529413 L440.601851,195.775017 L440.601851,195.775017 L441.233217,195.014588 L441.867793,194.241728 Z M445.439931,189.474787 L447.066625,190.638344 L446.484846,191.451691 L445.892289,192.270468 L445.892289,192.270468 L445.290414,193.082993 L444.690741,193.883238 L443.090251,192.683891 L443.689924,191.883647 L444.2786,191.088941 L444.2786,191.088941 L444.858152,190.288134 L445.439931,189.474787 Z M448.681303,184.486547 L450.382111,185.538806 L449.855981,186.389211 L449.319329,187.245957 L449.319329,187.245957 L448.773343,188.096457 L448.228455,188.934966 L446.551438,187.845188 L447.096327,187.00668 L447.630311,186.174873 L447.630311,186.174873 L448.155173,185.336951 L448.681303,184.486547 Z M451.583796,179.292839 L453.35067,180.229939 L452.88212,181.113376 L452.403317,182.004312 L452.403317,182.004312 L451.915243,182.889059 L451.427406,183.761994 L449.681537,182.78632 L450.169374,181.913385 L450.646836,181.047873 L450.646836,181.047873 L451.115246,180.176276 L451.583796,179.292839 Z M454.137672,173.92494 L455.961678,174.745306 L455.551495,175.657309 L455.131491,176.577958 L455.131491,176.577958 L454.702358,177.492525 L454.272717,178.395525 L452.466717,177.536243 L452.896358,176.633243 L453.31638,175.738094 L453.31638,175.738094 L453.727489,174.836943 L454.137672,173.92494 Z M456.345019,168.405205 L458.216988,169.109286 L457.864948,170.045271 L457.504069,170.989965 L457.504069,170.989965 L457.13429,171.928741 L456.762984,172.857251 L454.905963,172.114638 L455.27727,171.186128 L455.63947,170.26659 L455.63947,170.26659 L455.992978,169.34119 L456.345019,168.405205 Z M458.20468,162.781783 L460.115502,163.372343 L459.820222,164.327754 L459.51694,165.292239 L459.51694,165.292239 L459.205034,166.250996 L458.890964,167.200396 L456.992165,166.572256 L457.306234,165.622857 L457.612032,164.682873 L457.612032,164.682873 L457.9094,163.737194 L458.20468,162.781783 Z M459.743351,157.026784 L461.684825,157.507073 L461.444681,158.47781 L461.197521,159.457383 L461.197521,159.457383 L460.942062,160.431449 L460.683851,161.397538 L458.751674,160.881115 L459.009885,159.915026 L459.260607,158.95902 L459.260607,158.95902 L459.503207,157.997521 L459.743351,157.026784 Z M460.962338,151.201563 L462.926833,151.576742 L462.739244,152.558989 L462.545162,153.551697 L462.545162,153.551697 L462.3431,154.539113 L462.138297,155.517916 L460.180691,155.10831 L460.385494,154.129507 L460.584032,153.159305 L460.584032,153.159305 L460.774749,152.18381 L460.962338,151.201563 Z M461.878996,145.328259 L463.859863,145.604239 L463.721873,146.594672 L463.578481,147.594086 L463.578481,147.594086 L463.42749,148.588462 L463.273295,149.576502 L461.297214,149.268112 L461.45141,148.280071 L461.599939,147.301907 L461.599939,147.301907 L461.741006,146.318693 L461.878996,145.328259 Z M462.514626,139.398384 L464.506268,139.581047 L464.414936,140.576867 L464.318914,141.58194 L464.318914,141.58194 L464.215648,142.58221 L464.10914,143.576522 L462.120516,143.363507 L462.227024,142.369195 L462.328722,141.384111 L462.328722,141.384111 L462.423295,140.394204 L462.514626,139.398384 Z M462.884419,133.449806 L464.882126,133.545533 L464.834263,134.544387 L464.782376,135.55296 L464.782376,135.55296 L464.723592,136.556959 L464.661586,137.555035 L462.665434,137.431022 L462.727441,136.432946 L462.785396,135.443102 L462.785396,135.443102 L462.836555,134.44866 L462.884419,133.449806 Z M463.007542,127.492514 L465.007486,127.507542 L464.999972,128.507514 L464.989093,129.51709 L464.989093,129.51709 L464.971661,130.522319 L464.951019,131.522106 L462.951446,131.480824 L462.972087,130.481037 L462.989291,129.488948 L462.989291,129.488948 L463.000028,128.492486 L463.007542,127.492514 Z"/>
  </g>
</svg>
