<svg xmlns="http://www.w3.org/2000/svg" width="619" height="580">
  <defs/>
  <filter id="a">
    <feColorMatrix in="SourceGraphic" values="0 0 0 0 0.290222 0 0 0 0 0.290175 0 0 0 0 0.290237 0 0 0 1.000000 0"/>
  </filter>
  <filter id="b">
    <feColorMatrix in="SourceGraphic" values="0 0 0 0 0.290222 0 0 0 0 0.290175 0 0 0 0 0.290237 0 0 0 1.000000 0"/>
  </filter>
  <filter id="c">
    <feColorMatrix in="SourceGraphic" values="0 0 0 0 0.290222 0 0 0 0 0.290175 0 0 0 0 0.290237 0 0 0 1.000000 0"/>
  </filter>
  <filter id="d">
    <feColorMatrix in="SourceGraphic" values="0 0 0 0 0.290222 0 0 0 0 0.290175 0 0 0 0 0.290237 0 0 0 1.000000 0"/>
  </filter>
  <g fill="none" fill-rule="evenodd">
    <path fill="#fff" d="M0 0h619v580H0z"/>
    <text fill="#222" font-family="Helvetica" font-size="14" transform="translate(40 68)">
      <tspan x="25" y="16">etc</tspan>
    </text>
    <path fill="#7c7c7c" d="M40 70h6l2 3h8v13H40z"/>
    <path fill="#bbb" d="M43 77h17l-3 9H40z"/>
    <text fill="#222" font-family="Helvetica" font-size="14" transform="translate(40 118)">
      <tspan x="25" y="16">Magento_PageBuilder</tspan>
    </text>
    <path fill="#7c7c7c" d="M40 120h6l2 3h8v13H40z"/>
    <path fill="#bbb" d="M43 127h17l-3 9H40z"/>
    <text fill="#222" font-family="Helvetica" font-size="14" transform="translate(65 143)">
      <tspan x="25" y="16">web</tspan>
    </text>
    <path fill="#7c7c7c" d="M65 145h6l2 3h8v13H65z"/>
    <path fill="#bbb" d="M68 152h17l-3 9H65z"/>
    <text fill="#222" font-family="Helvetica" font-size="14" transform="translate(90 168)">
      <tspan x="25" y="16">template</tspan>
    </text>
    <path fill="#7c7c7c" d="M90 170h6l2 3h8v13H90z"/>
    <path fill="#bbb" d="M93 177h17l-3 9H90z"/>
    <text fill="#222" font-family="Helvetica" font-size="14" transform="translate(115 193)">
      <tspan x="25" y="16">viewport</tspan>
    </text>
    <path fill="#7c7c7c" d="M115 195h6l2 3h8v13h-16z"/>
    <path fill="#bbb" d="M118 202h17l-3 9h-17z"/>
    <text fill="#222" font-family="Helvetica" font-size="14" transform="translate(40 243)">
      <tspan x="25" y="16">web</tspan>
    </text>
    <path fill="#7c7c7c" d="M40 245h6l2 3h8v13H40z"/>
    <path fill="#bbb" d="M43 252h17l-3 9H40z"/>
    <g filter="url(#a)" transform="translate(40 518)">
      <path fill="#bbb" d="M39.935 8.156c.86 0 .86 0 1.503.424.35.24.35.24.711.697v-.923h1.135v6.658l-.005.303c-.04 1.182-.04 1.182-.405 1.899-.766 1.49-.766 1.49-2.892 1.49-1.182 0-1.182 0-1.989-.53-.806-.53-.806-.53-.902-1.658h1.25l.035.158c.1.379.1.379.321.601.417.41.417.41 1.313.41 1.415 0 1.415 0 1.852-.998.26-.588.26-.588.24-2.098-.37.56-.37.56-.89.834-.519.273-.519.273-1.373.273-1.19 0-1.19 0-2.082-.844-.892-.844-.892-.844-.892-2.793 0-1.839 0-1.839.9-2.87.898-1.033.898-1.033 2.17-1.033zm77.054-.048c1.244 0 1.244 0 2.113.954.868.953.868.953.868 2.724 0 2.392 0 2.392-1.251 3.418-.793.65-.793.65-1.846.65-.827 0-.827 0-1.388-.363-.328-.205-.328-.205-.731-.704v3.74h-1.23V8.32h1.196v.97l.15-.19c.306-.363.306-.363.656-.582.622-.41.622-.41 1.463-.41zm-15.572 0c1.244 0 1.244 0 2.112.954.868.953.868.953.868 2.724 0 2.392 0 2.392-1.25 3.418-.793.65-.793.65-1.846.65-.827 0-.827 0-1.388-.363-.328-.205-.328-.205-.731-.704v3.74h-1.23V8.32h1.195v.97l.15-.19c.307-.363.307-.363.657-.582.622-.41.622-.41 1.463-.41zM14.12 3v15H0v-8h6.052V3zm36.643 5.094c1.654 0 1.654 0 2.385.971.458.615.458.615.445 1.326H52.43l-.023-.163c-.063-.322-.063-.322-.271-.595-.424-.486-.424-.486-1.47-.486-.697 0-.697 0-1.056.267-.359.266-.359.266-.359.704 0 .478 0 .478.472.766.273.17.273.17.806.3l.814.199.234.058c1.133.29 1.133.29 1.543.564.718.471.718.471.718 1.483 0 .978 0 .978-.742 1.688s-.742.711-2.26.711c-1.633 0-1.633 0-2.313-.741s-.68-.742-.728-1.836h1.183l.02.17c.07.492.07.492.287.774.465.594.465.594 1.613.594.684 0 .684 0 1.204-.297.52-.297.52-.297.52-.92 0-.471 0-.471-.418-.717-.267-.15-.267-.15-1.053-.349l-.977-.246-.227-.059c-.765-.21-.765-.21-1.154-.46C48 11.3 48 11.3 48 10.419c0-1.04 0-1.04.749-1.682.748-.643.748-.643 2.013-.643zm30.775-.02c1.415 0 1.415 0 2.393.943.977.944.977.944.977 2.776 0 1.77 0 1.77-.861 2.925-.861 1.156-.861 1.156-2.673 1.156-1.51 0-1.51 0-2.4-1.022-.888-1.022-.888-1.022-.888-2.745 0-1.846 0-1.846.936-2.94.937-1.093.937-1.093 2.516-1.093zm-48.925.048c.78 0 .78 0 1.511.366.731.365.731.365 1.114.946.37.554.37.554.492 1.292.11.506.11.506.11 1.614h-5.366l.013.242c.076.947.076.947.513 1.545.492.674.492.674 1.524.674.964 0 .964 0 1.539-.636.328-.37.328-.37.464-.855h1.21l-.028.165c-.074.338-.074.338-.29.734-.27.496-.27.496-.605.81-.56.547-.56.547-1.387.739-.445.109-.445.109-1.005.109-1.367 0-1.367 0-2.318-.995s-.95-.994-.95-2.785c0-1.764 0-1.764.957-2.865.957-1.1.957-1.1 2.502-1.1zm34.057-.014c1.292 0 1.292 0 2.099.492.8.492.8.492.8 1.532v4.217l.004.091c.015.13.015.13.074.217.079.116.079.116.332.116.082 0 .082 0 .184-.01.103-.01.103-.01.219-.03v.908l-.135.037c-.19.05-.19.05-.303.066-.15.02-.15.02-.41.02-.636 0-.636 0-.923-.45-.15-.24-.15-.24-.212-.678-.376.493-.376.493-1.08.855-.704.362-.704.362-1.551.362-1.019 0-1.019 0-1.665-.618-.646-.62-.646-.62-.646-1.549 0-1.018 0-1.018.636-1.579.636-.56.636-.56 1.668-.69l1.962-.246.115-.021c.329-.077.329-.077.452-.335.082-.164.082-.164.082-.472 0-.628 0-.628-.448-.912-.447-.284-.447-.284-1.281-.284-.964 0-.964 0-1.368.52-.225.287-.225.287-.294.854h-1.148l.01-.203c.09-1.191.09-1.191.868-1.68.845-.53.845-.53 1.959-.53zm6.405-1.866v2.044h1.17V9.29h-1.17v4.778l.005.104c.032.297.032.297.255.409.144.075.144.075.478.075.09 0 .09 0 .192-.003.102-.004.102-.004.24-.018v.971l-.144.037c-.145.034-.145.034-.298.052-.229.027-.229.027-.495.027-.862 0-.862 0-1.17-.44-.307-.441-.307-.441-.307-1.146V9.291h-.991V8.286h.991V6.242zm-16.338 0v2.044h1.17V9.29h-1.17v4.778l.006.104c.031.297.031.297.254.409.144.075.144.075.479.075.088 0 .088 0 .191-.003.103-.004.103-.004.24-.018v.971l-.144.037c-.145.034-.145.034-.298.052-.229.027-.229.027-.495.027-.862 0-.862 0-1.17-.44-.307-.441-.307-.441-.307-1.146V9.291h-.991V8.286h.991V6.242zm50.326-.711v3.746l.144-.175c.352-.416.352-.416.643-.604.594-.39.594-.39 1.483-.39 1.593 0 1.593 0 2.16 1.114.308.609.308.609.308 1.689v4.696h-1.265v-4.614l-.003-.195c-.023-.659-.023-.659-.202-.988-.335-.601-.335-.601-1.258-.601-.765 0-.765 0-1.387.526-.623.526-.623.526-.623 1.99v3.882h-1.23V5.531zm-78.961 2.59a.68.68 0 01.066.004l.098.008.232.023v1.299l-.105-.017-.097-.01c-.092-.007-.092-.007-.201-.007-.93 0-.93 0-1.429.598s-.499.598-.499 1.377v4.211h-1.23V8.286h1.168V9.55l.05-.11c.174-.335.174-.335.655-.79.56-.53.56-.53 1.292-.53zm48.624.199v7.287h-1.251V8.32zm19.154 5.797v1.49H94.45v-1.49zm-5.947-5.995c1.558 0 1.558 0 2.105 1.087.3.594.3.594.3 1.702v4.696h-1.25v-4.614l-.006-.216c-.027-.522-.027-.522-.192-.864-.328-.684-.328-.684-1.19-.684-.437 0-.437 0-.718.09-.505.15-.505.15-.888.6-.308.363-.308.363-.4.75-.092.385-.092.385-.092 1.103v3.835h-1.23V8.286h1.168v1.039l.15-.176c.453-.507.453-.507.95-.747.582-.28.582-.28 1.293-.28zm-27.597 0c.034 0 .034 0 .116.007.082.006.082.006.28.027v1.299l-.105-.017-.096-.01c-.093-.007-.093-.007-.202-.007-.93 0-.93 0-1.429.598s-.499.598-.499 1.377v4.211h-1.23V8.286h1.169V9.55l.05-.11c.173-.335.173-.335.654-.79.56-.53.56-.53 1.292-.53zm-15.948.198v7.287h-1.251V8.32zm35.116.827c-1.128 0-1.128 0-1.64.862-.513.86-.513.86-.513 2.078 0 1.169 0 1.169.512 1.948.513.78.513.78 1.627.78 1.224 0 1.224 0 1.678-.927.455-.926.455-.926.455-2.061 0-1.026 0-1.026-.328-1.668-.52-1.012-.52-1.012-1.791-1.012zm-13.166 2.735l-.121.068c-.194.099-.194.099-.46.17-.356.097-.356.097-.697.138l-.746.095-.184.028c-.533.088-.533.088-.82.253-.568.32-.568.32-.568 1.025 0 .533 0 .533.39.84.39.308.39.308.923.308.65 0 .65 0 1.258-.3 1.025-.5 1.025-.5 1.025-1.634zm32.799-2.694c-1.279 0-1.279 0-1.75 1.279-.253.683-.253.683-.253 1.736 0 .848 0 .848.253 1.442.478 1.135.478 1.135 1.75 1.135.861 0 .861 0 1.432-.721.57-.721.57-.721.57-2.157 0-.875 0-.875-.252-1.504-.479-1.21-.479-1.21-1.75-1.21zm15.572 0c-1.278 0-1.278 0-1.75 1.279-.253.683-.253.683-.253 1.736 0 .848 0 .848.253 1.442.478 1.135.478 1.135 1.75 1.135.861 0 .861 0 1.432-.721s.57-.721.57-2.157c0-.875 0-.875-.252-1.504-.479-1.21-.479-1.21-1.75-1.21zm-76.549.055c-1.299 0-1.299 0-1.777 1.217-.253.65-.253.65-.253 1.702 0 1.237 0 1.237.502 1.883s.503.646 1.35.646c1.327 0 1.327 0 1.867-1.196.3-.677.3-.677.3-1.58 0-1.36 0-1.36-.56-2.016-.56-.656-.56-.656-1.429-.656zm-7.622-.048c-.848 0-.848 0-1.422.612s-.574.612-.608 1.555h4.067c-.075-.8-.075-.8-.348-1.278-.506-.889-.506-.889-1.689-.889zM5.043 3v6H0zm71.683 2.565V6.96h-1.251V5.565zm-30.338 0V6.96h-1.251V5.565z"/>
    </g>
    <g filter="url(#b)" transform="translate(40 543)">
      <path fill="#bbb" d="M14 3v15H0v-8h6V3zm25.627 5.122c.78 0 .78 0 1.51.366s.732.365 1.115.946c.37.554.37.554.492 1.292.11.506.11.506.11 1.614h-5.367l.014.242c.075.947.075.947.513 1.545.492.674.492.674 1.524.674.964 0 .964 0 1.538-.636.328-.37.328-.37.465-.855h1.21l-.028.165c-.074.338-.074.338-.29.734-.27.496-.27.496-.605.81-.56.547-.56.547-1.388.739-.444.109-.444.109-1.004.109-1.368 0-1.368 0-2.318-.995s-.95-.994-.95-2.785c0-1.764 0-1.764.957-2.865.957-1.1.957-1.1 2.502-1.1zm19.448 0c.78 0 .78 0 1.51.366s.732.365 1.115.946c.37.554.37.554.492 1.292.11.506.11.506.11 1.614h-5.366l.013.242c.075.947.075.947.513 1.545.492.674.492.674 1.524.674.964 0 .964 0 1.538-.636.329-.37.329-.37.465-.855h1.21l-.028.165c-.074.338-.074.338-.29.734-.27.496-.27.496-.605.81-.56.547-.56.547-1.387.739-.445.109-.445.109-1.005.109-1.367 0-1.367 0-2.318-.995-.95-.994-.95-.994-.95-2.785 0-1.764 0-1.764.957-2.865.957-1.1.957-1.1 2.502-1.1zm-32.682-1.88v2.044h1.169V9.29h-1.17v4.778l.006.104c.032.297.032.297.254.409.144.075.144.075.479.075.089 0 .089 0 .191-.003.103-.004.103-.004.24-.018v.971l-.144.037c-.145.034-.145.034-.297.052-.23.027-.23.027-.496.027-.861 0-.861 0-1.169-.44-.308-.441-.308-.441-.308-1.146V9.291h-.99V8.286h.99V6.242zm3.63-.711v3.746l.143-.175c.352-.416.352-.416.643-.604.594-.39.594-.39 1.483-.39 1.593 0 1.593 0 2.16 1.114.308.609.308.609.308 1.689v4.696h-1.265v-4.614l-.003-.195c-.023-.659-.023-.659-.202-.988-.335-.601-.335-.601-1.258-.601-.765 0-.765 0-1.387.526-.623.526-.623.526-.623 1.99v3.882h-1.23V5.531zm21.895 2.59c1.477 0 1.477 0 2.01 1.067.287.574.287.574.287 1.545v4.874h-1.278v-5.086l-.006-.175c-.04-.59-.04-.59-.36-.83-.366-.273-.366-.273-.892-.273-.725 0-.725 0-1.248.485-.523.486-.523.486-.523 1.62v4.26h-1.25v-4.78l-.004-.204c-.022-.59-.022-.59-.175-.882-.28-.513-.28-.513-1.045-.513-.698 0-.698 0-1.268.54-.571.54-.571.54-.571 1.955v3.883h-1.23V8.286h1.216v1.039l.144-.172c.353-.41.353-.41.649-.614.608-.417.608-.417 1.38-.417.876 0 .876 0 1.41.43.3.247.3.247.546.725.41-.588.41-.588.964-.872.554-.283.554-.283 1.244-.283zm13.617 5.996v1.49h-1.429v-1.49zm3.063-5.831l1.681 2.577 1.702-2.577 1.498.034-2.468 3.534 2.577 3.753h-1.572l-1.819-2.748-1.763 2.748h-1.559l2.577-3.753-2.447-3.568zm13.658-.164c1.476 0 1.476 0 2.01 1.066.287.574.287.574.287 1.545v4.874h-1.279v-5.086l-.005-.175c-.04-.59-.04-.59-.36-.83-.366-.273-.366-.273-.892-.273-.725 0-.725 0-1.248.485-.523.486-.523.486-.523 1.62v4.26h-1.25v-4.78l-.005-.204c-.021-.59-.021-.59-.174-.882-.28-.513-.28-.513-1.046-.513-.697 0-.697 0-1.268.54-.57.54-.57.54-.57 1.955v3.883h-1.23V8.286h1.216v1.039l.144-.172c.353-.41.353-.41.649-.614.608-.417.608-.417 1.38-.417.876 0 .876 0 1.409.43.3.247.3.247.547.725.41-.588.41-.588.964-.872.553-.283.553-.283 1.244-.283zm5.373-2.557v10.042h-1.23V5.565zm-48.077 3.63c-.848 0-.848 0-1.422.612s-.574.612-.609 1.555h4.068c-.075-.8-.075-.8-.349-1.278-.506-.889-.506-.889-1.688-.889zm19.448 0c-.848 0-.848 0-1.422.612s-.574.612-.608 1.555h4.067c-.075-.8-.075-.8-.349-1.278-.505-.889-.505-.889-1.688-.889zM5 3v6H0z"/>
    </g>
    <text fill="#222" font-family="Helvetica" font-size="14" transform="translate(65 268)">
      <tspan x="25" y="16">css</tspan>
    </text>
    <path fill="#7c7c7c" d="M65 270h6l2 3h8v13H65z"/>
    <path fill="#bbb" d="M68 277h17l-3 9H65z"/>
    <text fill="#222" font-family="Helvetica" font-size="14" transform="translate(65 419)">
      <tspan x="25" y="16">images</tspan>
    </text>
    <path fill="#7c7c7c" d="M65 421h6l2 3h8v13H65z"/>
    <path fill="#bbb" d="M68 428h17l-3 9H65z"/>
    <text fill="#222" font-family="Helvetica" font-size="14" transform="translate(90 444)">
      <tspan x="25" y="16">switcher</tspan>
    </text>
    <path fill="#7c7c7c" d="M90 446h6l2 3h8v13H90z"/>
    <path fill="#bbb" d="M93 453h17l-3 9H90z"/>
    <text fill="#222" font-family="Helvetica" font-size="14" transform="translate(15 43)">
      <tspan x="25" y="16">PageBuilderAdminTheme</tspan>
    </text>
    <path fill="#7c7c7c" d="M15 45h6l2 3h8v13H15z"/>
    <path fill="#bbb" d="M18 52h17l-3 9H15z"/>
    <text fill="#222" font-family="Helvetica" font-size="14" transform="translate(90 293)">
      <tspan x="25" y="16">source</tspan>
    </text>
    <path fill="#7c7c7c" d="M90 295h6l2 3h8v13H90z"/>
    <path fill="#bbb" d="M93 302h17l-3 9H90z"/>
    <text fill="#222" font-family="Helvetica" font-size="14" transform="translate(115 318)">
      <tspan x="25" y="16">viewport-switcher</tspan>
    </text>
    <path fill="#7c7c7c" d="M115 320h6l2 3h8v13h-16z"/>
    <path fill="#bbb" d="M118 327h17l-3 9h-17z"/>
    <text fill="#222" font-family="Helvetica" font-size="14" transform="translate(433 68)">
      <tspan x="25" y="16">etc</tspan>
    </text>
    <path fill="#7c7c7c" d="M433 70h6l2 3h8v13h-16z"/>
    <path fill="#bbb" d="M436 77h17l-3 9h-17z"/>
    <g filter="url(#c)" transform="translate(433 143)">
      <path fill="#06c" fill-rule="nonzero" d="M91.491 8.32v8.374l-.004.194c-.028.655-.028.655-.256 1.002-.43.67-.43.67-1.633.67-.09 0-.09 0-.188-.007-.1-.006-.1-.006-.311-.027V17.46l.175-.008c.67-.033.67-.033.82-.14.167-.119.167-.119.167-.748V8.32zm-36.77-.212c1.244 0 1.244 0 2.112.954.868.953.868.953.868 2.724 0 2.392 0 2.392-1.25 3.418-.794.65-.794.65-1.847.65-.827 0-.827 0-1.387-.363-.328-.205-.328-.205-.732-.704v3.74h-1.23V8.32h1.196v.97l.15-.19c.307-.363.307-.363.657-.582.622-.41.622-.41 1.463-.41zM14.23 3v15H0v-8h6.099V3zm55.208 5.094c1.655 0 1.655 0 2.386.971.458.615.458.615.445 1.326h-1.163l-.022-.163c-.064-.322-.064-.322-.272-.595-.423-.486-.423-.486-1.47-.486-.696 0-.696 0-1.055.267s-.36.266-.36.704c0 .478 0 .478.472.766.274.17.274.17.807.3l.814.199.233.058c1.134.29 1.134.29 1.544.564.718.471.718.471.718 1.483 0 .978 0 .978-.742 1.688s-.742.711-2.26.711c-1.633 0-1.633 0-2.313-.741s-.68-.742-.728-1.836h1.182l.02.17c.071.492.071.492.288.774.465.594.465.594 1.613.594.684 0 .684 0 1.203-.297.52-.297.52-.297.52-.92 0-.471 0-.471-.417-.717-.267-.15-.267-.15-1.053-.349l-.977-.246-.227-.059c-.765-.21-.765-.21-1.154-.46-.793-.5-.793-.5-.793-1.381 0-1.04 0-1.04.748-1.682.749-.643.749-.643 2.013-.643zm26.449 0c1.654 0 1.654 0 2.385.971.458.615.458.615.445 1.326h-1.162l-.023-.163c-.063-.322-.063-.322-.271-.595-.424-.486-.424-.486-1.47-.486-.697 0-.697 0-1.056.267s-.359.266-.359.704c0 .478 0 .478.472.766.273.17.273.17.806.3l.814.199.234.058c1.133.29 1.133.29 1.543.564.718.471.718.471.718 1.483 0 .978 0 .978-.742 1.688s-.742.711-2.26.711c-1.633 0-1.633 0-2.313-.741s-.68-.742-.728-1.836h1.183l.02.17c.07.492.07.492.287.774.465.594.465.594 1.613.594.684 0 .684 0 1.204-.297s.52-.297.52-.92c0-.471 0-.471-.418-.717-.266-.15-.266-.15-1.053-.349l-.977-.246-.227-.059c-.765-.21-.765-.21-1.154-.46-.793-.5-.793-.5-.793-1.381 0-1.04 0-1.04.749-1.682.748-.643.748-.643 2.013-.643zm-33.797-.02c1.415 0 1.415 0 2.392.943.978.944.978.944.978 2.776 0 1.77 0 1.77-.861 2.925-.862 1.156-.862 1.156-2.673 1.156-1.511 0-1.511 0-2.4-1.022-.888-1.022-.888-1.022-.888-2.745 0-1.846 0-1.846.936-2.94.937-1.093.937-1.093 2.516-1.093zm-27.235 0c1.416 0 1.416 0 2.393.943.978.944.978.944.978 2.776 0 1.77 0 1.77-.862 2.925-.861 1.156-.861 1.156-2.673 1.156-1.51 0-1.51 0-2.399-1.022s-.889-1.022-.889-2.745c0-1.846 0-1.846.937-2.94.936-1.093.936-1.093 2.515-1.093zm68.47 0c1.414 0 1.414 0 2.392.943.977.944.977.944.977 2.776 0 1.77 0 1.77-.861 2.925-.861 1.156-.861 1.156-2.673 1.156-1.51 0-1.51 0-2.4-1.022-.888-1.022-.888-1.022-.888-2.745 0-1.846 0-1.846.937-2.94.936-1.093.936-1.093 2.515-1.093zm-26.353.048c.779 0 .779 0 1.51.366s.732.365 1.115.946c.369.554.369.554.492 1.292.11.506.11.506.11 1.614h-5.367l.013.242c.076.947.076.947.513 1.545.493.674.493.674 1.525.674.964 0 .964 0 1.538-.636.328-.37.328-.37.465-.855h1.21l-.028.165c-.074.338-.074.338-.29.734-.27.496-.27.496-.605.81-.56.547-.56.547-1.388.739-.444.109-.444.109-1.005.109-1.367 0-1.367 0-2.317-.995s-.95-.994-.95-2.785c0-1.764 0-1.764.957-2.865.957-1.1.957-1.1 2.502-1.1zm-49.246-.048c1.237 0 1.237 0 2.013.602s.776.601.933 2.07h-1.196l-.037-.188c-.128-.552-.128-.552-.462-.936-.39-.447-.39-.447-1.251-.447-1.176 0-1.176 0-1.682 1.148-.328.745-.328.745-.328 1.839 0 1.1 0 1.1.465 1.852s.465.752 1.463.752c.765 0 .765 0 1.213-.468s.448-.468.619-1.282h1.196l-.039.238c-.235 1.274-.235 1.274-.987 1.892-.82.673-.82.673-2.098.673-1.436 0-1.436 0-2.29-1.05s-.855-1.049-.855-2.62c0-1.929 0-1.929.937-3.002.936-1.073.936-1.073 2.386-1.073zm19.516.048c1.477 0 1.477 0 2.01 1.066.287.574.287.574.287 1.545v4.874h-1.278v-5.086l-.006-.175c-.04-.59-.04-.59-.36-.83-.366-.273-.366-.273-.892-.273-.725 0-.725 0-1.248.485-.523.486-.523.486-.523 1.62v4.26h-1.25v-4.78l-.004-.204c-.022-.59-.022-.59-.174-.882-.28-.513-.28-.513-1.046-.513-.697 0-.697 0-1.268.54-.571.54-.571.54-.571 1.955v3.883h-1.23V8.286h1.216v1.039l.144-.172c.353-.41.353-.41.65-.614.608-.417.608-.417 1.38-.417.875 0 .875 0 1.408.43.301.247.301.247.547.725.41-.588.41-.588.964-.872.554-.283.554-.283 1.244-.283zm64.477 0c1.558 0 1.558 0 2.105 1.087.301.594.301.594.301 1.702v4.696h-1.251v-4.614l-.005-.216c-.028-.522-.028-.522-.193-.864-.328-.684-.328-.684-1.19-.684-.437 0-.437 0-.717.09-.506.15-.506.15-.89.6-.307.363-.307.363-.399.75-.092.385-.092.385-.092 1.103v3.835h-1.23V8.286h1.168v1.039l.15-.176c.453-.507.453-.507.95-.747.582-.28.582-.28 1.293-.28zm-23.625 5.995v1.49h-1.429v-1.49zm-3.186-5.995a10.274 10.274 0 01.396.034v1.299l-.104-.017-.097-.01c-.092-.007-.092-.007-.202-.007-.93 0-.93 0-1.428.598-.5.598-.5.598-.5 1.377v4.211h-1.23V8.286h1.17l-.001 1.263.05-.107c.145-.28.145-.28.503-.642l.151-.148c.56-.53.56-.53 1.292-.53zM62.056 9.147c-1.128 0-1.128 0-1.641.862-.513.86-.513.86-.513 2.078 0 1.169 0 1.169.513 1.948.513.78.513.78 1.627.78 1.224 0 1.224 0 1.678-.927.455-.926.455-.926.455-2.061 0-1.026 0-1.026-.328-1.668-.52-1.012-.52-1.012-1.791-1.012zm-27.235 0c-1.128 0-1.128 0-1.64.862-.513.86-.513.86-.513 2.078 0 1.169 0 1.169.513 1.948.512.78.512.78 1.627.78 1.223 0 1.223 0 1.678-.927.454-.926.454-.926.454-2.061 0-1.026 0-1.026-.328-1.668-.52-1.012-.52-1.012-1.79-1.012zm68.469 0c-1.128 0-1.128 0-1.64.862-.513.86-.513.86-.513 2.078 0 1.169 0 1.169.512 1.948.513.78.513.78 1.627.78 1.224 0 1.224 0 1.679-.927.454-.926.454-.926.454-2.061 0-1.026 0-1.026-.328-1.668-.52-1.012-.52-1.012-1.791-1.012zm-48.85.041c-1.278 0-1.278 0-1.75 1.279-.252.683-.252.683-.252 1.736 0 .848 0 .848.252 1.442.479 1.135.479 1.135 1.75 1.135.862 0 .862 0 1.433-.721s.57-.721.57-2.157c0-.875 0-.875-.253-1.504-.478-1.21-.478-1.21-1.75-1.21zm22.456.007c-.847 0-.847 0-1.421.612-.575.612-.575.612-.609 1.555h4.068c-.076-.8-.076-.8-.349-1.278-.506-.889-.506-.889-1.689-.889zM5.082 3v6H0zm86.41 2.565v1.422H90.26V5.565z"/>
    </g>
    <g filter="url(#d)" transform="translate(433 168)">
      <path fill="#06c" fill-rule="nonzero" d="M39.935 8.156c.86 0 .86 0 1.503.424.35.24.35.24.711.697v-.923h1.135v6.658l-.005.303c-.04 1.182-.04 1.182-.405 1.899-.766 1.49-.766 1.49-2.892 1.49-1.182 0-1.182 0-1.989-.53-.806-.53-.806-.53-.902-1.658h1.25l.035.158c.1.379.1.379.321.601.417.41.417.41 1.313.41 1.415 0 1.415 0 1.852-.998.26-.588.26-.588.24-2.098-.37.56-.37.56-.89.834-.519.273-.519.273-1.373.273-1.19 0-1.19 0-2.082-.844-.892-.844-.892-.844-.892-2.793 0-1.839 0-1.839.9-2.87.898-1.033.898-1.033 2.17-1.033zm77.054-.048c1.244 0 1.244 0 2.113.954.868.953.868.953.868 2.724 0 2.392 0 2.392-1.251 3.418-.793.65-.793.65-1.846.65-.827 0-.827 0-1.388-.363-.328-.205-.328-.205-.731-.704v3.74h-1.23V8.32h1.196v.97l.15-.19c.306-.363.306-.363.656-.582.622-.41.622-.41 1.463-.41zm-15.572 0c1.244 0 1.244 0 2.112.954.868.953.868.953.868 2.724 0 2.392 0 2.392-1.25 3.418-.793.65-.793.65-1.846.65-.827 0-.827 0-1.388-.363-.328-.205-.328-.205-.731-.704v3.74h-1.23V8.32h1.195v.97l.15-.19c.307-.363.307-.363.657-.582.622-.41.622-.41 1.463-.41zM14.12 3v15H0v-8h6.052V3zm36.643 5.094c1.654 0 1.654 0 2.385.971.458.615.458.615.445 1.326H52.43l-.023-.163c-.063-.322-.063-.322-.271-.595-.424-.486-.424-.486-1.47-.486-.697 0-.697 0-1.056.267-.359.266-.359.266-.359.704 0 .478 0 .478.472.766.273.17.273.17.806.3l.814.199.234.058c1.133.29 1.133.29 1.543.564.718.471.718.471.718 1.483 0 .978 0 .978-.742 1.688s-.742.711-2.26.711c-1.633 0-1.633 0-2.313-.741s-.68-.742-.728-1.836h1.183l.02.17c.07.492.07.492.287.774.465.594.465.594 1.613.594.684 0 .684 0 1.204-.297.52-.297.52-.297.52-.92 0-.471 0-.471-.418-.717-.267-.15-.267-.15-1.053-.349l-.977-.246-.227-.059c-.765-.21-.765-.21-1.154-.46C48 11.3 48 11.3 48 10.419c0-1.04 0-1.04.749-1.682.748-.643.748-.643 2.013-.643zm30.775-.02c1.415 0 1.415 0 2.393.943.977.944.977.944.977 2.776 0 1.77 0 1.77-.861 2.925-.861 1.156-.861 1.156-2.673 1.156-1.51 0-1.51 0-2.4-1.022-.888-1.022-.888-1.022-.888-2.745 0-1.846 0-1.846.936-2.94.937-1.093.937-1.093 2.516-1.093zm-48.925.048c.78 0 .78 0 1.511.366.731.365.731.365 1.114.946.37.554.37.554.492 1.292.11.506.11.506.11 1.614h-5.366l.013.242c.076.947.076.947.513 1.545.492.674.492.674 1.524.674.964 0 .964 0 1.539-.636.328-.37.328-.37.464-.855h1.21l-.028.165c-.074.338-.074.338-.29.734-.27.496-.27.496-.605.81-.56.547-.56.547-1.387.739-.445.109-.445.109-1.005.109-1.367 0-1.367 0-2.318-.995s-.95-.994-.95-2.785c0-1.764 0-1.764.957-2.865.957-1.1.957-1.1 2.502-1.1zm34.057-.014c1.292 0 1.292 0 2.099.492.8.492.8.492.8 1.532v4.217l.004.091c.015.13.015.13.074.217.079.116.079.116.332.116.082 0 .082 0 .184-.01.103-.01.103-.01.219-.03v.908l-.135.037c-.19.05-.19.05-.303.066-.15.02-.15.02-.41.02-.636 0-.636 0-.923-.45-.15-.24-.15-.24-.212-.678-.376.493-.376.493-1.08.855-.704.362-.704.362-1.551.362-1.019 0-1.019 0-1.665-.618-.646-.62-.646-.62-.646-1.549 0-1.018 0-1.018.636-1.579.636-.56.636-.56 1.668-.69l1.962-.246.115-.021c.329-.077.329-.077.452-.335.082-.164.082-.164.082-.472 0-.628 0-.628-.448-.912-.447-.284-.447-.284-1.281-.284-.964 0-.964 0-1.368.52-.225.287-.225.287-.294.854h-1.148l.01-.203c.09-1.191.09-1.191.868-1.68.845-.53.845-.53 1.959-.53zm6.405-1.866v2.044h1.17V9.29h-1.17v4.778l.005.104c.032.297.032.297.255.409.144.075.144.075.478.075.09 0 .09 0 .192-.003.102-.004.102-.004.24-.018v.971l-.144.037c-.145.034-.145.034-.298.052-.229.027-.229.027-.495.027-.862 0-.862 0-1.17-.44-.307-.441-.307-.441-.307-1.146V9.291h-.991V8.286h.991V6.242zm-16.338 0v2.044h1.17V9.29h-1.17v4.778l.006.104c.031.297.031.297.254.409.144.075.144.075.479.075.088 0 .088 0 .191-.003.103-.004.103-.004.24-.018v.971l-.144.037c-.145.034-.145.034-.298.052-.229.027-.229.027-.495.027-.862 0-.862 0-1.17-.44-.307-.441-.307-.441-.307-1.146V9.291h-.991V8.286h.991V6.242zm50.326-.711v3.746l.144-.175c.352-.416.352-.416.643-.604.594-.39.594-.39 1.483-.39 1.593 0 1.593 0 2.16 1.114.308.609.308.609.308 1.689v4.696h-1.265v-4.614l-.003-.195c-.023-.659-.023-.659-.202-.988-.335-.601-.335-.601-1.258-.601-.765 0-.765 0-1.387.526-.623.526-.623.526-.623 1.99v3.882h-1.23V5.531zm-78.961 2.59a.68.68 0 01.066.004l.098.008.232.023v1.299l-.105-.017-.097-.01c-.092-.007-.092-.007-.201-.007-.93 0-.93 0-1.429.598s-.499.598-.499 1.377v4.211h-1.23V8.286h1.168V9.55l.05-.11c.174-.335.174-.335.655-.79.56-.53.56-.53 1.292-.53zm48.624.199v7.287h-1.251V8.32zm19.154 5.797v1.49H94.45v-1.49zm-5.947-5.995c1.558 0 1.558 0 2.105 1.087.3.594.3.594.3 1.702v4.696h-1.25v-4.614l-.006-.216c-.027-.522-.027-.522-.192-.864-.328-.684-.328-.684-1.19-.684-.437 0-.437 0-.718.09-.505.15-.505.15-.888.6-.308.363-.308.363-.4.75-.092.385-.092.385-.092 1.103v3.835h-1.23V8.286h1.168v1.039l.15-.176c.453-.507.453-.507.95-.747.582-.28.582-.28 1.293-.28zm-27.597 0c.034 0 .034 0 .116.007.082.006.082.006.28.027v1.299l-.105-.017-.096-.01c-.093-.007-.093-.007-.202-.007-.93 0-.93 0-1.429.598s-.499.598-.499 1.377v4.211h-1.23V8.286h1.169V9.55l.05-.11c.173-.335.173-.335.654-.79.56-.53.56-.53 1.292-.53zm-15.948.198v7.287h-1.251V8.32zm35.116.827c-1.128 0-1.128 0-1.64.862-.513.86-.513.86-.513 2.078 0 1.169 0 1.169.512 1.948.513.78.513.78 1.627.78 1.224 0 1.224 0 1.678-.927.455-.926.455-.926.455-2.061 0-1.026 0-1.026-.328-1.668-.52-1.012-.52-1.012-1.791-1.012zm-13.166 2.735l-.121.068c-.194.099-.194.099-.46.17-.356.097-.356.097-.697.138l-.746.095-.184.028c-.533.088-.533.088-.82.253-.568.32-.568.32-.568 1.025 0 .533 0 .533.39.84.39.308.39.308.923.308.65 0 .65 0 1.258-.3 1.025-.5 1.025-.5 1.025-1.634zm32.799-2.694c-1.279 0-1.279 0-1.75 1.279-.253.683-.253.683-.253 1.736 0 .848 0 .848.253 1.442.478 1.135.478 1.135 1.75 1.135.861 0 .861 0 1.432-.721.57-.721.57-.721.57-2.157 0-.875 0-.875-.252-1.504-.479-1.21-.479-1.21-1.75-1.21zm15.572 0c-1.278 0-1.278 0-1.75 1.279-.253.683-.253.683-.253 1.736 0 .848 0 .848.253 1.442.478 1.135.478 1.135 1.75 1.135.861 0 .861 0 1.432-.721s.57-.721.57-2.157c0-.875 0-.875-.252-1.504-.479-1.21-.479-1.21-1.75-1.21zm-76.549.055c-1.299 0-1.299 0-1.777 1.217-.253.65-.253.65-.253 1.702 0 1.237 0 1.237.502 1.883s.503.646 1.35.646c1.327 0 1.327 0 1.867-1.196.3-.677.3-.677.3-1.58 0-1.36 0-1.36-.56-2.016-.56-.656-.56-.656-1.429-.656zm-7.622-.048c-.848 0-.848 0-1.422.612s-.574.612-.608 1.555h4.067c-.075-.8-.075-.8-.348-1.278-.506-.889-.506-.889-1.689-.889zM5.043 3v6H0zm71.683 2.565V6.96h-1.251V5.565zm-30.338 0V6.96h-1.251V5.565z"/>
    </g>
    <g>
      <text fill="#222" font-family="Helvetica" font-size="14" transform="translate(408 43)">
        <tspan x="25" y="16">PageBuilderAdminModule</tspan>
      </text>
      <path fill="#7c7c7c" d="M408 45h6l2 3h8v13h-16z"/>
      <path fill="#bbb" d="M411 52h17l-3 9h-17z"/>
    </g>
    <path stroke="#999" d="M.5.5h618v579H.5z"/>
    <path fill="#06c" fill-rule="nonzero" d="M79.233 96v15H65v-8h6.1v-7zm23.829 5.122c.779 0 .779 0 1.51.366s.732.365 1.115.946c.369.554.369.554.492 1.292.11.506.11.506.11 1.614h-5.367l.013.242c.076.947.076.947.513 1.545.492.674.492.674 1.525.674.964 0 .964 0 1.538-.636.328-.37.328-.37.465-.855h1.21l-.028.165c-.074.338-.074.338-.29.734-.27.496-.27.496-.605.81-.56.547-.56.547-1.388.739-.444.109-.444.109-1.005.109-1.367 0-1.367 0-2.317-.995s-.95-.994-.95-2.785c0-1.764 0-1.764.957-2.865.957-1.1.957-1.1 2.502-1.1zm-12.558.164l1.955 5.96 2.044-5.96h1.347l-2.762 7.321h-1.313l-2.7-7.321zm7.65.034v7.287h-1.252v-7.287zm10.212-.034l1.408 5.77 1.43-5.77h1.38l1.436 5.735 1.497-5.735h1.23l-2.126 7.321h-1.278l-1.491-5.666-1.442 5.666h-1.278l-2.112-7.321zm11.266 5.83v1.491h-1.429v-1.49zm3.062-5.83l1.682 2.577 1.702-2.577 1.497.034-2.468 3.534 2.578 3.753h-1.573l-1.818-2.748-1.764 2.748h-1.558l2.577-3.753-2.447-3.568zm13.659-.164c1.476 0 1.476 0 2.01 1.066.286.574.286.574.286 1.545v4.874h-1.278v-5.086l-.006-.175c-.04-.59-.04-.59-.36-.83-.365-.273-.365-.273-.892-.273-.724 0-.724 0-1.247.485-.523.486-.523.486-.523 1.62v4.26h-1.251v-4.78l-.004-.204c-.022-.59-.022-.59-.174-.882-.28-.513-.28-.513-1.046-.513-.697 0-.697 0-1.268.54-.57.54-.57.54-.57 1.955v3.883h-1.231v-7.321h1.217v1.039l.143-.172c.353-.41.353-.41.65-.614.608-.417.608-.417 1.38-.417.875 0 .875 0 1.409.43.3.247.3.247.547.725.41-.588.41-.588.963-.872.554-.283.554-.283 1.245-.283zm5.373-2.557v10.042h-1.23V98.565zm-38.74 3.63c-.847 0-.847 0-1.422.612-.574.612-.574.612-.608 1.555h4.067c-.075-.8-.075-.8-.348-1.278-.506-.889-.506-.889-1.689-.889zM70.083 96v6H65zm28.07 2.565v1.395h-1.25v-1.395zM155 222v15h-14v-8h6v-7zm13.418 5.094c1.654 0 1.654 0 2.386.971.458.615.458.615.444 1.326h-1.162l-.023-.163c-.063-.322-.063-.322-.271-.595-.424-.486-.424-.486-1.47-.486-.697 0-.697 0-1.056.267s-.359.266-.359.704c0 .478 0 .478.472.766.273.17.273.17.807.3l.813.199.234.058c1.133.29 1.133.29 1.543.564.718.471.718.471.718 1.483 0 .978 0 .978-.742 1.688s-.741.711-2.259.711c-1.634 0-1.634 0-2.314-.741s-.68-.742-.728-1.836h1.183l.02.17c.07.492.07.492.287.774.465.594.465.594 1.614.594.683 0 .683 0 1.203-.297s.52-.297.52-.92c0-.471 0-.471-.418-.717-.266-.15-.266-.15-1.052-.349l-.978-.246-.226-.059c-.766-.21-.766-.21-1.155-.46-.793-.5-.793-.5-.793-1.381 0-1.04 0-1.04.749-1.682.748-.643.748-.643 2.013-.643zm39.43.028c.779 0 .779 0 1.51.366.732.365.732.365 1.115.946.369.554.369.554.492 1.292.11.506.11.506.11 1.614h-5.367l.013.242c.076.947.076.947.513 1.545.493.674.493.674 1.525.674.964 0 .964 0 1.538-.636.328-.37.328-.37.465-.855h1.21l-.028.165c-.074.338-.074.338-.29.734-.27.496-.27.496-.605.81-.56.547-.56.547-1.388.739-.444.109-.444.109-1.005.109-1.367 0-1.367 0-2.317-.995s-.95-.994-.95-2.785c0-1.764 0-1.764.957-2.865.957-1.1.957-1.1 2.502-1.1zm-15.012-.048c1.237 0 1.237 0 2.013.602s.776.601.933 2.07h-1.196l-.037-.188c-.128-.552-.128-.552-.462-.936-.39-.447-.39-.447-1.251-.447-1.176 0-1.176 0-1.682 1.148-.328.745-.328.745-.328 1.839 0 1.1 0 1.1.465 1.852s.465.752 1.463.752c.766 0 .766 0 1.213-.468.448-.468.448-.468.619-1.282h1.196l-.038.238c-.235 1.274-.235 1.274-.987 1.892-.82.673-.82.673-2.099.673-1.435 0-1.435 0-2.29-1.05-.854-1.049-.854-1.049-.854-2.62 0-1.929 0-1.929.936-3.002.937-1.073.937-1.073 2.386-1.073zm-5.223-1.832v2.044h1.17v1.005h-1.17v4.778l.006.104c.031.297.031.297.254.409.144.075.144.075.479.075.088 0 .088 0 .191-.003.103-.004.103-.004.24-.018v.971l-.144.037c-.145.034-.145.034-.298.052-.229.027-.229.027-.495.027-.862 0-.862 0-1.17-.44-.307-.441-.307-.441-.307-1.146v-4.846h-.991v-1.005h.991v-2.044zm42.8 0v2.044h1.169v1.005h-1.169v4.778l.005.104c.032.297.032.297.255.409.143.075.143.075.478.075.09 0 .09 0 .192-.003.102-.004.102-.004.239-.018v.971l-.143.037c-.145.034-.145.034-.298.052-.229.027-.229.027-.495.027-.862 0-.862 0-1.17-.44-.307-.441-.307-.441-.307-1.146v-4.846h-.991v-1.005h.99v-2.044zm-56.943 2.044l1.408 5.77 1.429-5.77h1.38l1.436 5.735 1.497-5.735h1.23l-2.125 7.321h-1.279l-1.49-5.666-1.442 5.666h-1.279l-2.112-7.321zm72.27-2.72v10.041h-1.231v-10.042zm-5.374 2.556c1.477 0 1.477 0 2.01 1.066.287.574.287.574.287 1.545v4.874h-1.278v-5.086l-.006-.175c-.04-.59-.04-.59-.36-.83-.366-.273-.366-.273-.892-.273-.725 0-.725 0-1.248.485-.523.486-.523.486-.523 1.62v4.26h-1.25v-4.78l-.004-.204c-.022-.59-.022-.59-.174-.882-.28-.513-.28-.513-1.046-.513-.697 0-.697 0-1.268.54-.571.54-.571.54-.571 1.955v3.883h-1.23v-7.321h1.216v1.039l.144-.172c.353-.41.353-.41.65-.614.608-.417.608-.417 1.38-.417.875 0 .875 0 1.408.43.301.247.301.247.547.725.41-.588.41-.588.964-.872s.554-.283 1.244-.283zm-56.102.198v7.287h-1.251v-7.287zm38.103-2.789v3.746l.144-.175c.352-.416.352-.416.642-.604.595-.39.595-.39 1.484-.39 1.592 0 1.592 0 2.16 1.114.307.609.307.609.307 1.689v4.696h-1.264v-4.614l-.003-.195c-.023-.659-.023-.659-.202-.988-.335-.601-.335-.601-1.258-.601-.766 0-.766 0-1.388.526-.622.526-.622.526-.622 1.99v3.882h-1.23v-10.076zm-24.124 0v3.746l.144-.175c.352-.416.352-.416.642-.604.595-.39.595-.39 1.484-.39 1.592 0 1.592 0 2.16 1.114.307.609.307.609.307 1.689v4.696h-1.264v-4.614l-.003-.195c-.023-.659-.023-.659-.202-.988-.335-.601-.335-.601-1.258-.601-.766 0-.766 0-1.388.526-.622.526-.622.526-.622 1.99v3.882h-1.23v-10.076zm20.727 8.586v1.49h-1.429v-1.49zm-3.186-5.995c.034 0 .034 0 .116.007.082.006.082.006.28.027v1.299l-.104-.017-.097-.01c-.092-.007-.092-.007-.202-.007-.93 0-.93 0-1.428.598-.5.598-.5.598-.5 1.377v4.211h-1.23v-7.321h1.17l-.001 1.263.05-.107c.145-.28.145-.28.503-.642l.151-.148c.56-.53.56-.53 1.292-.53zm-8.012 1.073c-.847 0-.847 0-1.421.612-.575.612-.575.612-.609 1.555h4.068c-.076-.8-.076-.8-.35-1.278-.505-.889-.505-.889-1.688-.889zM146 222v6h-5zm38.264 2.565v1.395h-1.251v-1.395zM129.134 397v15H115v-8h6.058v-7zm17.652 13.667v.69H139v-.69zm71.121-8.573c1.655 0 1.655 0 2.386.971.458.615.458.615.444 1.326h-1.162l-.022-.163c-.064-.322-.064-.322-.272-.595-.424-.486-.424-.486-1.47-.486-.697 0-.697 0-1.056.267s-.359.266-.359.704c0 .478 0 .478.472.766.274.17.274.17.807.3l.813.199.234.058c1.133.29 1.133.29 1.544.564.717.471.717.471.717 1.483 0 .978 0 .978-.741 1.688s-.742.711-2.26.711c-1.633 0-1.633 0-2.314-.741-.68-.742-.68-.742-.728-1.836h1.183l.02.17c.07.492.07.492.288.774.465.594.465.594 1.613.594.684 0 .684 0 1.203-.297.52-.297.52-.297.52-.92 0-.471 0-.471-.417-.717-.267-.15-.267-.15-1.053-.349l-.978-.246-.226-.059c-.766-.21-.766-.21-1.155-.46-.792-.5-.792-.5-.792-1.381 0-1.04 0-1.04.748-1.682.749-.643.749-.643 2.013-.643zm-7 0c1.655 0 1.655 0 2.386.971.458.615.458.615.444 1.326h-1.162l-.022-.163c-.064-.322-.064-.322-.272-.595-.424-.486-.424-.486-1.47-.486-.697 0-.697 0-1.056.267s-.359.266-.359.704c0 .478 0 .478.472.766.274.17.274.17.807.3l.813.199.234.058c1.133.29 1.133.29 1.544.564.717.471.717.471.717 1.483 0 .978 0 .978-.741 1.688s-.742.711-2.26.711c-1.633 0-1.633 0-2.314-.741s-.68-.742-.728-1.836h1.183l.02.17c.07.492.07.492.288.774.465.594.465.594 1.613.594.684 0 .684 0 1.203-.297.52-.297.52-.297.52-.92 0-.471 0-.471-.417-.717-.267-.15-.267-.15-1.053-.349l-.978-.246-.226-.059c-.766-.21-.766-.21-1.155-.46-.792-.5-.792-.5-.792-1.381 0-1.04 0-1.04.748-1.682.749-.643.749-.643 2.013-.643zm-48.603-.02c1.415 0 1.415 0 2.392.943.978.944.978.944.978 2.776 0 1.77 0 1.77-.861 2.925-.862 1.156-.862 1.156-2.673 1.156-1.511 0-1.511 0-2.4-1.022-.888-1.022-.888-1.022-.888-2.745 0-1.846 0-1.846.936-2.94.937-1.093.937-1.093 2.516-1.093zm41.35.048c.78 0 .78 0 1.511.366s.731.365 1.114.946c.37.554.37.554.492 1.292.11.506.11.506.11 1.614h-5.366l.013.242c.076.947.076.947.513 1.545.492.674.492.674 1.524.674.964 0 .964 0 1.539-.636.328-.37.328-.37.464-.855h1.21l-.028.165c-.074.338-.074.338-.29.734-.27.496-.27.496-.605.81-.56.547-.56.547-1.387.739-.445.109-.445.109-1.005.109-1.367 0-1.367 0-2.317-.995s-.95-.994-.95-2.785c0-1.764 0-1.764.956-2.865.957-1.1.957-1.1 2.502-1.1zm-30.55-2.591v10.076h-1.107v-1.018l-.126.185c-.389.534-.389.534-.892.792-.588.3-.588.3-1.347.3-1.224 0-1.224 0-2.12-1.028s-.895-1.029-.895-2.738c0-1.6 0-1.6.817-2.772.817-1.172.817-1.172 2.335-1.172.84 0 .84 0 1.408.355.328.206.328.206.745.718v-3.698zm15.764 2.59c.78 0 .78 0 1.51.367.732.365.732.365 1.115.946.37.554.37.554.492 1.292.11.506.11.506.11 1.614h-5.366l.013.242c.075.947.075.947.513 1.545.492.674.492.674 1.524.674.964 0 .964 0 1.538-.636.329-.37.329-.37.465-.855h1.21l-.028.165c-.074.338-.074.338-.29.734-.27.496-.27.496-.605.81-.56.547-.56.547-1.387.739-.445.109-.445.109-1.005.109-1.367 0-1.367 0-2.318-.995s-.95-.994-.95-2.785c0-1.764 0-1.764.957-2.865.957-1.1.957-1.1 2.502-1.1zm-12.715.165v4.86l.005.181c.025.439.025.439.173.735.328.656.328.656 1.224.656 1.285 0 1.285 0 1.75-1.148.253-.615.253-.615.253-1.688v-3.596h1.23v7.321h-1.162l.014-1.08-.1.162c-.21.312-.21.312-.495.542-.704.574-.704.574-1.71.574-1.564 0-1.564 0-2.132-1.046-.307-.56-.307-.56-.307-1.497v-4.976zm-20.91-.164c1.476 0 1.476 0 2.009 1.066.287.574.287.574.287 1.545v4.874h-1.278v-5.086l-.006-.175c-.04-.59-.04-.59-.36-.83-.366-.273-.366-.273-.892-.273-.725 0-.725 0-1.248.485-.523.486-.523.486-.523 1.62v4.26h-1.25v-4.78l-.004-.204c-.022-.59-.022-.59-.174-.882-.28-.513-.28-.513-1.046-.513-.697 0-.697 0-1.268.54-.571.54-.571.54-.571 1.955v3.883h-1.23v-7.321h1.216v1.039l.144-.172c.353-.41.353-.41.65-.614.608-.417.608-.417 1.38-.417.875 0 .875 0 1.408.43.301.247.301.247.547.725.41-.588.41-.588.964-.872.554-.283.554-.283 1.244-.283zm28.73-2.557v10.042h-1.23v-10.042zm11.355 8.552v1.49H193.9v-1.49zm3.432-8.552v10.042h-1.23v-10.042zm-36.49 3.582c-1.128 0-1.128 0-1.641.862-.513.86-.513.86-.513 2.078 0 1.169 0 1.169.513 1.948.513.78.513.78 1.627.78 1.223 0 1.223 0 1.678-.927.455-.926.455-.926.455-2.061 0-1.026 0-1.026-.328-1.668-.52-1.012-.52-1.012-1.791-1.012zm7.731.082c-.93 0-.93 0-1.507.711-.578.711-.578.711-.578 2.092 0 1.176 0 1.176.499 1.969.5.793.5.793 1.6.793.854 0 .854 0 1.404-.735s.55-.735.55-2.11c0-1.387 0-1.387-.567-2.053-.567-.667-.567-.667-1.401-.667zm18.792-.034c-.848 0-.848 0-1.422.612s-.574.612-.608 1.555h4.067c-.075-.8-.075-.8-.349-1.278-.505-.889-.505-.889-1.688-.889zm14.786 0c-.848 0-.848 0-1.422.612s-.574.612-.608 1.555h4.067c-.075-.8-.075-.8-.348-1.278-.506-.889-.506-.889-1.689-.889zM120.048 397v6H115z"/>
    <g fill-rule="nonzero">
      <text fill="#06c" font-family="Helvetica" font-size="14" transform="translate(115 471.607)">
        <tspan x="24" y="15">switcher-mobile-small.svg</tspan>
      </text>
      <path fill="#0050c9" d="M129.421 482.512l-.83 1.474a.937.937 0 01-1.379.29l-3.47-2.604.514 4.278a.938.938 0 01-.93 1.05h-1.651a.937.937 0 01-.93-1.05l.514-4.277-3.472 2.603a.937.937 0 01-1.379-.29l-.83-1.474a.937.937 0 01.476-1.333l4.103-1.609-4.136-1.72a.937.937 0 01-.46-1.32l.833-1.497a.936.936 0 011.405-.275l3.48 2.79-.537-4.5a.939.939 0 01.931-1.048h1.653c.562 0 .998.49.93 1.048l-.535 4.499 3.479-2.79a.937.937 0 011.406.276l.832 1.496a.938.938 0 01-.46 1.321l-4.136 1.72 4.104 1.609a.938.938 0 01.475 1.333z"/>
    </g>
    <g fill-rule="nonzero">
      <text fill="#06c" font-family="Helvetica" font-size="14" transform="translate(115 496.607)">
        <tspan x="24" y="15">switcher-tablet.svg</tspan>
      </text>
      <path fill="#0050c9" d="M129.421 507.512l-.83 1.474a.937.937 0 01-1.379.29l-3.47-2.604.514 4.278a.938.938 0 01-.93 1.05h-1.651a.937.937 0 01-.93-1.05l.514-4.277-3.472 2.603a.937.937 0 01-1.379-.29l-.83-1.474a.937.937 0 01.476-1.333l4.103-1.609-4.136-1.72a.937.937 0 01-.46-1.32l.833-1.497a.936.936 0 011.405-.275l3.48 2.79-.537-4.5a.939.939 0 01.931-1.048h1.653c.562 0 .998.49.93 1.048l-.535 4.499 3.479-2.79a.937.937 0 011.406.276l.832 1.496a.938.938 0 01-.46 1.321l-4.136 1.72 4.104 1.609a.938.938 0 01.475 1.333z"/>
    </g>
    <path fill="#06c" fill-rule="nonzero" d="M197.845 352.108c1.244 0 1.244 0 2.112.954.868.953.868.953.868 2.724 0 2.392 0 2.392-1.25 3.418-.794.65-.794.65-1.846.65-.828 0-.828 0-1.388-.363-.328-.205-.328-.205-.732-.704v3.74h-1.23V352.32h1.196v.97l.15-.19c.307-.363.307-.363.657-.582.622-.41.622-.41 1.463-.41zM154.197 347v15H140v-8h6.085v-7zm79.365 5.094c1.655 0 1.655 0 2.386.971.458.615.458.615.445 1.326h-1.163l-.022-.163c-.064-.322-.064-.322-.271-.595-.424-.486-.424-.486-1.47-.486-.697 0-.697 0-1.056.267s-.36.266-.36.704c0 .478 0 .478.472.766.274.17.274.17.807.3l.814.199.233.058c1.134.29 1.134.29 1.544.564.718.471.718.471.718 1.483 0 .978 0 .978-.742 1.688-.742.711-.742.711-2.26.711-1.633 0-1.633 0-2.313-.741-.68-.742-.68-.742-.728-1.836h1.182l.02.17c.071.492.071.492.288.774.465.594.465.594 1.613.594.684 0 .684 0 1.203-.297.52-.297.52-.297.52-.92 0-.471 0-.471-.417-.717-.267-.15-.267-.15-1.053-.349l-.977-.246-.227-.059c-.765-.21-.765-.21-1.154-.46-.793-.5-.793-.5-.793-1.381 0-1.04 0-1.04.748-1.682.749-.643.749-.643 2.013-.643zm-7 0c1.655 0 1.655 0 2.386.971.458.615.458.615.445 1.326h-1.163l-.022-.163c-.064-.322-.064-.322-.271-.595-.424-.486-.424-.486-1.47-.486-.697 0-.697 0-1.056.267s-.36.266-.36.704c0 .478 0 .478.472.766.274.17.274.17.807.3l.814.199.233.058c1.134.29 1.134.29 1.544.564.718.471.718.471.718 1.483 0 .978 0 .978-.742 1.688-.742.711-.742.711-2.26.711-1.633 0-1.633 0-2.313-.741-.68-.742-.68-.742-.728-1.836h1.182l.02.17c.071.492.071.492.288.774.465.594.465.594 1.613.594.684 0 .684 0 1.203-.297.52-.297.52-.297.52-.92 0-.471 0-.471-.417-.717-.267-.15-.267-.15-1.053-.349l-.977-.246-.227-.059c-.765-.21-.765-.21-1.154-.46-.793-.5-.793-.5-.793-1.381 0-1.04 0-1.04.748-1.682.749-.643.749-.643 2.013-.643zm-21.786 0c1.655 0 1.655 0 2.386.971.458.615.458.615.444 1.326h-1.162l-.022-.163c-.064-.322-.064-.322-.272-.595-.423-.486-.423-.486-1.47-.486-.697 0-.697 0-1.055.267s-.36.266-.36.704c0 .478 0 .478.472.766.274.17.274.17.807.3l.813.199.234.058c1.134.29 1.134.29 1.544.564.718.471.718.471.718 1.483 0 .978 0 .978-.742 1.688-.742.711-.742.711-2.26.711-1.633 0-1.633 0-2.313-.741-.68-.742-.68-.742-.728-1.836h1.182l.02.17c.071.492.071.492.288.774.465.594.465.594 1.613.594.684 0 .684 0 1.203-.297.52-.297.52-.297.52-.92 0-.471 0-.471-.417-.717-.267-.15-.267-.15-1.053-.349l-.978-.246-.226-.059c-.766-.21-.766-.21-1.154-.46-.793-.5-.793-.5-.793-1.381 0-1.04 0-1.04.748-1.682.749-.643.749-.643 2.013-.643zm-25.245-.02c1.415 0 1.415 0 2.393.943.977.944.977.944.977 2.776 0 1.77 0 1.77-.861 2.925-.861 1.156-.861 1.156-2.673 1.156-1.51 0-1.51 0-2.4-1.022-.888-1.022-.888-1.022-.888-2.745 0-1.846 0-1.846.937-2.94.936-1.093.936-1.093 2.515-1.093zm-7.786 0c1.415 0 1.415 0 2.393.943.977.944.977.944.977 2.776 0 1.77 0 1.77-.861 2.925-.861 1.156-.861 1.156-2.673 1.156-1.51 0-1.51 0-2.4-1.022-.888-1.022-.888-1.022-.888-2.745 0-1.846 0-1.846.936-2.94.937-1.093.937-1.093 2.516-1.093zm47.565.048c.779 0 .779 0 1.51.366s.732.365 1.115.946c.369.554.369.554.492 1.292.11.506.11.506.11 1.614h-5.367l.013.242c.076.947.076.947.513 1.545.492.674.492.674 1.525.674.964 0 .964 0 1.538-.636.328-.37.328-.37.465-.855h1.21l-.028.165c-.074.338-.074.338-.29.734-.27.496-.27.496-.605.81-.56.547-.56.547-1.388.739-.444.109-.444.109-1.005.109-1.367 0-1.367 0-2.317-.995-.95-.994-.95-.994-.95-2.785 0-1.764 0-1.764.957-2.865.957-1.1.957-1.1 2.502-1.1zm-52.917-1.88v2.044h1.169v1.005h-1.17v4.778l.006.104c.032.297.032.297.254.409.144.075.144.075.479.075.089 0 .089 0 .191-.003.103-.004.103-.004.24-.018v.971l-.144.037c-.145.034-.145.034-.297.052-.23.027-.23.027-.496.027-.861 0-.861 0-1.169-.44-.308-.441-.308-.441-.308-1.146v-4.846h-.99v-1.005h.99v-2.044zm22.572 0v2.044h1.169v1.005h-1.17v4.778l.006.104c.032.297.032.297.255.409.143.075.143.075.478.075.089 0 .089 0 .192-.003.102-.004.102-.004.239-.018v.971l-.143.037c-.145.034-.145.034-.298.052-.23.027-.23.027-.496.027-.861 0-.861 0-1.169-.44-.307-.441-.307-.441-.307-1.146v-4.846h-.992v-1.005h.992v-2.044zm-3.336-.677v10.042h-1.23v-10.042zm6.986 2.755v7.287h-1.25v-7.287zm18.368 5.797v1.49h-1.428v-1.49zm3.432-8.552v10.042h-1.23v-10.042zm-42.704 3.582c-1.128 0-1.128 0-1.64.862-.513.86-.513.86-.513 2.078 0 1.169 0 1.169.512 1.948.513.78.513.78 1.627.78 1.224 0 1.224 0 1.678-.927.455-.926.455-.926.455-2.061 0-1.026 0-1.026-.328-1.668-.52-1.012-.52-1.012-1.791-1.012zm7.786 0c-1.128 0-1.128 0-1.64.862-.513.86-.513.86-.513 2.078 0 1.169 0 1.169.512 1.948.513.78.513.78 1.627.78 1.224 0 1.224 0 1.679-.927.454-.926.454-.926.454-2.061 0-1.026 0-1.026-.328-1.668-.52-1.012-.52-1.012-1.79-1.012zm18.067.041c-1.278 0-1.278 0-1.75 1.279-.252.683-.252.683-.252 1.736 0 .848 0 .848.252 1.442.479 1.135.479 1.135 1.75 1.135.862 0 .862 0 1.433-.721s.57-.721.57-2.157c0-.875 0-.875-.253-1.504-.478-1.21-.478-1.21-1.75-1.21zm21.67.007c-.847 0-.847 0-1.422.612s-.574.612-.608 1.555h4.067c-.075-.8-.075-.8-.348-1.278-.506-.889-.506-.889-1.689-.889zM145.07 347v6H140zm47.545 2.565v1.395h-1.25v-1.395zM196.28 377.108c1.243 0 1.243 0 2.112.954.868.953.868.953.868 2.724 0 2.392 0 2.392-1.251 3.418-.793.65-.793.65-1.846.65-.827 0-.827 0-1.388-.363-.328-.205-.328-.205-.731-.704v3.74h-1.23V377.32h1.196v.97l.15-.19c.306-.363.306-.363.656-.582.622-.41.622-.41 1.463-.41zM154.073 372v15H140v-8h6.032v-7zm94.261 5.094c1.654 0 1.654 0 2.386.971.458.615.458.615.444 1.326h-1.162l-.023-.163c-.063-.322-.063-.322-.271-.595-.424-.486-.424-.486-1.47-.486-.697 0-.697 0-1.056.267-.359.266-.359.266-.359.704 0 .478 0 .478.472.766.273.17.273.17.807.3l.813.199.234.058c1.133.29 1.133.29 1.543.564.718.471.718.471.718 1.483 0 .978 0 .978-.742 1.688-.741.711-.741.711-2.259.711-1.634 0-1.634 0-2.314-.741-.68-.742-.68-.742-.728-1.836h1.183l.02.17c.07.492.07.492.287.774.465.594.465.594 1.614.594.683 0 .683 0 1.203-.297s.52-.297.52-.92c0-.471 0-.471-.418-.717-.266-.15-.266-.15-1.052-.349l-.978-.246-.226-.059c-.766-.21-.766-.21-1.155-.46-.793-.5-.793-.5-.793-1.381 0-1.04 0-1.04.749-1.682.748-.643.748-.643 2.013-.643zm-7 0c1.654 0 1.654 0 2.386.971.458.615.458.615.444 1.326h-1.162l-.023-.163c-.063-.322-.063-.322-.271-.595-.424-.486-.424-.486-1.47-.486-.697 0-.697 0-1.056.267-.359.266-.359.266-.359.704 0 .478 0 .478.472.766.273.17.273.17.807.3l.813.199.234.058c1.133.29 1.133.29 1.543.564.718.471.718.471.718 1.483 0 .978 0 .978-.742 1.688-.741.711-.741.711-2.259.711-1.634 0-1.634 0-2.314-.741s-.68-.742-.728-1.836h1.183l.02.17c.07.492.07.492.287.774.465.594.465.594 1.614.594.683 0 .683 0 1.203-.297s.52-.297.52-.92c0-.471 0-.471-.418-.717-.266-.15-.266-.15-1.052-.349l-.978-.246-.226-.059c-.766-.21-.766-.21-1.155-.46-.793-.5-.793-.5-.793-1.381 0-1.04 0-1.04.749-1.682.748-.643.748-.643 2.013-.643zm-21.786 0c1.654 0 1.654 0 2.386.971.458.615.458.615.444 1.326h-1.162l-.023-.163c-.063-.322-.063-.322-.271-.595-.424-.486-.424-.486-1.47-.486-.697 0-.697 0-1.056.267-.359.266-.359.266-.359.704 0 .478 0 .478.472.766.273.17.273.17.806.3l.814.199.234.058c1.133.29 1.133.29 1.543.564.718.471.718.471.718 1.483 0 .978 0 .978-.742 1.688s-.741.711-2.259.711c-1.634 0-1.634 0-2.314-.741s-.68-.742-.728-1.836h1.183l.02.17c.07.492.07.492.287.774.465.594.465.594 1.614.594.683 0 .683 0 1.203-.297s.52-.297.52-.92c0-.471 0-.471-.418-.717-.266-.15-.266-.15-1.053-.349l-.977-.246-.227-.059c-.765-.21-.765-.21-1.154-.46-.793-.5-.793-.5-.793-1.381 0-1.04 0-1.04.749-1.682.748-.643.748-.643 2.013-.643zm-15.9-.02c1.414 0 1.414 0 2.392.943.978.944.978.944.978 2.776 0 1.77 0 1.77-.862 2.925-.861 1.156-.861 1.156-2.673 1.156-1.51 0-1.51 0-2.399-1.022s-.889-1.022-.889-2.745c0-1.846 0-1.846.937-2.94.936-1.093.936-1.093 2.515-1.093zm-25.587.048c.779 0 .779 0 1.51.366s.732.365 1.115.946c.369.554.369.554.492 1.292.11.506.11.506.11 1.614h-5.367l.013.242c.076.947.076.947.513 1.545.492.674.492.674 1.525.674.964 0 .964 0 1.538-.636.328-.37.328-.37.465-.855h1.21l-.028.165c-.074.338-.074.338-.29.734-.27.496-.27.496-.605.81-.56.547-.56.547-1.388.739-.444.109-.444.109-1.005.109-1.367 0-1.367 0-2.317-.995s-.95-.994-.95-2.785c0-1.764 0-1.764.957-2.865.957-1.1.957-1.1 2.502-1.1zm56.02 0c.78 0 .78 0 1.51.366.732.365.732.365 1.115.946.37.554.37.554.492 1.292.11.506.11.506.11 1.614h-5.367l.014.242c.075.947.075.947.513 1.545.492.674.492.674 1.524.674.964 0 .964 0 1.538-.636.328-.37.328-.37.465-.855h1.21l-.028.165c-.074.338-.074.338-.29.734-.27.496-.27.496-.605.81-.56.547-.56.547-1.387.739-.445.109-.445.109-1.005.109-1.368 0-1.368 0-2.318-.995s-.95-.994-.95-2.785c0-1.764 0-1.764.957-2.865.957-1.1.957-1.1 2.502-1.1zm-19.448-1.88v2.044h1.169v1.005h-1.17v4.778l.006.104c.032.297.032.297.255.409.143.075.143.075.478.075.089 0 .089 0 .191-.003.103-.004.103-.004.24-.018v.971l-.143.037c-.146.034-.146.034-.298.052-.23.027-.23.027-.496.027-.861 0-.861 0-1.169-.44-.307-.441-.307-.441-.307-1.146v-4.846h-.992v-1.005h.992v-2.044zm-2.953 1.88a.68.68 0 01.067.003l.097.008.232.023v1.299l-.105-.017-.097-.01c-.092-.007-.092-.007-.201-.007-.93 0-.93 0-1.429.598s-.499.598-.499 1.377v4.211h-1.23v-7.321h1.169v1.265l.05-.11c.173-.335.173-.335.654-.79.56-.53.56-.53 1.292-.53zm14.075 5.995v1.49h-1.429v-1.49zm3.431-8.552v10.042h-1.23v-10.042zm-45.82 2.72l1.407 5.77 1.43-5.77h1.38l1.436 5.736 1.497-5.735h1.23l-2.126 7.321h-1.278l-1.491-5.666-1.442 5.666h-1.278l-2.112-7.321zm-17.863 0l1.955 5.962 2.044-5.961h1.347l-2.762 7.321h-1.313l-2.7-7.321zm7.65.035v7.287h-1.252v-7.287zm30.46.827c-1.128 0-1.128 0-1.64.862-.513.86-.513.86-.513 2.078 0 1.169 0 1.169.513 1.948.512.78.512.78 1.627.78 1.223 0 1.223 0 1.678-.927.454-.926.454-.926.454-2.061 0-1.026 0-1.026-.328-1.668-.52-1.012-.52-1.012-1.79-1.012zm-7.615.041c-1.278 0-1.278 0-1.75 1.279-.253.683-.253.683-.253 1.736 0 .848 0 .848.253 1.442.479 1.135.479 1.135 1.75 1.135.861 0 .861 0 1.432-.721s.571-.721.571-2.157c0-.875 0-.875-.253-1.504-.478-1.21-.478-1.21-1.75-1.21zm38.008.007c-.848 0-.848 0-1.422.612s-.574.612-.608 1.555h4.067c-.075-.8-.075-.8-.349-1.278-.506-.889-.506-.889-1.688-.889zm-56.02 0c-.848 0-.848 0-1.423.612-.574.612-.574.612-.608 1.555h4.067c-.075-.8-.075-.8-.348-1.278-.506-.889-.506-.889-1.689-.889zM145.026 372v6H140zm28.126 2.565v1.395h-1.25v-1.395zM474 96v15h-14v-8h6v-7zm16.87 2.531v10.076h-1.107v-1.018l-.127.185c-.388.534-.388.534-.892.792-.588.3-.588.3-1.347.3-1.223 0-1.223 0-2.119-1.028s-.895-1.029-.895-2.738c0-1.6 0-1.6.817-2.772.817-1.172.817-1.172 2.334-1.172.841 0 .841 0 1.408.355.329.206.329.206.745.718v-3.698zm3.07 2.789v7.287h-1.252v-7.287zm3.581 5.797v1.49h-1.428v-1.49zm3.063-5.831l1.682 2.577 1.702-2.577 1.497.034-2.468 3.534 2.577 3.753h-1.572l-1.818-2.748-1.764 2.748h-1.559l2.577-3.753-2.447-3.568zm13.658-.164c1.477 0 1.477 0 2.01 1.066.287.574.287.574.287 1.545v4.874h-1.278v-5.086l-.006-.175c-.04-.59-.04-.59-.36-.83-.366-.273-.366-.273-.892-.273-.725 0-.725 0-1.248.485-.523.486-.523.486-.523 1.62v4.26h-1.25v-4.78l-.004-.204c-.022-.59-.022-.59-.174-.882-.28-.513-.28-.513-1.046-.513-.697 0-.697 0-1.268.54-.571.54-.571.54-.571 1.955v3.883h-1.23v-7.321h1.216v1.039l.144-.172c.353-.41.353-.41.65-.614.608-.417.608-.417 1.38-.417.875 0 .875 0 1.408.43.301.247.301.247.547.725.41-.588.41-.588.964-.872.554-.283.554-.283 1.244-.283zm5.373-2.557v10.042h-1.23V98.565zm-31.848 3.664c-.93 0-.93 0-1.508.711-.577.711-.577.711-.577 2.092 0 1.176 0 1.176.499 1.969.499.793.499.793 1.6.793.854 0 .854 0 1.404-.735s.55-.735.55-2.11c0-1.387 0-1.387-.567-2.053-.567-.667-.567-.667-1.401-.667zM465 96v6h-5zm28.94 2.565v1.395h-1.252v-1.395zM474 121v15h-14v-8h6v-7zm25.518 5.074c1.415 0 1.415 0 2.392.943.978.944.978.944.978 2.776 0 1.77 0 1.77-.862 2.925-.861 1.156-.861 1.156-2.672 1.156-1.511 0-1.511 0-2.4-1.022s-.889-1.022-.889-2.745c0-1.846 0-1.846.937-2.94.936-1.093.936-1.093 2.516-1.093zm10.8-2.543v10.076h-1.107v-1.018l-.126.185c-.389.534-.389.534-.893.792-.588.3-.588.3-1.346.3-1.224 0-1.224 0-2.12-1.028s-.895-1.029-.895-2.738c0-1.6 0-1.6.817-2.772.817-1.172.817-1.172 2.334-1.172.841 0 .841 0 1.409.355.328.206.328.206.745.718v-3.698zm15.764 2.59c.78 0 .78 0 1.51.367.732.365.732.365 1.115.946.37.554.37.554.492 1.292.11.506.11.506.11 1.614h-5.367l.014.242c.075.947.075.947.513 1.545.492.674.492.674 1.524.674.964 0 .964 0 1.538-.636.328-.37.328-.37.465-.855h1.21l-.028.165c-.074.338-.074.338-.29.734-.27.496-.27.496-.605.81-.56.547-.56.547-1.387.739-.445.109-.445.109-1.005.109-1.368 0-1.368 0-2.318-.995s-.95-.994-.95-2.785c0-1.764 0-1.764.957-2.865.957-1.1.957-1.1 2.502-1.1zm-12.715.165v4.86l.005.181c.025.439.025.439.173.735.328.656.328.656 1.224.656 1.285 0 1.285 0 1.75-1.148.252-.615.252-.615.252-1.688v-3.596h1.231v7.321h-1.162l.014-1.08-.1.162c-.21.312-.21.312-.495.542-.704.574-.704.574-1.71.574-1.565 0-1.565 0-2.132-1.046-.308-.56-.308-.56-.308-1.497v-4.976zm-20.91-.164c1.476 0 1.476 0 2.009 1.066.287.574.287.574.287 1.545v4.874h-1.278v-5.086l-.006-.175c-.04-.59-.04-.59-.36-.83-.366-.273-.366-.273-.892-.273-.725 0-.725 0-1.248.485-.523.486-.523.486-.523 1.62v4.26h-1.25v-4.78l-.004-.204c-.022-.59-.022-.59-.174-.882-.28-.513-.28-.513-1.046-.513-.698 0-.698 0-1.268.54-.571.54-.571.54-.571 1.955v3.883h-1.23v-7.321h1.216v1.039l.144-.172c.353-.41.353-.41.65-.614.608-.417.608-.417 1.38-.417.875 0 .875 0 1.408.43.301.247.301.247.547.725.41-.588.41-.588.964-.872.554-.283.554-.283 1.244-.283zm28.73-2.557v10.042h-1.23v-10.042zm11.355 8.552v1.49h-1.429v-1.49zm3.062-5.831l1.682 2.577 1.702-2.577 1.497.034-2.467 3.534 2.577 3.753h-1.573l-1.818-2.748-1.764 2.748h-1.558l2.577-3.753-2.447-3.568zm13.659-.164c1.476 0 1.476 0 2.01 1.066.287.574.287.574.287 1.545v4.874h-1.279v-5.086l-.005-.175c-.04-.59-.04-.59-.36-.83-.366-.273-.366-.273-.893-.273-.724 0-.724 0-1.247.485-.523.486-.523.486-.523 1.62v4.26h-1.251v-4.78l-.004-.204c-.021-.59-.021-.59-.174-.882-.28-.513-.28-.513-1.046-.513-.697 0-.697 0-1.268.54-.57.54-.57.54-.57 1.955v3.883h-1.231v-7.321h1.217v1.039l.143-.172c.354-.41.354-.41.65-.614.608-.417.608-.417 1.38-.417.876 0 .876 0 1.409.43.3.247.3.247.547.725.41-.588.41-.588.964-.872s.553-.283 1.244-.283zm5.373-2.557v10.042h-1.23v-10.042zm-55.153 3.582c-1.128 0-1.128 0-1.64.862-.513.86-.513.86-.513 2.078 0 1.169 0 1.169.513 1.948.512.78.512.78 1.627.78 1.223 0 1.223 0 1.678-.927.455-.926.455-.926.455-2.061 0-1.026 0-1.026-.329-1.668-.52-1.012-.52-1.012-1.79-1.012zm7.732.082c-.93 0-.93 0-1.507.711-.578.711-.578.711-.578 2.092 0 1.176 0 1.176.499 1.969.499.793.499.793 1.6.793.854 0 .854 0 1.404-.735s.55-.735.55-2.11c0-1.387 0-1.387-.567-2.053-.567-.667-.567-.667-1.401-.667zm18.792-.034c-.848 0-.848 0-1.422.612s-.574.612-.608 1.555h4.067c-.075-.8-.075-.8-.349-1.278-.506-.889-.506-.889-1.688-.889zM465 121v6h-5z"/>
    <g stroke="#bbb">
      <path d="M24 64v14h12M49 89v14h12M416 63v15h12"/>
      <path d="M416 63v90h12"/>
      <path d="M416 63v115h12M441 88v15h12"/>
      <path d="M441 88v40h12M49 138v15h12M74 163v15h12M99 188v15h12M124 214v15h12M49 263v15h12"/>
      <path d="M49 263v166h12M74 288v15h12M74 439v15h12M99 313v15h12"/>
      <path d="M99 313v91h12M124 339v15h12"/>
      <path d="M124 339v40h12M99 464v15h12"/>
      <path d="M99 464v40h12M24 63v65h12"/>
      <path d="M24 63v190h12"/>
      <path d="M24 63v465h12"/>
      <path d="M24 63v490h12"/>
    </g>
    <text fill="#000" font-family="Helvetica-Bold, Helvetica" font-size="15" font-weight="bold">
      <tspan x="15" y="30">Admin Theme for Viewports</tspan>
    </text>
    <text fill="#000" font-family="Helvetica-Bold, Helvetica" font-size="15" font-weight="bold">
      <tspan x="408" y="30">Admin Theme Module</tspan>
    </text>
    <text fill="#d0021b" font-family="Helvetica" font-size="14">
      <tspan x="281" y="179">Optional</tspan>
    </text>
    <path stroke="#d0021b" d="M219 117h49v126h-19M233 24.5h157"/>
    <g transform="translate(280 15)">
      <rect width="57" height="22" fill="#d0021b" rx="11"/>
      <g fill="#fff" font-family="Helvetica" font-size="14">
        <text>
          <tspan x="8" y="16">Step</tspan>
        </text>
        <text>
          <tspan x="41" y="16">1</tspan>
        </text>
      </g>
    </g>
    <g transform="translate(158 75)">
      <rect width="57" height="22" fill="#d0021b" rx="11"/>
      <g fill="#fff" font-family="Helvetica" font-size="14">
        <text>
          <tspan x="8" y="16">Step</tspan>
        </text>
        <text>
          <tspan x="41" y="16">2</tspan>
        </text>
      </g>
    </g>
    <g transform="translate(280 355)">
      <rect width="57" height="22" fill="#d0021b" rx="11"/>
      <g fill="#fff" font-family="Helvetica" font-size="14">
        <text>
          <tspan x="8" y="16">Step</tspan>
        </text>
        <text>
          <tspan x="41" y="16">3</tspan>
        </text>
      </g>
    </g>
    <g transform="translate(280 191)">
      <rect width="57" height="22" fill="#d0021b" rx="11"/>
      <g fill="#fff" font-family="Helvetica" font-size="14">
        <text>
          <tspan x="8" y="16">Step</tspan>
        </text>
        <text>
          <tspan x="41" y="16">5</tspan>
        </text>
      </g>
    </g>
    <g transform="translate(280 441)">
      <rect width="57" height="22" fill="#d0021b" rx="11"/>
      <g fill="#fff" font-family="Helvetica" font-size="14">
        <text>
          <tspan x="8" y="16">Step</tspan>
        </text>
        <text>
          <tspan x="41" y="16">4</tspan>
        </text>
      </g>
    </g>
  </g>
</svg>
