<svg xmlns="http://www.w3.org/2000/svg" width="700" height="248" viewBox="0 0 700 248">
  <g fill="none" fill-rule="evenodd">
    <rect width="700" height="248" fill="#FFF"/>
    <rect width="699" height="247" x=".5" y=".5" stroke="#999"/>
    <text fill="#000" font-family="Helvetica-Bold, Helvetica" font-size="15" font-weight="bold">
      <tspan x="160.833" y="97">Layout</tspan>
    </text>
    <text fill="#000" font-family="Helvetica-Bold, Helvetica" font-size="15" font-weight="bold">
      <tspan x="36.665" y="152">Customn Layout Update</tspan>
    </text>
    <text fill="#000" font-family="Helvetica-Bold, Helvetica" font-size="15" font-weight="bold">
      <tspan x="126.643" y="207">New Theme</tspan>
    </text>
    <text fill="#000" font-family="Helvetica" font-size="18">
      <tspan x="13" y="28">Design</tspan>
    </text>
    <g transform="translate(232 75)">
      <rect width="179" height="32" x=".5" y=".5" fill="#FFF" stroke="#979797"/>
      <text fill="#333" font-family="Helvetica" font-size="14" letter-spacing=".2">
        <tspan x="12" y="22">Page -- Full Width</tspan>
      </text>
      <g transform="translate(178)">
        <rect width="34" height="32" x=".5" y=".5" fill="#E3E3E3" stroke="#979797"/>
        <polygon fill="#524A42" points="17 14 21 19 13 19" transform="rotate(-180 17 16.5)"/>
      </g>
    </g> 
    <g transform="translate(232 130)">
      <rect width="104" height="32" x=".5" y=".5" fill="#FFF" stroke="#979797"/>
      <text fill="#333" font-family="Helvetica" font-size="14" letter-spacing=".2">
        <tspan x="9.976" y="22">No Update</tspan>
      </text>
      <g transform="translate(103)">
        <rect width="34" height="32" x=".5" y=".5" fill="#E3E3E3" stroke="#979797"/>
        <polygon fill="#524A42" points="17 14 21 19 13 19" transform="rotate(-180 17 16.5)"/>
      </g>
    </g>
    <g transform="translate(232 185)">
      <rect width="145" height="32" x=".5" y=".5" fill="#FFF" stroke="#979797"/>
      <text fill="#333" font-family="Helvetica" font-size="14" letter-spacing=".2">
        <tspan x="12" y="22">Your Theme </tspan>
      </text>
      <g transform="translate(144)">
        <rect width="34" height="32" x=".5" y=".5" fill="#E3E3E3" stroke="#979797"/>
        <polygon fill="#524A42" points="17 14 21 19 13 19" transform="rotate(-180 17 16.5)"/>
      </g>
    </g>
    <g transform="translate(378 134)">
      <circle cx="11" cy="11" r="11" fill="#514943"/>
      <text fill="#FFF" font-family="Helvetica-Bold, Helvetica" font-size="18" font-weight="bold" letter-spacing=".257">
        <tspan x="5" y="18">?</tspan>
      </text>
    </g>
    <g stroke="#3C3C3C" transform="translate(664 14)">
      <circle cx="9" cy="9" r="9"/>
      <polyline points="4 11 9 7 13 11"/>
    </g>
    <path fill="#BD3C39" fill-rule="nonzero" d="M444.656809,196.459796 L445.631836,198.206027 L444.75872,198.69354 L436.069,203.544 L436.287378,203.545303 L436.281077,205.545293 L436.065,205.544 L444.721686,210.450331 L445.591712,210.943335 L444.605704,212.683389 L443.735677,212.190384 L431.756999,205.402617 L430.210285,204.526165 L431.76249,203.659475 L443.783694,196.947309 L444.656809,196.459796 Z M448.271557,203.525054 L448.298591,205.524871 L447.298682,205.538388 L446.298225,205.550912 L446.298225,205.550912 L445.29481,205.561476 L444.294855,205.571013 L444.275781,203.571104 L446.275174,203.551045 L447.271648,203.538571 L448.271557,203.525054 Z M438.287368,203.551603 L439.287363,203.554753 L441.287353,203.561054 L442.287348,203.564204 L442.281048,205.564194 L441.281053,205.561044 L439.281063,205.554744 L438.281067,205.551593 L438.287368,203.551603 Z M454.26362,203.394869 L454.315425,205.394198 L453.315761,205.420101 L452.315502,205.444964 L452.315502,205.444964 L451.312178,205.467794 L450.312413,205.489499 L450.269005,203.48997 L451.268769,203.468265 L452.267898,203.44553 L452.267898,203.44553 L453.263955,203.420772 L454.26362,203.394869 Z M460.246819,203.187983 L460.324752,205.186464 L459.325512,205.225431 L458.325472,205.263313 L458.325472,205.263313 L457.32225,205.299086 L456.322846,205.333617 L456.253783,203.33481 L457.253187,203.300278 L458.251976,203.264664 L458.251976,203.264664 L459.247578,203.22695 L460.246819,203.187983 Z M466.228505,202.899822 L466.334073,204.897034 L465.335467,204.949818 L464.335807,205.001476 L464.335807,205.001476 L463.332842,205.050942 L462.333999,205.099034 L462.237814,203.101348 L463.236657,203.053256 L464.234934,203.004021 L464.234934,203.004021 L465.229899,202.952607 L466.228505,202.899822 Z M472.208372,202.525493 L472.343216,204.520943 L471.345491,204.588364 L470.346943,204.654587 L470.346943,204.654587 L469.344962,204.718534 L468.346914,204.780988 L468.222006,202.784892 L469.220054,202.722438 L470.217071,202.658809 L470.217071,202.658809 L471.210647,202.592915 L472.208372,202.525493 Z M478.172753,202.060749 L478.338589,204.053862 L477.342033,204.13678 L476.344564,204.218441 L476.344564,204.218441 L475.343523,204.297731 L474.346542,204.375381 L474.191242,202.381419 L475.188223,202.30377 L476.184,202.224896 L476.184,202.224896 L477.176197,202.143668 L478.172753,202.060749 Z M484.133179,201.499074 L484.331945,203.489172 L483.336896,203.588556 L482.341114,203.686592 L482.341114,203.686592 L481.341611,203.78216 L480.346019,203.875949 L480.158439,201.884765 L481.154031,201.790976 L482.147945,201.695942 L482.147945,201.695942 L483.13813,201.598457 L484.133179,201.499074 Z M490.081164,200.834934 L490.314932,202.821225 L489.321786,202.938109 L488.327564,203.053603 L488.327564,203.053603 L487.32946,203.16652 L486.335632,203.277454 L486.113764,201.289798 L487.107592,201.178864 L488.09975,201.06662 L488.09975,201.06662 L489.088018,200.951818 L490.081164,200.834934 Z M496.002125,200.063514 L496.273069,202.045076 L495.282288,202.180548 L494.290573,202.314526 L494.290573,202.314526 L493.294807,202.445812 L492.30318,202.574951 L492.044903,200.591698 L493.036529,200.462559 L494.025967,200.332107 L494.025967,200.332107 L495.011344,200.198986 L496.002125,200.063514 Z M501.922195,199.173802 L502.232872,201.149525 L501.245011,201.304863 L500.25598,201.458645 L500.25598,201.458645 L499.262712,201.609612 L498.273812,201.758197 L497.976642,199.780398 L498.965542,199.631813 L499.952061,199.481872 L499.952061,199.481872 L500.934334,199.329141 L501.922195,199.173802 Z M507.818822,198.160492 L508.171886,200.129082 L507.187591,200.305613 L506.201643,200.480568 L506.201643,200.480568 L505.211257,200.652574 L504.225696,200.821894 L503.887056,198.850772 L504.872617,198.681452 L505.855796,198.510698 L505.855796,198.510698 L506.834527,198.337023 L507.818822,198.160492 Z M513.686761,197.015544 L514.085081,198.975478 L513.105114,199.174638 L512.122055,199.372403 L512.122055,199.372403 L511.134331,199.567067 L510.152828,199.758512 L509.769937,197.795506 L510.75144,197.60406 L511.731453,197.410916 L511.731453,197.410916 L512.706794,197.214704 L513.686761,197.015544 Z M519.514583,195.731597 L519.961214,197.681089 L518.986468,197.904405 L518.009482,198.12605 L518.009482,198.12605 L517.027613,198.344449 L516.051016,198.559524 L515.620865,196.606329 L516.597462,196.391254 L517.571095,196.174688 L517.571095,196.174688 L518.539836,195.954912 L519.514583,195.731597 Z M525.321314,194.293086 L525.819775,196.229975 L524.851331,196.479205 L523.880581,196.726663 L523.880581,196.726663 L522.904704,196.970709 L521.934034,197.211124 L521.453203,195.269784 L522.423873,195.029369 L523.390939,194.787526 L523.390939,194.787526 L524.35287,194.542317 L525.321314,194.293086 Z M531.077086,192.69474 L531.630956,194.616518 L530.670067,194.893453 L529.705616,195.168837 L529.705616,195.168837 L528.735763,195.440625 L527.772203,195.708118 L527.237218,193.780998 L528.200778,193.513505 L529.161192,193.244363 L529.161192,193.244363 L530.116197,192.971675 L531.077086,192.69474 Z M536.777585,190.92459 L537.390721,192.828288 L536.438872,193.134856 L535.483345,193.4398 L535.483345,193.4398 L534.522136,193.740959 L533.567094,194.037429 L532.974155,192.127344 L533.929197,191.830874 L534.88031,191.532879 L534.88031,191.532879 L535.825736,191.231158 L536.777585,190.92459 Z M542.418547,188.968564 L543.095479,190.850521 L542.154501,191.188987 C541.723521,191.344009 541.289203,191.498234 540.851529,191.65167 L540.551301,191.756617 L540.551301,191.756617 L540.252301,191.860536 L539.307433,192.187986 L538.652533,190.298249 L539.597402,189.970799 C539.794618,189.902453 539.991043,189.833988 540.189887,189.764283 L540.836237,189.536234 L540.836237,189.536234 L541.477568,189.30703 L542.418547,188.968564 Z M547.981714,186.804392 L548.732233,188.658232 L547.805314,189.033491 L546.875165,189.406249 L546.875165,189.406249 L545.933192,189.776176 L545.001151,190.138528 L544.276447,188.274446 L545.208488,187.912094 L546.137567,187.547231 L546.137567,187.547231 L547.054794,187.179652 L547.981714,186.804392 Z M553.327017,184.449342 L554.162453,186.266495 L553.253876,186.684213 L552.34095,187.099248 L552.34095,187.099248 L551.414654,187.511066 L550.49923,187.913556 L549.69425,186.082707 L550.609674,185.680217 L551.520755,185.275165 L551.520755,185.275165 L552.418441,184.867059 L553.327017,184.449342 Z M558.658109,181.751348 L559.597186,183.517172 L558.714274,183.986711 L557.825061,184.453653 L557.825061,184.453653 L556.920486,184.916873 L556.028115,185.368175 L555.12551,183.583433 L556.017881,183.132131 L556.904226,182.678248 L556.904226,182.678248 L557.775197,182.220887 L558.658109,181.751348 Z M563.783231,178.710368 L564.847071,180.403957 L564.000276,180.935877 C563.623934,181.172279 563.24229,181.407384 562.855346,181.641194 L562.270953,181.990937 L561.410732,182.500857 L560.390891,180.780413 L561.251113,180.270493 C561.633568,180.043782 562.01073,179.815885 562.382601,179.586802 L562.936437,179.242288 L563.783231,178.710368 Z M568.614465,175.260086 L569.828763,176.849262 L569.034175,177.456411 C568.679989,177.727046 568.319541,177.996133 567.952831,178.263672 L567.398071,178.663822 L566.583909,179.24446 L565.422632,177.616138 L566.236793,177.035499 C566.597922,176.777952 566.952828,176.519025 567.301514,176.258722 L567.819877,175.867235 L568.614465,175.260086 Z M573.018106,171.32806 L574.411107,172.763172 L573.693551,173.459673 C573.37217,173.771623 573.043316,174.081705 572.706991,174.389921 L572.196902,174.850847 L571.450309,175.516128 L570.119746,174.022942 L570.866339,173.357661 C571.196085,173.063829 571.518474,172.768386 571.83351,172.471338 L572.30055,172.02456 L573.018106,171.32806 Z M576.770694,166.893028 L578.363235,168.102909 L577.758295,168.899179 C577.485418,169.258362 577.203652,169.615315 576.913004,169.970039 L576.47037,170.500454 L575.822837,171.262492 L574.298762,169.967426 L574.946294,169.205389 C575.230196,168.871284 575.505488,168.535309 575.772175,168.197465 L576.165753,167.689299 L576.770694,166.893028 Z M579.703226,161.829159 L581.496299,162.715098 L581.05333,163.611635 C580.851487,164.020149 580.639336,164.42612 580.416887,164.829543 L580.07549,165.432766 L579.573386,166.297574 L577.843771,165.293367 L578.345875,164.428559 C578.563707,164.053371 578.771777,163.676035 578.970094,163.296546 L579.260256,162.725696 L579.703226,161.829159 Z M581.489954,156.323255 L583.432211,156.80037 L583.193654,157.771498 C583.083838,158.218543 582.962905,158.662966 582.830862,159.104751 L582.624465,159.765449 L582.314536,160.716209 L580.413016,160.09635 L580.722945,159.145591 C580.85588,158.737792 580.978478,158.327613 581.090744,157.915041 L581.251397,157.294384 L581.489954,156.323255 Z M582.021707,150.56366 L584.021245,150.606612 L583.999769,151.606382 C583.98982,152.069558 583.969062,152.53031 583.937492,152.988626 L583.882028,153.674271 L583.789456,154.669977 L581.798044,154.484834 L581.890616,153.489127 C581.930059,153.064874 581.959448,152.638174 581.978779,152.209015 L582.000231,151.56343 L582.021707,150.56366 Z"/>
    <text fill="#BD3C39" font-family="Helvetica" font-size="14">
      <tspan x="508" y="101">For testing on pages, make </tspan> <tspan x="508" y="119">sure your theme is selected.</tspan> <tspan x="508" y="137">It can be easy to forget!</tspan>
    </text>
  </g>
</svg>
